<?xml version="1.0" encoding="UTF-8"?><svg xmlns="http://www.w3.org/2000/svg" xmlns:xlink="http://www.w3.org/1999/xlink" fill="#1a323d" height="476" preserveAspectRatio="xMidYMid meet" version="1" viewBox="18.0 18.0 476.0 476.0" width="476" zoomAndPan="magnify"><g id="change1_1"><circle cx="48.004" cy="48" fill="#00c2cb" r="11.772"/></g><g id="change1_2"><circle cx="48" cy="464.002" fill="#00c2cb" r="11.772"/></g><g id="change1_3"><circle cx="464" cy="464.002" fill="#00c2cb" r="11.772"/></g><g id="change1_4"><circle cx="464" cy="48" fill="#00c2cb" r="11.772"/></g><g id="change1_5"><path d="M397.421,114.58l21.215-21.215c-41.622-41.621-99.121-67.363-162.632-67.363 c-63.513,0-121.014,25.744-162.636,67.367l21.213,21.213L397.421,114.58z" fill="#00c2cb"/></g><g id="change2_1"><path d="M418.636,93.365l-21.215,21.215l-282.84,0.001L93.368,93.369C51.747,134.99,26.004,192.49,26.004,256.002 c0,63.512,25.743,121.012,67.365,162.634l21.214-21.214l282.84-0.001l21.216,21.216c41.622-41.622,67.365-99.122,67.365-162.634 C486.004,192.488,460.259,134.987,418.636,93.365z" fill="#d78e0c"/></g><g id="change1_6"><path d="M114.583,397.422l-21.214,21.214c41.622,41.622,99.122,67.366,162.635,67.366 c63.513,0,121.013-25.744,162.635-67.366l-21.216-21.216L114.583,397.422z" fill="#00c2cb"/></g><g id="change3_1"><circle cx="256.004" cy="256.002" fill="#ecab2c" r="200"/></g><g id="change4_1"><circle cx="256.004" cy="256.002" fill="#ffc864" r="179.996"/></g><g id="change3_2"><path d="M392.008 334.478L392.008 177.434 256.004 98.913 120 177.434 120 334.478 256.004 413z" fill="#ecab2c"/></g><g id="change5_1"><path d="M18.004,256.002c0,63.572,24.756,123.339,69.708,168.292c4.815,4.815,9.81,9.383,14.951,13.729L84.687,456H70.624 c-3.302-9.311-12.195-16-22.624-16c-13.234,0-24,10.766-24,24s10.766,24,24,24c10.429,0,19.322-6.689,22.624-16H88 c2.122,0,4.157-0.843,5.657-2.343l21.647-21.647c40.564,29.857,89.39,45.992,140.7,45.992c51.308,0,100.132-16.135,140.695-45.989 l21.644,21.644c1.5,1.5,3.535,2.343,5.657,2.343h17.376c3.302,9.311,12.195,16,22.624,16c13.234,0,24-10.766,24-24s-10.766-24-24-24 c-10.429,0-19.322,6.689-22.624,16h-14.063l-17.974-17.974c5.143-4.347,10.139-8.917,14.956-13.733 c44.952-44.953,69.708-104.719,69.708-168.292S469.248,132.663,424.295,87.71c-4.817-4.817-9.814-9.387-14.958-13.735L427.313,56 h14.063c3.302,9.311,12.195,16,22.624,16c13.234,0,24-10.766,24-24s-10.766-24-24-24c-10.429,0-19.322,6.689-22.624,16H424 c-2.122,0-4.157,0.843-5.657,2.343L396.697,63.99c-40.563-29.853-89.386-45.988-140.693-45.988 c-51.309,0-100.134,16.135-140.698,45.991l-21.65-21.65C92.157,40.843,90.122,40,88,40H70.624C67.322,30.689,58.429,24,48,24 c-13.234,0-24,10.766-24,24s10.766,24,24,24c10.429,0,19.322-6.689,22.624-16h14.063l17.979,17.979 c-5.142,4.346-10.138,8.916-14.953,13.731C42.76,132.663,18.004,192.43,18.004,256.002z M48,472c-4.411,0-8-3.589-8-8s3.589-8,8-8 s8,3.589,8,8S52.411,472,48,472z M464,456c4.411,0,8,3.589,8,8s-3.589,8-8,8s-8-3.589-8-8S459.589,456,464,456z M464,40 c4.411,0,8,3.589,8,8s-3.589,8-8,8s-8-3.589-8-8S459.589,40,464,40z M48,56c-4.411,0-8-3.589-8-8s3.589-8,8-8s8,3.589,8,8 S52.411,56,48,56z M93.48,104.794l9.975,9.975c-34.391,37.12-55.451,86.76-55.451,141.233c0,54.474,21.059,104.114,55.451,141.234 l-9.975,9.975c-38.407-41.209-59.476-94.586-59.476-151.209C34.004,199.379,55.073,146.003,93.48,104.794z M139.043,110.357 C138.38,112.114,138,114.011,138,116c0,8.837,7.163,16,16,16s16-7.163,16-16s-7.163-16-16-16c-0.844,0-1.667,0.085-2.476,0.211 l-3.137-3.137c30.716-20.866,67.766-33.072,107.616-33.072c39.848,0,76.896,12.206,107.612,33.069l-3.14,3.14 C359.667,100.085,358.844,100,358,100c-8.837,0-16,7.163-16,16s7.163,16,16,16s16-7.163,16-16c0-1.989-0.38-3.886-1.043-5.643 l3.639-3.639c43.525,35.228,71.408,89.057,71.408,149.284c0,60.226-27.882,114.054-71.406,149.283l-3.641-3.641 C373.62,399.886,374,397.989,374,396c0-8.837-7.163-16-16-16s-16,7.163-16,16s7.163,16,16,16c0.844,0,1.667-0.085,2.476-0.211 l3.142,3.142c-30.716,20.865-67.765,33.071-107.614,33.071c-39.851,0-76.902-12.207-107.618-33.074l3.139-3.139 c0.809,0.126,1.632,0.211,2.476,0.211c8.837,0,16-7.163,16-16s-7.163-16-16-16s-16,7.163-16,16c0,1.989,0.38,3.886,1.043,5.643 l-3.638,3.638c-43.522-35.228-71.402-89.055-71.402-149.279c0-60.225,27.881-114.053,71.404-149.281L139.043,110.357z M104.793,418.524l9.975-9.975c3.009,2.788,6.094,5.496,9.264,8.105l-10.013,10.013 C110.881,424.047,107.805,421.331,104.793,418.524z M256.004,478.002c-47.021,0-91.803-14.534-129.24-41.453l10.129-10.129 c33.762,23.669,74.84,37.581,119.111,37.581c44.269,0,85.345-13.911,119.106-37.578l10.129,10.129 C347.803,463.47,303.023,478.002,256.004,478.002z M387.971,416.658c3.171-2.61,6.257-5.319,9.267-8.108l9.975,9.975 c-3.013,2.808-6.09,5.525-9.229,8.146L387.971,416.658z M418.527,407.211l-9.975-9.975c34.392-37.12,55.452-86.76,55.452-141.234 c0-54.475-21.061-104.117-55.454-141.237l9.975-9.975c38.409,41.21,59.479,94.588,59.479,151.212 C478.004,312.625,456.935,366.002,418.527,407.211z M407.211,93.477l-9.975,9.975c-3.01-2.789-6.096-5.498-9.267-8.107 l10.013-10.013C401.122,87.952,404.198,90.669,407.211,93.477z M256.004,34.002c47.018,0,91.797,14.532,129.233,41.448 l-10.129,10.129c-33.761-23.666-74.836-37.577-119.104-37.577c-44.27,0-85.347,13.912-119.109,37.58l-10.129-10.129 C164.203,48.535,208.984,34.002,256.004,34.002z M124.034,95.348c-3.171,2.609-6.256,5.318-9.266,8.107l-9.975-9.975 c3.013-2.808,6.089-5.524,9.228-8.145L124.034,95.348z" fill="inherit"/></g><g id="change5_2"><path d="M112,177.435v157.043c0,2.858,1.525,5.499,4,6.928l136.004,78.522c1.238,0.714,2.619,1.072,4,1.072s2.762-0.357,4-1.072 l136.004-78.522c2.475-1.429,4-4.07,4-6.928V177.435c0-2.858-1.525-5.499-4-6.928L260.004,91.984c-2.476-1.429-5.524-1.429-8,0 L116,170.506C113.525,171.936,112,174.577,112,177.435z M128,182.053l128.004-73.903l128.004,73.903v147.806l-128.004,73.903 L128,329.859V182.053z" fill="inherit"/></g><g id="change5_3"><path d="M200.043,161.957c-0.015,0-0.03,0-0.044,0c-4.398,0-7.975,3.553-7.999,7.957l-0.673,124.05l-31.685-102.372 c-1.169-3.779-4.922-6.139-8.838-5.545c-3.912,0.592-6.804,3.954-6.804,7.91v128c0,4.418,3.582,8,8,8s8-3.582,8-8v-75.096 l31.403,101.461c1.049,3.389,4.179,5.636,7.636,5.635c0.39,0,0.785-0.028,1.181-0.087c3.905-0.58,6.804-3.921,6.825-7.87L208,170 C208.024,165.582,204.461,161.98,200.043,161.957z" fill="inherit"/></g><g id="change5_4"><path d="M310.211,175.154L330,185.81v144.145c0,4.418,3.582,8,8,8s8-3.582,8-8V194.425L358.211,201 c1.207,0.649,2.505,0.958,3.786,0.958c2.848,0,5.605-1.525,7.051-4.208c2.095-3.89,0.639-8.742-3.251-10.837l-23.177-12.48 c-0.529-0.375-1.105-0.686-1.718-0.925l-23.105-12.441c-3.891-2.094-8.742-0.638-10.837,3.251 C304.865,168.208,306.321,173.06,310.211,175.154z" fill="inherit"/></g><g id="change5_5"><path d="M280,263.955c4.418,0,8-3.582,8-8s-3.582-8-8-8h-40v-89.527l18.27-11.241L283.925,161c3.892,2.093,8.742,0.639,10.837-3.251 c2.095-3.89,0.639-8.742-3.251-10.837l-29.714-16c-2.512-1.353-5.556-1.265-7.985,0.23l-26.004,16 c-2.366,1.456-3.808,4.035-3.808,6.813v208c0,4.418,3.582,8,8,8s8-3.582,8-8v-98.002H280z" fill="inherit"/></g></svg>