<?xml version="1.0" encoding="UTF-8"?><svg xmlns="http://www.w3.org/2000/svg" xmlns:xlink="http://www.w3.org/1999/xlink" fill="#000000" height="500.6" id="Illustrations" preserveAspectRatio="xMidYMid meet" version="1.1" viewBox="-9.2 -0.6 489.7 500.6" width="489.7" x="0" xml:space="preserve" y="0" zoomAndPan="magnify"><g id="change1_1"><path d="M451.9,376.5c-22.5,53.6-69.2,76.5-98.1,74.2c-28.9-2.3-37.9-15-48.5-13.6c-10.6,1.4-69.6,13.7-69.6,13.7l0,0v0 c0,0-58.9-12.3-69.6-13.7c-10.7-1.4-19.6,11.2-48.5,13.6C88.6,453,41.9,430,19.4,376.5c-23.1-55.1-28.6-98,0.2-162.3 c29.7-66.4,81.9-97.7,113.2-128.3c25.9-25.3,77.9-29.3,96.2-29.9c4.1-0.1,6.6-0.1,6.6-0.1v0l0,0c0,0,2.4,0,6.6,0.1 c18.3,0.6,70.4,4.5,96.2,29.9c31.3,30.6,83.5,61.9,113.2,128.3C480.5,278.5,475,321.4,451.9,376.5z" fill="#02006d"/></g><g id="change2_1"><path d="M235.6,455.1v-16.4c-3.4,1.3-6.2,3.9-7.6,7.3l-0.2,0.4c-0.2-2-0.6-4-1.1-5.9c-0.5-1.7-1-4.9-2.3-6.3 c-1.8-1.9-4.3,3.2-5.5,5.9c-0.8-1.5-1.8-2.9-2.8-4.2c-1.4-1.8-3.3-4-5.3-5.1c-0.6-0.5-1.2-0.8-1.9-0.8c-0.4,0-0.8,0.4-0.7,0.7 c0.4,2.7,0.7,5.2,0.7,7.9c-0.4-3.7-1.5-7.6-3.7-10.3c-0.3-0.4-0.6-0.8-0.9-1.2c-2.9-3.3-3.8,0.8-4.1,4.4c-0.9-2.9-4-6.9-7.2-10.5 c-1.8-2.9-3.6-5.9-5.8-8.4c-1.2-1.3-2.6-1.5-3,0.6c-0.3,1.7,0.1,3.9,0.3,5.6c0.2,1.5,0.4,2.9,0.8,4.4c0,0,0,0,0-0.1 c-1.4-2.1-2.8-4.2-4.6-6c-2.1-2.2-4.2-3.9-5.5-6.7c-1.1-2.4-1.9-4.9-2.9-7.3c-0.3-0.8-0.7-2.5-1.8-2.6c-1.2-0.1-1.8,1.8-2,2.7 c-1.1,3.8-1.4,8.2-1,12.3c-5.9-9.3-6.4-18-6.4-18c2.7-11.4,6.8-18.3,10.8-22.5c4.6-4,10-6.4,16.6-4.4c0.5,0.2,1-0.5,0.7-1 c-2.8-4.8-9.6-5.6-15.2-4.2c0.6-0.5,1.1-1,1.6-1.6c0.7-0.9,2.7-3.2,2-4.5c-0.7-1.3-4.9-1.1-6.1-1.2c-2.4-0.2-5.1-0.4-7.5-0.1 c0,0-0.1-0.1-0.1-0.1c-0.4-0.4-0.8-0.8-1.2-1.2c-0.2-0.3-0.5-0.5-0.7-0.7c-2.1-1.9-4.6-3.5-7.2-4.1c-1.6-0.4-3.6-0.4-5.4,0 c0.2-6.5,1.1-12.4,2.4-17.8c0.9-3.6,2.1-7,3.4-10.2c8.9-21.1,26-31.8,36.6-36.7c5.4-2.5,9.2-3.5,9.2-3.5c-0.4,0-0.8,0-1.2,0 c-6.2-0.2-13.4,1.7-20.5,4.5c-5.2,2.1-10.4,4.6-15,7.2c-7.9,2.5-16.4,7.9-21.5,14.5c-0.4,0.5,0.1,1.3,0.8,1c0.3-0.2,0.6-0.3,0.8-0.5 c0.1,0,0.2,0.1,0.3,0c2.6-0.3,5.1-0.8,7.7-1.4c-10.7,6.2-19.7,15.8-27.3,25.5c-0.7,0.9-0.7,2.5,0.5,3.1c0.4,0.2,0.9,0.4,1.3,0.5 c0,0,0,0,0,0l0.1,0c1.9,0.4,3.7-0.4,5.5-1.3c-1.3,1.5-2.4,3.3-3.2,4.7c-0.2,0.3-0.3,0.6-0.5,0.9c-2,3-3.3,6.4-4.1,9.7 c-0.2,0.9-0.5,1.7-0.7,2.6c-1.1,4.8-1,9.7-0.8,14.6c0.1,1.7,0.1,3.6,0.3,5.4c-3.3,10.5-5,21.6-2.7,32.6c0.5,2.5,1.1,5.1,2.6,7.2 c0.6,0.9,2,2.5,3.3,2.1c1.2-0.4,1.7-2.7,2-4.4c0.5,1.8,1,3.5,1.8,5.2c1.4,3.2,2.9,6.1,3.7,9.5c0.7,3.1,1.1,6.1,2.5,9.1 c0.6,1.3,2.6,0.9,2.9-0.4c0.6-2.4,1-4.9,1.3-7.4c3.9,5.3,9.9,12.5,17.3,17.6c5.6,3.8,9.7,8.1,12.7,11.7c4,4.8,5.8,8.5,5.8,8.5 l-0.5-5.8l-0.1-1.4c0.2,0.6,0.4,1.1,0.8,1.7c3.2,5.7,12.7,11.3,12.7,11.3c1.1,5.5,12.8,8.5,29.9,14.1c15.1,5,16.3,12.1,16.4,13.7 l0-36.1V455.1z M152.4,353.5c-0.4,0-0.8,0.1-1.3,0.2c0,0-0.1,0-0.1,0c-0.2,0-0.3,0.1-0.4,0.1c-0.5,0.1-1,0.3-1.5,0.5 c0-0.1,0-0.2,0-0.3C150.2,353.6,151.3,353.5,152.4,353.5z M348,374.7c0.2-1.9,0.3-3.7,0.3-5.4c0.2-4.9,0.3-9.8-0.8-14.6 c-0.2-0.9-0.4-1.7-0.7-2.6c-0.8-3.3-2.1-6.6-4.1-9.7c-0.2-0.3-0.3-0.6-0.5-0.9c-0.9-1.4-1.9-3.2-3.2-4.7c1.8,0.9,3.6,1.7,5.5,1.3 l0.1,0c0,0,0,0,0,0c0.4-0.1,0.9-0.2,1.3-0.5c1.2-0.6,1.2-2.2,0.5-3.1c-7.6-9.6-16.6-19.3-27.3-25.5c2.6,0.5,5.1,1.1,7.7,1.4 c0.1,0,0.2,0,0.3,0c0.3,0.2,0.6,0.3,0.8,0.5c0.6,0.3,1.2-0.5,0.8-1c-5.1-6.6-13.6-11.9-21.5-14.5c-4.6-2.5-9.8-5.1-15-7.2 c-7.1-2.8-14.3-4.7-20.5-4.5c-0.4,0-0.8,0-1.2,0c0,0,3.7,1,9.2,3.5c10.6,4.9,27.6,15.6,36.6,36.7c1.3,3.2,2.5,6.5,3.4,10.2 c1.4,5.4,2.2,11.3,2.4,17.8c-1.9-0.4-3.9-0.4-5.4,0c-2.6,0.6-5.1,2.2-7.2,4.1c-0.3,0.2-0.5,0.4-0.7,0.7c-0.4,0.4-0.8,0.8-1.2,1.2 c0,0-0.1,0.1-0.1,0.1c-2.5-0.3-5.1-0.1-7.5,0.1c-1.2,0.1-5.4-0.1-6.1,1.2c-0.7,1.3,1.3,3.6,2,4.5c0.5,0.6,1,1.1,1.6,1.6 c-5.6-1.4-12.4-0.5-15.2,4.2c-0.3,0.5,0.2,1.1,0.7,1c6.6-2,12,0.4,16.6,4.4c4.1,4.2,8.1,11.1,10.8,22.5c0,0-0.5,8.6-6.4,18 c0.5-4.1,0.1-8.5-1-12.3c-0.2-0.8-0.8-2.7-2-2.7c-1.1,0.1-1.4,1.8-1.8,2.6c-1,2.4-1.8,4.9-2.9,7.3c-1.4,2.8-3.5,4.5-5.5,6.7 c-1.7,1.8-3.2,3.9-4.6,6c0,0,0,0,0,0.1c0.4-1.4,0.6-2.9,0.8-4.4c0.2-1.7,0.7-3.9,0.3-5.6c-0.4-2-1.9-1.8-3-0.6 c-2.2,2.5-4,5.6-5.8,8.4c-3.2,3.6-6.3,7.6-7.2,10.5c-0.2-3.7-1.2-7.7-4.1-4.4c-0.3,0.4-0.6,0.8-0.9,1.2c-2.2,2.7-3.3,6.6-3.7,10.3 c0-2.6,0.3-5.2,0.7-7.9c0.1-0.4-0.4-0.8-0.7-0.7c-0.8,0-1.4,0.4-1.9,0.8c-2.1,1.2-3.9,3.4-5.3,5.1c-1.1,1.3-2,2.7-2.8,4.2 c-1.2-2.7-3.7-7.7-5.5-5.9c-1.3,1.3-1.9,4.5-2.3,6.3c-0.5,1.9-0.9,3.9-1.1,5.9l-0.2-0.4c-1.4-3.4-4.2-6-7.6-7.3v16.4v8.4v36.1 c0.1-1.6,1.3-8.7,16.4-13.7c17.2-5.7,28.8-8.6,29.9-14.1c0,0,9.5-5.6,12.7-11.3c0.3-0.6,0.6-1.1,0.8-1.7l-0.1,1.4l-0.5,5.8 c0,0,1.8-3.7,5.8-8.5c3-3.6,7.2-7.9,12.7-11.7c7.4-5.1,13.5-12.3,17.3-17.6c0.2,2.5,0.7,5,1.3,7.4c0.3,1.3,2.3,1.7,2.9,0.4 c1.4-3,1.8-5.9,2.5-9.1c0.8-3.4,2.3-6.3,3.7-9.5c0.7-1.6,1.3-3.4,1.8-5.2c0.3,1.7,0.8,4.1,2,4.4c1.2,0.4,2.6-1.3,3.3-2.1 c1.5-2.1,2.1-4.7,2.6-7.2C353,396.3,351.3,385.2,348,374.7z M322.1,354c0,0.1,0,0.2,0,0.3c-0.5-0.2-1-0.4-1.5-0.5 c-0.1-0.1-0.2-0.1-0.4-0.1c0,0-0.1,0-0.1,0c-0.4-0.1-0.8-0.2-1.3-0.2C320,353.5,321.1,353.6,322.1,354z" fill="#7d359e"/></g><g id="change3_1"><path d="M235.6,396.1v1.4v2.2c-19.4,0-28.6-12.1-28.6-12.1c2.5,1.7,5.4,3.1,8.4,4.2c-12.5-8.5-8.8-23.4-8.5-22.6 c6.3,19,28.8,14.9,28.8,14.9v11.2v-11.2l0-57.1v-45.3v-29h0c0,0-11.7-4.7-20.8,6.4l4.5,1.3c0,0-17.5-0.1-17.3,22.6 c0,0-0.9,0.2-2.5,0.7c0.4,0,0.8,0,1.2,0c0,0-3.7,1-9.2,3.5C181,292.2,164,302.9,155,324c-1.3,3.2-2.5,6.5-3.4,10.2 c-1.4,5.4-2.2,11.3-2.4,17.8c1.9-0.4,3.9-0.4,5.4,0c2.6,0.6,5.1,2.2,7.2,4.1c0.3,0.2,0.5,0.4,0.7,0.7c0.4,0.4,0.8,0.8,1.2,1.2 c0,0,0.1,0.1,0.1,0.1c2.5-0.3,5.1-0.1,7.5,0.1c1.2,0.1,5.4-0.1,6.1,1.2c0.7,1.3-1.3,3.6-2,4.5c-0.5,0.6-1,1.1-1.6,1.6 c5.6-1.4,12.4-0.5,15.2,4.2c0.3,0.5-0.2,1.1-0.7,1c-6.6-2-12,0.4-16.6,4.4c-4.1,4.2-8.1,11.1-10.8,22.5c0,0,0.5,8.6,6.4,18 c-0.5-4.1-0.1-8.5,1-12.3c0.2-0.8,0.8-2.7,2-2.7c1.1,0.1,1.4,1.8,1.8,2.6c1,2.4,1.8,4.9,2.9,7.3c1.4,2.8,3.5,4.5,5.5,6.7 c1.7,1.8,3.2,3.9,4.6,6c0,0,0,0,0,0.1c-0.4-1.4-0.6-2.9-0.8-4.4c-0.2-1.7-0.7-3.9-0.3-5.6c0.4-2,1.9-1.8,3-0.6 c2.2,2.5,4,5.6,5.8,8.4c3.2,3.6,6.3,7.6,7.2,10.5c0.2-3.7,1.2-7.7,4.1-4.4c0.3,0.4,0.6,0.8,0.9,1.2c2.2,2.7,3.3,6.6,3.7,10.3 c0-2.6-0.3-5.2-0.7-7.9c-0.1-0.4,0.4-0.8,0.7-0.7c0.8,0,1.4,0.4,1.9,0.8c2.1,1.2,3.9,3.4,5.3,5.1c1.1,1.3,2,2.7,2.8,4.2 c1.2-2.7,3.7-7.7,5.5-5.9c1.3,1.3,1.9,4.5,2.3,6.3c0.5,1.9,0.9,3.9,1.1,5.9l0.2-0.4c1.4-3.4,4.2-6,7.6-7.3v24.8h0l0-68.2V396.1z M216.9,276.8c0.2-0.5,2.1-4.8,3.5-5.4c0.5-0.8,1.3-0.9,2-0.3c1.4,1.1,1.3,3.9,1.4,5.5c0.1,2,0.2,4,0.3,6c0,0.3,0.1,0.5,0.1,0.8 c0,0,0,0,0,0.1c0.9,4.7,4.2,5.6,8.3,12.2c0.7,1.1,1.2,2.4,1.5,3.7c0.2,0.4,0.3,0.7,0.4,1.1c0.6,2.2,0.6,4.6,0.2,6.8 c0,3.5-1.4,6.9-3.8,9.3c-0.4,0.6-0.7,1.2-1.3,1.6c-0.3,0.2-0.8,0-0.9-0.4c-0.2-0.8,0-1.5,0.2-2.3c0.2-1,0.6-1.9,0.9-2.9 c0.1-0.9,0.1-1.8-0.5-2.3c-0.4-0.3-1.6-0.4-2.1-0.5c-0.7-0.2-1.4-0.5-2-0.7c-2.2-0.9-4.6-2-6.6-3.4c-3.9-2.8-5.3-7-4.9-11.7 c0.2-3.1,0.6-6.2,1.2-9.3C215.3,282,215.9,279.3,216.9,276.8z M189.8,308c1.1-3.5,4-6.8,6.3-9.6c2.1-2.4,4.4-5.2,7.8-5.1 c0.2,0,0.4,0.1,0.5,0.4c0.1,0,0.3,0,0.3,0.2c-0.4,6,1.2,12.3,5.4,16.6c2.4,2.5,5.4,3,8.2,4.8c1.3,0.8,2.5,1.9,2.2,3.6 c-0.3,1.4-1.4,2.8-2,4.1c-0.8,1.5-1.6,3.1-2.3,4.6c-0.7,1.4-1.7,3.9-3.6,3.6c-1.8-0.2-2.9-2.6-3.5-4.1c-0.9-2.3-1-4.7-1.1-7.2 l-5.9,3.3c-0.3,0.2-0.7,0-0.8-0.3c-0.7-3.1-0.7-6.2,0-9.3c-1.7,0.3-3.3,0.5-5,0.6c-1.5,0.1-3.4,0.4-4.8-0.2 C189.2,313.1,189.1,310,189.8,308z M235.6,435.3c-12-1.6-15.7-7.1-15.7-7.1c3.7,2.9,15.7,3.3,15.7,3.3V435.3z M235.6,417.3 c-17.1,1.4-34.3-9.3-44.9-19c-10.6-9.7-21.4-10.6-21.4-10.6c13.3-3.1,18.9,6.7,39.3,18.4c20.3,11.6,27,7,27,7V417.3z M175.9,458.8 c0.2,0.6,0.4,1.1,0.8,1.7c-0.2-0.1-0.4-0.2-0.6-0.3L175.9,458.8z M158.1,445.7c-7.4-5.1-13.5-12.3-17.3-17.6c-0.2,2.5-0.7,5-1.3,7.4 c-0.3,1.3-2.3,1.7-2.9,0.4c-1.4-3-1.8-5.9-2.5-9.1c-0.8-3.4-2.3-6.3-3.7-9.5c-0.7-1.6-1.3-3.4-1.8-5.2c-0.3,1.7-0.8,4.1-2,4.4 c-1.2,0.4-2.6-1.3-3.3-2.1c-1.5-2.1-2.1-4.7-2.6-7.2c-2.3-11-0.6-22.1,2.7-32.6c-0.2-1.9-0.2-3.7-0.3-5.4c-0.2-4.9-0.3-9.8,0.8-14.6 c0.2-0.9,0.4-1.7,0.7-2.6c0.8-3.3,2.1-6.6,4.1-9.7c0.2-0.3,0.3-0.6,0.5-0.9c0.9-1.4,1.9-3.2,3.2-4.7c-1.8,0.9-3.6,1.7-5.5,1.3 l-0.1,0c0,0,0,0,0,0c-0.4-0.1-0.9-0.2-1.3-0.5c-1.2-0.6-1.2-2.2-0.5-3.1c7.6-9.6,16.6-19.3,27.3-25.5c-2.6,0.5-5.1,1.1-7.7,1.4 c-0.1,0-0.2,0-0.3,0c-0.3,0.2-0.6,0.3-0.8,0.5c-0.6,0.3-1.2-0.5-0.8-1c5.1-6.6,13.6-11.9,21.5-14.5c4.6-2.5,9.8-5.1,15-7.2 c-8.1,0.5-14.8,0.5-18.3-0.4c0,0,37.2-5,50-42.3c0,0-19.1,30.9-47.9,20.9c0,0,21.9-1.9,28.6-14.7c0,0-20.1,2.3-29-4.5 c-8.9-6.8-19.2-13.6-32.1,4.5c0,0,27.1-64.6,47-66.8c19.9-2.2,29.6,26.1,33.8,31.4c4.2,5.3,24.3,6.1,24.3,6.1v-10.2 c-0.6-0.1-1.2-0.2-1.8-0.3c-9.5-1.9-17.9-7.7-22.3-15.3c-4.5-7.8-4.4-17.3-0.1-25.2c1-1.9,4.2-8.1,7.5-7.3c2.5,0.6,0.5,4.6-1,7.3 c-0.1,2.1-0.4,4.2-0.3,6.2c0.2,3.1,0.9,6.3,2.7,9c3.1,4.8,9.1,7.4,15.3,6.7l0-64.1c0,0-8.9,27.8-21.3,26.2 c-12.5-1.6-41.1-19.6-65.3,3.7c-23.9,23-68.7,51.7-62.1,90.1c6.5,37.7,58.1,27.3,57.7,39.4c-0.4,12-23.3,28.2-34.7,63.9 c-11.1,35-11.1,45.9,12.8,97.7c0,0,22.8-4.7,48,7.3C167.8,453.8,163.7,449.6,158.1,445.7z M115.1,258.7c-3.2,0.2-5.5-1.9-6.5-4.6 c-2.7-4.3-1.5-11.8,2.9-13.9c5.2-2.5,10.5,2.4,11,8C122.9,252.9,119.8,258.5,115.1,258.7z M125.1,225.6c-2.8,4.5-9.8,4.2-11.9-1.2 c-1-2.7-0.5-5.9,1.1-8.1c1.3-1.8,2.8-2.6,4.7-2.7c0,0,0,0,0,0c0.8-0.3,1.7-0.3,2.6,0.1C126,215,127.6,221.7,125.1,225.6z M128.1,193.4c0.8-4.3,7.3-8.9,11.2-9c5.2-0.1,7.5,6.5,5,10.7c-1.9,3.2-6.5,5.6-10.1,5.8C130.2,201.1,127.2,198,128.1,193.4z M150.7,353.8c-0.5,0.1-1,0.3-1.5,0.5c0-0.1,0-0.2,0-0.3c1.1-0.3,2.2-0.5,3.2-0.5c-0.4,0-0.8,0.1-1.3,0.2c0,0-0.1,0-0.1,0 C150.9,353.7,150.8,353.8,150.7,353.8z M168.8,202.5c-4,7.4-6.7,8.2-6.7,8.2c3.7,0.3,6.8-1.2,6.8-1.2s2.7,13,18.3,12.6 c15.6-0.4,16.8-17.9,16.8-17.9s-4-8.5-13.4-11.5C181.3,189.7,172.9,195.1,168.8,202.5z M195.3,206.1c2.6,5.6-0.5,12.4-6.1,13.9 c-2.6,0.7-5.2,0.9-7,0.5c-3.7-1-10.1-5.3-6.4-13.2c0.1-0.3,0.3-0.5,0.4-0.8c-0.1-0.5-0.3-0.9-0.3-1.5c0-2.6,1.9-4.7,4.3-4.7 c0.5,0,1,0.1,1.5,0.3c3.2-1.5,6.8-1,10.4,1.5C193.6,203.2,194.7,204.6,195.3,206.1z M184.5,204.3c0.5-0.1,1-0.2,1.5-0.2 c3.7,0,6.7,3.2,6.7,7.1c0,3.9-2.9,7.1-6.5,7.1c-3.6,0-6.6-3.2-6.7-7.1c0-0.5,0-1,0.1-1.5c0.2,0,0.4,0.1,0.7,0.1 c2.4,0,4.3-2.1,4.3-4.7C184.6,204.8,184.6,204.5,184.5,204.3z M87,356.8c0.7,3.3-0.6,7.3-4.1,7.9c-2.6,0.5-5.4-0.9-7.8-1.9 c-2.4-1-4.7-2-7.1-3c-9-2.7-18.5-2.1-27.5-5.5c-4.1-1.6-8.1-4-10.9-7.6c-3.4-4.4-6-9.8-8.6-14.7c-0.1-0.2-0.1-0.3,0-0.5 c-1.1-2.2-2.1-4.9-0.2-6c1.2-0.7,3.1-0.1,4.4,0.1c2,0.3,4,0.8,6,1.5c3.6-0.5,8.4,1.4,11.2,2.3c12.2,4,24.1,10.4,34.9,17.4 C81.2,349.2,85.9,352,87,356.8z M35.5,231.3c0.1-5.1,2.5-10.3,5-14.5c2.5-4.3,5.8-8.9,10.2-11.2c3.7-2,8.3-1,12.5-0.2 c2.1-0.1,4.3-0.1,6.1,0.6c2.2,1,3.6,3.2,4.6,5.5c2.4,5.3,2.3,11.1,0.2,16.3c-1,2.4-2.2,4.5-3.9,6.4c-1.6,1.7-3.9,2.9-4.9,5 c-1.6,3.3,1.1,8.6,2.5,11.7c0.5,1.2,1.9,3.1,1.6,4.5c-0.3,1.3-1.4,1.3-2.4,0.9c-2.8-0.9-5.6-3.1-8.2-4.5c-5.6-3-11.5-5.9-16.9-9.3 C38,240,35.5,236.3,35.5,231.3z M294.6,460.5c0.3-0.6,0.6-1.1,0.8-1.7l-0.1,1.4C295,460.3,294.8,460.4,294.6,460.5z M384.3,249.2 c6.6-38.4-38.2-67.1-62.1-90.1c-24.2-23.3-52.8-5.3-65.3-3.7c-12.5,1.6-21.3-26.2-21.3-26.2l0,64.1c0.3,0,0.6-0.1,0.9-0.1 c6-1,10.9-4.8,13.4-9.6c3.1-5.8,2.2-11.4,0-17.2c-0.1-0.2,0.1-0.4,0.3-0.5c-0.1-0.1-0.2-0.2-0.2-0.4l0-0.3c0-0.3,0.3-0.6,0.6-0.7 c3.2-1,6.9,4.2,8,6.2c2.1,3.7,2.9,8,3,12.1c0,0.9,0,1.8,0,2.8c0.2,5.6-1.6,11.4-4.5,15.9c-2.3,3.5-5.5,6.8-9.5,9 c-3.7,2-7.9,2.3-12.1,1.7v10.2c0,0,20.1-0.7,24.3-6.1c4.3-5.3,13.9-33.6,33.8-31.4c19.9,2.2,47,66.8,47,66.8 c-12.8-18.1-23.2-11.3-32.1-4.5c-8.8,6.8-29,4.5-29,4.5c6.7,12.8,28.6,14.7,28.6,14.7c-28.7,10-47.9-20.9-47.9-20.9 c12.7,37.4,50,42.3,50,42.3c-3.5,0.9-10.2,0.9-18.3,0.4c5.2,2.1,10.4,4.6,15,7.2c7.9,2.5,16.4,7.9,21.5,14.5c0.4,0.5-0.1,1.3-0.8,1 c-0.3-0.2-0.6-0.3-0.8-0.5c-0.1,0-0.2,0.1-0.3,0c-2.6-0.3-5.1-0.8-7.7-1.4c10.7,6.2,19.7,15.8,27.3,25.5c0.7,0.9,0.7,2.5-0.5,3.1 c-0.4,0.2-0.9,0.4-1.3,0.5c0,0,0,0,0,0l-0.1,0c-1.9,0.4-3.7-0.4-5.5-1.3c1.3,1.5,2.4,3.3,3.2,4.7c0.2,0.3,0.3,0.6,0.5,0.9 c2,3,3.3,6.4,4.1,9.7c0.2,0.9,0.5,1.7,0.7,2.6c1.1,4.8,1,9.7,0.8,14.6c-0.1,1.7-0.1,3.6-0.3,5.4c3.3,10.5,5,21.6,2.7,32.6 c-0.5,2.5-1.1,5.1-2.6,7.2c-0.6,0.9-2,2.5-3.3,2.1c-1.2-0.4-1.7-2.7-2-4.4c-0.5,1.8-1,3.5-1.8,5.2c-1.4,3.2-2.9,6.1-3.7,9.5 c-0.7,3.1-1.1,6.1-2.5,9.1c-0.6,1.3-2.6,0.9-2.9-0.4c-0.6-2.4-1-4.9-1.3-7.4c-3.9,5.3-9.9,12.5-17.3,17.6 c-5.6,3.8-9.7,8.1-12.7,11.7c25.2-12.1,48-7.3,48-7.3c24-51.8,24-62.6,12.8-97.7c-11.4-35.7-34.2-51.9-34.7-63.9 C326.3,276.5,377.9,286.9,384.3,249.2z M362.7,254.1c-1,2.7-3.2,4.7-6.5,4.6c-4.7-0.3-7.8-5.8-7.4-10.5c0.5-5.6,5.8-10.5,11-8 C364.2,242.4,365.4,249.9,362.7,254.1z M349.8,213.7c0.9-0.4,1.7-0.4,2.6-0.1c0,0,0,0,0,0c1.9,0.1,3.4,0.9,4.7,2.7 c1.6,2.2,2.1,5.5,1.1,8.1c-2.1,5.4-9.1,5.7-11.9,1.2C343.7,221.7,345.3,215,349.8,213.7z M337.1,200.9c-3.6-0.2-8.2-2.5-10.1-5.8 c-2.5-4.2-0.2-10.8,5-10.7c3.9,0.1,10.4,4.7,11.2,9C344.1,198,341.1,201.1,337.1,200.9z M318.9,353.5c1.1,0,2.2,0.1,3.2,0.5 c0,0.1,0,0.2,0,0.3c-0.5-0.2-1-0.4-1.5-0.5c-0.1-0.1-0.2-0.1-0.4-0.1c0,0-0.1,0-0.1,0C319.7,353.6,319.3,353.6,318.9,353.5z M303,403.2c1.1,3.8,1.4,8.2,1,12.3c5.9-9.3,6.4-18,6.4-18c-2.7-11.4-6.8-18.3-10.8-22.5c-4.6-4-10-6.4-16.6-4.4 c-0.5,0.2-1-0.5-0.7-1c2.8-4.8,9.6-5.6,15.2-4.2c-0.6-0.5-1.1-1-1.6-1.6c-0.7-0.9-2.7-3.2-2-4.5c0.7-1.3,4.9-1.1,6.1-1.2 c2.4-0.2,5.1-0.4,7.5-0.1c0,0,0.1-0.1,0.1-0.1c0.4-0.4,0.8-0.8,1.2-1.2c0.2-0.3,0.5-0.5,0.7-0.7c2.1-1.9,4.6-3.5,7.2-4.1 c1.6-0.4,3.6-0.4,5.4,0c-0.2-6.5-1.1-12.4-2.4-17.8c-0.9-3.6-2.1-7-3.4-10.2c-8.9-21.1-26-31.8-36.6-36.7c-5.4-2.5-9.2-3.5-9.2-3.5 c0.4,0,0.8,0,1.2,0c-1.6-0.5-2.5-0.7-2.5-0.7c0.2-22.8-17.3-22.6-17.3-22.6l4.5-1.3c-9.1-11.1-20.8-6.4-20.8-6.4v-12l0,131.3l0,41.1 c0,0,6.7,4.6,27-7c20.4-11.7,26-21.4,39.3-18.4c0,0-10.7,0.9-21.4,10.6c-10.6,9.7-27.8,20.4-44.9,19v14.3c0,0,12-0.4,15.7-3.3 c0,0-3.6,5.5-15.7,7.1v3.3c3.4,1.3,6.2,3.9,7.6,7.3l0.2,0.4c0.2-2,0.6-4,1.1-5.9c0.5-1.7,1-4.9,2.3-6.3c1.8-1.9,4.3,3.2,5.5,5.9 c0.8-1.5,1.8-2.9,2.8-4.2c1.4-1.8,3.3-4,5.3-5.1c0.6-0.5,1.2-0.8,1.9-0.8c0.4,0,0.8,0.4,0.7,0.7c-0.4,2.7-0.7,5.2-0.7,7.9 c0.4-3.7,1.5-7.6,3.7-10.3c0.3-0.4,0.6-0.8,0.9-1.2c2.9-3.3,3.8,0.8,4.1,4.4c0.9-2.9,4-6.9,7.2-10.5c1.8-2.9,3.6-5.9,5.8-8.4 c1.2-1.3,2.6-1.5,3,0.6c0.3,1.7-0.1,3.9-0.3,5.6c-0.2,1.5-0.4,2.9-0.8,4.4c0,0,0,0,0-0.1c1.4-2.1,2.8-4.2,4.6-6 c2.1-2.2,4.2-3.9,5.5-6.7c1.1-2.4,1.9-4.9,2.9-7.3c0.3-0.8,0.7-2.5,1.8-2.6C302.1,400.4,302.7,402.3,303,403.2z M247.2,282.6 c0.1-2,0.2-4,0.3-6c0.1-1.7,0-4.4,1.4-5.5c0.8-0.6,1.5-0.5,2,0.3c1.4,0.6,3.3,4.9,3.5,5.4c0.9,2.5,1.6,5.2,2.1,7.9 c0.6,3.1,0.9,6.3,1.2,9.3c0.4,4.7-1,8.9-4.9,11.7c-2,1.4-4.4,2.5-6.6,3.4c-0.7,0.3-1.3,0.5-2,0.7c-0.5,0.1-1.7,0.2-2.1,0.5 c-0.6,0.5-0.6,1.4-0.5,2.3c0.3,1,0.6,1.9,0.9,2.9c0.2,0.7,0.4,1.5,0.2,2.3c-0.1,0.4-0.6,0.6-0.9,0.4c-0.6-0.4-0.9-1-1.3-1.6 c-2.4-2.4-3.8-5.8-3.8-9.3c-0.4-2.3-0.4-4.6,0.2-6.8c0.1-0.4,0.2-0.8,0.4-1.1c0.3-1.3,0.8-2.6,1.5-3.7c4.1-6.6,7.4-7.5,8.3-12.2 c0,0,0,0,0-0.1C247.1,283.1,247.1,282.9,247.2,282.6z M264.3,387.7c0,0-9.2,12.1-28.6,12.1v-2.2v-1.4v-11.9c0,0,22.5,4.1,28.8-14.9 c0.3-0.8,4,14.1-8.5,22.6C258.9,390.8,261.8,389.4,264.3,387.7z M279.9,314c-1.4,0.6-3.3,0.3-4.8,0.2c-1.7-0.1-3.4-0.3-5-0.6 c0.7,3.1,0.7,6.2,0,9.3c-0.1,0.4-0.5,0.5-0.8,0.3l-5.9-3.3c-0.1,2.4-0.3,4.9-1.1,7.2c-0.6,1.5-1.7,3.9-3.5,4.1 c-1.9,0.2-2.9-2.2-3.6-3.6c-0.8-1.5-1.6-3.1-2.3-4.6c-0.6-1.2-1.7-2.7-2-4.1c-0.4-1.7,0.9-2.8,2.2-3.6c2.8-1.8,5.8-2.3,8.2-4.8 c4.2-4.3,5.8-10.6,5.4-16.6c0-0.2,0.1-0.3,0.3-0.2c0.1-0.2,0.3-0.3,0.5-0.4c3.4-0.1,5.7,2.7,7.8,5.1c2.4,2.7,5.2,6,6.3,9.6 C282.2,310,282.1,313.1,279.9,314z M85.6,96c3.5-2.2,7.3-3.2,11.1-4.5c0.8-0.3,1.7-0.6,2.5-1c5.1-3.1,10.7-6.9,15.7-10.4 c-1.5,0.1-2.9,0-4.4-0.1c-4.7-0.5-15.1-3.6-15.8-10.4c-0.2-2.2,0.8-3.6,2.3-4.8c3.6-2.8,8.8-4.1,12.9-6c4.2-2,8.4-3.9,12.7-5.9 c-0.8-0.3-1.5-0.6-2.3-1c-3.1-1.4-11.8-5.4-9.9-10.8c2-5.8,12.6-4,16.7-4c5.5,0,11,0,16.5,0.1c0.1-0.1,0.2-0.1,0.3-0.2 c-3.3-2.6-6.4-5.6-7.9-9.2c-2.2-5.2,1.1-7.6,5.3-7.7c8.4-0.2,17.1,3.2,25.5,4.2c3.8,0.5,7.6,0.8,11.4,1c-1-1.3-2-2.6-2.8-3.9 c-1.1-0.7-2.3-1.5-3.4-2.2c-3.2-2.2-7.8-4.5-5.9-9.4c0.3-0.8,1.2-1.3,2-1.3c5.3-0.3,11,4.5,15.8,6.5c1.6,0.6,3.1,1.2,4.7,1.7 c-0.4-0.6-0.7-1.2-1-1.8c-1.2-2.2-6.5-9.9-2.6-11.8c1.6-0.8,2.9,0.7,3.9,1.7c2,1.9,3.9,4,5.7,6c2.5,2.7,4.9,5.4,7.8,7.7 c-0.7-4,1-9.1,4.8-10.2c2.4-0.7,4.8,1.8,6.7,3c1.7,1.1,3.5,2.2,5.3,3.2c-1.5-3.8-2-7.7,2.6-6c0.2,0.1,0.5,0.2,0.7,0.3 c2.7,0.3,5.2,2.6,6.9,4.4c1.4,1.4,2.7,2.8,3.8,4.4c0.5,0.2,1,0.4,1.4,0.6c0.6-6.3,3.7-12.4,8.7-16.5c1-0.8,2.6-2.3,4-1.3 c1.3,0.9,1.6,3.9,2,5.3c0.7,3.2,1,6.4,0.9,9.7c0.3,0,0.6,0,0.9,0c2.3-1.3,4.5-2.7,6.6-4.1c1.9-1.2,4.3-3.7,6.7-3 c3.8,1.1,5.5,6.5,4.7,10.6c2.8,1,7.6-0.5,9.7-1c3-0.7,6-1.6,8.9-2.8c4.8-2,10.5-6.8,15.8-6.5c0.8,0,1.7,0.5,2,1.3 c1.4,3.7-0.9,5.9-3.5,7.8c-0.4,0.4-0.7,0.9-1.1,1.3c0,0.1-0.1,0.2-0.2,0.3c0,0,0,0,0,0c-0.9,1-1.8,1.9-2.7,2.8 c3-1.2,5.9-2.5,8.9-3.6c3.3-1.3,6.7-2.5,10.1-3.7c1.9-0.7,4.8-2.3,6.9-1.4c3.3,1.4,1.1,4.9-0.9,7.4c2.5-0.4,5-0.7,7.4-0.6 c4.2,0.1,7.5,2.5,5.3,7.7c-1.5,3.6-4.6,6.6-7.9,9.2c0.1,0.1,0.2,0.1,0.3,0.2c5.5-0.1,11-0.1,16.5-0.1c4.1,0,14.7-1.8,16.7,4 c1.9,5.4-6.8,9.3-9.9,10.8c-0.8,0.4-1.5,0.7-2.3,1c4.2,2,8.5,4,12.7,5.9c4.1,1.9,9.3,3.2,12.9,6c1.5,1.2,2.5,2.6,2.3,4.8 c-0.7,6.8-11.1,9.8-15.8,10.4c-1.5,0.2-3,0.2-4.4,0.1c5,3.5,10.6,7.3,15.7,10.4c0.8,0.3,1.6,0.7,2.5,1c3.8,1.4,7.6,2.3,11.1,4.5 c1.2,0.8,0.3,3-1,2.6c-9.6,4.9-20,6.1-29.8,3.8c0.3,3.5,0.1,7.2-0.4,10.8c-0.2,1.4-0.4,2.8-0.7,4.2c-0.9,4.7-2.2,9.2-3.5,13.2 c-0.6,2-3.2,2.5-4.2,0.6c-0.2-0.3-0.3-0.6-0.4-1c-1.5-3.5-1.9-7.1-2.4-11c-0.4-2.6-0.9-5.2-1.7-7.6c-0.8-2.4-1.7-4.7-2.9-7 c-3.5-6.7-8.4-12.1-13.4-17.3c0,1,0,1.9,0,2.9c0,2.6-0.3,5.8-1.3,9c-0.1,0.3-0.2,0.7-0.2,1c-0.9,3.3-3.3,12.7-7.2,13.2 c-4.3,0.5-4.4-9-5.5-11.7c-0.7-1.9-1.7-3.7-2.7-5.4c-2.4-1.2-3.8-3.4-4.9-5.9c-2.9-2.6-6.2-4.6-9.9-5.6c-0.6,9.7-3.4,28.7-11.2,23.6 c-4-2.6-4.9-11.4-5.9-15.8c-0.3-1.5-0.7-2.9-1-4.3c0.1,4.8,0,9.5-0.5,14.4c-0.3,2.4-2.7,3.8-4.4,2c-3.5-3.7-5.6-8.5-8.3-12.9 c-1.4-2.3-2.9-4.4-4.6-6.3c1.3,3.4,2.8,6.6,4.1,10c2.8,7.4,3.7,15.4,3.2,23.3c-0.2,2.7-2.7,3.6-4.5,2c-6.4-5.6-11.7-13.9-16.1-22.1 c-0.2,0.7-0.4,1.5-0.6,2.2c0.1,3.3,0.1,6.5-0.2,9.7c-0.2,2.7,0,9.5-3.9,9.8c-4,0.3-7.6-5.7-9.2-8.7c-1.9-3.6-3.1-7.5-4-11.5 c-4.3,7.6-9.2,15.3-15.2,20.5c-1.8,1.5-4.3,0.6-4.5-2c-0.5-7.9,0.3-15.9,3.2-23.3c1.3-3.4,2.8-6.6,4.1-10c-1.7,1.9-3.2,4-4.6,6.3 c-2.7,4.5-4.7,9.2-8.3,12.9c-1.7,1.8-4.2,0.4-4.4-2c-0.5-4.8-0.6-9.6-0.5-14.4c-0.4,1.4-0.7,2.9-1,4.3c-1,4.5-1.9,13.2-5.9,15.8 c-7.9,5.2-10.6-13.9-11.2-23.6c-3.7,1.1-7.1,3-9.9,5.6c-1.1,2.5-2.5,4.6-4.9,5.9c-1.1,1.7-2,3.5-2.7,5.4c-1.1,2.7-1.2,12.2-5.5,11.7 c-3.9-0.5-6.2-9.9-7.2-13.2c-0.1-0.3-0.2-0.7-0.2-1c-1.1-3.2-1.3-6.4-1.3-9c0-1-0.1-1.9,0-2.9c-5.1,5.2-9.9,10.7-13.4,17.3 c-1.2,2.3-2.2,4.6-2.9,7c-0.8,2.4-1.3,5-1.7,7.6c-0.5,3.9-0.9,7.5-2.4,11c-0.1,0.3-0.3,0.6-0.4,1c-0.9,1.9-3.5,1.4-4.2-0.6 c-1.3-4-2.6-8.6-3.5-13.2c-0.3-1.4-0.5-2.9-0.7-4.3c-0.5-3.6-0.7-7.3-0.4-10.8c-9.9,2.3-20.2,1.2-29.8-3.8 C85.3,99,84.4,96.8,85.6,96z M284.3,222.4c15.6,0.4,18.3-12.6,18.3-12.6s3.2,1.5,6.8,1.2c0,0-2.7-0.8-6.7-8.2 c-4.1-7.4-12.5-12.9-21.8-9.8c-9.4,3.1-13.4,11.5-13.4,11.5S268.7,222,284.3,222.4z M279.4,200.4c0.7,0,1.4,0.2,2,0.5 c5.4-2.6,10.9-0.6,14.1,6.4c3.6,7.9-2.7,12.2-6.4,13.2c-1.7,0.5-4.4,0.3-7-0.5c-5.2-1.5-8.2-7.4-6.6-12.7c-0.3-0.7-0.5-1.4-0.5-2.2 C275,202.5,277,200.4,279.4,200.4z M278.7,211.4c0-0.6,0.1-1.2,0.2-1.7c0.1,0,0.2,0,0.3,0c2.4,0,4.4-2.1,4.4-4.7c0-0.2,0-0.4,0-0.5 c0.6-0.2,1.2-0.3,1.8-0.3c3.7,0,6.6,3.2,6.5,7.1c-0.1,3.9-3.1,7.1-6.7,7.1C281.6,218.5,278.7,215.3,278.7,211.4z M450.1,331.5 c0.1,0.1,0.1,0.3,0,0.5c-2.6,4.9-5.2,10.3-8.6,14.7c-2.8,3.7-6.7,6.1-10.9,7.6c-8.9,3.4-18.5,2.8-27.5,5.5c-2.3,1-4.7,2.1-7.1,3 c-2.4,1-5.2,2.4-7.8,1.9c-3.5-0.7-4.8-4.6-4.1-7.9c1-4.8,5.8-7.6,9.5-10c10.8-7,22.8-13.4,34.9-17.4c2.7-0.9,7.5-2.8,11.2-2.3 c2-0.7,4-1.2,6-1.5c1.3-0.2,3.2-0.8,4.4-0.1C452.2,326.6,451.2,329.3,450.1,331.5z M397.1,227.8c-2-5.2-2.1-11,0.2-16.3 c1-2.2,2.4-4.5,4.6-5.5c1.8-0.8,4-0.8,6.1-0.6c4.2-0.9,8.8-1.8,12.5,0.2c4.3,2.3,7.7,6.9,10.2,11.2c2.4,4.2,4.9,9.4,5,14.5 c0.1,5-2.5,8.6-6.4,11.2c-5.4,3.5-11.3,6.3-16.9,9.3c-2.6,1.4-5.5,3.6-8.2,4.5c-1,0.3-2.1,0.4-2.4-0.9c-0.3-1.4,1.1-3.3,1.6-4.5 c1.4-3.1,4.1-8.4,2.5-11.7c-1-2.1-3.3-3.3-4.9-5C399.3,232.3,398.1,230.2,397.1,227.8z" fill="#97adbf"/></g><g id="change4_1"><path d="M59.1,178c0.6-4,3.8-5.9,7.5-5.3c5,0.8,10,3.6,14.6,5.5c5,2.1,10.1,4.3,15.1,6.4c3.9,1.7,6.2,4.9,3.1,9.1 c-1.9,2.6-6.4,3.3-9.4,3c-3.8-0.5-7.5-2.3-11-3.9c-4.1-2-8.7-3.2-12.7-5.5C62.9,185.4,58.4,182.3,59.1,178z M126.8,150.6 c-3.5-4.6-7-9.1-10.3-13.8c-2.4-3.4-4.4-7.8-7.3-10.7c-3.1-3.1-7.8-2.2-10.5,1c-3.6,4.3,0.5,9,3.3,12.6c5.4,6.9,11.9,12.2,17.8,18.6 c2.9,3.1,6.4,7.1,10.9,4.1C135.7,158.8,129.2,153.9,126.8,150.6z M372,193.7c1.9,2.6,6.4,3.3,9.4,3c3.8-0.5,7.5-2.3,11-3.9 c4.1-2,8.7-3.2,12.7-5.5c3.4-1.9,7.8-4.9,7.1-9.3c-0.6-4-3.8-5.9-7.5-5.3c-5,0.8-10,3.6-14.6,5.5c-5,2.1-10.1,4.3-15.1,6.4 C371.1,186.3,368.8,189.5,372,193.7z M351.6,158.2c5.9-6.3,12.4-11.7,17.8-18.6c2.8-3.6,6.8-8.2,3.3-12.6c-2.7-3.3-7.5-4.1-10.5-1 c-2.9,2.9-4.9,7.4-7.3,10.7c-3.4,4.7-6.9,9.2-10.3,13.8c-2.4,3.2-8.9,8.2-3.8,11.7C345.1,165.4,348.6,161.4,351.6,158.2z M181.7,200.7c-0.5-0.2-1-0.3-1.5-0.3c-2.4,0-4.3,2.1-4.3,4.7c0,0.5,0.1,1,0.3,1.5c0.5,1.6,1.9,2.9,3.5,3.2c0.2,0,0.4,0.1,0.7,0.1 c2.4,0,4.3-2.1,4.3-4.7c0-0.3,0-0.5-0.1-0.8C184.3,202.6,183.2,201.2,181.7,200.7z M235.6,499.7v0.3c0,0,0,0,0-0.1c0,0,0,0.1,0,0.1 L235.6,499.7c0,0.1,0,0.1,0,0.1C235.6,499.8,235.6,499.7,235.6,499.7z M89.6,405.5c2.7,5.6,11.2,13.6,10.4,20.3 c-1.1,8.3-12.9,4.4-17.6,2.1c-15.1-7.4-29.6-21.4-40.1-34.9c-4.2-5.4-12.8-17.3-10.6-24.9c2-6.8,21.2,1.2,25.8,2.6 c8.4,2.6,19.1,5.2,26.5,10.3c4.2,2.9,4.2,6.3,3.6,10.7C87.1,396.7,87.4,401,89.6,405.5z M88.7,419.7c-2.2-6.4-7.2-11.5-7.5-18.5 c-0.1-3.1,0.6-6.1,0.8-9.1c0.2-1.9,0.1-4-1.2-5.6c-1.6-2.1-4.5-2.7-6.8-3.4c-3.6-1.1-7.3-2.2-10.9-3.3c-0.6-0.2-1.3-0.4-1.9-0.5 c-0.1-0.1-0.2-0.2-0.3-0.2c-3.3-0.9-6.7-1.8-10-2.6c-2.9-0.7-6.3-2.1-9.4-2.1c-0.1,0-0.3,0-0.4,0c0,0,0,0-0.1,0c-0.1,0-0.2,0-0.2,0 c-3.6,0.5-1.8,5.6-0.1,7.9c3.7,5.1,8.3,9.7,12.5,14.3c4.5,4.8,9,9.7,14,13.9c4.6,3.9,9.9,7,15,10c1.3,0.8,3.9,3,5.5,2.4 C89.1,422.4,89,420.8,88.7,419.7z M31.9,356c-7.9-3.9-10.9-13.5-14.4-21.1c-1.5-3.4-4.7-8.2-3.1-12c1.7-3.9,6.8-3.1,10.2-2.5 c8.9,1.4,17.4,4.9,25.7,8.5c8.6,3.7,17.2,7.3,25.4,11.7c6.4,3.4,14.5,7.7,16,15.7c1.4,7.5-2.4,17.1-10.6,16.7 c-7.8-0.4-16.9-5.6-24.2-8.8C49,361.2,39.7,359.8,31.9,356z M29.7,346.7c2.8,3.7,6.7,6.1,10.9,7.6c8.9,3.4,18.5,2.8,27.5,5.5 c2.3,1,4.7,2.1,7.1,3c2.4,1,5.2,2.4,7.8,1.9c3.5-0.7,4.8-4.6,4.1-7.9c-1-4.8-5.8-7.6-9.5-10c-10.8-7-22.8-13.4-34.9-17.4 c-2.7-0.9-7.5-2.8-11.2-2.3c-2-0.7-4-1.2-6-1.5c-1.3-0.2-3.2-0.8-4.4-0.1c-1.9,1.2-0.9,3.9,0.2,6c-0.1,0.1-0.1,0.3,0,0.5 C23.8,336.9,26.4,342.3,29.7,346.7z M105.6,312.1c-3.2,4.4-6.5,8.7-9.7,13.1c-2.8,3.8-5,7.1-10.1,6.5c-8.4-1-17.6-5.8-25.6-8.8 c-9.8-3.7-19.7-7.1-29.3-11.3c-7.2-3.1-13.9-7.5-17.4-15.2c-3.7-8.1-4.4-19.3-1.9-27.6c6.2-21.1,30.9,0.1,42.7,5.2 c8.8,3.8,18,6.3,27.1,8.7c9,2.4,18.8,3.3,27.5,6.9C121.1,294.4,110.1,305.9,105.6,312.1z M96.1,299.7c-1.6-3.4-6.2-4.5-9.3-5.4 c-10.3-3-20.9-4.2-31.1-8c-5.3-2-10.3-4.6-14.7-8.3c-3.2-2.7-6.6-6-10.8-6.8c-0.1,0-0.1,0-0.2,0c-1.9-0.6-3.9-0.7-5,1.3 c-0.2,0.3-0.3,0.5-0.4,0.8c-0.4,0.7-0.8,1.5-1,2.5c-0.6,2.8-1.2,5.6-1.8,8.4c-0.5,2.3-1.7,5.3-1.2,7.8c0.8,4.1,5.7,8.1,8.7,10.4 c4.3,3.3,9.2,5.8,14.1,7.7c5.5,2.2,11.1,3.7,16.7,4.9c3.5,1.4,7,2.7,10.6,3.5c4.4,1,9.1,1.2,13.2-0.8c3.5-1.7,6.3-4.6,8.5-7.9 C94.2,307.5,97.7,303,96.1,299.7z M24.5,238.5c-0.7-8.5,3.2-16,7.2-22.6c3.7-6.1,7.7-12.4,13.9-16c3.1-1.9,6.8-3.1,10.6-3 c3.8,0.1,7.3,1.7,11,2.9c5.2,1.7,14.5,0.3,15.7,8.1c0.5,3.8,0,7.8-0.2,11.5c-0.2,4.1-0.7,8.3-1.6,12.2c-1,4.3-3.2,8.1-3.7,12.6 c-0.5,5,1.3,9.6,3.7,14.2c1.4,2.7,3.8,6.6,3.3,9.6c-0.5,2.7-3.5,1.6-5.5,1.1c-1.5-0.4-3-1-4.5-1.5c-7.8-2.1-15.8-5.3-23.2-8.6 c-4.7-2.1-9.5-4.4-14.1-6.8c-3.2-1.7-6.3-3.6-8.8-6.2C25.4,244.1,24.7,242,24.5,238.5z M35.5,231.3c-0.1,5,2.5,8.6,6.4,11.2 c5.4,3.5,11.3,6.3,16.9,9.3c2.6,1.4,5.5,3.6,8.2,4.5c1,0.3,2.1,0.4,2.4-0.9c0.3-1.4-1.1-3.3-1.6-4.5c-1.4-3.1-4.1-8.4-2.5-11.7 c1-2.1,3.3-3.3,4.9-5c1.7-1.8,3-4,3.9-6.4c2-5.2,2.1-11-0.2-16.3c-1-2.2-2.4-4.5-4.6-5.5c-1.8-0.8-4-0.8-6.1-0.6 c-4.2-0.9-8.8-1.8-12.5,0.2c-4.3,2.3-7.7,6.9-10.2,11.2C38.1,221,35.6,226.2,35.5,231.3z M218.3,315.4c-2.8-1.8-5.8-2.3-8.2-4.8 c-4.2-4.3-5.8-10.6-5.4-16.6c0-0.2-0.1-0.3-0.3-0.2c-0.1-0.2-0.3-0.3-0.5-0.4c-3.4-0.1-5.7,2.7-7.8,5.1c-2.4,2.7-5.2,6-6.3,9.6 c-0.6,2-0.6,5.1,1.6,6c1.4,0.6,3.3,0.3,4.8,0.2c1.7-0.1,3.4-0.3,5-0.6c-0.7,3.1-0.7,6.2,0,9.3c0.1,0.4,0.5,0.5,0.8,0.3l5.9-3.3 c0.1,2.4,0.3,4.9,1.1,7.2c0.6,1.5,1.7,3.9,3.5,4.1c1.9,0.2,2.9-2.2,3.6-3.6c0.8-1.5,1.6-3.1,2.3-4.6c0.6-1.2,1.7-2.7,2-4.1 C220.8,317.3,219.6,316.2,218.3,315.4z M116.9,246.3c-1-0.6-2.1-0.7-3-0.3c-1.3,0.2-2.3,1.5-2.4,3c-0.2,2,0.9,4.2,2.8,4.9 c0.2,0.1,0.4,0.1,0.6,0.2c0.6,0.3,1.3,0.3,2-0.1c0.3-0.1,0.5-0.3,0.7-0.5c0.6-0.4,1.1-1,1.4-1.8 C119.6,249.6,118.7,247.3,116.9,246.3z M121,220c-0.2-0.2-0.5-0.4-0.8-0.5c-0.4-0.2-0.8-0.3-1.3-0.3c-1.5,0-2.7,1.5-2.7,3.2 c0,1.3,0.7,2.1,1.6,2.6c0.4,0.5,1,0.8,1.7,0.8c0.7,0,1.3-0.4,1.8-0.9c0.7-0.5,1.1-1.4,1.1-2.3C122.4,221.4,121.8,220.5,121,220z M136.6,189.7c-0.9,0.4-2.5,1.2-3.3,2.3c-0.1,0.1-0.2,0.2-0.3,0.3c-1,1.1-0.9,2.7,0.5,3.4c1.7,0.8,4.6-0.1,5.9-1.1 c1.1-0.8,2.4-2.6,1.7-4.2C140.2,188.4,138,189,136.6,189.7z M281.4,200.9c-0.6-0.3-1.3-0.5-2-0.5c-2.4,0-4.4,2.1-4.4,4.7 c0,0.8,0.2,1.6,0.5,2.2c0.7,1.3,1.9,2.3,3.4,2.4c0.1,0,0.2,0,0.3,0c2.4,0,4.4-2.1,4.4-4.7c0-0.2,0-0.4,0-0.5 C283.5,202.9,282.6,201.6,281.4,200.9z M439.6,368.1c2.2,7.6-6.4,19.5-10.6,24.9c-10.5,13.5-25.1,27.5-40.1,34.9 c-4.7,2.3-16.5,6.2-17.6-2.1c-0.9-6.7,7.7-14.7,10.4-20.3c2.2-4.6,2.5-8.9,1.9-13.7c-0.5-4.4-0.5-7.9,3.6-10.7 c7.5-5.1,18.1-7.7,26.5-10.3C418.4,369.3,437.6,361.3,439.6,368.1z M430.5,374.3c-0.1,0-0.2-0.1-0.2,0c0,0,0,0-0.1,0 c-0.1,0-0.3,0-0.4,0c-3,0.1-6.4,1.4-9.4,2.1c-3.3,0.8-6.7,1.7-10,2.6c-0.1,0-0.2,0.1-0.3,0.2c-0.6,0.2-1.3,0.3-1.9,0.5 c-3.6,1-7.3,2.1-10.9,3.3c-2.3,0.7-5.2,1.3-6.8,3.4c-1.2,1.6-1.4,3.7-1.2,5.6c0.3,3.1,1,6,0.8,9.1c-0.3,7-5.3,12.2-7.5,18.5 c-0.4,1.1-0.5,2.6,0.8,3.1c1.6,0.6,4.2-1.6,5.5-2.4c5.2-3,10.4-6,15-10c5-4.2,9.5-9.1,14-13.9c4.3-4.6,8.8-9.2,12.5-14.3 C432.2,379.9,434,374.8,430.5,374.3z M456.9,322.9c1.7,3.8-1.5,8.7-3.1,12c-3.5,7.6-6.5,17.2-14.4,21.1c-7.8,3.8-17.1,5.2-25.2,8.2 c-7.3,3.2-16.3,8.4-24.2,8.8c-8.2,0.4-12.1-9.1-10.6-16.7c1.5-8,9.7-12.3,16-15.7c8.3-4.4,16.9-8,25.4-11.7 c8.3-3.6,16.9-7.1,25.7-8.5C450.1,319.8,455.2,319,456.9,322.9z M450.1,331.5c1.1-2.2,2.1-4.9,0.2-6c-1.2-0.7-3.1-0.1-4.4,0.1 c-2,0.3-4,0.8-6,1.5c-3.6-0.5-8.4,1.4-11.2,2.3c-12.2,4-24.1,10.4-34.9,17.4c-3.7,2.4-8.5,5.3-9.5,10c-0.7,3.3,0.6,7.3,4.1,7.9 c2.6,0.5,5.4-0.9,7.8-1.9c2.4-1,4.7-2,7.1-3c9-2.7,18.5-2.1,27.5-5.5c4.1-1.6,8.1-4,10.9-7.6c3.4-4.4,6-9.8,8.6-14.7 C450.2,331.8,450.2,331.6,450.1,331.5z M457.7,296.3c-3.5,7.7-10.1,12.1-17.4,15.2c-9.6,4.2-19.5,7.6-29.3,11.3 c-8,3-17.2,7.9-25.6,8.8c-5.2,0.6-7.3-2.8-10.1-6.5c-3.2-4.3-6.5-8.7-9.7-13.1c-4.5-6.2-15.5-17.7-3.4-22.7 c8.7-3.6,18.5-4.5,27.5-6.9c9.1-2.4,18.4-4.9,27.1-8.7c11.8-5.1,36.5-26.3,42.7-5.2C462.1,277,461.4,288.1,457.7,296.3z M449.4,284.3c-0.6-2.8-1.2-5.6-1.8-8.4c-0.2-1-0.6-1.8-1-2.5c-0.1-0.3-0.2-0.6-0.4-0.8c-1.2-2-3.1-2-5-1.3c-0.1,0-0.1,0-0.2,0 c-4.2,0.7-7.6,4-10.8,6.8c-4.4,3.7-9.4,6.4-14.7,8.3c-10.1,3.8-20.8,5-31.1,8c-3.1,0.9-7.7,2-9.3,5.4c-1.6,3.3,1.9,7.8,3.6,10.3 c2.2,3.3,5,6.2,8.5,7.9c4.1,1.9,8.8,1.8,13.2,0.8c3.6-0.8,7.1-2.1,10.6-3.5c5.7-1.2,11.3-2.7,16.7-4.9c4.9-2,9.8-4.4,14.1-7.7 c3.1-2.3,7.9-6.3,8.7-10.4C451.1,289.6,449.9,286.6,449.4,284.3z M404.2,199.9c3.7-1.2,7.2-2.9,11-2.9c3.8-0.1,7.5,1.1,10.6,3 c6.1,3.6,10.2,9.9,13.9,16c3.9,6.6,7.9,14.1,7.2,22.6c-0.3,3.4-1,5.6-3.6,7.4c-2.6,2.6-5.7,4.5-8.8,6.2c-4.6,2.5-9.3,4.8-14.1,6.8 c-7.5,3.3-15.4,6.5-23.2,8.6c-1.5,0.6-3,1.1-4.5,1.5c-2,0.6-5.1,1.7-5.5-1.1c-0.5-3,1.9-6.9,3.3-9.6c2.4-4.6,4.2-9.2,3.7-14.2 c-0.4-4.5-2.6-8.3-3.7-12.6c-0.9-3.9-1.4-8-1.6-12.2c-0.2-3.7-0.7-7.7-0.2-11.5C389.7,200.2,399,201.6,404.2,199.9z M402,206.1 c-2.2,1-3.6,3.2-4.6,5.5c-2.4,5.3-2.3,11.1-0.2,16.3c1,2.4,2.2,4.5,3.9,6.4c1.6,1.7,3.9,2.9,4.9,5c1.6,3.3-1.1,8.6-2.5,11.7 c-0.5,1.2-1.9,3.1-1.6,4.5c0.3,1.3,1.4,1.3,2.4,0.9c2.8-0.9,5.6-3.1,8.2-4.5c5.6-3,11.5-5.9,16.9-9.3c3.9-2.6,6.5-6.2,6.4-11.2 c-0.1-5.1-2.5-10.3-5-14.5c-2.5-4.3-5.8-8.9-10.2-11.2c-3.7-2-8.3-1-12.5-0.2C406.1,205.3,403.9,205.3,402,206.1z M275.2,298.4 c-2.1-2.4-4.4-5.2-7.8-5.1c-0.2,0-0.4,0.1-0.5,0.4c-0.1,0-0.3,0-0.3,0.2c0.4,6-1.2,12.3-5.4,16.6c-2.4,2.5-5.4,3-8.2,4.8 c-1.3,0.8-2.5,1.9-2.2,3.6c0.3,1.4,1.4,2.8,2,4.1c0.8,1.5,1.6,3.1,2.3,4.6c0.7,1.4,1.7,3.9,3.6,3.6c1.8-0.2,2.9-2.6,3.5-4.1 c0.9-2.3,1-4.7,1.1-7.2l5.9,3.3c0.3,0.2,0.7,0,0.8-0.3c0.7-3.1,0.7-6.2,0-9.3c1.7,0.3,3.3,0.5,5,0.6c1.5,0.1,3.4,0.4,4.8-0.2 c2.2-1,2.3-4,1.6-6C280.4,304.5,277.6,301.2,275.2,298.4z M359.9,248.9c-0.2-1.5-1.1-2.7-2.4-3c-0.9-0.4-2-0.3-3,0.3 c-1.8,1-2.7,3.3-2,5.3c0.3,0.8,0.8,1.4,1.4,1.8c0.2,0.2,0.4,0.3,0.7,0.5c0.8,0.4,1.5,0.4,2,0.1c0.2,0,0.4-0.1,0.6-0.2 C358.9,253.1,360.1,250.9,359.9,248.9z M355.1,222.3c0-1.6-1.1-3.1-2.7-3.2c-0.5,0-0.9,0.1-1.3,0.3c-0.3,0.1-0.6,0.3-0.8,0.5 c-0.8,0.5-1.4,1.4-1.4,2.5c0,0.9,0.4,1.8,1.1,2.3c0.4,0.5,1,0.9,1.8,0.9c0.7,0,1.3-0.3,1.7-0.8C354.4,224.5,355,223.6,355.1,222.3z M338,192c-0.8-1.1-2.4-1.9-3.3-2.3c-1.4-0.6-3.6-1.2-4.5,0.7c-0.7,1.6,0.6,3.4,1.7,4.2c1.4,1,4.3,1.9,5.9,1.1 c1.4-0.7,1.5-2.3,0.5-3.4C338.2,192.2,338.1,192.1,338,192z" fill="#ffd93b"/></g><g id="change5_1"><path d="M107.7,177c-10.7-3-21.5-9.4-31.1-14.9c-3.7-2.1-4.7-3.1-2.7-7.4c2-4.2,4.3-7.6,9.4-7.6c5-0.1,9.6,2.8,13.3,5.9 c5,4.1,10.4,7.6,15.7,11.2c2.9,2,8.5,4.1,6.6,8.6C117.1,176.8,111.5,178,107.7,177z M132.5,116.2c-0.7-1-1.6-2.7-2.7-4.5 c-0.8,2.4-1.3,5-1.7,7.6c-0.5,3.9-0.9,7.5-2.4,11c2.1,3.6,4.2,7.3,6.6,10.8c2.3,3.4,5.8,10.3,9.5,12.3c4.8,2.6,7.6-4.1,6.4-7.9 C144.9,134.8,138.9,125.3,132.5,116.2z M116.9,113.1c0,0.2,0,0.4,0,0.6c0,1.3,0.3,2.5,0.8,3.7C117.3,116,117.1,114.6,116.9,113.1z M397.4,154.8c-2-4.2-4.3-7.6-9.4-7.6c-5-0.1-9.6,2.8-13.3,5.9c-5,4.1-10.4,7.6-15.7,11.2c-2.9,2-8.5,4.1-6.6,8.6 c1.7,4.1,7.4,5.3,11.1,4.3c10.7-3,21.5-9.4,31.1-14.9C398.4,160,399.4,159,397.4,154.8z M343.2,119.2c-0.4-2.6-0.9-5.2-1.7-7.6 c-1.1,1.8-2.1,3.6-2.7,4.5c-6.4,9.1-12.5,18.6-15.7,29.3c-1.2,3.8,1.6,10.4,6.4,7.9c3.7-2,7.2-8.9,9.5-12.3 c2.4-3.5,4.5-7.2,6.6-10.8C344.2,126.8,343.8,123.1,343.2,119.2z M354.4,113.2c-0.2,1.4-0.4,2.8-0.7,4.2c0.5-1.2,0.8-2.4,0.8-3.7 C354.5,113.6,354.4,113.4,354.4,113.2z M86.8,294.4c-10.3-3-20.9-4.2-31.1-8c-5.3-2-10.3-4.6-14.7-8.3c-3.2-2.7-6.6-6-10.8-6.8 c-0.1,0-0.1,0-0.2,0c-1.9-0.6-3.9-0.7-5,1.3c-0.2,0.3-0.3,0.5-0.4,0.8c-0.4,0.7-0.8,1.5-1,2.5c-0.6,2.8-1.2,5.6-1.8,8.4 c-0.5,2.3-1.7,5.3-1.2,7.8c0.8,4.1,5.7,8.1,8.7,10.4c4.3,3.3,9.2,5.8,14.1,7.7c5.5,2.2,11.1,3.7,16.7,4.9c3.5,1.4,7,2.7,10.6,3.5 c4.4,1,9.1,1.2,13.2-0.8c3.5-1.7,6.3-4.6,8.5-7.9c1.7-2.5,5.1-6.9,3.6-10.3C94.5,296.3,89.9,295.3,86.8,294.4z M81.2,401.2 c-0.1-3.1,0.6-6.1,0.8-9.1c0.2-1.9,0.1-4-1.2-5.6c-1.6-2.1-4.5-2.7-6.8-3.4c-3.6-1.1-7.3-2.2-10.9-3.3c-0.6-0.2-1.3-0.4-1.9-0.5 c-0.1-0.1-0.2-0.2-0.3-0.2c-3.3-0.9-6.7-1.8-10-2.6c-2.9-0.7-6.3-2.1-9.4-2.1c-0.1,0-0.3,0-0.4,0c0,0,0,0-0.1,0c-0.1,0-0.2,0-0.2,0 c-3.6,0.5-1.8,5.6-0.1,7.9c3.7,5.1,8.3,9.7,12.5,14.3c4.5,4.8,9,9.7,14,13.9c4.6,3.9,9.9,7,15,10c1.3,0.8,3.9,3,5.5,2.4 c1.3-0.5,1.2-2,0.8-3.1C86.4,413.4,81.5,408.2,81.2,401.2z M125.1,225.6c-2.8,4.5-9.8,4.2-11.9-1.2c-1-2.7-0.5-5.9,1.1-8.1 c1.3-1.8,2.8-2.6,4.7-2.7c0,0,0,0,0,0c0.8-0.3,1.7-0.3,2.6,0.1C126,215,127.6,221.7,125.1,225.6z M122.4,222.5c0-1.1-0.6-2-1.4-2.5 c-0.2-0.2-0.5-0.4-0.8-0.5c-0.4-0.2-0.8-0.3-1.3-0.3c-1.5,0-2.7,1.5-2.7,3.2c0,1.3,0.7,2.1,1.6,2.6c0.4,0.5,1,0.8,1.7,0.8 c0.7,0,1.3-0.4,1.8-0.9C122,224.3,122.4,223.4,122.4,222.5z M449.4,284.3c-0.6-2.8-1.2-5.6-1.8-8.4c-0.2-1-0.6-1.8-1-2.5 c-0.1-0.3-0.2-0.6-0.4-0.8c-1.2-2-3.1-2-5-1.3c-0.1,0-0.1,0-0.2,0c-4.2,0.7-7.6,4-10.8,6.8c-4.4,3.7-9.4,6.4-14.7,8.3 c-10.1,3.8-20.8,5-31.1,8c-3.1,0.9-7.7,2-9.3,5.4c-1.6,3.3,1.9,7.8,3.6,10.3c2.2,3.3,5,6.2,8.5,7.9c4.1,1.9,8.8,1.8,13.2,0.8 c3.6-0.8,7.1-2.1,10.6-3.5c5.7-1.2,11.3-2.7,16.7-4.9c4.9-2,9.8-4.4,14.1-7.7c3.1-2.3,7.9-6.3,8.7-10.4 C451.1,289.6,449.9,286.6,449.4,284.3z M430.5,374.3c-0.1,0-0.2-0.1-0.2,0c0,0,0,0-0.1,0c-0.1,0-0.3,0-0.4,0c-3,0.1-6.4,1.4-9.4,2.1 c-3.3,0.8-6.7,1.7-10,2.6c-0.1,0-0.2,0.1-0.3,0.2c-0.6,0.2-1.3,0.3-1.9,0.5c-3.6,1-7.3,2.1-10.9,3.3c-2.3,0.7-5.2,1.3-6.8,3.4 c-1.2,1.6-1.4,3.7-1.2,5.6c0.3,3.1,1,6,0.8,9.1c-0.3,7-5.3,12.2-7.5,18.5c-0.4,1.1-0.5,2.6,0.8,3.1c1.6,0.6,4.2-1.6,5.5-2.4 c5.2-3,10.4-6,15-10c5-4.2,9.5-9.1,14-13.9c4.3-4.6,8.8-9.2,12.5-14.3C432.2,379.9,434,374.8,430.5,374.3z M357,216.3 c1.6,2.2,2.1,5.5,1.1,8.1c-2.1,5.4-9.1,5.7-11.9,1.2c-2.5-4-0.9-10.6,3.5-11.9c0.9-0.4,1.7-0.4,2.6-0.1c0,0,0,0,0,0 C354.2,213.7,355.8,214.5,357,216.3z M355.1,222.3c0-1.6-1.1-3.1-2.7-3.2c-0.5,0-0.9,0.1-1.3,0.3c-0.3,0.1-0.6,0.3-0.8,0.5 c-0.8,0.5-1.4,1.4-1.4,2.5c0,0.9,0.4,1.8,1.1,2.3c0.4,0.5,1,0.9,1.8,0.9c0.7,0,1.3-0.3,1.7-0.8C354.4,224.5,355,223.6,355.1,222.3z M250.7,164.5c-0.3,0.1-0.6,0.4-0.6,0.7l0,0.3c0,0.2,0.1,0.3,0.2,0.4c-0.2,0-0.4,0.2-0.3,0.5c2.2,5.8,3.1,11.5,0,17.2 c-2.5,4.7-7.4,8.6-13.4,9.6c-0.3,0.1-0.6,0.1-0.9,0.1c0,0,0,0,0,0c-6.2,0.7-12.2-1.8-15.3-6.7c-1.8-2.8-2.5-5.9-2.7-9 c-0.1-2.1,0.2-4.2,0.3-6.2c1.6-2.7,3.5-6.7,1-7.3c-3.3-0.7-6.5,5.4-7.5,7.3c-4.3,7.9-4.4,17.3,0.1,25.2c4.4,7.6,12.8,13.4,22.3,15.3 c0.6,0.1,1.2,0.2,1.8,0.3c0,0,0,0,0,0c4.2,0.6,8.4,0.3,12.1-1.7c4-2.2,7.2-5.5,9.5-9c2.9-4.5,4.7-10.3,4.5-15.9c0-0.9,0-1.9,0-2.8 c-0.1-4.1-0.9-8.4-3-12.1C257.6,168.7,253.9,163.5,250.7,164.5z" fill="#02d2c5"/></g></svg>