<?xml version="1.0" encoding="UTF-8"?><svg xmlns="http://www.w3.org/2000/svg" xmlns:xlink="http://www.w3.org/1999/xlink" fill="#000000" height="64.2" preserveAspectRatio="xMidYMid meet" version="1" viewBox="-0.0 -0.0 107.3 64.2" width="107.3" zoomAndPan="magnify"><g data-name="Layer 2"><g data-name="Layer 1"><g id="change1_1"><path d="M42.06,0l0,.37A36.72,36.72,0,0,0,43,4.6a14.55,14.55,0,0,0,4,6.68A7.54,7.54,0,0,0,48,12l.21.16a11.07,11.07,0,0,0,1.6.87,13.51,13.51,0,0,0,3,.94,22.87,22.87,0,0,0,2.8.43c.47.06.94.11,1.42.14a4.78,4.78,0,0,0,.53,0h.23a1.9,1.9,0,0,0,.4,0l.06,0,.16-.07a1,1,0,0,0,.37-.05.87.87,0,0,0,.36-.25,1.36,1.36,0,0,0,.31-.81,1.48,1.48,0,0,0-.27-.94.73.73,0,0,0-.59-.35h-.15a3.09,3.09,0,0,0-.78-.2,5.87,5.87,0,0,0-.72-.08c-.56,0-1.12-.08-1.68-.14A23.89,23.89,0,0,1,52.16,11c-.55-.17-1-.34-1.51-.53a9.7,9.7,0,0,1-1.36-.69l-1-.75a9.06,9.06,0,0,1-.82-.82c-.36-.45-.67-.86-1-1.26a12.69,12.69,0,0,1-.68-1.11l0-.07a23.31,23.31,0,0,1-1.52-4C44.16,1.2,44.05.57,44,0Z" fill="#7a109c"/></g><g id="change1_2"><path d="M74,0c0,.71-.09,1.37-.16,2L73.7,3.13v.14a3.35,3.35,0,0,0,0,1,1.31,1.31,0,0,0,.4.76.77.77,0,0,0,.7.19l.06,0A1.27,1.27,0,0,0,75.48,4c0-.19,0-.38.07-.58v-.1l0-.11.12-.93c.08-.73.13-1.45.17-2.12V0Z" fill="#7a109c"/></g><g id="change1_3"><path d="M38.58,22.42a1,1,0,0,0-.48.38,1.53,1.53,0,0,0-.18,1.28,5.51,5.51,0,0,0,.29.7,4.65,4.65,0,0,0,.29.43l.11.16a1.45,1.45,0,0,0,.21.22l.08.08c.16.17.37.33.53.47.44.35.88.68,1.32,1,.6.44,1.22.83,1.83,1.21l.05,0,.16.1.79.51.35.23.24.15c.73.47,1.46.95,2.2,1.41.38.24.84.52,1.32.76s.88.4,1.32.58l.28.11a16.5,16.5,0,0,0,1.59.64c.5.16,1,.32,1.65.47,1.13.28,2.16.53,3.21.73a18.72,18.72,0,0,0,3.36.35,17.66,17.66,0,0,0,3.14-.34l.14,0c.82-.14,1.64-.32,2.52-.54.7-.19,1.59-.42,2.43-.72l.16-.06.24-.08a11.51,11.51,0,0,0,1.84-.8,5.18,5.18,0,0,0,.74-.51l.1-.1a1.59,1.59,0,0,1,.2-.19,1.21,1.21,0,0,0,.4-.77,1.56,1.56,0,0,0-.15-.91.93.93,0,0,0-.59-.5.65.65,0,0,0-.39,0l-.31.17a1.14,1.14,0,0,0-.16.15l-.06.06a3.05,3.05,0,0,1-.3.26,9.93,9.93,0,0,1-1.33.61l-.15.06-.74.28c-.44.16-.92.31-1.44.46a.47.47,0,0,0,.17,0c-1.49.38-2.57.61-3.57.78-.62.1-1.24.19-1.87.26a10.16,10.16,0,0,1-1.87,0,27.17,27.17,0,0,1-3.84-.66,29.84,29.84,0,0,1-4.08-1.18,16.37,16.37,0,0,1-1.88-1l-.76-.46-.23-.13L46.53,28c-.7-.43-1.38-.85-2-1.31a19.9,19.9,0,0,1-1.81-1.42l-.07-.07,0,0h0l0,0s0,0,0,0h0c-.48-.44-1-.88-1.41-1.32-.3-.3-.61-.58-.92-.85A2.59,2.59,0,0,0,39,22.39l-.18,0A.86.86,0,0,0,38.58,22.42Z" fill="#7a109c"/></g><g id="change1_4"><path d="M96.72,0c0,.46-.09.92-.14,1.38v.17c-.06.5-.11,1-.16,1.51l-.15,1.81V5l0,.27c0,.43-.07.86-.11,1.3-.11,1.22-.31,2.45-.5,3.6s-.42,2.37-.67,3.52q-.17.78-.36,1.56c-.48,1.89-1.11,3.88-1.92,6.11l-.11.3c-.31.88-.68,1.87-1,2.81s-.86,2-1.33,3C89,29.68,88,31.58,87,33.26c-.51.85-1.08,1.72-1.87,2.83-.66.94-1.29,1.76-1.9,2.51a60.7,60.7,0,0,1-4.66,4.51c-.69.6-1.43,1.22-2.42,2s-1.63,1.23-2.41,1.76a24.48,24.48,0,0,1-2.23,1.24,1.36,1.36,0,0,0-.57,1.54.92.92,0,0,0,1.11.76l.08,0a25.58,25.58,0,0,0,2.78-1.6c.89-.6,1.74-1.26,2.54-1.89,1.79-1.41,3.46-3,4.86-4.28a28.71,28.71,0,0,0,2.41-2.54c.69-.85,1.36-1.73,2.05-2.71a61.39,61.39,0,0,0,3.55-5.93c.54-1,1.17-2.17,1.74-3.33S93,26,93.48,24.77s.84-2.28,1.25-3.45.77-2.28,1.12-3.49a65.87,65.87,0,0,0,1.63-7.41c.17-1,.37-2.28.48-3.56l.12-1.35V5.29c.06-.67.11-1.33.18-2,0-.48.09-1,.14-1.45l0-.3,0-.18c.05-.45.09-.9.14-1.36Z" fill="#7a109c"/></g><g id="change1_5"><path d="M.67,5.35l-.06,0A1.1,1.1,0,0,0,.08,6a1.68,1.68,0,0,0,0,.92C.27,8.22.52,9.55.8,10.85c.23,1.11.53,2.43.91,3.75A32.76,32.76,0,0,0,3,18.14c.45,1.05.91,2.11,1.38,3.16.34.76.7,1.51,1.05,2.26l.07.15.36.74c.45,1,.93,2,1.49,3.27l.36.81,0,.12c.82,1.86,1.66,3.77,2.63,5.55a51.49,51.49,0,0,0,3.75,6c.63.87,1.34,1.75,2.16,2.71s1.43,1.64,2.18,2.39l1.06,1,.28.27,1,1c.84.83,1.72,1.63,2.61,2.38s1.55,1.23,2.4,1.87,1.68,1.25,2.54,1.85l.48.34.81.58,1.63,1.15c.88.62,1.76,1.17,2.74,1.77a.73.73,0,0,0,.64.08,1,1,0,0,0,.6-.64,1.45,1.45,0,0,0,0-.92,1.14,1.14,0,0,0-.47-.69c-.88-.55-1.62-1-2.38-1.53l-1.63-1.14L30,52.06c-1.6-1.13-3.33-2.37-5.08-3.76-.31-.24-.62-.5-.92-.75-.83-.74-1.64-1.52-2.38-2.26l-.71-.69-.09-.09c-.5-.49-1-1-1.49-1.48-.79-.81-1.54-1.68-2.17-2.43-.77-.91-1.45-1.8-2.1-2.72-.09-.12-.17-.23-.24-.34l0-.06c-.68-1-1.24-1.89-1.78-2.8-.63-1.08-1.17-2.06-1.64-3-.57-1.15-1.07-2.23-1.55-3.3l-.54-1.23L9,26.56c-.22-.51-.45-1-.67-1.52l-1.08-2.3,0-.09C6.8,21.83,6.41,21,6,20.19c-.65-1.43-1.33-3-1.95-4.53L4,15.5l0-.1c-.25-.72-.45-1.35-.63-2S3,12.15,2.88,11.52l0-.12-.07-.33c-.36-1.51-.68-3.13-1-5a1.09,1.09,0,0,0-.48-.68.72.72,0,0,0-.4-.12A.73.73,0,0,0,.67,5.35Z" fill="#7a109c"/></g><g id="change2_1"><path d="M66.74,0c0,.34.07.68.1,1a12.26,12.26,0,0,1-.07,1.36,17.2,17.2,0,0,1-.7,2.36,16.25,16.25,0,0,1-1,2.18,14.87,14.87,0,0,1-1.57,1.71,6.78,6.78,0,0,1-.91.65c-.12,0-.24.06-.36.09l-.28.07a1.27,1.27,0,0,0-.73,1.42,1.32,1.32,0,0,0,.41.78.76.76,0,0,0,.68.17l.26-.06.34-.08a5.55,5.55,0,0,0,1.72-1.14,12.92,12.92,0,0,0,1.27-1.31c.37-.44.74-.88,1.1-1.33A13.29,13.29,0,0,0,69,4.39a10,10,0,0,0,.69-2.56,5.79,5.79,0,0,0,0-.93c0-.32,0-.61,0-.9Z" fill="#ffd93b"/></g><g id="change2_2"><path d="M26.73,0c.18,1.22.4,2.45.67,3.73s.64,2.78.92,3.91c.09.35.18.7.26,1,.24,1,.47,1.9.73,2.8s.71,2.09,1.05,3l.21.55.22.62c.37,1,.79,2.16,1.28,3.19a6.61,6.61,0,0,0,.42.76,5.45,5.45,0,0,0,.63.79l.25.27a4.08,4.08,0,0,0,.46.48.69.69,0,0,0,.68.1l.06,0a1.06,1.06,0,0,0,.53-.6,1.55,1.55,0,0,0,0-.93,1.22,1.22,0,0,0-.37-.6l0,.07-.21-.27,0-.05c-.1-.19-.18-.38-.28-.58l0-.11L34,17.66c-.25-.5-.48-1-.66-1.46-.44-1-.82-1.93-1.18-2.85l0-.08L32,13c-.76-2-1.34-4.07-1.91-6.06S29.14,3,28.69.51c0-.17-.05-.34-.08-.51Z" fill="#ffd93b"/></g><g id="change2_3"><path d="M13.09,17.51l-.06,0a1.09,1.09,0,0,0-.55.68,1.37,1.37,0,0,0,0,.87A32.45,32.45,0,0,0,14,23c.5,1.06,1,2.13,1.65,3.19A54.07,54.07,0,0,0,19.44,32c.52.69,1,1.38,1.58,2.05s1.08,1.28,1.57,1.82A37.86,37.86,0,0,0,26,39.28l0,0,.12.1c.93.8,1.73,1.43,2.49,2s1.38.93,2.06,1.35l.42.26.07,0,.07,0c1.68,1,3.41,2.11,5.16,3,.84.44,1.75.88,2.78,1.36s1.92.89,3,1.31c1.79.73,3.67,1.4,5.76,2a50.86,50.86,0,0,0,5.67,1.48c1.86.35,3.76.56,5.7.76,1,.1,2,.18,2.91.23l.14,0h.14a1,1,0,0,0,.43,0,.87.87,0,0,0,.26-.16,1.28,1.28,0,0,0,.4-.79,1.5,1.5,0,0,0-.15-.89.88.88,0,0,0-.61-.51c-.34-.05-.69-.06-1-.08h-.13c-.93-.06-1.92-.16-2.71-.25l-.14,0H58.7l-.21,0h-.07c-.83-.09-1.69-.18-2.53-.31-1-.15-2-.32-3-.53S51,49.24,50.1,49c-1.24-.34-2.53-.74-3.82-1.18s-2.55-.91-3.67-1.37c-2.1-.91-3.83-1.72-5.42-2.56-1.87-1-3.76-2.14-5.38-3.15l-.44-.27c-.56-.34-1.21-.74-1.82-1.19s-1.47-1.12-2.18-1.71l-.11-.09-.11-.1a50.12,50.12,0,0,1-7.92-9.21c-.68-1-1.56-2.41-2.37-3.89-.37-.68-.75-1.37-1.09-2.09s-.63-1.41-1-2.26c-.2-.54-.39-1.09-.57-1.64a1,1,0,0,0-.89-.82A.69.69,0,0,0,13.09,17.51Z" fill="#ffd93b"/></g><g id="change3_1"><path d="M72.51,12.08h-.06a.84.84,0,0,0-.4.31,4,4,0,0,0-1.11,1.27l-.21.33-.07.11-.43.65c-.39.56-.78,1.11-1.19,1.6a18.93,18.93,0,0,1-1.38,1.44,9.72,9.72,0,0,1-1,.78,9.88,9.88,0,0,1-1.26.67,5.38,5.38,0,0,1-.51.2,14.21,14.21,0,0,1-3.1.72H61.6l-.07,0H61.3l-.67,0h-.44l-.61,0c-.75,0-1.4,0-2,0-.83,0-1.45,0-2-.09l-.23,0a2.26,2.26,0,0,0-.86,0h-.07a1.27,1.27,0,0,0-.66,1.4c.09.62.56,1.05,1,1l.41,0h.07l.21,0c.51,0,1.06.07,1.63.08s1.16,0,1.74,0h1.64c.27,0,.54,0,.81,0l.93,0a12.66,12.66,0,0,0,1.89-.13,11.09,11.09,0,0,0,1.72-.41l.27-.09a14.45,14.45,0,0,0,1.54-.65,8.88,8.88,0,0,0,1.95-1.45,10.87,10.87,0,0,0,1.48-1.67c.49-.66,1-1.4,1.51-2.27a5.15,5.15,0,0,0,1-2.46,1.43,1.43,0,0,0,0-.65,1.28,1.28,0,0,0-.4-.77.78.78,0,0,0-.51-.2A.52.52,0,0,0,72.51,12.08Z" fill="#6422b8"/></g><g id="change3_2"><path d="M9.78,0c.06.73.13,1.43.2,2.11s.12,1.3.17,1.95l0,.2c.05.64.1,1.28.17,1.91a8.89,8.89,0,0,0,.45,2.09,16.32,16.32,0,0,0,.68,1.58,6.68,6.68,0,0,0,.55,1l0,.06.06.09.11.14a.75.75,0,0,0,.68.3l.17,0a.93.93,0,0,0,.46-.38,1.47,1.47,0,0,0-.09-1.69A7.31,7.31,0,0,1,13,8.54c-.16-.35-.33-.69-.48-1.06a8,8,0,0,1-.31-1.15c-.11-.76-.16-1.54-.21-2.3l0-.72c-.05-.59-.12-1.19-.18-1.79L11.65.12a.49.49,0,0,0,0-.12Z" fill="#6422b8"/></g><g id="change4_1"><path d="M50,.93a.66.66,0,0,0-.26.16,1.45,1.45,0,0,0-.25,1.67,11,11,0,0,0,.95,1.54l.19.27a11.92,11.92,0,0,0,2.08,2.2,4.71,4.71,0,0,0,.5.35c.19.1.38.18.57.26l.07,0,.16.07a6.1,6.1,0,0,0,1.33.39,5,5,0,0,0,2.49-.3l.39-.14a7.62,7.62,0,0,0,2.39-1.67,6.52,6.52,0,0,0,1.62-2.42l0-.07a1.41,1.41,0,0,0-.43-1.61.77.77,0,0,0-.66-.06,1,1,0,0,0-.59.63,3.26,3.26,0,0,1-.15.44,5.16,5.16,0,0,1-.57.79,9.06,9.06,0,0,1-1.41,1.26,6.9,6.9,0,0,1-1.17.55L57,5.35a5,5,0,0,1-1.26.16,5.24,5.24,0,0,1-1.32-.36,3.7,3.7,0,0,1-.88-.5,11.24,11.24,0,0,1-1.73-1.9l.06.13-.09-.18A10.06,10.06,0,0,1,51,1.41a.88.88,0,0,0-.77-.53A.85.85,0,0,0,50,.93Z" fill="#ffd93b"/></g><g id="change4_2"><path d="M22,1.23a1.08,1.08,0,0,0-.31.07,2,2,0,0,0-1.1,1.17,5.24,5.24,0,0,0,0,2.78c.13.53.26,1,.4,1.57s.33,1.37.46,2c.09.44.17.88.27,1.32.25,1.09.57,2.17.86,3.11.44,1.46.78,2.54,1.19,3.59l.05.09c.47,1.23,1,2.39,1.48,3.42l.08.18L25.92,22c.63,1.43,1.33,2.9,2.14,4.48l.22.44a41.41,41.41,0,0,0,2.23,4,35.43,35.43,0,0,0,3.11,4.11,21.52,21.52,0,0,0,2,1.92,24.14,24.14,0,0,0,2,1.46c1,.66,1.89,1.39,2.8,2.1l.09.07.69.55a14,14,0,0,0,1.8,1.19,19.55,19.55,0,0,0,2,.91l.07,0,.18.07c.51.21,1,.38,1.53.54l.45.15a10.18,10.18,0,0,0,1.91.41c.69.08,1.28.14,1.87.17.39,0,.77.1,1.16.17h.08c.38.06.77.13,1.15.16h.07a2.6,2.6,0,0,0,1.08,0,1,1,0,0,0,.67-.93,1.46,1.46,0,0,0-.14-.9,1,1,0,0,0-.59-.52.86.86,0,0,0-.42,0,1,1,0,0,1-.3,0h-.11a12.93,12.93,0,0,1-1.41-.2c-.4-.07-.79-.17-1.19-.28l-.6-.16c-.35-.08-.69-.18-1-.28l-.13,0-.62-.18c-.68-.19-1.21-.36-1.7-.55a19.12,19.12,0,0,1-2.34-1.41c-.91-.61-1.8-1.27-2.39-1.72-.83-.63-1.66-1.27-2.48-1.92-.55-.44-1.09-.9-1.63-1.36L38,34.39l-.52-.46c-.41-.36-.89-.79-1.35-1.26s-.71-.77-1.07-1.16l-.28-.32-.31-.34-.19-.22c-.27-.29-.53-.57-.79-.88a19.52,19.52,0,0,1-1.21-1.55c-1-1.66-2-3.43-2.85-5.14-.45-.88-.85-1.78-1.28-2.77s-.83-1.94-1.19-2.84c-.57-1.53-1-2.81-1.33-4-.39-1.4-.73-2.85-1-4.31A25.25,25.25,0,0,1,24.26,6c0-.54-.07-1.07-.13-1.57a4.42,4.42,0,0,0-.91-2.61,1.61,1.61,0,0,0-1.14-.56Z" fill="#ffd93b"/></g><g id="change4_3"><path d="M105.51,0l0,.51,0,.23c-.1,1.38-.16,2.79-.23,4.15l0,.62a72.34,72.34,0,0,1-1.15,9.21c-.17.92-.37,1.79-.56,2.6-.35,1.35-.66,2.41-1,3.33l-.15.42c-.34.94-.68,1.89-1.1,2.77a2.53,2.53,0,0,1-.13.22,1.13,1.13,0,0,0-.59.9,1.52,1.52,0,0,0,.18.94.82.82,0,0,0,.57.46.94.94,0,0,0,.47,0c.73-.26,1.19-1.39,1.52-2.22l0-.13c.58-1.45,1.09-2.89,1.5-4.29a60.16,60.16,0,0,0,1.79-9.15c.16-1.22.28-2.37.36-3.51.06-.7.09-1.4.12-2.1V4.71c0-.39,0-.77,0-1.16.06-1,.13-2.1.21-3.14V.27c0-.09,0-.18,0-.27Z" fill="#ffd93b"/></g><g id="change2_4"><path d="M85.48,20.07a.88.88,0,0,0-.44.37,1.78,1.78,0,0,1-.17.27,2.3,2.3,0,0,0-.23.4c-.07.15-.14.3-.2.45l-.15.37c-.08.21-.17.42-.26.63-.23.54-.5,1.17-.82,1.8s-.65,1.12-.94,1.6l-.48.8c-.46.76-1,1.65-1.55,2.48a50.21,50.21,0,0,1-3.5,4.6c-1.17,1.31-2.31,2.55-3.4,3.67a23.34,23.34,0,0,1-3.51,3,20.26,20.26,0,0,1-3.92,1.91l-.61.21a11.37,11.37,0,0,1-1.33.26l-.79.07-.15,0-.62.05c-.39,0-.77.09-1.16.15l-.29,0a3.79,3.79,0,0,1-.58,0,.7.7,0,0,0-.35,0,1.16,1.16,0,0,0-.68.94,1.24,1.24,0,0,0,.74,1.41,1.77,1.77,0,0,0,.56,0h.11c.25,0,.5-.06.74-.1l.14,0,.34,0c.47-.05,1-.1,1.42-.13h.12a12.36,12.36,0,0,0,1.29-.17,16.55,16.55,0,0,0,1.91-.55,18.2,18.2,0,0,0,4.07-2.08,26.12,26.12,0,0,0,2.49-2c.73-.64,1.42-1.39,2.1-2.1l.22-.24a59.48,59.48,0,0,0,4.63-5.42c.49-.66,1.15-1.56,1.74-2.48l.94-1.5.25-.4c.16-.27.33-.54.5-.8.56-.88,1.09-1.82,1.59-2.79.25-.5.5-1,.74-1.52.09-.22.19-.44.29-.66l.16-.39a3.25,3.25,0,0,0,.11-.42l0-.08a1.45,1.45,0,0,0-.21-1.44.82.82,0,0,0-.62-.3A.75.75,0,0,0,85.48,20.07Z" fill="#ffd93b"/></g><g id="change2_5"><path d="M35.49,1l-.05,0a1.34,1.34,0,0,0-.57,1.54,31.77,31.77,0,0,0,1,3.25C36.21,6.87,36.61,8,37,9a18.3,18.3,0,0,0,1.47,3c.55.88,1.13,1.75,1.71,2.61l.06.09,0,.06,0,.06h0a8.27,8.27,0,0,0,.8,1.11c.28.33.59.66,1,1.05a19.86,19.86,0,0,0,2.11,1.76c.66.62,1.44,1.34,2.26,2a14.81,14.81,0,0,0,2,1.5.79.79,0,0,0,.67.07,1,1,0,0,0,.58-.61,1.65,1.65,0,0,0,0-1,1.07,1.07,0,0,0-.46-.66,15.57,15.57,0,0,1-2.29-1.72c-.59-.52-1.11-1-1.64-1.51l-.09-.08a2.36,2.36,0,0,1-.29-.33l-.15-.17c-.16-.18-.31-.35-.48-.52L44,15.38l-.44-.45a34.66,34.66,0,0,1-3.22-4A16.22,16.22,0,0,1,39.3,9.16a22.39,22.39,0,0,1-.94-2.07l-.06-.15a43.74,43.74,0,0,1-1.68-5.19,1,1,0,0,0-.88-.8A.73.73,0,0,0,35.49,1Z" fill="#ffd93b"/></g><g id="change3_3"><path d="M88.89,0c0,1.06,0,2.11-.07,3.17v.16c0,.8-.08,1.42-.17,2.05a18.59,18.59,0,0,1-.38,2l-.1.37a17.6,17.6,0,0,0-.51,2.3,1.25,1.25,0,0,0,.74,1.41.76.76,0,0,0,.42,0,1.13,1.13,0,0,0,.67-.94,13.29,13.29,0,0,1,.33-1.59l.06-.25c.16-.59.29-1.11.4-1.66a18.37,18.37,0,0,0,.29-2c.13-1.48.15-3,.17-4.54V0Z" fill="#6422b8"/></g><g id="change1_6"><path d="M82.38,0c0,.08,0,.16,0,.24,0,.54-.13,1.09-.21,1.62l-.05.33c-.2,1.41-.44,2.76-.65,3.89-.45,2.42-1,4.85-1.64,7.43l0,.09,0,.1c-.33,1.21-.7,2.38-1.14,3.58a33,33,0,0,1-1.44,3.24,25.65,25.65,0,0,1-2.76,4.3l-.13.14a1.29,1.29,0,0,0-.55,1.21,1.07,1.07,0,0,0,1,1.11l.17,0a1.87,1.87,0,0,0,.64-.51,15.87,15.87,0,0,0,1-1.35c.25-.35.57-.81.88-1.31s.52-.88.82-1.44c.59-1.08,1.15-2.25,1.67-3.47s.9-2.45,1.23-3.55c.15-.48.27-1,.4-1.49l.12-.51q.24-.91.45-1.83c.33-1.44.63-2.87.82-3.81.26-1.27.5-2.59.72-3.91s.4-2.49.51-3.79a2.45,2.45,0,0,0,0-.27Z" fill="#7a109c"/></g><g id="change3_4"><path d="M94.2,37.36l0,0a1.13,1.13,0,0,0-.54.62l-.07.14c-.12.2-.24.38-.37.56l0,.07-.54.74-.2.29c-.53.75-1,1.5-1.56,2.26a43.48,43.48,0,0,1-3.09,4.23,56.32,56.32,0,0,1-4.1,4c-.7.62-1.45,1.26-2.31,1.95a27.77,27.77,0,0,1-2.25,1.67l-.8.49-1.16.72-.06,0-.07,0-.06.05-.21.12,0,0h0l-.09.05-.13.07-.09.06h0l-.21.12,0,0,0,0-.06,0-.13.07-.14.09-.06,0c-.74.47-1.51.94-2.28,1.35-.56.3-1.14.56-1.7.81l-.06,0-.89.41-.19.09c-.73.33-1.48.69-2.23,1l-.91.38c-.42.18-.84.35-1.27.51l-.32.1-.27.08c-.57.13-1.15.22-1.71.31h-.08l-.85.14-.78.15a17.41,17.41,0,0,1-1.95.3c-.5,0-1,.06-1.51.08h-.14c-.39,0-.79,0-1.18.05l-.72,0h-.07c-.65.05-1.32.09-2,.08l-.92,0h-.21l-1,0h-.41c-.51,0-1,0-1.52-.07-.76-.09-1.53-.22-2.37-.4l-.4-.09c-.61-.13-1.3-.28-2-.49-.41-.12-.81-.27-1.22-.41l-.08,0-.68-.23-.56-.19-.1,0c-.46-.15-.93-.3-1.39-.49l.07.06-.07-.05L41,59l-.59-.26-.28-.13-.07,0c-.23-.1-.46-.2-.68-.32l0-.06a.8.8,0,0,0-.87-.26,1,1,0,0,0-.44.36,1.51,1.51,0,0,0-.23.92,1.45,1.45,0,0,0,.38.9,2.24,2.24,0,0,0,.84.51l.12,0,.71.33.33.15,1,.43.09,0-.08-.06a16.82,16.82,0,0,0,1.82.69l.28.09.44.15.49.17c.65.23,1.3.45,1.95.62,1,.24,1.94.46,2.89.63a19.82,19.82,0,0,0,3.06.27l1,0h.24c.52,0,1,.06,1.57.07a18.06,18.06,0,0,0,1.95-.09l.79-.06,1.07,0c.57,0,1.12,0,1.67-.09s1.29-.19,2-.33l.29-.05.55-.1.78-.12c.7-.12,1.37-.23,2-.39.23-.06.46-.14.69-.22.43-.15.84-.33,1.25-.51l.58-.24.44-.18.81-.33,1.2-.55,1.06-.49,1.58-.74c.54-.27,1.09-.59,1.56-.88l.7-.43.31-.19L76.8,58l0,0,.08,0,.08,0,.08-.05.1-.07.1-.06.06,0,.08-.06h0l0,0,.08,0,.14-.09.07,0,.08,0,0-.05.14-.07,1.12-.69.16-.09.3-.19.08,0c.35-.22.72-.45,1.07-.71.71-.51,1.48-1.12,2.43-1.9.7-.58,1.43-1.22,2.37-2.1l.06,0c.74-.69,1.5-1.39,2.24-2.15a27.19,27.19,0,0,0,2.2-2.54c.61-.79,1.19-1.63,1.66-2.34l.37-.53.08-.11c.39-.59.79-1.18,1.19-1.76l.55-.76c.34-.47.64-.89.93-1.33a7.56,7.56,0,0,0,.44-.84,1.42,1.42,0,0,0-.43-1.62.78.78,0,0,0-.41-.12A.67.67,0,0,0,94.2,37.36Z" fill="#6422b8"/></g></g></g></svg>