<?xml version="1.0" encoding="UTF-8"?><svg xmlns="http://www.w3.org/2000/svg" xmlns:xlink="http://www.w3.org/1999/xlink" fill="#301638" height="29.6" preserveAspectRatio="xMidYMid meet" version="1" viewBox="0.0 -0.0 392.1 29.6" width="392.1" zoomAndPan="magnify"><g clip-rule="evenodd" fill-rule="evenodd"><g id="change1_1"><path d="M269.1172,14.4806c0,9.2691-13.4502,11.5278-20.5215,11.3765 c-9.1475-0.2085-18.3106-3.5821-26.1905-7.9619c-2.1572-1.208-4.3105-2.462-6.4668-3.7437 c10.6495-5.3174,21.1934-10.7934,32.6573-11.0464C255.667,2.9543,269.1172,5.2024,269.1172,14.4806L269.1172,14.4806z M212.4502,12.1101c-8.1787-4.7417-16.6993-9.123-26.9961-10.1094c8.6523,2.3111,16.2265,6.959,23.7373,11.731 c-3.9717,1.9424-7.9561,3.7773-12.0244,5.2724c-13.4878,4.9434-31.3868,9.4947-53.6319,10.6006 c24.5215,0,42.4878-3.707,55.6035-8.0854c4.5362-1.5127,8.9698-3.5308,13.3711-5.6836c2.711,1.7334,5.4346,3.4404,8.2325,5.0127 c8.2177,4.645,18.1923,8.0932,27.9482,8.1138c8.9424,0.0244,22.9248-2.5953,22.9248-14.4815 c0-11.8848-13.9824-14.5039-22.9248-14.4805C235.8427,0.0203,224.2031,6.2234,212.4502,12.1101L212.4502,12.1101z" fill="inherit"/><path d="M122.9775,14.4806c0,9.2691,13.4365,11.5278,20.5142,11.3765 c9.1377-0.2085,18.3047-3.5821,26.1733-7.9619c2.169-1.208,4.3189-2.462,6.4785-3.7437 c-10.6616-5.3174-21.2051-10.7934-32.6518-11.0464C136.414,2.9543,122.9775,5.2024,122.9775,14.4806L122.9775,14.4806z M179.623,12.1101c8.187-4.7417,16.7246-9.123,26.9942-10.1094c-8.6465,2.3111-16.2281,6.959-23.7383,11.731 c3.9682,1.9424,7.9678,3.7773,12.0317,5.2724c13.4966,4.9434,31.4038,9.4947,53.6275,10.6006 c-24.5088,0-42.4952-3.707-55.606-8.0854c-4.5415-1.5127-8.9707-3.5308-13.3604-5.6836 c-2.7148,1.7334-5.4492,3.4404-8.2309,5.0127c-8.2275,4.645-18.189,8.0932-27.9443,8.1138 c-8.96,0.0244-22.9136-2.5953-22.9136-14.4815c0-11.8848,13.9536-14.5039,22.9136-14.4805 C156.2397,0.0203,167.8779,6.2234,179.623,12.1101L179.623,12.1101z" fill="inherit"/></g><g id="change1_2"><path d="M3.7334,13.1433h0.143c1.8745-1.0674,3.562-2.5259,4.4019-4.4761 c1.2978,1.9488,3.9404,3.4009,6.9375,4.4761h102.751c-0.0435,0.4292-0.0596,0.8731-0.0596,1.3374 c0,0.688,0.04,1.3486,0.1191,1.9878H15.2158c-2.9971,1.0742-5.6397,2.5356-6.9375,4.4653 c-0.8399-1.938-2.5274-3.4047-4.4019-4.4653h-0.143v-0.0898c-0.7915-0.4385-1.6197-0.7979-2.4156-1.1182 C0.872,15.1072,0.4502,14.9416,0,14.8126c0.4502-0.1513,0.872-0.3086,1.3178-0.4677c0.7959-0.3042,1.6241-0.6958,2.4156-1.128 V13.1433L3.7334,13.1433z M125.5371,14.4806C125.5371,6.8766,125.5371,23.0652,125.5371,14.4806L125.5371,14.4806z M274.123,13.1433h102.7432c2.998-1.0752,5.6396-2.5273,6.9375-4.4761c1.2139,2.8262,4.206,4.605,6.9658,5.6778 c0.4336,0.1591,0.8672,0.3164,1.3154,0.4677c-0.4482,0.1289-0.8818,0.2945-1.3154,0.4478c-2.7598,1.063-5.7519,2.852-6.9658,5.6733 c-1.2979-1.9297-3.9395-3.3911-6.9375-4.4653H274.0556c0.0791-0.6392,0.1114-1.2998,0.1114-1.9878 C274.167,14.0164,274.1552,13.5725,274.123,13.1433L274.123,13.1433z" fill="inherit"/></g></g></svg>