<?xml version="1.0" encoding="UTF-8"?><svg xmlns="http://www.w3.org/2000/svg" xmlns:xlink="http://www.w3.org/1999/xlink" fill="#000000" height="369.4" preserveAspectRatio="xMidYMid meet" version="1" viewBox="0.0 0.0 337.9 369.4" width="337.9" zoomAndPan="magnify"><defs><clipPath id="a"><path d="M 189 245 L 311 245 L 311 369.441406 L 189 369.441406 Z M 189 245"/></clipPath><clipPath id="b"><path d="M 0 0 L 337.941406 0 L 337.941406 369 L 0 369 Z M 0 0"/></clipPath></defs><g><g clip-path="url(#a)" id="change1_1"><path d="M 281.902344 357.136719 C 281.902344 357.136719 273.613281 366.761719 275.21875 367.832031 C 276.824219 368.902344 301.953125 369.4375 301.953125 369.4375 C 301.953125 369.4375 311.582031 369.703125 309.976562 365.691406 C 308.371094 361.683594 284.042969 357.136719 281.902344 357.136719 Z M 189.125 253.664062 C 196.613281 244.84375 270.40625 245.644531 270.40625 245.644531 L 305.699219 333.609375 L 282.703125 333.339844 C 282.703125 333.339844 271.742188 323.449219 267.199219 319.707031 C 262.652344 315.960938 252.761719 321.84375 228.964844 318.101562 C 205.167969 314.359375 189.394531 254.734375 189.394531 254.734375" fill="#281536"/></g><g clip-path="url(#b)" id="change2_1"><path d="M 336.980469 201.972656 C 334.128906 212.3125 318.800781 239.40625 322.722656 246.535156 C 326.644531 253.664062 336.625 309.277344 327.355469 338.511719 C 318.085938 367.742188 313.808594 371.308594 303.113281 367.03125 C 292.417969 362.753906 260.449219 349.484375 264.613281 346.710938 C 273.167969 341.007812 280.65625 352.058594 282.082031 341.71875 C 282.617188 337.816406 285.070312 332.324219 284.609375 327.335938 C 285.894531 323.03125 285.054688 315.097656 278.960938 308.210938 C 272.8125 301.257812 251.957031 243.238281 251.957031 243.238281 C 251.957031 243.238281 250.886719 268.371094 249.285156 292.433594 C 248.242188 308.058594 254.617188 323.816406 253.5625 327.726562 C 252.507812 331.640625 246.199219 326.242188 247.144531 333.519531 C 250.175781 356.871094 264.613281 357.40625 259.980469 363.464844 C 255.34375 369.523438 196.523438 373.089844 199.375 328.886719 C 201.464844 296.480469 196.789062 302.773438 193.316406 295.375 C 191.8125 292.179688 190.464844 251.171875 187.253906 246.179688 C 184.046875 241.1875 176.382812 231.742188 163.011719 225.503906 C 155.753906 222.113281 130.214844 209.105469 123.800781 199.121094 C 117.382812 189.140625 95.992188 161.691406 94.921875 159.550781 C 93.851562 157.414062 92.785156 178.089844 90.644531 182.722656 C 88.507812 187.359375 89.21875 220.867188 89.574219 236.554688 C 89.933594 252.238281 68.542969 289.316406 61.414062 299.296875 C 54.28125 309.277344 42.875 318.902344 43.230469 325.675781 C 43.589844 332.449219 47.152344 352.414062 47.152344 356.335938 C 47.152344 357.996094 40.929688 356.316406 33.785156 357.582031 C 24.082031 359.304688 17.207031 363.910156 12.839844 363.464844 C 7.757812 362.945312 0.265625 364.574219 0.0078125 361.058594 C -0.261719 357.40625 7.402344 346.351562 9.898438 340.292969 C 12.394531 334.234375 11.683594 324.695312 11.859375 321.042969 C 12.039062 317.386719 7.9375 295.019531 15.78125 266.5 C 23.625 237.980469 27.191406 216.234375 27.902344 209.816406 C 28.613281 203.398438 35.390625 178.445312 32.535156 170.601562 C 29.683594 162.761719 15.78125 137.449219 35.03125 118.199219 C 54.28125 98.949219 54.640625 89.320312 54.640625 87.539062 C 54.640625 85.757812 50.09375 70.207031 52.234375 63.433594 C 54.371094 56.660156 61.414062 52.246094 62.480469 48.683594 C 62.480469 48.683594 67.117188 37.632812 68.542969 37.273438 C 69.96875 36.917969 69.253906 21.945312 74.960938 15.527344 C 80.664062 9.113281 102.410156 -15.128906 128.789062 14.101562 C 155.171875 43.335938 160.515625 58.664062 163.011719 61.160156 C 165.507812 63.65625 181.90625 83.617188 186.898438 87.183594 C 191.890625 90.75 215.0625 107.503906 221.476562 110.710938 C 227.894531 113.921875 233.597656 103.226562 258.554688 105.007812 C 283.507812 106.789062 317.015625 120.695312 326.644531 155.628906 C 336.269531 190.566406 339.832031 191.636719 336.980469 201.972656" fill="#281536"/></g><g id="change3_1"><path d="M 106.640625 58.753906 L 114.796875 73.992188 C 114.796875 73.992188 123.621094 62.628906 118.40625 57.015625 C 113.769531 52.019531 109.585938 53.671875 106.640625 58.753906 Z M 89.574219 97.074219 C 92.070312 107.148438 85.207031 130.230469 73.53125 128.625 C 61.859375 127.023438 46.707031 119.625 51.875 95.382812 C 52.554688 92.203125 53.367188 90.617188 54.089844 87.859375 C 54.046875 87.78125 54.011719 87.714844 53.96875 87.628906 C 49.558594 78.539062 52.367188 63.699219 52.367188 63.699219 L 52.4375 64.078125 C 52.699219 61.695312 56.121094 59.546875 58.515625 58.886719 C 63.0625 57.640625 64.621094 59.734375 67.828125 61.160156 C 71.394531 59.824219 85.03125 58.21875 87.613281 62.40625 C 90.199219 66.597656 91.445312 79.339844 88.773438 82.636719 C 86.097656 85.9375 87.082031 87.007812 89.574219 97.074219" fill="#ffd93b"/></g><g id="change1_2"><path d="M 21.570312 346.953125 C 19.457031 350.222656 12.660156 361.050781 14.097656 363.0625 L 14.96875 362.441406 C 14.371094 361.570312 17.804688 354.742188 22.46875 347.535156 Z M 246.628906 336.109375 C 246.476562 335.699219 246.425781 335.21875 246.304688 334.730469 C 246.195312 334.242188 246.078125 333.726562 245.957031 333.195312 C 245.808594 332.671875 245.746094 332.105469 245.640625 331.542969 C 245.542969 330.976562 245.441406 330.402344 245.339844 329.828125 C 245.222656 329.257812 245.175781 328.671875 245.089844 328.105469 C 245.027344 327.535156 244.910156 326.976562 244.855469 326.433594 C 244.75 325.34375 244.589844 324.324219 244.515625 323.445312 C 244.425781 322.570312 244.324219 321.835938 244.289062 321.320312 C 244.234375 320.804688 244.203125 320.507812 244.203125 320.507812 C 244.203125 320.507812 244.136719 320.800781 244.082031 321.316406 C 244.023438 321.832031 243.933594 322.574219 243.90625 323.464844 C 243.839844 324.359375 243.890625 325.398438 243.917969 326.515625 C 243.945312 327.070312 244.003906 327.648438 244.066406 328.230469 C 244.140625 328.8125 244.175781 329.40625 244.285156 329.996094 C 244.535156 331.164062 244.691406 332.351562 245.042969 333.417969 C 245.214844 333.953125 245.382812 334.46875 245.539062 334.957031 C 245.707031 335.441406 245.828125 335.910156 246.046875 336.308594 C 246.429688 337.125 246.789062 337.777344 247.019531 338.242188 C 247.261719 338.703125 247.410156 338.957031 247.410156 338.957031 C 247.410156 338.957031 247.347656 338.660156 247.210938 338.160156 C 247.066406 337.660156 246.890625 336.945312 246.628906 336.109375 Z M 294.164062 348.4375 C 293.984375 348.398438 293.765625 348.347656 293.511719 348.292969 C 293.261719 348.234375 292.984375 348.207031 292.679688 348.113281 C 292.070312 347.941406 291.359375 347.792969 290.601562 347.601562 C 289.847656 347.386719 289.03125 347.230469 288.226562 347.003906 C 287.414062 346.8125 286.597656 346.621094 285.835938 346.4375 C 285.070312 346.265625 284.351562 346.113281 283.730469 345.988281 C 282.488281 345.746094 281.636719 345.640625 281.636719 345.640625 C 281.636719 345.640625 282.375 346.082031 283.550781 346.574219 C 284.132812 346.828125 284.828125 347.09375 285.582031 347.34375 C 286.328125 347.613281 287.152344 347.820312 287.972656 348.042969 C 288.792969 348.25 289.636719 348.394531 290.421875 348.527344 C 290.808594 348.605469 291.203125 348.613281 291.570312 348.652344 C 291.933594 348.6875 292.28125 348.707031 292.601562 348.722656 C 292.914062 348.757812 293.21875 348.710938 293.480469 348.699219 C 293.742188 348.679688 293.96875 348.664062 294.15625 348.648438 C 294.523438 348.605469 294.738281 348.582031 294.738281 348.582031 C 294.738281 348.582031 294.527344 348.527344 294.164062 348.4375 Z M 33.921875 353.972656 C 33.691406 354.125 33.445312 354.289062 33.195312 354.472656 C 32.949219 354.660156 32.664062 354.820312 32.378906 355.007812 C 32.097656 355.191406 31.796875 355.371094 31.511719 355.578125 C 31.203125 355.753906 30.890625 355.933594 30.578125 356.113281 C 30.269531 356.296875 29.976562 356.511719 29.65625 356.667969 C 29.339844 356.824219 29.039062 357.007812 28.738281 357.167969 C 28.4375 357.328125 28.15625 357.5 27.886719 357.660156 C 27.609375 357.804688 27.34375 357.941406 27.101562 358.066406 C 26.128906 358.574219 25.496094 359.007812 25.496094 359.007812 C 25.496094 359.007812 26.238281 358.917969 27.332031 358.636719 C 27.886719 358.519531 28.507812 358.304688 29.148438 358.015625 C 29.46875 357.871094 29.8125 357.742188 30.144531 357.578125 C 30.480469 357.425781 30.796875 357.214844 31.125 357.03125 C 31.445312 356.832031 31.765625 356.632812 32.078125 356.4375 C 32.382812 356.21875 32.660156 355.980469 32.9375 355.761719 C 33.503906 355.339844 33.945312 354.832031 34.335938 354.425781 C 34.695312 353.980469 34.980469 353.609375 35.144531 353.316406 C 35.320312 353.035156 35.390625 352.859375 35.390625 352.859375 C 35.390625 352.859375 35.242188 352.984375 34.984375 353.179688 C 34.738281 353.386719 34.347656 353.640625 33.921875 353.972656 Z M 253.433594 200.398438 C 253.425781 197.605469 253.363281 194.996094 253.339844 192.761719 C 253.3125 190.527344 253.230469 188.660156 253.199219 187.359375 C 253.144531 186.054688 253.117188 185.308594 253.117188 185.308594 C 253.117188 185.308594 253.070312 186.054688 252.992188 187.355469 C 252.933594 188.660156 252.8125 190.519531 252.738281 192.753906 C 252.671875 194.988281 252.554688 197.59375 252.492188 200.390625 C 252.433594 203.179688 252.371094 206.15625 252.308594 209.136719 C 252.269531 210.617188 252.320312 212.121094 252.210938 213.566406 C 252.089844 215.007812 252.132812 216.453125 251.925781 217.816406 C 251.664062 219.167969 251.496094 220.476562 251.1875 221.730469 C 250.910156 222.976562 250.648438 224.164062 250.4375 225.269531 C 250.222656 226.375 250.097656 227.402344 250.015625 228.3125 C 249.960938 229.230469 249.933594 230.027344 249.984375 230.683594 C 249.984375 231.144531 250.046875 231.503906 250.105469 231.8125 C 249.769531 231.238281 249.414062 230.691406 249.054688 230.175781 C 247.589844 228.082031 245.960938 226.40625 244.480469 224.988281 C 242.972656 223.609375 241.65625 222.40625 240.574219 221.414062 C 239.511719 220.410156 238.734375 219.5625 238.265625 218.933594 C 237.800781 218.304688 237.609375 217.925781 237.609375 217.925781 C 237.609375 217.925781 237.773438 218.3125 238.199219 218.980469 C 238.625 219.644531 239.363281 220.546875 240.386719 221.605469 C 241.417969 222.644531 242.675781 223.910156 244.113281 225.359375 C 245.53125 226.816406 247.089844 228.507812 248.449219 230.585938 C 249.820312 232.648438 250.9375 235.117188 251.539062 237.871094 C 251.839844 239.246094 251.992188 240.691406 252.015625 242.175781 C 252.027344 242.929688 252.035156 243.695312 252.042969 244.46875 C 252.027344 245.234375 252.007812 246.007812 251.992188 246.785156 C 251.898438 249.910156 251.707031 253.152344 251.46875 256.4375 C 251.21875 259.726562 250.960938 263.066406 250.707031 266.402344 C 250.117188 273.082031 249.527344 279.761719 248.976562 286.023438 C 248.71875 289.15625 248.488281 292.191406 248.3125 295.070312 C 248.226562 296.511719 248.164062 297.917969 248.167969 299.292969 C 248.191406 300.648438 248.265625 301.972656 248.375 303.226562 C 248.839844 308.253906 249.628906 312.382812 250.222656 315.257812 C 250.527344 316.691406 250.808594 317.8125 251.023438 318.570312 C 251.128906 318.949219 251.222656 319.234375 251.292969 319.425781 C 251.367188 319.617188 251.421875 319.707031 251.421875 319.707031 C 251.421875 319.707031 251.367188 319.613281 251.304688 319.421875 C 251.242188 319.230469 251.164062 318.9375 251.070312 318.558594 C 250.886719 317.792969 250.660156 316.664062 250.402344 315.222656 C 249.894531 312.335938 249.253906 308.1875 248.925781 303.183594 C 248.84375 301.933594 248.792969 300.636719 248.796875 299.285156 C 248.820312 297.945312 248.90625 296.550781 249.015625 295.117188 C 249.25 292.253906 249.535156 289.230469 249.855469 286.101562 C 250.449219 279.84375 251.085938 273.167969 251.722656 266.492188 C 252.015625 263.148438 252.316406 259.808594 252.523438 256.507812 C 252.742188 253.210938 252.914062 249.964844 252.988281 246.804688 C 253 246.011719 253.011719 245.226562 253.023438 244.449219 C 253.011719 243.679688 252.996094 242.914062 252.984375 242.15625 C 252.949219 240.613281 252.769531 239.105469 252.441406 237.671875 C 251.984375 235.585938 251.179688 233.695312 250.21875 232.015625 C 250.195312 231.675781 250.152344 231.246094 250.195312 230.679688 C 250.195312 230.03125 250.285156 229.253906 250.410156 228.359375 C 250.566406 227.472656 250.769531 226.476562 251.027344 225.394531 C 251.289062 224.316406 251.605469 223.152344 251.949219 221.914062 C 252.3125 220.695312 252.574219 219.335938 252.859375 217.949219 L 252.96875 217.425781 L 253.007812 216.890625 C 253.035156 216.535156 253.0625 216.175781 253.089844 215.8125 C 253.140625 215.089844 253.191406 214.355469 253.242188 213.617188 C 253.363281 212.132812 253.328125 210.652344 253.375 209.160156 C 253.40625 206.175781 253.453125 203.191406 253.433594 200.398438 Z M 236.828125 140.070312 C 236.792969 139.28125 236.757812 138.476562 236.71875 137.660156 C 236.691406 137.246094 236.703125 136.867188 236.640625 136.410156 C 236.574219 135.992188 236.511719 135.574219 236.445312 135.152344 C 236.371094 134.734375 236.328125 134.304688 236.230469 133.886719 L 235.882812 132.648438 L 235.527344 131.40625 L 235.058594 130.207031 L 234.570312 129.015625 C 234.386719 128.628906 234.183594 128.25 233.996094 127.867188 C 233.609375 127.105469 233.234375 126.34375 232.78125 125.632812 C 231.945312 124.171875 231.011719 122.8125 230.085938 121.507812 C 229.605469 120.871094 229.144531 120.238281 228.667969 119.636719 C 228.171875 119.050781 227.691406 118.476562 227.21875 117.917969 C 226.253906 116.820312 225.332031 115.796875 224.441406 114.886719 C 223.574219 113.960938 222.71875 113.164062 221.96875 112.457031 C 221.210938 111.757812 220.539062 111.15625 219.980469 110.671875 C 218.855469 109.707031 218.179688 109.195312 218.179688 109.195312 C 218.179688 109.195312 218.796875 109.777344 219.835938 110.824219 C 220.359375 111.347656 220.984375 111.988281 221.6875 112.738281 C 222.382812 113.496094 223.171875 114.34375 224.003906 115.296875 C 224.847656 116.234375 225.714844 117.289062 226.621094 118.414062 C 227.0625 118.984375 227.515625 119.570312 227.976562 120.171875 C 228.421875 120.785156 228.871094 121.410156 229.332031 122.046875 C 230.222656 123.34375 231.125 124.691406 231.921875 126.128906 C 232.351562 126.832031 232.703125 127.578125 233.070312 128.324219 C 233.246094 128.699219 233.441406 129.066406 233.609375 129.445312 L 234.066406 130.601562 L 234.535156 131.753906 L 234.890625 132.9375 L 235.242188 134.121094 C 235.34375 134.515625 235.386719 134.921875 235.460938 135.316406 C 235.53125 135.71875 235.597656 136.117188 235.664062 136.511719 C 235.726562 136.867188 235.726562 137.316406 235.757812 137.710938 C 235.808594 138.523438 235.855469 139.328125 235.902344 140.117188 C 235.988281 141.699219 236.109375 143.226562 236.21875 144.675781 C 236.296875 145.398438 236.28125 146.097656 236.273438 146.777344 C 236.269531 147.453125 236.265625 148.109375 236.261719 148.738281 C 236.234375 149.996094 236.277344 151.15625 236.242188 152.183594 C 236.171875 153.207031 236.109375 154.097656 236.058594 154.835938 C 236.015625 155.574219 235.964844 156.152344 235.902344 156.542969 C 235.851562 156.933594 235.824219 157.144531 235.824219 157.144531 C 235.824219 157.144531 235.871094 156.9375 235.960938 156.554688 C 236.054688 156.167969 236.175781 155.597656 236.265625 154.859375 C 236.367188 154.128906 236.496094 153.234375 236.640625 152.214844 C 236.753906 151.1875 236.796875 150.019531 236.863281 148.746094 C 236.894531 148.109375 236.925781 147.445312 236.960938 146.757812 C 236.996094 146.070312 237.046875 145.355469 236.996094 144.632812 C 236.953125 143.183594 236.910156 141.652344 236.828125 140.070312 Z M 225.539062 114.246094 C 226.511719 114.789062 227.613281 115.246094 228.695312 115.75 C 229.253906 115.953125 229.8125 116.160156 230.363281 116.359375 C 230.917969 116.558594 231.460938 116.757812 232 116.902344 C 233.09375 117.171875 234.109375 117.414062 234.988281 117.570312 C 235.886719 117.660156 236.636719 117.683594 237.152344 117.722656 C 237.671875 117.753906 237.964844 117.753906 237.964844 117.753906 C 237.964844 117.753906 237.679688 117.65625 237.179688 117.515625 C 236.675781 117.386719 235.972656 117.171875 235.125 116.972656 C 234.292969 116.6875 233.332031 116.335938 232.292969 116.007812 C 231.773438 115.839844 231.261719 115.585938 230.722656 115.394531 C 230.1875 115.183594 229.644531 114.972656 229.101562 114.761719 C 228.035156 114.285156 226.949219 113.855469 225.949219 113.402344 C 224.949219 112.945312 224 112.550781 223.199219 112.175781 C 221.578125 111.457031 220.496094 110.980469 220.496094 110.980469 C 220.496094 110.980469 221.40625 111.75 222.910156 112.714844 C 223.648438 113.210938 224.558594 113.71875 225.539062 114.246094 Z M 40.945312 192.625 C 40.664062 191.40625 40.238281 190.019531 39.792969 188.527344 C 39.355469 187.03125 38.804688 185.46875 38.28125 183.894531 C 37.734375 182.328125 37.167969 180.773438 36.613281 179.320312 C 36.058594 177.867188 35.515625 176.523438 35.035156 175.375 C 34.558594 174.226562 34.113281 173.285156 33.824219 172.617188 C 33.523438 171.957031 33.339844 171.582031 33.339844 171.582031 C 33.339844 171.582031 33.445312 171.984375 33.628906 172.6875 C 33.832031 173.386719 34.09375 174.390625 34.457031 175.582031 C 34.808594 176.773438 35.246094 178.15625 35.726562 179.632812 C 36.195312 181.113281 36.746094 182.675781 37.273438 184.246094 C 37.828125 185.804688 38.382812 187.363281 38.898438 188.824219 C 39.433594 190.28125 39.929688 191.640625 40.359375 192.804688 C 40.566406 193.390625 40.769531 193.921875 40.953125 194.394531 C 41.148438 194.863281 41.261719 195.277344 41.367188 195.625 C 41.589844 196.320312 41.714844 196.714844 41.714844 196.714844 C 41.714844 196.714844 41.675781 196.3125 41.570312 195.585938 C 41.488281 194.847656 41.242188 193.839844 40.945312 192.625 Z M 208.480469 320.496094 C 208.058594 319.402344 207.550781 318.136719 206.980469 316.785156 C 206.390625 315.449219 205.679688 314.0625 204.996094 312.660156 C 204.285156 311.277344 203.601562 309.878906 202.878906 308.605469 C 202.160156 307.335938 201.472656 306.15625 200.867188 305.15625 C 199.65625 303.15625 198.75 301.882812 198.75 301.882812 C 198.75 301.882812 198.894531 302.246094 199.171875 302.867188 C 199.449219 303.492188 199.851562 304.378906 200.328125 305.445312 C 200.8125 306.511719 201.398438 307.738281 202.042969 309.042969 C 202.683594 310.351562 203.363281 311.746094 204.042969 313.140625 C 204.753906 314.519531 205.464844 315.898438 206.128906 317.195312 C 206.761719 318.503906 207.375 319.714844 207.917969 320.746094 C 208.453125 321.78125 208.941406 322.628906 209.265625 323.226562 C 209.597656 323.824219 209.800781 324.160156 209.800781 324.160156 C 209.800781 324.160156 209.6875 323.789062 209.457031 323.148438 C 209.21875 322.507812 208.90625 321.585938 208.480469 320.496094 Z M 61.035156 74.195312 C 61.414062 74.359375 61.726562 74.492188 61.949219 74.589844 C 62.050781 74.636719 62.144531 74.679688 62.175781 74.707031 C 62.199219 74.722656 62.109375 74.734375 62.125 74.730469 C 62.125 74.703125 62.15625 74.804688 62.230469 74.703125 C 62.21875 74.605469 62.160156 74.523438 62.082031 74.421875 C 61.925781 74.21875 61.683594 73.960938 61.371094 73.679688 C 61.0625 73.394531 60.683594 73.09375 60.261719 72.792969 C 60.042969 72.652344 59.851562 72.484375 59.59375 72.351562 C 59.34375 72.21875 59.085938 72.082031 58.832031 71.945312 L 58.441406 71.761719 L 58.015625 71.636719 C 57.730469 71.5625 57.460938 71.476562 57.175781 71.457031 C 56.890625 71.4375 56.617188 71.441406 56.359375 71.441406 C 56.097656 71.488281 55.855469 71.554688 55.640625 71.609375 C 55.429688 71.695312 55.246094 71.804688 55.089844 71.890625 C 54.941406 71.996094 54.828125 72.109375 54.734375 72.195312 C 54.558594 72.398438 54.503906 72.523438 54.503906 72.523438 C 54.503906 72.523438 54.640625 72.449219 54.851562 72.371094 C 54.964844 72.339844 55.097656 72.304688 55.253906 72.261719 C 55.40625 72.246094 55.578125 72.230469 55.765625 72.210938 C 55.957031 72.222656 56.15625 72.238281 56.363281 72.238281 C 56.574219 72.289062 56.789062 72.347656 57.015625 72.382812 C 57.238281 72.421875 57.460938 72.554688 57.695312 72.617188 L 58.046875 72.734375 L 58.386719 72.917969 C 58.847656 73.132812 59.308594 73.355469 59.773438 73.601562 C 60.226562 73.832031 60.660156 74.03125 61.035156 74.195312 Z M 77.292969 73.40625 C 77.875 73.539062 78.425781 73.640625 78.898438 73.707031 C 79.847656 73.855469 80.507812 73.859375 80.507812 73.859375 C 80.507812 73.859375 79.949219 73.507812 79.074219 73.117188 C 78.636719 72.917969 78.121094 72.707031 77.5625 72.503906 C 77.292969 72.394531 76.9375 72.304688 76.625 72.257812 C 76.300781 72.199219 75.96875 72.136719 75.636719 72.078125 C 75.292969 72.078125 74.949219 72.105469 74.609375 72.121094 C 74.273438 72.109375 73.949219 72.234375 73.636719 72.328125 C 73.320312 72.414062 73.03125 72.527344 72.78125 72.707031 C 72.527344 72.863281 72.28125 72.996094 72.109375 73.199219 C 71.929688 73.382812 71.75 73.53125 71.644531 73.714844 C 71.53125 73.890625 71.429688 74.03125 71.371094 74.167969 C 71.246094 74.4375 71.214844 74.59375 71.214844 74.59375 C 71.214844 74.59375 71.332031 74.46875 71.542969 74.296875 C 71.636719 74.203125 71.792969 74.117188 71.933594 74.003906 C 72.070312 73.882812 72.28125 73.8125 72.464844 73.695312 C 72.648438 73.570312 72.894531 73.519531 73.121094 73.425781 C 73.34375 73.316406 73.609375 73.285156 73.875 73.238281 C 74.136719 73.183594 74.40625 73.132812 74.699219 73.152344 C 74.984375 73.152344 75.273438 73.136719 75.5625 73.144531 C 75.855469 73.1875 76.152344 73.230469 76.441406 73.273438 C 76.746094 73.324219 76.996094 73.316406 77.292969 73.40625 Z M 58.625 69.984375 C 60.339844 70.328125 62.214844 71.304688 63.652344 72.933594 C 63.828125 73.136719 64.015625 73.339844 64.179688 73.558594 L 64.460938 73.90625 C 64.46875 73.929688 64.640625 74.105469 64.773438 74.160156 C 64.921875 74.230469 65.089844 74.25 65.230469 74.238281 C 65.761719 74.148438 65.976562 73.914062 66.242188 73.730469 C 66.492188 73.53125 66.714844 73.332031 66.9375 73.132812 C 67.820312 72.335938 68.671875 71.542969 69.636719 70.902344 C 70.59375 70.265625 71.621094 69.753906 72.703125 69.476562 C 73.78125 69.191406 74.890625 69.136719 75.957031 69.242188 C 76.488281 69.296875 77.019531 69.398438 77.515625 69.527344 C 78.03125 69.671875 78.5625 69.78125 79.042969 69.925781 C 80.007812 70.214844 80.925781 70.519531 81.730469 70.882812 C 83.347656 71.589844 84.597656 72.410156 85.296875 73.175781 C 86.023438 73.925781 86.1875 74.527344 86.1875 74.527344 C 86.1875 74.527344 86.171875 74.378906 86.074219 74.109375 C 85.976562 73.84375 85.796875 73.453125 85.464844 73.035156 C 84.820312 72.1875 83.644531 71.132812 82 70.320312 C 81.1875 69.886719 80.273438 69.511719 79.28125 69.144531 C 78.785156 68.964844 78.285156 68.8125 77.765625 68.648438 C 77.21875 68.488281 76.660156 68.363281 76.074219 68.28125 C 74.910156 68.113281 73.65625 68.152344 72.445312 68.464844 C 71.230469 68.765625 70.066406 69.316406 69.042969 70.03125 C 68.015625 70.738281 67.097656 71.582031 66.257812 72.402344 C 66.046875 72.601562 65.839844 72.804688 65.632812 72.976562 C 65.457031 73.136719 65.226562 73.277344 65.152344 73.296875 C 65.152344 73.292969 65.152344 73.292969 65.152344 73.292969 L 64.886719 72.976562 C 64.703125 72.742188 64.492188 72.535156 64.289062 72.324219 C 62.644531 70.648438 60.550781 69.707031 58.722656 69.441406 C 56.882812 69.171875 55.351562 69.449219 54.332031 69.699219 C 53.304688 69.972656 52.769531 70.25 52.769531 70.25 C 52.769531 70.25 53.339844 70.046875 54.371094 69.882812 C 55.394531 69.71875 56.90625 69.597656 58.625 69.984375 Z M 55.367188 90.449219 C 55.808594 89.980469 56.335938 89.472656 56.878906 89.285156 C 57.148438 89.195312 57.375 89.214844 57.59375 89.34375 C 57.804688 89.472656 58.011719 89.730469 58.164062 89.960938 C 58.34375 90.277344 58.472656 90.507812 58.574219 90.789062 C 58.675781 91.058594 58.738281 91.328125 58.777344 91.582031 C 58.847656 92.089844 58.828125 92.539062 58.765625 92.847656 C 58.710938 93.15625 58.648438 93.332031 58.648438 93.332031 C 58.648438 93.332031 58.777344 93.195312 58.921875 92.898438 C 59.054688 92.601562 59.238281 92.144531 59.253906 91.558594 C 59.269531 91.265625 59.242188 90.945312 59.164062 90.617188 C 59.105469 90.285156 58.949219 89.917969 58.804688 89.632812 C 58.613281 89.277344 58.398438 88.941406 58.003906 88.683594 C 57.617188 88.421875 57.046875 88.359375 56.628906 88.527344 C 55.789062 88.847656 55.273438 89.453125 54.835938 90.003906 C 54.402344 90.566406 54.074219 91.128906 53.824219 91.625 C 53.332031 92.621094 53.125 93.332031 53.125 93.332031 C 53.125 93.332031 53.546875 92.726562 54.207031 91.863281 C 54.535156 91.433594 54.921875 90.9375 55.367188 90.449219 Z M 82.855469 89.152344 C 83.667969 88.171875 84.140625 87.449219 84.140625 87.449219 C 84.140625 87.449219 83.414062 87.921875 82.425781 88.71875 C 81.925781 89.113281 81.359375 89.589844 80.769531 90.113281 C 80.171875 90.632812 79.570312 91.222656 78.953125 91.792969 C 78.347656 92.378906 77.746094 92.964844 77.207031 93.539062 C 76.660156 94.117188 76.167969 94.664062 75.734375 95.109375 C 74.875 96.019531 74.335938 96.71875 74.335938 96.71875 C 74.335938 96.71875 75.074219 96.320312 76.132812 95.578125 C 76.679688 95.21875 77.253906 94.746094 77.847656 94.226562 C 78.453125 93.714844 79.074219 93.136719 79.691406 92.5625 C 80.910156 91.390625 82.042969 90.132812 82.855469 89.152344 Z M 71.621094 113.445312 C 70.695312 113.488281 69.601562 113.503906 68.433594 113.542969 C 67.261719 113.574219 66.019531 113.652344 64.773438 113.726562 C 63.53125 113.828125 62.285156 113.898438 61.121094 114.015625 C 59.957031 114.117188 58.871094 114.238281 57.941406 114.363281 C 57.007812 114.476562 56.234375 114.609375 55.691406 114.683594 C 55.148438 114.769531 54.839844 114.835938 54.839844 114.835938 C 54.839844 114.835938 56.09375 114.933594 57.972656 114.972656 C 59.847656 114.992188 62.347656 114.957031 64.84375 114.792969 C 66.089844 114.699219 67.335938 114.605469 68.5 114.480469 C 69.667969 114.367188 70.753906 114.238281 71.6875 114.058594 C 72.621094 113.898438 73.386719 113.722656 73.921875 113.621094 C 74.457031 113.507812 74.757812 113.429688 74.757812 113.429688 C 74.757812 113.429688 74.4375 113.414062 73.886719 113.414062 C 73.339844 113.425781 72.550781 113.410156 71.621094 113.445312 Z M 66.007812 102.992188 C 67.070312 101.917969 68.265625 100.550781 69.070312 98.785156 C 69.886719 97.039062 70.289062 94.902344 69.894531 92.828125 C 69.6875 91.804688 69.355469 90.835938 68.902344 89.914062 C 68.441406 89.011719 67.820312 88.109375 66.863281 87.621094 C 65.894531 87.109375 64.777344 87.332031 63.980469 87.714844 C 63.15625 88.101562 62.503906 88.632812 61.941406 89.144531 C 60.820312 90.191406 60.09375 91.230469 59.585938 91.941406 C 59.089844 92.667969 58.851562 93.109375 58.851562 93.109375 C 58.851562 93.109375 59.148438 92.703125 59.707031 92.035156 C 60.261719 91.363281 61.097656 90.429688 62.230469 89.480469 C 62.796875 89.011719 63.453125 88.542969 64.207031 88.238281 C 64.957031 87.925781 65.824219 87.847656 66.550781 88.238281 C 67.285156 88.617188 67.832031 89.398438 68.238281 90.242188 C 68.640625 91.09375 68.945312 92.039062 69.113281 92.984375 C 69.28125 93.914062 69.320312 94.886719 69.191406 95.824219 C 69.066406 96.761719 68.792969 97.664062 68.429688 98.496094 C 67.6875 100.160156 66.671875 101.578125 65.675781 102.675781 C 64.671875 103.769531 63.757812 104.617188 63.078125 105.167969 C 62.402344 105.722656 61.992188 106.011719 61.992188 106.011719 C 61.992188 106.011719 62.441406 105.785156 63.171875 105.296875 C 63.894531 104.796875 64.929688 104.066406 66.007812 102.992188 Z M 137.441406 99.800781 C 136.996094 98.492188 136.511719 97.28125 136.042969 96.175781 C 135.109375 93.964844 134.164062 92.203125 133.519531 90.96875 C 132.859375 89.734375 132.445312 89.054688 132.445312 89.054688 C 132.445312 89.054688 132.765625 89.78125 133.332031 91.058594 C 133.898438 92.328125 134.648438 94.171875 135.488281 96.398438 C 135.902344 97.511719 136.320312 98.730469 136.699219 100.03125 C 137.066406 101.332031 137.40625 102.722656 137.570312 104.15625 C 137.644531 104.871094 137.671875 105.605469 137.554688 106.289062 C 137.496094 106.628906 137.402344 106.960938 137.246094 107.234375 L 136.683594 108.257812 C 135.957031 109.71875 135.367188 111.195312 134.792969 112.695312 C 133.707031 115.714844 132.804688 118.785156 132.070312 121.695312 C 131.902344 122.429688 131.71875 123.140625 131.566406 123.847656 C 131.433594 124.558594 131.296875 125.253906 131.167969 125.929688 C 130.941406 127.285156 130.734375 128.570312 130.613281 129.769531 C 130.453125 130.960938 130.429688 132.066406 130.414062 133.042969 C 130.421875 133.53125 130.433594 133.988281 130.441406 134.414062 C 130.453125 134.835938 130.523438 135.222656 130.554688 135.570312 C 130.597656 136.273438 130.777344 136.800781 130.871094 137.164062 C 130.964844 137.523438 131.019531 137.714844 131.019531 137.714844 C 131.019531 137.714844 130.984375 137.519531 130.925781 137.148438 C 130.867188 136.78125 130.757812 136.25 130.761719 135.550781 C 130.757812 135.203125 130.71875 134.824219 130.734375 134.40625 C 130.757812 133.992188 130.785156 133.539062 130.8125 133.058594 C 130.824219 132.578125 130.921875 132.070312 130.976562 131.53125 C 131.035156 130.996094 131.101562 130.433594 131.210938 129.847656 C 131.382812 128.671875 131.648438 127.414062 131.933594 126.082031 C 132.238281 124.757812 132.597656 123.367188 132.96875 121.929688 C 133.738281 119.058594 134.683594 116.027344 135.792969 113.066406 C 136.335938 111.585938 136.910156 110.09375 137.558594 108.738281 L 138.105469 107.699219 C 138.328125 107.292969 138.4375 106.863281 138.503906 106.449219 C 138.632812 105.617188 138.582031 104.816406 138.492188 104.050781 C 138.308594 102.515625 137.871094 101.113281 137.441406 99.800781 Z M 128.042969 80.96875 C 127.273438 83.414062 126.308594 86.242188 125.3125 89.285156 C 124.3125 92.324219 123.203125 95.550781 122.027344 98.753906 C 120.894531 101.96875 119.695312 105.160156 118.460938 108.105469 C 117.835938 109.574219 117.242188 111 116.632812 112.324219 C 116.023438 113.65625 115.421875 114.898438 114.804688 116.011719 C 114.511719 116.578125 114.195312 117.101562 113.898438 117.597656 C 113.617188 118.105469 113.308594 118.558594 113.019531 118.988281 C 112.445312 119.84375 111.875 120.546875 111.347656 121.0625 C 111.101562 121.347656 110.832031 121.53125 110.605469 121.714844 C 110.386719 121.898438 110.1875 122.042969 110 122.117188 C 109.640625 122.292969 109.449219 122.386719 109.449219 122.386719 C 109.449219 122.386719 109.648438 122.3125 110.023438 122.167969 C 110.222656 122.113281 110.4375 121.984375 110.679688 121.816406 C 110.925781 121.660156 111.222656 121.484375 111.488281 121.21875 C 112.066406 120.726562 112.695312 120.054688 113.339844 119.226562 C 113.996094 118.402344 114.671875 117.425781 115.324219 116.3125 C 116 115.210938 116.664062 113.980469 117.332031 112.664062 C 118.007812 111.351562 118.679688 109.949219 119.3125 108.46875 C 120.597656 105.519531 121.851562 102.332031 123.035156 99.113281 C 124.167969 95.882812 125.234375 92.628906 126.191406 89.566406 C 127.152344 86.503906 127.933594 83.613281 128.617188 81.140625 C 129.300781 78.667969 129.78125 76.582031 130.140625 75.128906 C 130.488281 73.671875 130.660156 72.835938 130.660156 72.835938 C 130.660156 72.835938 129.613281 76.089844 128.042969 80.96875 Z M 70.46875 36.089844 C 71.890625 34.878906 73.792969 33.28125 75.726562 31.726562 C 77.65625 30.171875 79.617188 28.664062 81.167969 27.652344 C 81.558594 27.410156 81.917969 27.1875 82.238281 26.988281 C 82.574219 26.820312 82.867188 26.675781 83.109375 26.554688 C 83.621094 26.371094 83.914062 26.269531 83.914062 26.269531 C 83.914062 26.269531 83.605469 26.277344 83.046875 26.355469 C 82.777344 26.429688 82.453125 26.523438 82.078125 26.625 C 81.71875 26.765625 81.296875 26.90625 80.871094 27.117188 C 80.445312 27.328125 79.96875 27.539062 79.507812 27.824219 C 79.035156 28.09375 78.535156 28.382812 78.046875 28.714844 C 77.046875 29.351562 76.046875 30.121094 75.054688 30.894531 C 74.085938 31.699219 73.128906 32.515625 72.28125 33.335938 C 71.421875 34.144531 70.664062 34.945312 70.039062 35.652344 C 69.410156 36.355469 68.941406 36.996094 68.609375 37.4375 C 68.296875 37.890625 68.140625 38.164062 68.140625 38.164062 C 68.140625 38.164062 68.371094 37.949219 68.769531 37.570312 C 69.164062 37.195312 69.761719 36.695312 70.46875 36.089844 Z M 284.6875 320.425781 C 285.101562 322.074219 285.230469 323.570312 285.164062 324.789062 C 285.097656 326.011719 284.875 326.957031 284.664062 327.582031 C 284.570312 327.898438 284.46875 328.128906 284.40625 328.289062 C 284.34375 328.445312 284.308594 328.527344 284.308594 328.527344 C 284.308594 328.527344 284.347656 328.449219 284.417969 328.292969 C 284.488281 328.140625 284.609375 327.914062 284.71875 327.601562 C 284.960938 326.988281 285.257812 326.046875 285.371094 324.804688 C 285.492188 323.566406 285.425781 322.035156 285.078125 320.339844 C 284.738281 318.636719 284.132812 316.761719 283.265625 314.816406 C 282.40625 312.867188 281.320312 310.828125 280.0625 308.742188 C 279.429688 307.699219 278.757812 306.644531 278.050781 305.578125 C 277.34375 304.492188 276.558594 303.496094 275.960938 302.347656 C 274.695312 300.066406 273.597656 297.5625 272.492188 295.03125 C 271.398438 292.488281 270.339844 289.878906 269.304688 287.261719 C 267.195312 282.042969 265.175781 276.777344 263.320312 271.832031 C 261.460938 266.886719 259.726562 262.269531 258.238281 258.3125 C 255.273438 250.390625 253.292969 245.109375 253.292969 245.109375 C 253.292969 245.109375 253.71875 246.453125 254.464844 248.808594 C 255.234375 251.152344 256.300781 254.511719 257.671875 258.511719 C 259.050781 262.511719 260.632812 267.1875 262.449219 272.152344 C 264.269531 277.121094 266.242188 282.40625 268.3125 287.65625 C 269.371094 290.273438 270.457031 292.882812 271.578125 295.429688 C 272.710938 297.972656 273.828125 300.46875 275.152344 302.804688 C 275.796875 303.992188 276.613281 305.054688 277.328125 306.074219 C 278.054688 307.109375 278.75 308.136719 279.398438 309.152344 C 280.695312 311.183594 281.820312 313.167969 282.714844 315.066406 C 283.609375 316.964844 284.285156 318.769531 284.6875 320.425781 Z M 244.855469 191.089844 C 247.144531 189.546875 249.824219 187.75 252.582031 185.667969 C 255.335938 183.585938 258.285156 181.359375 261.011719 178.847656 C 262.371094 177.59375 263.699219 176.292969 264.875 174.859375 C 265.46875 174.167969 266.003906 173.351562 266.4375 172.574219 C 266.863281 171.835938 267.355469 171.121094 267.851562 170.4375 C 269.882812 167.714844 272.238281 165.511719 274.328125 163.742188 C 276.421875 161.964844 278.285156 160.621094 279.648438 159.773438 C 280.328125 159.347656 280.878906 159.039062 281.273438 158.875 C 281.667969 158.6875 281.910156 158.722656 281.902344 158.75 C 281.914062 158.722656 281.667969 158.671875 281.257812 158.828125 C 280.847656 158.96875 280.265625 159.226562 279.554688 159.613281 C 278.140625 160.390625 276.179688 161.621094 273.984375 163.316406 C 271.808594 165.03125 269.347656 167.167969 267.15625 169.90625 C 266.609375 170.59375 266.105469 171.328125 265.632812 172.117188 C 265.191406 172.886719 264.726562 173.570312 264.136719 174.246094 C 262.996094 175.601562 261.671875 176.863281 260.3125 178.078125 C 257.582031 180.5 254.738281 182.824219 252.011719 184.914062 C 249.269531 186.992188 246.722656 188.953125 244.496094 190.574219 C 240.042969 193.832031 237.074219 196.003906 237.074219 196.003906 C 237.074219 196.003906 237.871094 195.546875 239.242188 194.695312 C 240.605469 193.839844 242.570312 192.640625 244.855469 191.089844 Z M 168.925781 222.3125 C 166.585938 219.140625 163.894531 215.414062 161.023438 211.410156 C 158.128906 207.421875 155.066406 203.152344 152.039062 198.859375 C 150.554688 196.699219 149.027344 194.578125 147.589844 192.421875 L 147.046875 191.621094 C 146.910156 191.378906 146.75 191.117188 146.628906 190.835938 C 146.363281 190.285156 146.144531 189.695312 145.933594 189.109375 C 145.519531 187.933594 145.175781 186.738281 144.851562 185.558594 C 144.207031 183.191406 143.699219 180.871094 143.195312 178.675781 C 142.703125 176.472656 142.265625 174.386719 141.878906 172.453125 C 141.128906 168.585938 140.5 165.363281 140.0625 163.105469 C 139.636719 160.84375 139.394531 159.550781 139.394531 159.550781 C 139.394531 159.550781 139.53125 160.859375 139.835938 163.140625 C 140.144531 165.421875 140.570312 168.683594 141.238281 172.574219 C 141.902344 176.464844 142.675781 181.007812 143.921875 185.804688 C 144.238281 187.003906 144.574219 188.21875 144.988281 189.441406 C 145.199219 190.050781 145.421875 190.660156 145.703125 191.269531 C 145.835938 191.578125 146.003906 191.867188 146.183594 192.1875 L 146.722656 192.996094 C 148.125 195.164062 149.671875 197.308594 151.195312 199.460938 C 154.261719 203.734375 157.363281 207.980469 160.292969 211.945312 C 163.257812 215.886719 166.050781 219.542969 168.472656 222.65625 C 169.664062 224.226562 170.832031 225.613281 171.832031 226.863281 C 172.839844 228.109375 173.703125 229.207031 174.464844 230.074219 C 175.96875 231.816406 176.828125 232.8125 176.828125 232.8125 C 176.828125 232.8125 176.023438 231.769531 174.613281 229.953125 C 173.199219 228.144531 171.265625 225.484375 168.925781 222.3125 Z M 93.417969 157.078125 C 92.75 156.1875 91.992188 155.117188 91.085938 154.0625 C 90.191406 152.992188 89.222656 151.863281 88.21875 150.773438 C 87.207031 149.6875 86.191406 148.605469 85.195312 147.632812 C 84.214844 146.648438 83.273438 145.753906 82.449219 145.003906 C 81.636719 144.246094 80.914062 143.65625 80.429688 143.222656 C 79.933594 142.800781 79.636719 142.574219 79.636719 142.574219 C 79.636719 142.574219 79.871094 142.863281 80.28125 143.371094 C 80.699219 143.867188 81.292969 144.578125 82.011719 145.429688 C 82.734375 146.273438 83.59375 147.242188 84.515625 148.277344 C 85.445312 149.304688 86.4375 150.402344 87.429688 151.496094 C 89.433594 153.664062 91.4375 155.835938 92.941406 157.464844 C 93.710938 158.261719 94.285156 158.980469 94.722656 159.460938 C 95.152344 159.949219 95.414062 160.21875 95.414062 160.21875 C 95.414062 160.21875 95.230469 159.894531 94.894531 159.339844 C 94.53125 158.804688 94.101562 157.957031 93.417969 157.078125 Z M 109.402344 136.511719 C 109.003906 136.046875 108.558594 135.507812 107.984375 135.007812 C 107.71875 134.738281 107.410156 134.488281 107.089844 134.234375 C 106.777344 133.964844 106.441406 133.710938 106.078125 133.46875 C 105.726562 133.207031 105.351562 132.960938 104.953125 132.730469 C 104.570312 132.480469 104.148438 132.269531 103.722656 132.058594 C 102.871094 131.628906 101.960938 131.246094 101.015625 130.925781 C 100.070312 130.609375 99.089844 130.335938 98.101562 130.121094 C 96.117188 129.714844 94.105469 129.492188 92.21875 129.464844 C 90.332031 129.421875 88.574219 129.5625 87.082031 129.722656 C 85.589844 129.886719 84.363281 130.152344 83.507812 130.328125 C 82.65625 130.523438 82.179688 130.675781 82.179688 130.675781 C 82.179688 130.675781 82.671875 130.625 83.539062 130.535156 C 84.40625 130.441406 85.644531 130.386719 87.125 130.320312 C 88.609375 130.257812 90.339844 130.296875 92.175781 130.402344 C 94.015625 130.519531 95.96875 130.753906 97.878906 131.167969 C 101.710938 131.941406 105.3125 133.609375 107.59375 135.464844 C 108.753906 136.367188 109.605469 137.265625 110.183594 137.910156 C 110.738281 138.582031 111.054688 138.964844 111.054688 138.964844 C 111.054688 138.964844 110.796875 138.535156 110.347656 137.78125 C 110.09375 137.429688 109.785156 136.992188 109.402344 136.511719 Z M 74.203125 74.132812 C 73.433594 74.203125 72.847656 74.667969 72.894531 75.164062 C 72.941406 75.660156 73.605469 76.003906 74.378906 75.929688 C 75.148438 75.855469 75.734375 75.390625 75.6875 74.894531 C 75.640625 74.398438 74.976562 74.058594 74.203125 74.132812 Z M 57.265625 73.871094 C 56.503906 73.742188 55.816406 74.03125 55.730469 74.523438 C 55.644531 75.011719 56.195312 75.519531 56.957031 75.652344 C 57.722656 75.785156 58.410156 75.492188 58.496094 75.003906 C 58.582031 74.511719 58.03125 74.007812 57.265625 73.871094 Z M 55.574219 100.328125 C 56.242188 97.921875 56.910156 95.785156 56.910156 95.785156 C 56.910156 95.785156 57.445312 93.242188 56.109375 93.914062 C 54.773438 94.582031 53.570312 97.65625 53.835938 99.261719 C 54.105469 100.863281 54.90625 102.734375 55.574219 100.328125 Z M 60.921875 101.664062 C 59.585938 103.402344 58.382812 104.472656 59.183594 95.25 C 59.183594 95.25 61.722656 90.839844 63.328125 92.84375 C 64.933594 94.847656 62.257812 99.929688 60.921875 101.664062" fill="#281536"/></g></g></svg>