<?xml version="1.0" encoding="UTF-8"?><svg xmlns="http://www.w3.org/2000/svg" xmlns:xlink="http://www.w3.org/1999/xlink" fill="#000000" height="397.1" preserveAspectRatio="xMidYMid meet" version="1" viewBox="0.0 0.0 422.0 397.1" width="422" zoomAndPan="magnify"><defs><clipPath id="a"><path d="M 0 0 L 422 0 L 422 397.128906 L 0 397.128906 Z M 0 0"/></clipPath></defs><g><g clip-path="url(#a)" id="change1_1"><path d="M 170.257812 371.96875 C 168.992188 371.929688 167.667969 371.09375 167.621094 369.710938 C 167.578125 368.335938 168.800781 367.488281 170.0625 367.421875 C 171.121094 367.371094 171.113281 369.015625 170.0625 369.066406 C 169.71875 369.085938 169.195312 369.273438 169.265625 369.710938 C 169.335938 370.148438 169.890625 370.3125 170.257812 370.324219 C 171.3125 370.355469 171.3125 372 170.257812 371.96875 Z M 417.171875 150.210938 C 417.171875 150.210938 417.203125 150.175781 417.234375 150.140625 C 417.242188 150.148438 417.242188 150.152344 417.246094 150.160156 C 417.269531 150.195312 417.359375 150.328125 417.378906 150.367188 C 417.453125 150.496094 417.429688 150.4375 417.480469 150.605469 C 417.523438 150.742188 417.566406 150.882812 417.582031 151.027344 C 417.578125 150.980469 417.578125 151.003906 417.578125 151.046875 C 417.417969 150.957031 417.28125 150.867188 417.167969 150.738281 C 417.082031 150.644531 417.007812 150.515625 417.039062 150.425781 C 417.050781 150.390625 417.117188 150.277344 417.171875 150.210938 Z M 417.1875 150.097656 C 417.1875 150.101562 417.183594 150.097656 417.183594 150.089844 C 417.183594 150.09375 417.183594 150.09375 417.1875 150.097656 Z M 417.296875 150.085938 C 417.3125 150.054688 417.382812 150.109375 417.285156 150.089844 C 417.296875 150.078125 417.300781 150.074219 417.296875 150.085938 Z M 418.230469 152.792969 C 418.273438 152.777344 418.296875 152.753906 418.332031 152.734375 C 418.363281 152.722656 418.394531 152.722656 418.425781 152.710938 C 420.242188 151.796875 418.808594 147.84375 416.78125 148.523438 C 415.5625 148.933594 415.023438 150.507812 415.734375 151.566406 C 416.191406 152.246094 417.351562 153.066406 418.230469 152.792969 Z M 398.257812 117.375 C 398.359375 117.285156 398.511719 117.238281 398.636719 117.207031 C 398.667969 117.199219 398.691406 117.195312 398.710938 117.199219 C 398.714844 117.234375 398.816406 117.378906 398.820312 117.382812 C 398.917969 117.640625 398.917969 117.746094 398.914062 118.03125 C 398.910156 118.171875 398.84375 118.472656 398.816406 118.554688 C 398.769531 118.511719 398.71875 118.464844 398.6875 118.433594 C 398.484375 118.230469 398.316406 117.996094 398.203125 117.734375 C 398.128906 117.554688 398.121094 117.496094 398.257812 117.375 Z M 398.40625 120.214844 C 398.519531 120.277344 398.652344 120.320312 398.8125 120.316406 C 401.105469 120.269531 401.144531 116.050781 399.039062 115.597656 C 397.667969 115.304688 396.273438 116.574219 396.566406 117.964844 C 396.757812 118.851562 397.507812 119.871094 398.40625 120.214844 Z M 397.996094 185.125 C 398.1875 184.941406 398.398438 184.78125 398.632812 184.65625 C 398.742188 184.597656 398.804688 184.570312 398.894531 184.53125 C 398.953125 184.507812 399 184.503906 399.039062 184.5 C 399.117188 184.621094 399.242188 184.738281 399.296875 184.875 C 399.417969 185.15625 399.4375 185.511719 399.25 185.765625 C 398.828125 186.335938 398.011719 186.078125 397.535156 185.707031 C 397.535156 185.703125 397.542969 185.6875 397.542969 185.6875 C 397.652344 185.46875 397.820312 185.292969 397.996094 185.125 Z M 396.242188 186.765625 C 397.382812 187.839844 399.332031 188.179688 400.457031 186.878906 C 401.394531 185.789062 401.132812 183.710938 399.804688 183.007812 C 398.792969 182.476562 397.550781 183.273438 396.835938 183.960938 C 396.160156 184.609375 395.585938 185.589844 396.035156 186.453125 C 396.074219 186.5625 396.140625 186.667969 396.242188 186.765625 Z M 414.871094 171.953125 C 415.09375 172.019531 415.3125 172.140625 415.367188 172.246094 C 415.472656 172.445312 415.449219 172.703125 415.367188 173.003906 C 415.363281 173.015625 415.328125 173.074219 415.300781 173.117188 C 415.296875 173.121094 415.292969 173.128906 415.261719 173.144531 C 415.320312 173.113281 415.265625 173.121094 415.253906 173.113281 C 415.019531 173.011719 414.828125 172.9375 414.597656 172.734375 C 414.351562 172.511719 414.140625 172.261719 414.007812 171.953125 C 414.003906 171.941406 413.992188 171.90625 413.976562 171.867188 C 413.996094 171.867188 414.015625 171.867188 414.066406 171.867188 C 414.414062 171.859375 414.574219 171.867188 414.871094 171.953125 Z M 415.277344 173.152344 C 415.28125 173.144531 415.28125 173.144531 415.289062 173.140625 C 415.277344 173.15625 415.269531 173.167969 415.277344 173.152344 Z M 415.351562 174.761719 C 416.519531 174.726562 417.117188 173.535156 417.089844 172.484375 C 417.058594 171.417969 416.292969 170.652344 415.308594 170.367188 C 414.554688 170.148438 413.320312 170.058594 412.707031 170.671875 C 412.671875 170.707031 412.660156 170.746094 412.632812 170.78125 C 412.617188 170.800781 412.59375 170.816406 412.578125 170.835938 C 411.414062 172.390625 413.792969 174.8125 415.351562 174.761719 Z M 410.226562 193.316406 C 410.253906 193.316406 410.300781 193.308594 410.273438 193.304688 C 410.238281 193.300781 410.378906 193.328125 410.402344 193.339844 C 410.476562 193.363281 410.542969 193.40625 410.597656 193.445312 C 410.589844 193.457031 410.585938 193.464844 410.585938 193.464844 C 410.558594 193.496094 410.535156 193.523438 410.503906 193.550781 C 410.371094 193.671875 410.410156 193.648438 410.257812 193.734375 C 410.050781 193.855469 409.957031 193.902344 409.78125 193.949219 C 409.820312 193.800781 409.851562 193.734375 409.960938 193.558594 C 410.042969 193.421875 410.121094 193.351562 410.226562 193.316406 Z M 410.65625 193.398438 C 410.65625 193.394531 410.652344 193.382812 410.652344 193.382812 C 410.667969 193.414062 410.664062 193.40625 410.65625 193.398438 Z M 410.675781 193.492188 C 410.714844 193.511719 410.683594 193.46875 410.6875 193.511719 C 410.691406 193.5625 410.683594 193.535156 410.675781 193.492188 Z M 409.699219 194.308594 C 409.761719 194.34375 409.722656 194.355469 409.703125 194.335938 C 409.699219 194.328125 409.695312 194.316406 409.695312 194.308594 C 409.695312 194.304688 409.695312 194.300781 409.695312 194.300781 C 409.699219 194.300781 409.699219 194.304688 409.699219 194.308594 Z M 409.710938 194.265625 C 409.746094 194.214844 409.714844 194.199219 409.699219 194.292969 C 409.699219 194.289062 409.703125 194.289062 409.703125 194.285156 C 409.707031 194.277344 409.703125 194.273438 409.710938 194.265625 Z M 408.222656 194.96875 C 408.308594 195.128906 408.425781 195.21875 408.550781 195.28125 C 410.117188 196.421875 413.339844 194.28125 411.980469 192.503906 C 411.21875 191.507812 409.691406 191.386719 408.84375 192.320312 C 408.347656 192.867188 407.902344 193.882812 408.105469 194.667969 C 408.117188 194.777344 408.152344 194.878906 408.222656 194.96875 Z M 397.832031 206.710938 C 397.910156 206.832031 397.894531 206.820312 397.890625 206.898438 C 397.894531 206.808594 397.875 206.898438 397.882812 206.886719 C 397.867188 206.914062 397.796875 206.96875 397.753906 207 C 397.554688 207.132812 397.394531 207.183594 397.109375 207.230469 C 397.023438 207.246094 396.722656 207.238281 396.59375 207.222656 C 396.617188 207.179688 396.636719 207.144531 396.652344 207.121094 C 396.792969 206.902344 396.972656 206.691406 397.183594 206.539062 C 397.289062 206.460938 397.378906 206.40625 397.488281 206.390625 C 397.484375 206.390625 397.527344 206.386719 397.566406 206.410156 C 397.683594 206.480469 397.761719 206.59375 397.832031 206.710938 Z M 396.667969 204.949219 C 395.867188 205.316406 394.78125 206.433594 394.839844 207.402344 C 394.84375 207.445312 394.863281 207.472656 394.871094 207.507812 C 394.871094 207.546875 394.863281 207.582031 394.871094 207.621094 C 395.347656 209.847656 399.589844 208.976562 399.535156 206.816406 C 399.5 205.394531 397.96875 204.34375 396.667969 204.949219 Z M 90.597656 322.128906 C 90.394531 321.851562 90.34375 321.386719 90.363281 321.058594 C 90.367188 321.042969 90.382812 320.96875 90.394531 320.917969 C 90.550781 320.925781 90.71875 320.972656 90.902344 321.078125 C 91.125 321.210938 91.371094 321.410156 91.5 321.582031 C 91.578125 321.683594 91.660156 321.851562 91.664062 321.863281 C 91.675781 321.890625 91.6875 321.945312 91.695312 321.960938 C 91.667969 321.984375 91.667969 321.988281 91.691406 321.972656 C 91.679688 321.980469 91.683594 321.976562 91.664062 321.988281 C 91.621094 322.019531 91.578125 322.046875 91.535156 322.074219 C 91.347656 322.179688 91.078125 322.265625 90.949219 322.273438 C 90.785156 322.28125 90.703125 322.273438 90.597656 322.128906 Z M 90.382812 320.917969 C 90.378906 320.917969 90.367188 320.910156 90.335938 320.910156 C 90.351562 320.910156 90.367188 320.917969 90.382812 320.917969 Z M 90.402344 320.886719 Z M 93.113281 322.820312 C 93.191406 322.730469 93.257812 322.617188 93.285156 322.464844 C 93.332031 322.332031 93.335938 322.210938 93.320312 322.101562 C 93.324219 320.46875 91.332031 318.730469 89.738281 319.398438 C 88.632812 319.859375 88.582031 321.277344 88.878906 322.273438 C 89.175781 323.273438 89.996094 323.996094 91.078125 323.90625 C 91.800781 323.847656 92.691406 323.472656 93.113281 322.820312 Z M 105 313.320312 C 104.945312 313.390625 104.878906 313.433594 104.8125 313.472656 C 104.800781 313.449219 104.785156 313.421875 104.769531 313.394531 C 104.746094 313.351562 104.652344 312.988281 104.644531 312.929688 C 104.636719 312.804688 104.636719 312.675781 104.640625 312.550781 C 104.640625 312.535156 104.640625 312.53125 104.640625 312.519531 C 104.742188 312.605469 104.9375 312.796875 105.015625 312.953125 C 105.03125 312.984375 105.078125 313.15625 105.078125 313.136719 C 105.078125 313.128906 105.046875 313.25 105 313.320312 Z M 104.855469 313.546875 C 104.863281 313.550781 104.867188 313.554688 104.867188 313.550781 C 104.878906 313.578125 104.867188 313.570312 104.855469 313.546875 Z M 104.542969 310.699219 C 104.523438 310.699219 104.5 310.699219 104.476562 310.699219 C 104.449219 310.699219 104.417969 310.691406 104.390625 310.695312 C 104.367188 310.695312 104.347656 310.707031 104.324219 310.710938 C 104.273438 310.714844 104.226562 310.707031 104.171875 310.722656 C 102.269531 311.277344 102.738281 315.121094 104.734375 315.167969 C 106.011719 315.199219 106.976562 313.757812 106.636719 312.585938 C 106.414062 311.828125 105.449219 310.726562 104.542969 310.699219 Z M 80.605469 303.078125 C 80.65625 303.160156 80.652344 303.140625 80.648438 303.179688 C 80.644531 303.191406 80.640625 303.28125 80.59375 303.378906 C 80.554688 303.449219 80.535156 303.480469 80.492188 303.539062 C 80.488281 303.542969 80.484375 303.546875 80.480469 303.550781 C 80.355469 303.433594 80.289062 303.324219 80.183594 303.101562 C 80.144531 303.011719 80.089844 302.808594 80.058594 302.671875 C 80.09375 302.6875 80.140625 302.710938 80.207031 302.75 C 80.304688 302.804688 80.421875 302.886719 80.429688 302.894531 C 80.546875 302.992188 80.5625 303.003906 80.605469 303.078125 Z M 80.585938 303.621094 C 80.570312 303.625 80.546875 303.609375 80.53125 303.597656 C 80.53125 303.597656 80.53125 303.597656 80.535156 303.597656 C 80.539062 303.601562 80.539062 303.601562 80.542969 303.605469 C 80.539062 303.601562 80.539062 303.601562 80.535156 303.597656 C 80.578125 303.601562 80.640625 303.605469 80.585938 303.621094 Z M 80.484375 303.609375 C 80.507812 303.613281 80.484375 303.617188 80.484375 303.609375 Z M 80.433594 303.609375 C 80.441406 303.609375 80.441406 303.609375 80.445312 303.609375 C 80.433594 303.625 80.433594 303.621094 80.433594 303.609375 Z M 80.429688 303.609375 C 80.417969 303.671875 80.3125 303.613281 80.429688 303.609375 Z M 79.734375 302.566406 C 79.726562 302.5625 79.730469 302.5625 79.730469 302.5625 C 79.730469 302.5625 79.734375 302.5625 79.734375 302.5625 C 79.738281 302.5625 79.746094 302.5625 79.746094 302.566406 C 79.78125 302.574219 79.808594 302.597656 79.734375 302.566406 Z M 79.609375 300.953125 C 79.457031 300.9375 79.292969 300.953125 79.121094 301.058594 C 79.019531 301.105469 78.9375 301.175781 78.875 301.265625 C 77.484375 302.621094 79.351562 306.179688 81.261719 305.027344 C 82.359375 304.359375 82.609375 302.820312 81.746094 301.878906 C 81.246094 301.332031 80.386719 300.886719 79.609375 300.953125 Z M 202.65625 395.476562 C 202.648438 395.476562 202.652344 395.476562 202.648438 395.476562 C 202.632812 395.472656 202.628906 395.472656 202.589844 395.46875 C 202.539062 395.460938 202.480469 395.441406 202.433594 395.425781 C 202.523438 395.457031 202.300781 395.351562 202.351562 395.378906 C 202.320312 395.363281 202.3125 395.371094 202.28125 395.269531 C 202.257812 395.179688 202.25 395.023438 202.257812 394.960938 C 202.257812 394.957031 202.257812 394.957031 202.257812 394.953125 C 202.300781 394.964844 202.34375 394.972656 202.386719 394.988281 C 202.523438 395.027344 202.492188 395.011719 202.636719 395.101562 C 202.8125 395.203125 202.964844 395.320312 203.085938 395.449219 C 203.015625 395.464844 202.964844 395.476562 203.027344 395.46875 C 202.90625 395.480469 202.78125 395.484375 202.65625 395.476562 Z M 202.175781 394.945312 C 202.175781 394.945312 202.183594 394.949219 202.1875 394.949219 C 202.128906 395 202.136719 394.867188 202.175781 394.945312 Z M 202.21875 394.917969 C 202.164062 394.941406 202.246094 394.875 202.21875 394.917969 Z M 203.445312 395.359375 C 203.441406 395.363281 203.429688 395.367188 203.398438 395.375 C 203.398438 395.375 203.394531 395.378906 203.394531 395.378906 C 203.371094 395.375 203.4375 395.355469 203.445312 395.359375 Z M 200.71875 394.347656 C 200.328125 395.503906 200.957031 396.773438 202.152344 397.050781 C 202.867188 397.21875 203.917969 397.132812 204.507812 396.601562 C 204.601562 396.535156 204.679688 396.453125 204.730469 396.347656 C 204.820312 396.210938 204.851562 396.078125 204.855469 395.949219 C 205.214844 393.945312 201.496094 392.078125 200.71875 394.347656 Z M 231.957031 384.015625 C 231.84375 384.085938 231.675781 384.164062 231.664062 384.167969 C 231.304688 384.296875 231.148438 384.320312 230.785156 384.300781 C 230.753906 384.296875 230.734375 384.296875 230.71875 384.296875 C 230.707031 384.292969 230.691406 384.289062 230.664062 384.28125 C 230.601562 384.269531 230.535156 384.25 230.472656 384.226562 C 230.46875 384.222656 230.445312 384.207031 230.417969 384.191406 C 230.417969 384.15625 230.421875 384.125 230.421875 384.089844 C 230.421875 384.074219 230.421875 384.078125 230.421875 384.070312 C 230.425781 384.0625 230.425781 384.0625 230.429688 384.039062 C 230.503906 383.734375 230.496094 383.679688 230.664062 383.449219 C 230.667969 383.445312 230.742188 383.359375 230.761719 383.34375 C 230.789062 383.320312 230.792969 383.316406 230.800781 383.308594 C 230.808594 383.304688 230.808594 383.304688 230.835938 383.292969 C 230.867188 383.277344 230.871094 383.273438 230.878906 383.265625 C 230.886719 383.265625 230.894531 383.269531 230.925781 383.261719 C 230.773438 383.285156 231.019531 383.261719 231.039062 383.265625 C 231.269531 383.300781 231.710938 383.539062 231.949219 383.785156 C 232.007812 383.84375 232.039062 383.894531 232.0625 383.925781 C 232.035156 383.960938 232.011719 383.980469 231.957031 384.015625 Z M 231.949219 381.84375 C 230.949219 381.414062 229.890625 381.664062 229.273438 382.578125 C 228.839844 383.210938 228.535156 384.3125 228.964844 385.023438 C 229.597656 385.859375 230.585938 386.050781 231.578125 385.882812 C 232.421875 385.742188 233.414062 385.25 233.660156 384.363281 C 233.988281 383.199219 232.90625 382.257812 231.949219 381.84375 Z M 187.90625 383.511719 C 187.902344 383.503906 187.90625 383.503906 187.902344 383.5 C 187.910156 383.503906 187.914062 383.511719 187.90625 383.511719 Z M 188.269531 383.773438 C 188.253906 383.769531 188.253906 383.769531 188.25 383.765625 C 188.242188 383.761719 188.230469 383.753906 188.203125 383.742188 C 188.136719 383.703125 188.066406 383.667969 188 383.621094 C 188.050781 383.65625 187.953125 383.582031 187.90625 383.53125 C 187.90625 383.523438 187.90625 383.519531 187.90625 383.511719 C 187.902344 383.511719 187.898438 383.515625 187.894531 383.515625 C 187.898438 383.523438 187.898438 383.519531 187.898438 383.523438 C 187.878906 383.5 187.867188 383.484375 187.890625 383.488281 C 187.90625 383.488281 187.902344 383.496094 187.902344 383.5 C 187.902344 383.46875 187.898438 383.429688 187.898438 383.40625 C 187.910156 383.367188 187.9375 383.265625 187.945312 383.25 C 187.976562 383.1875 188.015625 383.117188 188.054688 383.058594 C 188.101562 382.980469 188.171875 382.945312 188.160156 382.949219 C 188.164062 382.953125 188.171875 382.957031 188.191406 382.960938 C 188.230469 382.96875 188.234375 382.96875 188.246094 382.964844 C 188.253906 382.972656 188.253906 382.976562 188.28125 382.988281 C 188.34375 383.019531 188.402344 383.054688 188.457031 383.09375 C 188.484375 383.113281 188.46875 383.09375 188.554688 383.175781 C 188.609375 383.222656 188.660156 383.277344 188.710938 383.328125 C 188.871094 383.503906 188.992188 383.730469 189.058594 383.914062 C 189.0625 383.921875 189.066406 383.933594 189.066406 383.945312 C 189.035156 383.945312 189.007812 383.945312 188.976562 383.945312 C 188.949219 383.941406 188.917969 383.941406 188.898438 383.9375 C 188.832031 383.929688 188.765625 383.914062 188.699219 383.902344 C 188.554688 383.867188 188.40625 383.828125 188.269531 383.773438 Z M 188.265625 381.320312 C 187.203125 381.25 186.410156 382.210938 186.277344 383.195312 C 186.136719 384.210938 186.828125 384.957031 187.71875 385.3125 C 188.371094 385.574219 189.421875 385.804688 190.066406 385.398438 C 190.101562 385.378906 190.121094 385.347656 190.152344 385.320312 C 190.179688 385.300781 190.207031 385.292969 190.234375 385.269531 C 190.96875 384.671875 190.78125 383.59375 190.382812 382.867188 C 189.960938 382.097656 189.175781 381.378906 188.265625 381.320312 Z M 220.191406 381.429688 C 220.164062 381.464844 220.125 381.515625 220.085938 381.5625 C 220.019531 381.53125 219.949219 381.496094 219.925781 381.480469 C 219.765625 381.351562 219.613281 381.144531 219.65625 380.925781 C 219.738281 380.523438 220.199219 380.441406 220.574219 380.476562 C 220.566406 380.511719 220.5 380.804688 220.457031 380.921875 C 220.390625 381.097656 220.300781 381.273438 220.191406 381.429688 Z M 221.625 379.121094 C 221.539062 379.042969 221.429688 378.976562 221.292969 378.9375 C 220 378.574219 218.355469 379.128906 218.058594 380.578125 C 217.8125 381.78125 218.8125 383.253906 220.109375 383.257812 C 221.113281 383.261719 221.753906 382.191406 222.039062 381.359375 C 222.320312 380.546875 222.316406 379.621094 221.625 379.121094 Z M 267.25 366.476562 C 267.226562 366.484375 267.210938 366.484375 267.25 366.476562 Z M 267.324219 366.398438 C 267.332031 366.339844 267.355469 366.347656 267.324219 366.398438 Z M 267.886719 366.550781 C 268.046875 366.597656 268.015625 366.585938 268.140625 366.652344 C 268.160156 366.664062 268.207031 366.691406 268.257812 366.722656 C 268.101562 366.796875 267.921875 366.859375 267.800781 366.871094 C 267.609375 366.886719 267.507812 366.863281 267.480469 366.832031 C 267.394531 366.738281 267.347656 366.558594 267.328125 366.472656 C 267.328125 366.46875 267.328125 366.46875 267.328125 366.464844 C 267.582031 366.449219 267.613281 366.464844 267.886719 366.550781 Z M 268.484375 366.878906 C 268.480469 366.878906 268.484375 366.878906 268.472656 366.875 C 268.480469 366.878906 268.480469 366.878906 268.484375 366.878906 Z M 268.492188 366.878906 C 268.492188 366.878906 268.492188 366.878906 268.488281 366.878906 C 268.488281 366.878906 268.488281 366.878906 268.488281 366.875 C 268.492188 366.878906 268.492188 366.878906 268.492188 366.878906 Z M 268.5 366.890625 C 268.5 366.890625 268.496094 366.886719 268.488281 366.882812 C 268.492188 366.886719 268.496094 366.890625 268.5 366.890625 Z M 267.234375 366.492188 C 267.230469 366.5 267.230469 366.496094 267.234375 366.492188 Z M 267.257812 366.476562 C 267.253906 366.476562 267.253906 366.476562 267.25 366.476562 C 267.253906 366.476562 267.253906 366.476562 267.253906 366.476562 C 267.253906 366.476562 267.253906 366.476562 267.257812 366.476562 Z M 267.566406 368.515625 C 268.304688 368.554688 269.304688 368.226562 269.816406 367.597656 C 269.945312 367.5 270.046875 367.363281 270.082031 367.152344 C 270.148438 366.957031 270.125 366.792969 270.070312 366.648438 C 269.769531 364.875 266.382812 363.925781 265.761719 365.871094 C 265.371094 367.085938 266.308594 368.445312 267.566406 368.515625 Z M 257.15625 393.105469 C 255.894531 393.066406 254.570312 392.230469 254.523438 390.851562 C 254.480469 389.472656 255.703125 388.625 256.964844 388.5625 C 258.023438 388.507812 258.015625 390.152344 256.964844 390.207031 C 256.621094 390.222656 256.097656 390.410156 256.167969 390.851562 C 256.238281 391.285156 256.792969 391.449219 257.15625 391.460938 C 258.214844 391.492188 258.214844 393.136719 257.15625 393.105469 Z M 131.992188 369.273438 C 132 369.269531 132 369.273438 132.054688 369.296875 C 132.03125 369.289062 132.011719 369.28125 131.992188 369.273438 Z M 131.875 369.359375 C 131.867188 369.378906 131.855469 369.398438 131.839844 369.398438 C 131.84375 369.398438 131.859375 369.378906 131.875 369.359375 Z M 131.171875 368.644531 C 131.210938 368.644531 131.246094 368.640625 131.289062 368.640625 C 131.324219 368.640625 131.359375 368.644531 131.394531 368.648438 C 131.410156 368.652344 131.527344 368.671875 131.539062 368.671875 C 131.589844 368.6875 131.640625 368.699219 131.691406 368.714844 C 131.714844 368.722656 131.710938 368.722656 131.726562 368.726562 C 131.726562 368.726562 131.722656 368.726562 131.746094 368.738281 C 131.847656 368.78125 131.84375 368.777344 131.894531 368.835938 C 131.851562 368.789062 131.902344 368.878906 131.910156 368.875 C 131.925781 368.933594 131.941406 369.019531 131.9375 368.980469 C 131.941406 369.019531 131.921875 369.136719 131.898438 369.238281 C 131.773438 369.1875 131.652344 369.140625 131.550781 369.0625 C 131.367188 368.914062 131.265625 368.785156 131.171875 368.644531 Z M 132.238281 367.171875 C 131.542969 366.914062 130.292969 366.832031 129.734375 367.441406 C 129.703125 367.472656 129.699219 367.507812 129.675781 367.539062 C 129.652344 367.566406 129.625 367.578125 129.605469 367.609375 C 128.375 369.441406 132.144531 372.335938 133.320312 370.121094 C 133.925781 368.980469 133.449219 367.617188 132.238281 367.171875 Z M 146.753906 375.191406 C 146.75 375.183594 146.75 375.1875 146.746094 375.183594 C 146.753906 375.179688 146.757812 375.175781 146.761719 375.160156 C 146.761719 375.167969 146.757812 375.179688 146.753906 375.191406 Z M 146.449219 375.664062 C 146.503906 375.617188 146.445312 375.65625 146.421875 375.675781 C 146.382812 375.664062 146.339844 375.644531 146.355469 375.652344 C 146.164062 375.566406 146.035156 375.40625 145.921875 375.214844 C 145.855469 375.105469 145.761719 374.910156 145.757812 374.902344 C 145.730469 374.832031 145.648438 374.472656 145.664062 374.605469 C 145.660156 374.585938 145.664062 374.570312 145.660156 374.554688 C 145.691406 374.558594 145.726562 374.566406 145.757812 374.574219 C 146.082031 374.660156 146.175781 374.695312 146.453125 374.871094 C 146.609375 374.96875 146.691406 375.070312 146.730469 375.15625 C 146.730469 375.167969 146.734375 375.1875 146.746094 375.183594 C 146.75 375.1875 146.753906 375.191406 146.753906 375.191406 C 146.742188 375.242188 146.722656 375.3125 146.714844 375.328125 C 146.660156 375.4375 146.558594 375.570312 146.449219 375.664062 Z M 146.429688 375.675781 C 146.441406 375.667969 146.460938 375.664062 146.464844 375.671875 C 146.464844 375.683594 146.449219 375.679688 146.429688 375.675781 Z M 146.425781 375.675781 C 146.429688 375.671875 146.425781 375.675781 146.433594 375.671875 C 146.410156 375.683594 146.417969 375.679688 146.425781 375.675781 Z M 147.285156 373.449219 C 146.699219 373.082031 145.894531 372.796875 145.183594 372.914062 C 145.054688 372.914062 144.921875 372.941406 144.785156 373.019531 C 143.105469 374.003906 144.402344 376.769531 145.890625 377.234375 C 146.9375 377.558594 147.898438 376.816406 148.265625 375.859375 C 148.636719 374.882812 148.117188 373.976562 147.285156 373.449219 Z M 114.609375 349.796875 C 114.378906 349.796875 114.152344 349.738281 113.90625 349.628906 C 113.625 349.507812 113.34375 349.332031 113.140625 349.101562 C 113.109375 349.0625 113.09375 349.042969 113.074219 349.019531 C 113.097656 349.003906 113.113281 348.992188 113.101562 349 C 113.367188 348.886719 113.671875 348.816406 113.949219 348.808594 C 114.527344 348.796875 114.769531 349.121094 114.730469 349.734375 C 114.726562 349.757812 114.726562 349.765625 114.726562 349.777344 C 114.710938 349.792969 114.695312 349.796875 114.609375 349.796875 Z M 114.324219 347.1875 C 113.464844 347.09375 111.953125 347.359375 111.507812 348.230469 C 111.488281 348.265625 111.492188 348.296875 111.476562 348.332031 C 111.460938 348.367188 111.4375 348.390625 111.421875 348.429688 C 110.667969 350.734375 115.484375 352.832031 116.285156 350.265625 C 116.730469 348.84375 115.792969 347.351562 114.324219 347.1875 Z M 92.820312 343.550781 C 92.328125 343.84375 91.828125 343.4375 91.539062 343.023438 C 91.542969 343.019531 91.546875 343.015625 91.550781 343.011719 C 91.679688 342.917969 91.863281 342.800781 92.03125 342.726562 C 92.382812 342.574219 92.753906 342.523438 93.058594 342.535156 C 93.085938 342.652344 93.132812 342.769531 93.136719 342.890625 C 93.136719 343.152344 93.054688 343.410156 92.820312 343.550781 Z M 89.890625 343.421875 C 89.90625 343.453125 89.929688 343.472656 89.945312 343.503906 C 89.957031 343.542969 89.957031 343.578125 89.976562 343.617188 C 90.617188 344.882812 92.230469 345.753906 93.582031 345.007812 C 94.773438 344.355469 95.253906 342.421875 94.28125 341.367188 C 93.101562 340.082031 89.167969 341.46875 89.890625 343.421875 Z M 111.808594 370.167969 C 111.808594 370.167969 111.8125 370.171875 111.8125 370.171875 C 111.8125 370.171875 111.808594 370.167969 111.8125 370.183594 C 111.8125 370.175781 111.808594 370.175781 111.808594 370.167969 Z M 111.261719 370.375 C 111.09375 370.320312 110.917969 370.167969 110.769531 370.011719 C 110.847656 370 110.933594 369.988281 111.066406 369.988281 C 111.351562 369.992188 111.355469 369.988281 111.636719 370.078125 C 111.65625 370.085938 111.667969 370.089844 111.679688 370.09375 C 111.691406 370.101562 111.703125 370.109375 111.71875 370.117188 C 111.703125 370.152344 111.6875 370.191406 111.652344 370.230469 C 111.496094 370.414062 111.421875 370.429688 111.261719 370.375 Z M 110.539062 369.710938 C 110.542969 369.714844 110.546875 369.714844 110.550781 369.726562 C 110.546875 369.722656 110.542969 369.714844 110.539062 369.710938 Z M 108.945312 369.609375 C 108.9375 369.648438 108.949219 369.679688 108.945312 369.714844 C 108.9375 369.753906 108.917969 369.785156 108.914062 369.828125 C 108.875 370.808594 110.074219 371.773438 110.921875 371.988281 C 112.125 372.292969 113.496094 371.210938 113.40625 369.945312 C 113.265625 367.984375 109.363281 367.691406 108.945312 369.609375 Z M 25.503906 215.441406 C 26.292969 217.628906 27.089844 219.8125 27.921875 221.984375 C 28.949219 224.671875 29.984375 227.363281 31.089844 230.019531 C 31.453125 230.894531 31.84375 231.316406 32.425781 231.992188 C 32.695312 232.304688 32.839844 232.761719 33.078125 233.113281 C 33.285156 240.871094 34.023438 248.625 35.398438 256.257812 C 31.34375 242.84375 28.023438 229.191406 25.503906 215.441406 Z M 27.304688 169.5625 C 27.652344 168.128906 28.160156 166.738281 28.832031 165.421875 C 29.167969 164.757812 30.234375 162.476562 31.117188 161.835938 C 31.683594 163.003906 31.964844 164.429688 32.25 165.652344 C 32.617188 167.222656 32.871094 168.816406 33.003906 170.425781 C 33.210938 172.980469 33.140625 177.171875 30.019531 177.730469 C 30.332031 176.144531 30.605469 174.550781 30.820312 172.953125 C 30.960938 171.910156 29.3125 171.917969 29.175781 172.953125 C 28.957031 174.582031 28.675781 176.199219 28.359375 177.8125 C 26.273438 175.8125 26.671875 172.191406 27.304688 169.5625 Z M 9.117188 169.371094 C 9.070312 167.765625 9.050781 166.148438 9.242188 164.554688 C 9.355469 163.632812 9.550781 162.746094 9.804688 161.859375 C 9.933594 161.507812 10.042969 161.148438 10.140625 160.785156 C 10.402344 161.054688 10.65625 161.332031 10.902344 161.617188 C 13.03125 164.070312 14.539062 167.050781 15.320312 170.199219 C 15.667969 171.605469 16.53125 175.4375 15.496094 177.273438 C 15.03125 175.4375 14.558594 173.605469 14.117188 171.761719 C 13.871094 170.734375 12.285156 171.171875 12.53125 172.199219 C 12.960938 173.996094 13.425781 175.789062 13.882812 177.578125 C 13.8125 177.574219 13.746094 177.5625 13.667969 177.578125 C 9.289062 178.394531 9.191406 172.144531 9.117188 169.371094 Z M 2.453125 81.175781 C 2.773438 79.664062 3.597656 78.265625 4.285156 76.898438 C 4.582031 76.308594 4.875 75.71875 5.171875 75.128906 C 5.445312 74.585938 5.753906 73.464844 6.207031 73.066406 C 6.234375 72.894531 6.320312 72.769531 6.460938 72.695312 C 6.863281 72.972656 7.234375 73.289062 7.574219 73.644531 C 8.042969 74.128906 8.449219 74.679688 8.816406 75.246094 C 9.609375 76.492188 10.195312 77.898438 10.644531 79.300781 C 11.117188 80.773438 11.460938 82.335938 11.445312 83.890625 C 11.429688 85.292969 10.804688 87.976562 9.027344 87.664062 C 8.878906 85.40625 8.746094 83.15625 8.613281 80.921875 C 8.550781 79.871094 6.90625 79.863281 6.96875 80.921875 C 7.097656 83.101562 7.230469 85.296875 7.375 87.5 C 4.621094 86.382812 1.726562 84.613281 2.453125 81.175781 Z M 2.363281 95.300781 C 2.808594 95.382812 3.351562 95.746094 3.59375 95.984375 C 3.957031 96.339844 4.238281 96.910156 4.484375 97.363281 C 4.945312 98.226562 5.308594 99.144531 5.523438 100.101562 C 5.804688 101.328125 5.953125 103.007812 5.355469 104.210938 C 5.011719 103.238281 4.679688 102.265625 4.367188 101.289062 C 4.042969 100.285156 2.457031 100.714844 2.78125 101.726562 C 3.179688 102.960938 3.609375 104.1875 4.054688 105.414062 C 0.597656 105.273438 1.582031 97.980469 2.363281 95.300781 Z M 15.664062 104.890625 C 16.464844 102.890625 18.320312 101.144531 19.933594 99.53125 C 20.402344 101.789062 20.675781 104.078125 20.691406 106.398438 C 20.699219 107.675781 20.867188 109.429688 19.914062 110.398438 C 19.382812 110.941406 18.671875 111.117188 17.933594 111.15625 C 18.265625 109.992188 18.628906 108.832031 19.042969 107.683594 C 19.40625 106.6875 17.816406 106.257812 17.457031 107.246094 C 17.085938 108.269531 16.761719 109.304688 16.453125 110.34375 C 15.308594 108.789062 14.910156 106.761719 15.664062 104.890625 Z M 31.320312 34.90625 C 30.148438 31.402344 29.488281 27.664062 29.8125 23.960938 C 29.96875 22.183594 32.078125 16.421875 28.0625 18.746094 C 28.0625 18.746094 24.476562 20.820312 25.710938 28.5 C 26.65625 34.414062 21.839844 43.332031 21.046875 49.449219 C 17.039062 48.714844 18.128906 42.195312 18.28125 39.347656 C 18.488281 35.582031 18.722656 31.808594 18.570312 28.039062 C 18.433594 24.757812 18.066406 21.359375 17 18.234375 C 16.5625 16.953125 15.988281 15.71875 15.160156 14.640625 C 14.664062 13.996094 11.804688 12.105469 12.179688 11.210938 C 12.226562 11.089844 12.246094 10.980469 12.242188 10.878906 C 15.109375 9.117188 19.46875 11.847656 22.535156 11.800781 C 22.699219 11.800781 22.828125 11.75 22.941406 11.679688 C 24.425781 11.632812 25.371094 10.429688 26.539062 9.5625 C 28.492188 8.121094 31.03125 8.390625 33.238281 9.011719 C 35.550781 9.660156 37.765625 10.71875 39.777344 12.023438 C 41.539062 13.160156 43.097656 14.453125 45.292969 14.441406 C 46.351562 14.4375 46.355469 12.792969 45.292969 12.800781 C 44.285156 12.804688 43.335938 12.414062 42.417969 11.886719 C 43.289062 10.808594 44.207031 9.773438 45.21875 8.824219 C 46.410156 7.707031 47.847656 6.257812 49.492188 5.863281 C 51.3125 5.429688 53.222656 6.394531 54.859375 7.078125 C 56.34375 7.695312 57.828125 8.316406 59.3125 8.9375 C 55.371094 10.242188 51.390625 11.605469 47.90625 13.839844 C 43.96875 16.367188 40.757812 19.855469 38.007812 23.609375 C 34.964844 27.765625 33.0625 32.167969 33.699219 37.402344 C 33.878906 38.867188 34.09375 40.433594 34.421875 41.988281 C 33.277344 39.683594 32.144531 37.367188 31.320312 34.90625 Z M 3.230469 30.664062 C 2.71875 28.589844 2.140625 26.25 2.792969 24.136719 C 3.4375 22.0625 5.277344 21.09375 7.207031 20.449219 C 9.855469 19.566406 12.761719 19.050781 14.59375 16.851562 C 14.835938 17.25 15.050781 17.6875 15.238281 18.183594 C 16.824219 22.3125 17.011719 26.984375 16.96875 31.351562 C 16.929688 35.726562 16.296875 40.136719 16.441406 44.503906 C 16.476562 45.667969 16.695312 46.84375 17.128906 47.875 C 14.265625 46.707031 11.363281 45.503906 9.121094 43.398438 C 5.65625 40.140625 4.324219 35.128906 3.230469 30.664062 Z M 27.152344 2.078125 C 27.566406 2.25 27.984375 2.410156 28.410156 2.546875 C 29.464844 2.878906 30.558594 3.082031 31.660156 3.183594 C 35.15625 3.503906 44.414062 1.242188 45.441406 6.242188 C 43.730469 7.628906 42.21875 9.453125 41.015625 10.992188 C 40.230469 10.449219 39.46875 9.890625 38.710938 9.488281 C 36.816406 8.476562 34.757812 7.617188 32.652344 7.171875 C 31.003906 6.816406 29.21875 6.695312 27.585938 7.199219 C 27.410156 7.253906 27.25 7.339844 27.082031 7.40625 C 27.121094 6.984375 27.109375 6.554688 27.035156 6.101562 C 26.871094 5.09375 26.25 4.207031 26.078125 3.234375 C 25.902344 2.253906 26.105469 1.632812 27.152344 2.078125 Z M 64.898438 8.789062 C 65.824219 8.890625 66.746094 10.660156 67.417969 11.277344 C 68.96875 12.710938 70.851562 13.539062 72.90625 13.867188 C 73.273438 14.515625 73.5625 15.207031 73.257812 15.953125 C 72.929688 16.742188 72.1875 17.355469 71.511719 17.835938 C 70.175781 18.78125 68.632812 19.394531 67.277344 20.304688 C 64.269531 22.324219 62.464844 25.402344 61.738281 28.90625 C 60.886719 33 60.804688 37.125 58.953125 40.96875 C 57.851562 43.261719 56.277344 45.289062 54.285156 46.765625 C 56.332031 37.753906 46.914062 34.628906 47.78125 36.207031 C 48.828125 38.113281 46.703125 39.902344 46.117188 41.039062 C 43.996094 45.148438 41.457031 47.660156 39.355469 49.183594 C 37.746094 47.382812 36.945312 45.113281 36.371094 42.753906 C 35.671875 39.871094 34.972656 36.816406 35.222656 33.835938 C 35.710938 28.03125 40.355469 22.570312 44.402344 18.707031 C 48.996094 14.324219 54.59375 12.324219 60.484375 10.304688 C 61.113281 10.085938 61.746094 9.871094 62.375 9.652344 C 62.992188 9.441406 64.261719 8.71875 64.898438 8.789062 Z M 69.476562 26.117188 C 73.671875 28.296875 71.789062 34.390625 70.003906 37.660156 C 67.042969 43.078125 61.863281 48.152344 55.734375 49.519531 C 55.214844 49.53125 54.613281 49.621094 53.921875 49.8125 C 53.683594 49.835938 53.445312 49.851562 53.207031 49.863281 C 53.308594 49.640625 53.40625 49.421875 53.496094 49.210938 C 55.988281 47.867188 58.058594 45.816406 59.539062 43.351562 C 62.046875 39.179688 62.367188 34.613281 63.207031 29.949219 C 63.664062 27.40625 64.566406 25.042969 66.390625 23.160156 C 66.640625 22.902344 66.910156 22.671875 67.179688 22.449219 C 67.257812 23.96875 68.167969 25.441406 69.476562 26.117188 Z M 39.308594 140.617188 C 40.671875 137.539062 43.570312 134.984375 46.152344 132.945312 C 48.976562 130.710938 52.152344 128.882812 55.488281 127.527344 C 58.582031 126.269531 61.84375 125.386719 65.152344 124.929688 C 66.148438 124.792969 67.796875 124.472656 68.589844 125.320312 C 69.070312 125.835938 69.023438 126.710938 69.507812 127.257812 C 70.195312 128.039062 71.308594 128.105469 72.28125 128.355469 C 72.410156 128.503906 72.59375 128.617188 72.839844 128.640625 C 75.539062 128.886719 74.460938 132.964844 73.921875 134.566406 C 73.292969 136.441406 72.296875 138.183594 71.085938 139.738281 C 68.984375 142.433594 66.265625 144.503906 63.363281 146.265625 C 59.613281 147.265625 55.128906 147.839844 52.269531 148.421875 C 47.640625 149.359375 44.160156 150.921875 43.742188 151.554688 C 42.667969 150.667969 41.183594 148.753906 39.960938 143.207031 C 39.753906 142.277344 39.535156 141.429688 39.308594 140.617188 Z M 34.824219 132.675781 C 35.792969 134.472656 34.816406 136.257812 33.976562 138.621094 C 32.035156 134.929688 29.632812 130.980469 30.550781 126.839844 C 30.988281 124.871094 32.25 123.5 34.035156 122.628906 C 34.867188 122.222656 35.65625 121.824219 36.25 121.242188 C 36.269531 121.445312 36.292969 121.644531 36.3125 121.847656 C 36.679688 125.757812 36.886719 129.695312 36.535156 133.605469 C 34.871094 130.703125 33.691406 130.574219 34.824219 132.675781 Z M 40.714844 112.058594 C 40.964844 112.503906 41.074219 112.996094 41.351562 113.429688 C 41.824219 114.160156 42.535156 114.570312 43.363281 114.757812 C 44.488281 115.011719 45.652344 114.710938 46.78125 114.964844 C 48.25 115.292969 49.535156 116.308594 50.207031 117.652344 C 50.722656 118.6875 50.816406 119.910156 51.386719 120.921875 C 51.746094 121.550781 52.296875 122.089844 52.816406 122.585938 C 53.910156 123.625 55.117188 124.542969 56.316406 125.464844 C 55.683594 125.695312 55.050781 125.9375 54.429688 126.199219 C 50.957031 127.664062 47.707031 129.59375 44.769531 131.957031 C 42.503906 133.78125 40.199219 135.910156 38.636719 138.4375 C 38.378906 137.671875 38.117188 136.953125 37.855469 136.320312 C 38.480469 132.183594 38.457031 128.023438 38.132812 123.855469 C 37.964844 121.734375 37.734375 119.621094 37.511719 117.503906 C 37.3125 115.613281 36.765625 113.304688 37.660156 111.527344 C 37.703125 111.511719 37.746094 111.511719 37.789062 111.484375 C 38.898438 110.8125 40.027344 110.832031 40.714844 112.058594 Z M 57.527344 118.128906 C 58.714844 119.003906 59.742188 119.464844 61.230469 119.125 C 62.085938 118.929688 62.902344 118.46875 63.796875 118.476562 C 64.96875 118.484375 66.027344 119.226562 66.820312 120.015625 C 67.847656 121.035156 68.574219 122.304688 69.070312 123.65625 C 68.042969 123.078125 66.761719 123.09375 65.601562 123.222656 C 63.070312 123.511719 60.566406 124.066406 58.132812 124.839844 C 58.097656 124.804688 58.082031 124.765625 58.039062 124.730469 C 56.425781 123.484375 54.667969 122.289062 53.316406 120.753906 C 52.570312 119.90625 52.390625 118.808594 52.023438 117.769531 C 53.808594 116.421875 55.804688 116.851562 57.527344 118.128906 Z M 77.359375 135.234375 C 77.972656 136.78125 78.410156 137.996094 78.019531 139.667969 C 77.414062 142.257812 75.972656 144.929688 73.992188 146.726562 C 70.695312 149.714844 66.328125 150.636719 61.988281 151.054688 C 64.496094 149.664062 66.6875 148.269531 67.835938 147.339844 C 70.535156 145.15625 71.574219 142.65625 70.507812 142.828125 C 72.0625 141.277344 73.417969 139.539062 74.433594 137.546875 C 75.175781 136.097656 76.078125 133.628906 76.171875 131.441406 C 76.679688 131.714844 77.152344 134.703125 77.359375 135.234375 Z M 43.136719 181.511719 C 44.855469 178.714844 47.84375 177.105469 50.636719 175.570312 C 55.667969 172.804688 60.449219 169.671875 65.011719 166.191406 C 65.300781 172.976562 64.875 180.027344 61.222656 185.9375 C 59.441406 188.820312 56.878906 191.398438 53.644531 192.570312 C 50.730469 193.628906 46.71875 193.328125 45.125 190.515625 C 46.828125 188.210938 48.601562 185.964844 50.46875 183.789062 C 51.15625 182.988281 49.996094 181.820312 49.304688 182.628906 C 47.59375 184.625 45.945312 186.683594 44.363281 188.785156 C 44.09375 188.546875 43.679688 188.550781 43.371094 188.746094 C 41.550781 186.828125 41.75 183.765625 43.136719 181.511719 Z M 41.890625 274.777344 C 34.144531 252.378906 33.726562 228.726562 35.800781 205.375 C 36.277344 204.128906 37.152344 202.898438 37.703125 201.925781 C 38.914062 199.789062 40.195312 197.691406 41.542969 195.636719 C 42.367188 194.378906 43.226562 193.144531 44.101562 191.917969 C 45.652344 193.976562 48.390625 194.988281 51.035156 194.804688 C 54.78125 194.546875 58.140625 192.367188 60.558594 189.597656 C 66.542969 182.738281 67.074219 173.273438 66.574219 164.613281 C 66.53125 163.851562 65.730469 163.59375 65.171875 164.03125 C 61.988281 166.535156 58.675781 168.863281 55.234375 170.996094 C 51.957031 173.03125 48.332031 174.625 45.246094 176.949219 C 42.914062 178.707031 40.847656 181.144531 40.441406 184.132812 C 40.105469 186.628906 41.042969 189.109375 43.039062 190.605469 C 41.789062 192.335938 40.574219 194.085938 39.425781 195.882812 C 38.292969 197.65625 37.226562 199.472656 36.1875 201.300781 C 36.292969 200.253906 36.394531 199.207031 36.507812 198.164062 C 37.789062 186.4375 39.503906 174.765625 40.910156 163.054688 C 40.996094 162.960938 41.089844 162.832031 41.183594 162.636719 C 42.921875 159.136719 48.59375 155.476562 48.59375 155.476562 C 49.839844 156.496094 54.050781 155.019531 58.296875 152.96875 C 65.222656 152.550781 73.136719 151.695312 77.285156 145.351562 C 79.027344 142.6875 80.609375 139.023438 79.40625 135.871094 C 79.070312 134.992188 78.640625 134.183594 78.511719 133.238281 C 78.421875 132.554688 78.46875 131.882812 78.1875 131.238281 C 77.765625 130.277344 77.011719 129.800781 76.0625 129.804688 C 75.796875 128.496094 75.035156 127.476562 73.515625 127.121094 C 73.433594 127.039062 73.332031 126.96875 73.207031 126.921875 C 72.554688 126.671875 71.539062 126.65625 70.964844 126.25 C 71.195312 126.070312 71.347656 125.789062 71.277344 125.429688 C 70.53125 121.636719 67.507812 116.011719 62.8125 116.941406 C 61.28125 117.246094 60.25 117.96875 58.777344 117.03125 C 57.828125 116.425781 57.097656 115.707031 55.972656 115.421875 C 54.308594 114.996094 52.65625 115.367188 51.28125 116.28125 C 50.863281 115.628906 50.347656 115.042969 49.710938 114.566406 C 48.769531 113.863281 47.664062 113.394531 46.496094 113.253906 C 45.835938 113.175781 45.1875 113.25 44.53125 113.214844 C 43.328125 113.148438 42.871094 112.746094 42.335938 111.695312 C 41.296875 109.664062 39.460938 108.863281 37.417969 109.839844 C 37.113281 109.773438 36.773438 109.859375 36.542969 110.171875 C 35.515625 111.578125 35.457031 113.21875 35.601562 114.902344 C 35.703125 116.132812 35.835938 117.359375 35.96875 118.585938 C 35.789062 118.671875 35.644531 118.839844 35.59375 119.101562 C 35.304688 120.53125 33.875 120.828125 32.769531 121.429688 C 31.980469 121.859375 31.238281 122.417969 30.636719 123.089844 C 29.519531 124.339844 28.945312 125.921875 28.789062 127.570312 C 28.320312 132.464844 31.304688 136.695312 33.316406 140.941406 C 32.953125 142.726562 32.902344 144.816406 33.734375 147.390625 C 35.214844 151.988281 36.773438 153.089844 38.367188 153.371094 C 39.449219 153.5625 39.546875 154.664062 39.539062 155.761719 C 39.53125 156.878906 39.574219 158.277344 39.675781 159.566406 C 37.9375 174.800781 35.554688 190.003906 34.160156 205.273438 C 33.878906 206.101562 33.757812 206.960938 33.929688 207.851562 C 33.308594 215.261719 32.953125 222.6875 33.03125 230.140625 C 32.859375 229.90625 32.707031 229.648438 32.550781 229.273438 C 32.296875 228.660156 32.050781 228.042969 31.804688 227.425781 C 30.816406 224.960938 29.855469 222.480469 28.917969 219.996094 C 27.4375 216.074219 26.039062 212.117188 24.683594 208.152344 C 24.535156 198.4375 27.617188 189.078125 29.636719 179.597656 C 29.667969 179.539062 29.6875 179.472656 29.707031 179.410156 C 33.589844 179.113281 34.851562 175.007812 34.722656 171.613281 C 34.632812 169.257812 34.261719 166.886719 33.6875 164.601562 C 33.382812 163.402344 33.027344 160.304688 31.53125 160.015625 C 29.980469 159.71875 28.589844 162.519531 27.96875 163.578125 C 26.859375 165.464844 26.042969 167.546875 25.59375 169.6875 C 24.867188 173.136719 24.8125 177.472656 27.984375 179.621094 C 26.382812 187.140625 24.125 194.570312 23.328125 202.175781 C 21.832031 191.671875 20.921875 181.035156 21.289062 170.4375 C 21.847656 154.359375 23.9375 138.269531 26.398438 122.382812 C 28.851562 106.539062 31.878906 90.792969 34.976562 75.0625 C 36.082031 74.84375 37.105469 74.238281 37.53125 73.425781 C 38.761719 71.074219 49.84375 55.898438 55.367188 53.808594 C 57.570312 52.976562 58.433594 51.515625 58.015625 50.53125 C 62.957031 48.8125 67.144531 44.984375 70.148438 40.566406 C 72.375 37.289062 74.0625 33.328125 73.472656 29.296875 C 73.246094 27.75 72.703125 26.203125 71.367188 25.28125 C 70.605469 24.753906 69.65625 24.597656 69.222656 23.726562 C 68.925781 23.121094 68.734375 22.117188 68.949219 21.476562 C 68.980469 21.382812 68.976562 21.300781 68.976562 21.21875 C 69.828125 20.71875 70.707031 20.265625 71.570312 19.746094 C 72.871094 18.960938 74.117188 18.003906 74.757812 16.585938 C 75.382812 15.199219 74.871094 13.953125 74.136719 12.707031 C 73.980469 12.441406 73.746094 12.335938 73.507812 12.328125 C 73.480469 12.320312 73.457031 12.304688 73.425781 12.300781 C 70.726562 11.988281 68.65625 10.507812 67.113281 8.339844 C 65.796875 6.484375 64.53125 7.179688 62.570312 7.851562 C 62.09375 8.015625 61.613281 8.175781 61.132812 8.335938 C 61.074219 8.078125 60.921875 7.84375 60.628906 7.722656 C 58.5625 6.855469 56.5 5.972656 54.425781 5.128906 C 52.742188 4.441406 50.886719 3.808594 49.054688 4.277344 C 48.304688 4.472656 47.578125 4.808594 46.871094 5.234375 C 45.207031 -0.15625 36.339844 1.820312 32.300781 1.585938 C 30.242188 1.464844 28.738281 0.683594 26.816406 0.140625 C 25.980469 -0.09375 25.238281 -0.0859375 24.625 0.605469 C 23.96875 1.347656 24.027344 2.367188 24.3125 3.246094 C 24.875 4.964844 25.90625 6.421875 25.167969 8.285156 C 25.125 8.398438 25.109375 8.503906 25.113281 8.605469 C 24.335938 9.296875 23.578125 10.171875 22.464844 10.023438 C 22.261719 9.996094 22.105469 10.050781 21.984375 10.136719 C 18.085938 9.90625 13.585938 6.875 10.292969 10.335938 C 9.890625 10.761719 10.074219 11.296875 10.4375 11.570312 C 10.453125 12.386719 11.015625 13.089844 11.675781 13.671875 C 12.394531 14.308594 13.03125 14.878906 13.589844 15.5 C 11.441406 18.660156 6.585938 18.222656 3.636719 20.335938 C 0.0820312 22.878906 0.734375 27.394531 1.644531 31.101562 C 2.773438 35.707031 4.191406 40.722656 7.597656 44.207031 C 10.828125 47.511719 15.515625 48.796875 19.585938 50.699219 C 19.65625 50.730469 19.726562 50.734375 19.792969 50.75 C 20.144531 50.902344 20.523438 51.019531 20.933594 51.089844 C 20.945312 52.226562 21.160156 53.226562 21.671875 54.027344 C 24.902344 59.121094 32.554688 64.695312 31.300781 70.597656 C 30.699219 73.433594 31.832031 74.730469 33.308594 75.0625 C 29.027344 96.800781 24.886719 118.609375 22.21875 140.601562 C 19.625 136.398438 17.5625 131.992188 15.914062 127.441406 C 15.914062 127.421875 15.921875 127.40625 15.921875 127.390625 C 15.753906 122.4375 16.285156 117.542969 17.488281 112.777344 C 19.828125 112.707031 21.796875 111.847656 22.214844 109.132812 C 22.789062 105.410156 22.097656 101.257812 21.203125 97.640625 C 21.054688 97.054688 20.242188 96.824219 19.828125 97.277344 C 17.667969 99.632812 14.410156 102.195312 13.769531 105.496094 C 13.324219 107.804688 14.019531 110.171875 15.5625 111.886719 C 15.5625 112.132812 15.667969 112.371094 15.851562 112.539062 C 15.027344 115.847656 14.519531 119.222656 14.332031 122.632812 C 11.140625 111.890625 9.914062 100.503906 9.136719 89.261719 C 10.148438 89.273438 11.132812 88.84375 11.871094 88.003906 C 13.1875 86.503906 13.199219 84.230469 12.988281 82.363281 C 12.738281 80.121094 12.03125 77.9375 11.050781 75.90625 C 10.238281 74.230469 8.820312 71.808594 6.960938 71.097656 C 5.148438 70.402344 4.503906 72.800781 3.898438 74.003906 C 2.824219 76.148438 1.402344 78.371094 0.867188 80.738281 C -0.1875 85.40625 3.726562 87.855469 7.496094 89.304688 C 8.160156 98.886719 9.148438 108.570312 11.367188 117.882812 C 9.359375 114.070312 7.582031 110.117188 6.058594 106.09375 C 7.703125 104.476562 7.585938 101.492188 7.039062 99.386719 C 6.511719 97.363281 4.738281 92.9375 1.898438 93.585938 C 0.535156 93.898438 0.640625 95.691406 0.484375 96.789062 C 0.238281 98.488281 -0.0703125 100.261719 0.015625 101.984375 C 0.144531 104.671875 1.8125 107.195312 4.648438 107.003906 C 6.945312 113.019531 9.804688 118.875 13.132812 124.335938 C 15.050781 130.484375 17.625 136.414062 21.136719 141.980469 C 21.355469 142.332031 21.707031 142.410156 22.019531 142.332031 C 21.132812 149.878906 20.410156 157.441406 19.929688 165.03125 C 19.269531 175.5 19.703125 186.003906 20.867188 196.453125 C 19.113281 190.757812 17.492188 185.023438 15.996094 179.253906 C 18.316406 177.515625 17.539062 172.605469 17.035156 170.3125 C 16.492188 167.863281 15.523438 165.480469 14.199219 163.347656 C 13.445312 162.128906 11.820312 159.148438 10.207031 159.039062 C 8.441406 158.921875 8.015625 161.980469 7.800781 163.15625 C 7.339844 165.691406 7.417969 168.289062 7.523438 170.851562 C 7.675781 174.527344 9.027344 179.664062 13.5625 179.222656 C 13.683594 179.570312 14.003906 179.863281 14.449219 179.84375 C 16.707031 188.507812 19.238281 197.101562 22.066406 205.601562 C 23.964844 218.171875 26.800781 230.621094 29.996094 242.796875 C 33.597656 256.515625 37.84375 270.085938 42.917969 283.328125 C 43.0625 283.703125 43.382812 283.867188 43.699219 283.878906 C 47.164062 291.898438 51.429688 299.570312 56.339844 306.792969 C 63.960938 318.003906 73.140625 328.054688 83.335938 336.972656 C 84.128906 337.664062 85.296875 336.503906 84.5 335.808594 C 65.648438 319.324219 50.121094 298.585938 41.890625 274.777344 Z M 382.527344 231.707031 C 382.347656 231.949219 382.167969 232.210938 381.988281 232.492188 C 381.984375 232.449219 381.980469 232.402344 381.976562 232.359375 C 382.140625 232.132812 382.328125 231.914062 382.527344 231.707031 Z M 398.488281 252.425781 C 398.527344 252.46875 398.554688 252.511719 398.597656 252.550781 C 398.617188 252.570312 398.636719 252.574219 398.652344 252.589844 C 398.632812 252.929688 398.859375 253.253906 399.179688 253.394531 C 398.839844 254.183594 398.816406 255.074219 399.320312 256.089844 C 399.339844 256.132812 399.367188 256.171875 399.386719 256.214844 C 396.371094 257.304688 393.585938 259.046875 390.804688 260.648438 C 393.152344 257.710938 395.722656 254.96875 398.488281 252.425781 Z M 372.222656 284.917969 C 372.15625 284.957031 372.089844 284.996094 372.03125 285.03125 C 371.984375 285.058594 371.945312 285.089844 371.898438 285.113281 C 371.929688 285.050781 371.960938 284.988281 371.992188 284.925781 C 372.070312 284.933594 372.144531 284.929688 372.222656 284.917969 Z M 377.75 284.546875 C 378.398438 284.535156 378.175781 284.574219 378.6875 285.226562 C 380.402344 287.421875 382.058594 289.902344 382.695312 292.65625 C 384.523438 300.539062 374.054688 303.089844 368.613281 305.128906 C 367.417969 305.574219 365.667969 306.136719 364.324219 307.03125 C 364.125 306.820312 363.847656 306.722656 363.539062 306.832031 C 363.03125 302.808594 363.71875 298.75 365.355469 294.976562 C 366.878906 291.476562 369.144531 288.929688 372.378906 286.90625 C 373.570312 286.160156 374.824219 285.476562 376.144531 284.996094 C 376.628906 284.820312 377.230469 284.550781 377.75 284.546875 Z M 386.144531 303.328125 C 387.058594 303.988281 387.824219 304.828125 388.40625 305.796875 C 389.765625 308.054688 389.007812 310.066406 387.945312 312.257812 C 387.152344 313.890625 386.140625 315.378906 384.382812 315.921875 C 382.304688 314.535156 379.910156 313.511719 377.71875 312.539062 C 374.417969 311.074219 370.789062 310 367.25 310.4375 C 366.929688 309.660156 366.417969 308.949219 365.808594 308.4375 C 365.722656 308.367188 365.636719 308.3125 365.554688 308.253906 C 367.28125 307.179688 370.113281 306.46875 371.144531 306.097656 C 374.828125 304.773438 378.8125 303.4375 381.757812 300.753906 C 381.941406 300.585938 382.113281 300.414062 382.277344 300.238281 C 382.503906 300.953125 382.90625 301.582031 383.644531 302.050781 C 384.4375 302.554688 385.359375 302.761719 386.144531 303.328125 Z M 387.1875 321.40625 C 387.410156 321.859375 387.863281 322.945312 387.617188 323.421875 C 387.4375 323.765625 386.824219 324.011719 386.488281 324.183594 C 385.960938 324.453125 385.414062 324.683594 384.949219 325.0625 C 383.804688 325.996094 383.394531 327.398438 382.765625 328.675781 C 381.246094 331.769531 377.511719 330.886719 374.523438 331.386719 C 374.648438 329.722656 374.363281 328.070312 373.761719 326.355469 C 372.21875 321.980469 370.285156 317.425781 366.882812 314.199219 C 367.378906 313.597656 367.601562 312.886719 367.605469 312.15625 C 370.921875 311.78125 374.398438 312.964844 377.386719 314.332031 C 379.429688 315.269531 381.761719 316.242188 383.71875 317.605469 C 383.730469 317.613281 383.742188 317.621094 383.753906 317.628906 C 385.1875 318.628906 386.421875 319.84375 387.1875 321.40625 Z M 369.746094 337.878906 C 367.75 339.789062 365.363281 338.359375 363.308594 337.351562 C 361.476562 336.453125 359.742188 336.0625 357.734375 335.75 C 355.269531 335.367188 353.40625 334.242188 352.785156 331.6875 C 352.1875 329.21875 353.175781 326.84375 354.183594 324.632812 C 354.273438 324.429688 354.273438 324.238281 354.234375 324.058594 C 354.890625 323.03125 355.542969 322.003906 356.347656 321.199219 C 357.867188 319.675781 359.664062 318.984375 361.570312 318.113281 C 362.929688 317.496094 363.992188 316.6875 364.515625 315.300781 C 364.800781 315.3125 365.082031 315.285156 365.359375 315.210938 C 368.230469 317.746094 369.910156 321.386719 371.304688 324.894531 C 372.191406 327.121094 373.171875 329.472656 372.730469 331.914062 C 372.363281 333.917969 371.246094 336.445312 369.746094 337.878906 Z M 343.113281 323.046875 C 341.398438 319.796875 341.253906 315.722656 342.761719 312.375 C 343.769531 312.601562 344.800781 312.703125 345.769531 312.679688 C 350.851562 312.539062 355.972656 309.566406 360.90625 311.402344 C 360.941406 311.976562 361.097656 312.5625 361.394531 313.144531 C 361.730469 313.796875 362.238281 314.347656 362.824219 314.730469 C 362.277344 316.101562 360.710938 316.542969 359.445312 317.078125 C 358.269531 317.574219 357.179688 318.171875 356.179688 318.96875 C 353.929688 320.757812 352.976562 323.300781 351.117188 325.378906 C 348.390625 328.433594 344.695312 326.042969 343.113281 323.046875 Z M 342.058594 299.503906 C 343.675781 298.429688 345.398438 298.050781 347.304688 297.925781 C 348.144531 297.871094 348.929688 297.8125 349.6875 297.421875 C 349.996094 297.261719 350.265625 297.058594 350.542969 296.851562 C 350.808594 296.648438 352.179688 295.457031 352.863281 295.75 C 352.996094 296.074219 353.144531 296.394531 353.285156 296.714844 C 353.3125 296.851562 353.363281 296.964844 353.4375 297.0625 C 355.460938 301.511719 358.128906 305.632812 361.289062 309.363281 C 361.253906 309.453125 361.207031 309.535156 361.171875 309.625 C 358.414062 308.722656 355.5 308.96875 352.597656 309.625 C 348.664062 310.515625 344.277344 311.972656 340.535156 309.652344 C 336.320312 307.039062 338.734375 301.722656 342.058594 299.503906 Z M 354.324219 291.394531 C 354.964844 289.957031 355.773438 288.582031 356.621094 287.257812 C 357.558594 285.789062 358.574219 284.339844 359.804688 283.09375 C 360.269531 282.625 360.382812 282.324219 360.730469 282.355469 C 361.15625 282.390625 361.800781 282.878906 362.167969 283.078125 C 364.300781 284.246094 367.050781 285.589844 368.648438 287.46875 C 368.652344 287.472656 368.65625 287.472656 368.660156 287.476562 C 366.539062 289.34375 364.890625 291.585938 363.703125 294.351562 C 361.949219 298.445312 361.214844 302.84375 361.792969 307.199219 C 359.128906 303.902344 356.871094 300.300781 355.097656 296.445312 C 355.054688 296.351562 355.011719 296.261719 354.96875 296.171875 C 354.886719 295.691406 354.695312 295.273438 354.421875 294.933594 C 353.953125 293.78125 353.738281 292.707031 354.324219 291.394531 Z M 320.730469 314.707031 C 321.9375 315.742188 323.222656 316.957031 323.613281 318.503906 C 324.097656 320.425781 322.578125 322.179688 322.132812 323.984375 C 321.335938 327.183594 322.035156 330.601562 322.632812 333.777344 C 323.230469 336.960938 324.058594 340.371094 323.214844 343.585938 C 322.722656 345.46875 321.582031 346.964844 320.164062 348.269531 C 319.214844 349.148438 316.492188 351.820312 314.964844 351.699219 C 315.484375 345.441406 316.59375 339.25 318.308594 333.1875 C 318.59375 332.167969 317.007812 331.730469 316.722656 332.75 C 315.511719 337.027344 314.597656 341.371094 313.972656 345.761719 C 307.464844 335.335938 310.378906 321.5 320.730469 314.707031 Z M 373.84375 257.515625 C 373.875 257.433594 373.886719 257.339844 373.890625 257.246094 C 373.902344 257.246094 373.914062 257.25 373.925781 257.246094 C 373.957031 257.367188 373.984375 257.492188 374.019531 257.613281 C 373.949219 257.605469 373.882812 257.589844 373.816406 257.570312 C 373.824219 257.554688 373.835938 257.535156 373.84375 257.515625 Z M 391.386719 215.097656 C 391.386719 215.097656 391.382812 215.101562 391.382812 215.105469 C 391.382812 215.101562 391.378906 215.097656 391.378906 215.089844 C 391.378906 215.09375 391.382812 215.09375 391.386719 215.097656 Z M 391.054688 213.523438 C 391.019531 213.621094 390.992188 213.714844 390.972656 213.8125 C 390.957031 213.714844 390.957031 213.617188 390.949219 213.515625 C 390.984375 213.523438 391.019531 213.523438 391.054688 213.523438 Z M 416.9375 221.90625 C 417.261719 221.707031 417.605469 221.542969 417.964844 221.394531 C 417.621094 221.566406 417.28125 221.734375 416.9375 221.90625 Z M 414.839844 215.855469 C 414.855469 215.878906 414.871094 215.902344 414.894531 215.925781 C 414.828125 215.945312 414.761719 215.96875 414.695312 215.984375 C 414.742188 215.941406 414.789062 215.898438 414.839844 215.855469 Z M 421.21875 240.222656 C 420.863281 240.261719 420.4375 240.3125 419.992188 240.34375 C 419.992188 240.339844 419.992188 240.339844 419.992188 240.339844 C 420.597656 240.054688 420.488281 238.941406 419.675781 238.789062 C 419.664062 238.464844 419.488281 238.152344 419.1875 238.035156 C 419.480469 237.832031 419.769531 237.628906 420.058594 237.425781 C 420.707031 236.972656 420.40625 236.058594 419.84375 235.886719 C 419.84375 235.878906 419.839844 235.875 419.835938 235.867188 C 420.003906 235.757812 420.171875 235.648438 420.339844 235.539062 C 420.933594 235.152344 420.75 234.398438 420.304688 234.109375 C 420.386719 233.5625 419.988281 232.949219 419.328125 233.183594 C 418.210938 233.585938 417.003906 234.183594 416.074219 235.003906 C 415.476562 235.304688 414.890625 235.625 414.328125 235.988281 C 413.226562 236.703125 411.738281 237.632812 411.609375 239.085938 C 411.589844 239.320312 411.605469 239.535156 411.636719 239.734375 C 410.160156 240.199219 408.652344 240.492188 407.128906 240.683594 C 407.382812 240.410156 407.625 240.125 407.839844 239.796875 C 408.128906 239.355469 407.921875 238.929688 407.570312 238.71875 C 407.566406 238.136719 406.996094 237.566406 406.386719 237.988281 C 405.914062 238.316406 405.433594 238.625 404.957031 238.941406 C 404.769531 238.597656 404.375 238.394531 403.941406 238.597656 C 403.949219 238.589844 403.957031 238.582031 403.96875 238.574219 C 404.695312 237.992188 403.746094 236.769531 402.972656 237.28125 C 402.902344 237.328125 402.839844 237.378906 402.769531 237.421875 C 402.671875 237.175781 402.449219 236.980469 402.179688 236.90625 C 402.277344 236.777344 402.378906 236.652344 402.46875 236.519531 C 402.601562 236.421875 402.726562 236.316406 402.863281 236.21875 C 402.890625 236.207031 402.910156 236.191406 402.9375 236.179688 C 403.425781 235.9375 403.4375 235.445312 403.207031 235.085938 C 403.34375 234.429688 402.714844 233.679688 402.058594 234.179688 C 401.863281 234.328125 401.6875 234.496094 401.5 234.652344 C 398.402344 235.414062 395.175781 239.21875 397.066406 242.351562 C 395.285156 243.941406 393.5 245.527344 391.734375 247.136719 C 394.871094 241.597656 398.125 236.121094 401.601562 230.816406 C 405.765625 229.351562 409.796875 227.53125 413.949219 226.042969 C 415.144531 226.921875 416.867188 226.371094 418.152344 226.023438 C 419.453125 225.667969 421.714844 225.339844 421.824219 223.671875 C 421.875 222.882812 420.976562 222.6875 420.488281 223.070312 C 420.363281 222.855469 420.15625 222.71875 419.886719 222.734375 C 419.933594 222.535156 419.890625 222.324219 419.78125 222.140625 C 420.007812 221.648438 419.582031 220.972656 418.984375 220.980469 C 419.386719 220.683594 419.363281 220.101562 419.0625 219.757812 C 418.992188 219.261719 418.4375 218.777344 417.820312 219.054688 C 416.066406 219.851562 412.242188 222.289062 412.945312 224.664062 C 409.652344 225.875 406.425781 227.253906 403.144531 228.503906 C 405.921875 224.464844 409.035156 220.679688 412.785156 217.519531 C 416.089844 218.503906 418.996094 215.273438 419.929688 212.410156 C 420.257812 211.402344 418.671875 210.96875 418.34375 211.972656 C 418.304688 212.089844 418.261719 212.207031 418.214844 212.328125 C 418.207031 212.335938 418.199219 212.335938 418.195312 212.34375 C 418.09375 211.972656 417.761719 211.660156 417.390625 211.667969 C 417.3125 211.121094 416.710938 210.621094 416.179688 211.023438 C 416.074219 211.101562 415.96875 211.183594 415.859375 211.261719 C 415.871094 211.242188 415.886719 211.222656 415.902344 211.203125 C 416.351562 210.550781 415.6875 209.960938 415.058594 210.03125 C 415.152344 209.90625 415.242188 209.777344 415.339844 209.652344 C 415.996094 208.839844 414.84375 207.667969 414.175781 208.492188 C 414.175781 208.496094 414.171875 208.496094 414.171875 208.5 C 413.851562 208.101562 413.148438 207.972656 412.785156 208.539062 C 411.34375 210.796875 408.710938 214.652344 411.195312 216.703125 C 406.964844 220.367188 403.542969 224.808594 400.46875 229.496094 C 400.101562 229.644531 399.945312 229.964844 399.953125 230.289062 C 399.179688 231.484375 398.429688 232.695312 397.691406 233.910156 C 397.496094 231.738281 397.332031 229.519531 397.746094 227.414062 C 398.136719 225.410156 399.007812 223.589844 400.234375 222.011719 C 401.964844 222.296875 404.207031 221.011719 405.367188 220.027344 C 405.699219 219.746094 405.6875 219.394531 405.519531 219.113281 C 405.679688 218.628906 405.332031 218.054688 404.832031 218.011719 C 404.722656 217.742188 404.492188 217.53125 404.199219 217.488281 C 404.261719 217.3125 404.257812 217.128906 404.199219 216.953125 C 404.71875 216.492188 404.328125 215.648438 403.699219 215.574219 C 403.589844 215.101562 403.050781 214.667969 402.464844 214.933594 C 400.683594 215.734375 397.230469 218.320312 398.433594 220.664062 C 398.539062 220.871094 398.660156 221.042969 398.789062 221.195312 C 397.617188 222.753906 396.742188 224.527344 396.277344 226.445312 C 395.503906 229.640625 396.019531 233.007812 396.242188 236.242188 C 396.246094 236.261719 396.253906 236.277344 396.257812 236.296875 C 395.585938 237.421875 394.925781 238.546875 394.261719 239.664062 C 392.011719 243.460938 389.820312 247.292969 387.660156 251.144531 C 387.421875 251.457031 387.210938 251.773438 387.039062 252.109375 C 385.53125 248.160156 384.339844 244.113281 383.507812 239.964844 C 383.476562 239.816406 383.414062 239.707031 383.339844 239.613281 C 383.21875 239.152344 383.09375 238.6875 382.988281 238.222656 C 384.28125 238.105469 385.4375 237.027344 386.28125 236.140625 C 387.445312 234.921875 388.277344 233.441406 387.828125 231.722656 C 387.570312 230.71875 386.046875 231.121094 386.242188 232.109375 C 386.179688 232.097656 386.121094 232.097656 386.058594 232.105469 C 386.03125 231.925781 385.945312 231.757812 385.824219 231.625 C 386.105469 231.089844 385.632812 230.472656 385.082031 230.453125 C 387.230469 226.144531 389.898438 222.144531 393.082031 218.511719 C 393.109375 218.476562 393.121094 218.4375 393.144531 218.402344 C 395.765625 218.757812 398.367188 216.089844 399.652344 213.960938 C 399.902344 213.546875 399.738281 213.160156 399.441406 212.9375 C 399.34375 212.378906 398.597656 211.921875 398.039062 212.433594 C 397.953125 212.515625 397.871094 212.601562 397.78125 212.683594 C 397.558594 212.492188 397.253906 212.414062 396.96875 212.550781 C 396.855469 212.378906 396.675781 212.242188 396.464844 212.175781 C 396.519531 212.113281 396.570312 212.046875 396.621094 211.980469 C 397.058594 211.457031 396.726562 210.792969 396.253906 210.601562 C 396.195312 209.972656 395.410156 209.453125 394.886719 210.058594 C 394.53125 210.464844 394.191406 210.878906 393.863281 211.300781 C 393.800781 211.160156 393.703125 211.042969 393.578125 210.953125 C 393.695312 210.664062 393.824219 210.378906 393.964844 210.097656 C 394.199219 209.566406 393.875 209.082031 393.460938 208.914062 C 393.554688 208.675781 393.652344 208.4375 393.746094 208.199219 C 394.089844 207.332031 392.894531 206.902344 392.34375 207.484375 C 392.078125 207.375 391.769531 207.394531 391.507812 207.664062 C 389.144531 210.109375 388.195312 214.863281 391.039062 217.390625 C 391.207031 217.542969 391.378906 217.664062 391.550781 217.78125 C 388.523438 221.304688 385.933594 225.148438 383.835938 229.28125 C 383.539062 229.046875 383.105469 228.964844 382.742188 229.28125 C 382.417969 229.558594 382.085938 229.859375 381.765625 230.175781 C 381.460938 226.265625 381.566406 222.324219 382.121094 218.425781 C 382.957031 212.589844 384.53125 206.195312 388.550781 201.699219 C 389.34375 201.804688 390.222656 201.398438 390.9375 201.070312 C 392.90625 200.164062 394.824219 199.15625 396.710938 198.089844 C 397.613281 197.578125 396.835938 196.21875 395.933594 196.652344 C 395.933594 196.234375 395.640625 195.84375 395.246094 195.796875 C 395.191406 195.289062 394.546875 194.859375 393.976562 195.148438 C 393.964844 195.078125 393.949219 195.003906 393.917969 194.9375 C 394.496094 194.3125 393.789062 193.183594 392.988281 193.648438 C 393 193.460938 392.953125 193.285156 392.855469 193.132812 C 392.753906 192.582031 392.011719 192.132812 391.449219 192.628906 C 389.796875 194.082031 388.617188 195.933594 388 198.003906 C 387.523438 198.796875 386.921875 199.8125 387.242188 200.683594 C 383.097656 205.355469 381.410156 211.949219 380.535156 217.988281 C 379.863281 222.640625 379.800781 227.34375 380.296875 231.992188 C 379.667969 233.042969 379.363281 234.226562 379.773438 235.527344 C 379.9375 236.046875 380.242188 236.484375 380.625 236.839844 C 380.71875 237.203125 380.898438 237.519531 381.214844 237.757812 C 381.464844 238.9375 381.738281 240.113281 382.0625 241.277344 C 382.085938 241.359375 382.128906 241.414062 382.164062 241.476562 C 383.089844 245.773438 384.371094 249.96875 386.027344 254.042969 C 383.203125 259.148438 380.453125 264.296875 377.789062 269.484375 C 375.832031 273.296875 373.9375 277.136719 372.070312 280.988281 C 370.539062 273.832031 372.066406 266.238281 373.390625 259.03125 C 374.285156 259.257812 375.261719 259.175781 376.128906 258.761719 C 380.128906 256.863281 380.050781 251.160156 378.019531 247.90625 C 377.460938 247.011719 376.035156 247.835938 376.601562 248.738281 C 376.734375 248.953125 376.859375 249.1875 376.972656 249.433594 C 376.96875 249.4375 376.96875 249.441406 376.964844 249.441406 C 376.566406 249.464844 376.171875 249.71875 376.140625 250.226562 C 376.105469 250.8125 376.097656 251.394531 376.109375 251.976562 C 375.722656 251.519531 374.78125 251.667969 374.65625 252.414062 C 374.65625 252.414062 374.652344 252.414062 374.652344 252.414062 C 374.621094 252.175781 374.582031 251.941406 374.554688 251.699219 C 374.460938 250.886719 373.4375 250.714844 373.054688 251.179688 C 372.734375 250.527344 371.742188 250.730469 371.5625 251.390625 C 371.550781 251.269531 371.535156 251.148438 371.523438 251.023438 C 371.5 250.660156 371.285156 250.433594 371.019531 250.320312 C 371.011719 250.316406 371.007812 250.3125 371 250.308594 C 370.9375 250.285156 370.871094 250.269531 370.808594 250.257812 C 370.765625 250.253906 370.726562 250.242188 370.683594 250.238281 C 370.617188 250.238281 370.550781 250.25 370.484375 250.261719 C 370.453125 250.265625 370.425781 250.265625 370.398438 250.273438 C 370.339844 250.292969 370.292969 250.320312 370.242188 250.347656 C 370.191406 250.371094 370.144531 250.394531 370.101562 250.429688 C 370.097656 250.429688 370.097656 250.433594 370.09375 250.433594 C 369.867188 250.609375 369.730469 250.890625 369.828125 251.253906 C 369.886719 251.480469 369.933594 251.714844 369.976562 251.945312 C 369.988281 252.054688 370.011719 252.15625 370.027344 252.261719 C 370.316406 254.210938 370.183594 256.359375 371.539062 257.914062 C 371.644531 258.03125 371.757812 258.132812 371.875 258.234375 C 370.371094 266.460938 368.554688 275.199219 370.960938 283.292969 C 370.53125 284.1875 370.09375 285.078125 369.671875 285.972656 C 368.792969 285.054688 367.617188 284.34375 366.570312 283.660156 C 365.109375 282.703125 363.605469 281.75 362.023438 280.996094 C 360.894531 280.460938 360.3125 280.292969 359.308594 281.128906 C 357.820312 282.367188 356.636719 284.023438 355.566406 285.621094 C 354.472656 287.253906 353.453125 288.972656 352.660156 290.773438 C 352.132812 291.96875 352.035156 292.917969 352.261719 293.984375 C 351.957031 293.996094 351.644531 294.042969 351.328125 294.164062 C 350.871094 294.335938 350.5 294.613281 350.113281 294.902344 C 349.160156 295.621094 348.53125 296.003906 347.304688 296.144531 C 346.183594 296.269531 345.117188 296.292969 344.023438 296.628906 C 340.128906 297.816406 336.59375 301.445312 336.449219 305.675781 C 336.34375 308.804688 338.445312 310.828125 341.066406 311.859375 C 339.589844 315.367188 339.585938 319.359375 341.078125 322.882812 C 342.417969 326.046875 345.691406 329.492188 349.496094 328.511719 C 349.503906 328.511719 349.511719 328.507812 349.519531 328.503906 C 339.847656 340.308594 327.84375 349.886719 314.65625 357.675781 C 314.6875 356.21875 314.746094 354.765625 314.84375 353.3125 C 316.558594 353.410156 317.984375 352.078125 319.320312 351.074219 C 320.921875 349.875 322.46875 348.539062 323.570312 346.847656 C 325.628906 343.6875 325.347656 339.78125 324.75 336.230469 C 323.976562 331.621094 322.488281 326.902344 324.476562 322.410156 C 325.1875 320.800781 325.664062 319.3125 325.039062 317.582031 C 324.375 315.738281 322.828125 314.332031 321.371094 313.101562 C 321.097656 312.867188 320.703125 312.769531 320.375 312.972656 C 308.585938 320.300781 305.238281 336.15625 313.203125 347.578125 C 313.335938 347.769531 313.515625 347.867188 313.699219 347.910156 C 313.273438 351.472656 313.03125 355.058594 312.992188 358.65625 C 298.226562 367.148438 282.054688 373.445312 266.070312 378.128906 C 257.210938 380.726562 248.210938 382.832031 239.125 384.480469 C 238.085938 384.667969 238.527344 386.253906 239.5625 386.066406 C 265.113281 381.433594 290.964844 373.261719 313.660156 360.074219 C 314.042969 360.132812 314.453125 359.953125 314.574219 359.539062 C 321.007812 355.746094 327.199219 351.570312 333.03125 346.921875 C 339.554688 341.722656 345.574219 335.90625 350.851562 329.449219 C 350.796875 330.097656 350.8125 330.761719 350.921875 331.433594 C 351.277344 333.683594 352.53125 335.757812 354.632812 336.75 C 355.902344 337.351562 357.289062 337.445312 358.65625 337.664062 C 360.296875 337.929688 361.6875 338.542969 363.171875 339.269531 C 365.210938 340.265625 367.515625 341.277344 369.707031 340.109375 C 371.746094 339.023438 372.925781 336.632812 373.761719 334.585938 C 373.9375 334.148438 374.074219 333.714844 374.191406 333.285156 C 378 332.128906 382.304688 333.785156 384.410156 329.355469 C 384.839844 328.449219 385.128906 327.351562 385.863281 326.625 C 386.558594 325.933594 387.601562 325.742188 388.367188 325.152344 C 389.789062 324.050781 389.613281 322.496094 388.945312 320.984375 C 388.273438 319.460938 387.25 318.222656 386.035156 317.167969 C 387.171875 316.554688 388.070312 315.585938 388.789062 314.433594 C 389.757812 312.875 390.804688 310.738281 391.011719 308.898438 C 391.238281 306.890625 390.144531 304.894531 388.871094 303.421875 C 388.144531 302.578125 387.242188 301.824219 386.265625 301.285156 C 385.898438 301.082031 385.503906 300.949219 385.132812 300.757812 C 384.046875 300.199219 383.820312 299.527344 383.800781 298.351562 C 383.796875 298.265625 383.769531 298.203125 383.75 298.128906 C 384.976562 295.644531 384.84375 292.753906 383.664062 289.960938 C 383.085938 288.597656 382.347656 287.320312 381.515625 286.097656 C 380.847656 285.113281 379.929688 283.316406 378.777344 282.863281 C 377.085938 282.203125 374.53125 283.5625 372.828125 284.558594 C 372.929688 284.394531 372.964844 284.183594 372.878906 283.9375 C 372.816406 283.761719 372.773438 283.589844 372.71875 283.414062 C 373.867188 281.023438 375.035156 278.644531 376.214844 276.269531 C 376.335938 276.292969 376.46875 276.296875 376.621094 276.242188 C 383.324219 273.878906 389.773438 270.871094 395.894531 267.261719 C 396.433594 268.257812 397.585938 268.425781 398.609375 268.375 C 399.242188 268.34375 399.871094 268.261719 400.5 268.160156 C 400.558594 268.15625 400.617188 268.144531 400.675781 268.128906 C 401.769531 267.941406 402.855469 267.675781 403.902344 267.351562 C 404.910156 267.039062 404.480469 265.453125 403.46875 265.765625 C 403.394531 265.789062 403.3125 265.816406 403.21875 265.84375 C 403.210938 265.839844 403.207031 265.835938 403.203125 265.828125 C 403.121094 265.433594 402.800781 265.121094 402.335938 265.246094 C 402.261719 264.824219 401.871094 264.460938 401.410156 264.539062 C 401.339844 264.226562 401.097656 263.957031 400.789062 263.878906 C 400.824219 263.796875 400.851562 263.714844 400.859375 263.628906 C 401.050781 263.492188 401.246094 263.355469 401.441406 263.21875 C 402.230469 262.660156 401.597656 261.429688 400.816406 261.710938 C 400.992188 261.0625 400.085938 260.359375 399.414062 260.921875 C 398.285156 261.867188 396.167969 263.65625 395.707031 265.46875 C 389.824219 268.988281 383.644531 271.933594 377.207031 274.28125 C 378.183594 272.339844 379.175781 270.40625 380.175781 268.476562 C 380.25 268.457031 380.320312 268.445312 380.394531 268.40625 C 383.695312 266.546875 386.992188 264.691406 390.289062 262.832031 C 393.546875 260.996094 396.808594 258.777344 400.378906 257.59375 C 402.394531 259.625 405.417969 258.902344 408.070312 257.515625 C 408.414062 257.339844 408.515625 257.035156 408.46875 256.746094 C 408.75 256.667969 409.03125 256.585938 409.3125 256.507812 C 410.328125 256.214844 409.894531 254.628906 408.875 254.921875 C 408.503906 255.027344 408.132812 255.132812 407.761719 255.238281 C 407.785156 255.152344 407.792969 255.058594 407.78125 254.96875 C 409.972656 254.203125 412.132812 253.34375 414.261719 252.40625 C 416.273438 252.84375 419.390625 251.191406 420.683594 250.484375 C 421.613281 249.980469 420.785156 248.558594 419.855469 249.066406 C 419.699219 249.152344 419.539062 249.222656 419.378906 249.300781 C 419.367188 249.273438 419.355469 249.242188 419.339844 249.210938 C 419.488281 248.859375 419.378906 248.425781 419.101562 248.195312 C 419.183594 247.964844 419.140625 247.707031 419.003906 247.496094 C 419.023438 247.488281 419.046875 247.476562 419.066406 247.46875 C 419.902344 247.148438 419.710938 245.945312 419.019531 245.839844 C 418.851562 245.582031 418.558594 245.433594 418.175781 245.585938 C 416.316406 246.320312 411.429688 248.425781 412.753906 251.234375 C 412.761719 251.246094 412.769531 251.253906 412.777344 251.269531 C 410.886719 252.074219 408.976562 252.824219 407.035156 253.488281 C 407.101562 253.117188 406.84375 252.691406 406.449219 252.546875 C 406.40625 252.308594 406.28125 252.101562 406.082031 251.992188 C 406.195312 251.933594 406.3125 251.882812 406.425781 251.820312 C 406.761719 251.636719 406.855469 251.3125 406.804688 251.007812 C 406.859375 250.992188 406.910156 250.96875 406.96875 250.953125 C 407.992188 250.699219 407.558594 249.113281 406.53125 249.367188 C 406.484375 249.378906 406.445312 249.398438 406.402344 249.410156 C 406.273438 249.113281 405.992188 248.878906 405.644531 248.867188 C 405.699219 248.828125 405.753906 248.789062 405.8125 248.75 C 406.664062 248.199219 405.933594 246.878906 405.082031 247.292969 C 405.117188 247.121094 405.078125 246.949219 405.003906 246.789062 C 405.390625 246.371094 405.082031 245.679688 404.546875 245.511719 C 404.554688 245.292969 404.472656 245.078125 404.324219 244.910156 C 404.253906 244.382812 403.710938 243.90625 403.121094 244.269531 C 401.121094 245.503906 396.941406 248.191406 397.632812 250.960938 C 397.625 250.96875 397.628906 250.980469 397.625 250.992188 C 394.234375 254.078125 391.140625 257.445312 388.359375 261.097656 C 388.097656 261.4375 388.1875 261.773438 388.421875 261.996094 C 386.117188 263.296875 383.816406 264.59375 381.511719 265.890625 C 382.914062 263.21875 384.328125 260.5625 385.773438 257.914062 C 386.851562 255.941406 387.933594 253.964844 389.027344 251.988281 C 389.832031 250.929688 391.078125 249.949219 391.910156 249.195312 C 394.007812 247.292969 396.121094 245.410156 398.230469 243.523438 C 398.546875 243.691406 398.875 243.8125 399.226562 243.867188 C 400.457031 244.167969 402.015625 243.675781 403.046875 243.257812 C 403.527344 243.066406 403.976562 242.835938 404.402344 242.578125 C 404.40625 242.578125 404.410156 242.574219 404.410156 242.574219 C 407.175781 242.414062 409.914062 242.054688 412.546875 241.15625 C 413.796875 242.046875 416.007812 242.066406 417.523438 241.730469 C 418.722656 242.027344 420.082031 242 421.21875 241.867188 C 422.257812 241.742188 422.269531 240.097656 421.21875 240.222656" fill="#100f0d"/></g></g></svg>