<?xml version="1.0" encoding="UTF-8"?><svg xmlns="http://www.w3.org/2000/svg" xmlns:xlink="http://www.w3.org/1999/xlink" fill="#000000" height="476.1" preserveAspectRatio="xMidYMid meet" version="1" viewBox="0.0 0.0 476.1 476.1" width="476.1" zoomAndPan="magnify"><g id="change1_1"><path d="M406.37,69.72C361.41,24.76,301.63,0,238.05,0C174.46,0,114.68,24.76,69.72,69.72S0,174.46,0,238.05 c0,63.58,24.76,123.36,69.72,168.32s104.74,69.72,168.32,69.72c63.58,0,123.36-24.76,168.32-69.72s69.72-104.74,69.72-168.32 C476.09,174.46,451.33,114.68,406.37,69.72z M404.18,404.18C359.81,448.56,300.8,473,238.05,473c-62.76,0-121.76-24.44-166.14-68.82 S3.09,300.8,3.09,238.05c0-62.76,24.44-121.76,68.82-166.14S175.29,3.09,238.05,3.09c62.76,0,121.76,24.44,166.14,68.82 S473,175.29,473,238.05C473,300.8,448.56,359.81,404.18,404.18z M394.27,81.82c-41.73-41.73-97.21-64.71-156.23-64.71 c-10.31,0-20.71,0.72-30.9,2.14c-16.47,2.3-32.65,6.48-48.11,12.41c-41.31,15.82-76.61,43.41-102.08,79.79 c-26.06,37.21-39.84,80.99-39.84,126.59c0,59.02,22.98,114.5,64.71,156.23c41.73,41.73,97.21,64.71,156.23,64.71 s114.5-22.98,156.23-64.71c41.73-41.73,64.71-97.21,64.71-156.23S436,123.55,394.27,81.82z M404,96.58 c-4.06,1.82-14.11,6.38-18.16,8.81c-1.66,0.99-2.89,1.09-4.2,1.19c-2.34,0.18-4.77,0.37-8.2,5.18c-1.46,2.04-2.63,3.26-3.98,4.68 c-3.1,3.23-6.95,7.26-16.1,23.44c-12.55,22.2-27.11,27.33-27.32,27.41c-0.04,0.02-0.58,0.23-1.51,0.64c0.1-2.3,0.37-6.32,1.02-11.35 c0.1-0.74-0.43-1.42-1.17-1.52c-0.74-0.1-1.42,0.43-1.52,1.17c-0.83,6.4-1.04,11.11-1.09,12.95c-8.65,4.04-28.59,14.43-41.82,29.77 c-0.34,0.4-0.71,0.76-1.09,1.09l0.67-9.5c0.05-0.75-0.51-1.39-1.26-1.45c-0.76-0.06-1.39,0.51-1.45,1.26l-0.81,11.56 c-1.69,0.85-3.88,1.83-5.8,2.31c-0.93,0.23-2.63,0.42-4.78,0.65c-1.28,0.14-2.74,0.3-4.32,0.5l-3.15-1.47 c-3.34-1.56-6.87-2.68-10.48-3.35l4.4-31.84c0.1-0.74-0.42-1.43-1.16-1.53c-0.75-0.1-1.42,0.42-1.53,1.16l-4.39,31.8 c-2.72-0.33-5.46-0.4-8.2-0.22l-15.45,1.07c-0.4,0.03-0.66-0.17-0.78-0.29c-0.12-0.12-0.32-0.38-0.29-0.78l0.46-6.42 c0-0.03,0-0.06,0-0.1c0,0,0,0,0,0v0c0.04-0.6,0.04-1.2,0-1.79l0-30.26c-0.01-0.08-0.53-8.27,3.84-11.77 c0.58-0.47,0.68-1.32,0.21-1.9c-0.47-0.58-1.32-0.68-1.9-0.21c-5.49,4.4-4.88,13.69-4.86,13.98v22.73 c-1.28-1.72-2.96-3.16-4.98-4.15c-8.41-4.14-20.86-3.89-27.53-3.37c-0.85,0.07-1.66-0.23-2.27-0.83c-0.61-0.6-0.92-1.44-0.86-2.29 c0.77-11.11,2.11-20.73,4-28.6c1.97-8.19,7.33-15.36,14.73-19.67c7.51-4.38,12.32-7.57,12.37-7.61c0.07-0.05,0.14-0.11,0.21-0.17 c7.59-7.59,21.26-8.22,28.73-7.92c3.2,0.12,6.42-0.48,9.33-1.75l8.73-3.81c1.71-0.75,3.52-1.12,5.38-1.12h6.8 c2.9,0,5.76-0.75,8.29-2.17l11.18-6.29c0.92-0.51,1.79-1.17,2.6-1.95c5.71-5.51,10.57-8.47,14.35-10.05 c-1.39,4.25-4.15,13.11-6.72,23.61c-0.18,0.73,0.27,1.46,0.99,1.64c0.11,0.03,0.22,0.04,0.32,0.04c0.61,0,1.16-0.42,1.32-1.03 c3.07-12.54,6.42-22.72,7.31-25.37c1.89-0.51,3.34-0.64,4.29-0.64c0.03,0,0.07,0,0.1,0c2.17,0.02,4.29-0.15,6.29-0.5l18.98-3.3 c0.08-0.01,0.16-0.03,0.23-0.06l7.58-2.76c2.17-0.79,4.11-1.79,5.78-2.97c8.27-5.86,15.27-5.2,16.91-4.94 c6.95,5.45,13.62,11.35,19.96,17.69C396.35,87.96,400.27,92.21,404,96.58z M136.9,238.19c0,0.81,0.12,1.59,0.35,2.32l-14.08,1.5 c-1.08,0.12-2.19,0.13-3.27,0.05l-13.76-1.03v-20.35c0-0.75-0.61-1.35-1.35-1.35s-1.35,0.61-1.35,1.35v20.1 c-3.33-0.46-6.56-1.64-9.4-3.45l-3.3-2.1c-2.82-1.8-5.31-4.03-7.4-6.64l-4.45-5.57c-1.95-2.44-2.27-5.9-0.81-8.81 c0.83-1.66,0.9-2.72,0.98-4.07c0.03-0.44,0.06-0.93,0.12-1.52c0.32-2.89,0.47-5.12,0.5-7.23c0.1-7.68,4.67-17.73,7.38-23.03 c1.23-2.41,2.01-5.01,2.31-7.75l0.56-5.02c0.31-2.78,1.15-5.44,2.45-7.85c0.21-0.19,0.36-0.45,0.43-0.74 c1.16-1.98,2.63-3.79,4.39-5.33l1.24-1.08c6.3-5.25,7.42-10.55,7.46-10.78c0.01-0.06,0.02-0.13,0.02-0.19 c0.37-6.65,3.19-12.94,8.39-18.7c1.84-2.04,4.46-3.01,7.18-2.64c2.69,0.36,4.94,1.96,6.16,4.4l6.39,12.68 c0.4,1.43,4.32,15.81,4.25,23.19v34.88c0,0.75,0.61,1.35,1.35,1.35s1.35-0.61,1.35-1.35v-34.87c0.04-4.35-1.17-10.77-2.33-15.89 c1.11,1.1,2.48,2.17,4.16,3.02c0.85,0.7,6.63,5.55,10.6,11.27c0.08,0.31,0.27,0.58,0.52,0.77c1.9,2.89,3.27,5.97,3.27,8.82v13.59 c0,2.43,0.67,4.8,1.93,6.87l3.43,5.61c1.69,2.77,2.57,5.95,2.53,9.2c-0.15,13.34,0.54,19.63,1.43,22.63 c-3.76-0.03-8.3,0.79-11.13,4.25c-0.13,0.16-0.22,0.35-0.27,0.56c-0.01,0.03-0.7,2.94-2.57,2.94h-9.65 C139.59,232.19,136.9,234.88,136.9,238.19z M169.48,224.62c-0.75-1.07-1.86-6.89-1.68-22.78c0.04-3.76-0.97-7.44-2.93-10.64 l-3.43-5.61c-0.77-1.25-1.25-2.65-1.44-4.1h8.67c0.75,0,1.35-0.61,1.35-1.35s-0.61-1.35-1.35-1.35h-8.77v-12.23 c0-2.82-1.07-5.75-2.65-8.53l23.8-0.03c-0.66,4.75-1.18,9.89-1.56,15.38c-0.11,1.64,0.49,3.25,1.66,4.4 c1.16,1.15,2.76,1.74,4.39,1.61c6.4-0.5,18.3-0.75,26.12,3.1c3.58,1.76,5.88,5.25,6.18,9.17v1.73l-0.46,6.37 c-0.08,1.07,0.31,2.12,1.07,2.88s1.81,1.15,2.88,1.08l15.45-1.07c6.66-0.46,13.36,0.75,19.44,3.48c-5.31,0.93-11.24,2.45-16.34,5.23 c-10.71,5.84-27.49,9.83-27.66,9.87c-0.07,0.02-0.13,0.04-0.19,0.06c-0.23,0.09-5.71,2.29-9.82,4.69c-2.32,1.36-5.13,1.93-7.92,1.62 l-21.51-2.39C172.41,225.11,171.17,224.82,169.48,224.62z M185.05,57.19c-12.97,0-23.59-10.28-24.12-23.16 c14.71-5.57,30.08-9.54,45.71-11.79c1.67,3.33,2.55,7.05,2.55,10.81C209.19,46.36,198.36,57.19,185.05,57.19z M59.3,113.1 c24.78-35.38,58.97-62.33,98.98-78.05c0.16,2.15,0.57,4.24,1.21,6.22l-4.22,2.33c-0.65,0.36-0.89,1.19-0.53,1.84 c0.25,0.45,0.71,0.7,1.19,0.7c0.22,0,0.45-0.05,0.65-0.17l3.88-2.15c1.1,2.51,2.58,4.81,4.36,6.85l-6.31,7.58 c-0.48,0.58-0.4,1.43,0.17,1.91c0.25,0.21,0.56,0.31,0.87,0.31c0.39,0,0.77-0.17,1.04-0.49l6.12-7.35c1.68,1.57,3.55,2.93,5.59,4.03 l-2.19,5.98c-0.26,0.7,0.1,1.48,0.81,1.74c0.15,0.06,0.31,0.08,0.47,0.08c0.55,0,1.07-0.34,1.27-0.89l2.1-5.74 c2.78,1.16,5.79,1.86,8.94,2.02v21.67c0,0.75,0.61,1.35,1.35,1.35s1.35-0.61,1.35-1.35V59.87c3.21-0.16,6.27-0.89,9.09-2.08 l2.4,4.73c0.24,0.47,0.72,0.74,1.21,0.74c0.21,0,0.42-0.05,0.61-0.15c0.67-0.34,0.93-1.15,0.6-1.82l-2.38-4.69 c2.51-1.38,4.77-3.15,6.71-5.22l11.12,11.21c0.26,0.27,0.61,0.4,0.96,0.4c0.34,0,0.69-0.13,0.95-0.39c0.53-0.53,0.53-1.38,0.01-1.92 L206.4,49.31c1.34-1.75,2.46-3.67,3.34-5.71l5.96,1.96c0.14,0.05,0.28,0.07,0.42,0.07c0.57,0,1.1-0.36,1.29-0.93 c0.23-0.71-0.15-1.48-0.86-1.71l-5.87-1.93c0.66-2.12,1.07-4.35,1.18-6.65h14.77c0.75,0,1.35-0.61,1.35-1.35s-0.61-1.35-1.35-1.35 h-14.78c-0.17-3.41-0.99-6.76-2.41-9.84c9.45-1.23,19.06-1.87,28.6-1.87c47.69,0,93.04,15.21,130.52,43.33 c-3.59,0.22-8.88,1.41-14.76,5.57c-1.47,1.04-3.2,1.93-5.14,2.63l-7.47,2.72l-18.86,3.28c-1.85,0.32-3.81,0.48-5.8,0.46 c-4-0.05-12.44,1.55-23.88,12.57c-0.64,0.62-1.33,1.14-2.04,1.54l-11.18,6.29c-2.12,1.19-4.52,1.82-6.96,1.82h-6.8 c-2.24,0-4.41,0.45-6.46,1.35l-8.73,3.81c-2.54,1.11-5.35,1.64-8.14,1.53c-7.88-0.31-22.33,0.39-30.66,8.62 c-0.75,0.49-5.3,3.48-12.12,7.45c-8.03,4.68-13.86,12.47-16,21.38c-0.79,3.3-1.49,6.92-2.09,10.8l-26.05,0.04 c-4.44-6.32-10.64-11.34-11.04-11.66c-0.07-0.06-0.15-0.11-0.24-0.15c-4.58-2.29-6.52-6.45-7.01-7.67c-0.18-0.44-0.39-0.9-0.64-1.42 l0-0.01c0,0,0,0,0-0.01l-6.44-12.79c-1.61-3.19-4.68-5.39-8.22-5.86c-3.56-0.48-7.13,0.83-9.55,3.51 c-5.59,6.2-8.65,13.01-9.08,20.25c-0.16,0.62-1.41,4.89-6.55,9.18l-1.26,1.11c-1.87,1.64-3.45,3.54-4.72,5.62l-54.46,0.08 C42.27,140.55,49.98,126.4,59.3,113.1z M19.98,238.05c0-13.63,1.25-27.09,3.71-40.26h10.38c7.57,0.04,11.03-3.94,12.59-7.16 c3.43,6.34,10.24,7.26,13.87,7.26c1.44,0,2.38-0.14,2.42-0.15c0.74-0.12,1.24-0.81,1.12-1.55c-0.12-0.74-0.81-1.23-1.55-1.12 c-0.49,0.08-12,1.78-14.66-8.84c-0.16-0.64-0.75-1.05-1.41-1.02c-0.66,0.05-1.18,0.56-1.25,1.21c-0.04,0.36-1.05,8.67-10.94,8.67 c-0.06,0-0.12,0-0.18,0h-9.88c2.52-12.61,6.14-24.94,10.84-36.88l54.11-0.08c-1,2.26-1.68,4.67-1.95,7.17l-0.56,5.02 c-0.27,2.41-0.95,4.7-2.03,6.81c-2.82,5.51-7.56,15.99-7.67,24.22c-0.03,2.03-0.18,4.18-0.48,6.97c-0.07,0.64-0.1,1.17-0.13,1.65 c-0.08,1.24-0.12,1.86-0.7,3.02c-1.94,3.85-1.5,8.45,1.11,11.72l4.45,5.57c2.28,2.84,4.99,5.28,8.06,7.24l3.3,2.1 c3.63,2.31,7.82,3.7,12.11,4.02l15.02,1.13c0.52,0.04,1.03,0.06,1.55,0.06c0.74,0,1.48-0.04,2.21-0.12l15.15-1.62 c1.46,1.85,3.71,3.05,6.25,3.05l28.47,0c2.3,1.7,15.29,10.69,53.68,27.65c14.52,6.41,22.65,14,24.16,22.55 c1.79,10.05-6.47,18.16-6.57,18.26c-4.81,4.81-10.8,17.44,0.94,30.85c4.99,5.71,6.4,12.04,4.17,18.83 c-1.88,5.73-6.2,10.68-11.86,13.57c-15.81,8.07-66.19,36.51-62.79,69.08c-34.09-10.23-65.32-28.8-91.19-54.67 C42.66,351.06,19.98,296.29,19.98,238.05z M193.46,245.53c7.58,4.33,21.27,11.54,43.92,21.55c30.06,13.29,28.03,32.3,24.15,42.46 c-0.89,2.33-2.21,4.68-3.93,6.97c-2.63,3.51-7.69,13.37,2.18,29.05c8.87,14.11,12.71,23.82-8.76,39.69 c-2.49,1.84-6.08,4.13-10.24,6.79c-19.53,12.48-51.89,33.18-52.49,58.39c-3.5-0.81-6.97-1.71-10.42-2.69 c-4.54-31.29,45.59-59.52,61.19-67.48c6.29-3.21,11.11-8.73,13.21-15.14c2.51-7.65,0.88-15.07-4.71-21.46 c-12.97-14.82-1.55-26.66-1.08-27.13c0.38-0.37,9.37-9.15,7.35-20.64c-1.67-9.5-10.33-17.77-25.74-24.58 c-29.45-13.01-43.96-21.39-49.96-25.2C179.71,246.01,185.26,245.69,193.46,245.53z M199.7,452.76 c1.47-15.31,17.55-29.04,17.72-29.18c0.57-0.48,0.65-1.34,0.16-1.91c-0.48-0.57-1.34-0.65-1.91-0.16 c-0.71,0.6-16.95,14.45-18.65,30.76c-2.02-0.38-4.03-0.79-6.03-1.23c0.09-24,32.03-44.44,51.24-56.72c4.2-2.69,7.83-5.01,10.4-6.9 c23.24-17.18,18.57-28.79,9.44-43.31c-8.97-14.26-4.6-22.92-2.3-25.99c1.87-2.49,3.32-5.06,4.29-7.63c1.96-5.14,3.7-13.04,0.82-21.5 c-3.39-9.95-12.28-18.16-26.4-24.41c-18.95-8.37-31.57-14.76-39.59-19.14c11.61-0.1,26.96,0.18,43.44,1.59 c31.84,2.72,74.47,10.33,96.77,31.11c10.27,9.57,15.48,21.26,15.48,34.74c0,1.94,0.37,3.84,1.02,5.62c0.03,0.14,0.08,0.26,0.14,0.39 c0.83,2.09,2.08,4,3.71,5.55c6.81,6.48,15.73,19.16,10.54,38.23c-0.01,0.02-0.02,0.05-0.02,0.06c-0.03,0.09-0.05,0.18-0.07,0.27 c-1.28,4.58-3.37,9.52-6.51,14.84c-0.58,0.95-13.73,22.98-4.26,41.65c-35.54,23.82-77.33,36.62-121.08,36.62 C225.05,456.11,212.24,454.98,199.7,452.76z M392.24,392.24c-9.59,9.59-19.93,18.17-30.87,25.7c-8.45-17.28,4.19-38.47,4.34-38.71 c3.13-5.31,5.39-10.51,6.79-15.58c0-0.01,0.01-0.01,0.01-0.02c0.03-0.07,2.55-7.08,7.31-16c0.35-0.66,0.1-1.48-0.56-1.83 c-0.66-0.35-1.48-0.1-1.83,0.56c-1.23,2.31-2.31,4.48-3.24,6.44c0.1-3.46-0.23-6.85-1.01-10.16c-2.25-9.47-7.7-16.2-11.86-20.17 c-1.29-1.22-2.3-2.72-2.98-4.36l7.55-40.32c0.14-0.74-0.35-1.44-1.08-1.58c-0.73-0.14-1.44,0.35-1.58,1.08l-6.04,32.28 c-0.8-12.87-6.24-24.1-16.23-33.41c-3.66-3.41-7.91-6.56-12.74-9.46c-0.12-5.79-0.21-14.64,0-15.95c0.12-0.74-0.38-1.43-1.12-1.55 c-0.74-0.12-1.43,0.38-1.55,1.12c-0.26,1.62-0.14,10.38-0.06,14.8c-19.31-10.74-47.09-17.72-82.95-20.78 c-3.26-0.28-6.47-0.51-9.62-0.71v-10.09c0-0.75-0.61-1.35-1.35-1.35s-1.35,0.61-1.35,1.35v9.93c-29.28-1.65-52.43-0.07-52.61-0.05 h-32.74c-2.89,0-5.24-2.35-5.24-5.24c0-1.81,1.47-3.29,3.29-3.29h9.65c3.04,0,4.61-2.82,5.13-4.72c4.38-4.95,14.42-2.35,14.52-2.33 c0.06,0.02,0.13,0.03,0.2,0.04l21.6,2.4c3.36,0.37,6.77-0.33,9.59-1.97c3.66-2.13,8.64-4.18,9.37-4.48 c1.57-0.37,17.53-4.26,28.24-10.11c7.96-4.34,18.34-5.48,24.54-6.16c2.25-0.25,4.03-0.44,5.14-0.72c2.44-0.61,5.19-1.9,7.07-2.88 c1.5-0.78,2.87-1.88,4.06-3.26c16.77-19.45,44.76-30.8,44.97-30.89c0.63-0.21,15.64-5.43,28.75-28.62 c8.98-15.89,12.7-19.78,15.69-22.9c1.37-1.43,2.66-2.78,4.23-4.98c2.7-3.78,4.17-3.9,6.21-4.06c1.42-0.11,3.18-0.25,5.39-1.57 c4.12-2.47,15.19-7.46,18.58-8.97c12.65,15.18,23.05,31.82,31.06,49.51c-2.23,2.28-8.45,9.89-9.02,24.36 c-0.03,0.75,0.55,1.38,1.3,1.41c0.02,0,0.04,0,0.05,0c0.72,0,1.32-0.57,1.35-1.3c0.47-12.03,5.18-19,7.52-21.75 c11.81,27.11,18.03,56.62,18.03,87.08C456.11,296.29,433.43,351.06,392.24,392.24z M234.76,257.15c-0.24,0.48-0.72,0.75-1.21,0.75 c-0.2,0-0.41-0.05-0.6-0.14l-12-6c-0.67-0.33-0.94-1.15-0.61-1.82c0.33-0.67,1.15-0.94,1.82-0.61l12,6 C234.82,255.67,235.09,256.48,234.76,257.15z M274.51,302.22c0.74,0.14,1.21,0.85,1.07,1.59c-0.45,2.31-1.14,4.67-2.05,7.02 c-0.21,0.54-0.72,0.87-1.26,0.87c-0.16,0-0.33-0.03-0.49-0.09c-0.7-0.27-1.04-1.06-0.77-1.75c0.85-2.2,1.5-4.4,1.92-6.56 C273.06,302.55,273.78,302.08,274.51,302.22z M273.5,296c-0.74-20-21.38-31.14-21.59-31.25c-0.66-0.35-0.91-1.17-0.56-1.83 c0.35-0.66,1.17-0.92,1.83-0.57c0.91,0.48,22.24,11.97,23.04,33.55c0.03,0.75-0.56,1.38-1.3,1.4c-0.02,0-0.03,0-0.05,0 C274.13,297.3,273.53,296.73,273.5,296z M276.13,374.68c-2.81,8.81-9.84,16.56-20.9,23.04c-0.22,0.13-0.45,0.19-0.68,0.19 c-0.46,0-0.92-0.24-1.17-0.67c-0.38-0.65-0.16-1.48,0.48-1.85c10.46-6.13,17.09-13.37,19.69-21.52c0.23-0.71,0.99-1.11,1.7-0.88 C275.96,373.2,276.36,373.96,276.13,374.68z M276.13,358.44c0.07,0.17,1.73,4.19,1.22,10.15c-0.06,0.71-0.65,1.24-1.35,1.24 c-0.04,0-0.08,0-0.12-0.01c-0.75-0.06-1.3-0.72-1.24-1.46c0.45-5.3-1.01-8.83-1.02-8.87c-0.29-0.69,0.03-1.48,0.72-1.78 C275.05,357.43,275.84,357.75,276.13,358.44z M247.7,400.84c0.39,0.64,0.19,1.47-0.45,1.86l-8.5,5.21c-0.22,0.14-0.47,0.2-0.71,0.2 c-0.46,0-0.9-0.23-1.16-0.65c-0.39-0.64-0.19-1.47,0.45-1.86l8.5-5.21C246.47,400,247.31,400.2,247.7,400.84z M199.9,158.55v13.92 c0,0.75-0.61,1.35-1.35,1.35s-1.35-0.61-1.35-1.35v-13.92c0-0.75,0.61-1.35,1.35-1.35S199.9,157.8,199.9,158.55z M249.9,124.55 c0,0.75-0.61,1.35-1.35,1.35c-4.38,0-11.55,7.69-13.95,10.66c-0.27,0.33-0.66,0.5-1.06,0.5c-0.3,0-0.6-0.1-0.85-0.3 c-0.58-0.47-0.67-1.32-0.2-1.9c0.96-1.19,9.59-11.66,16.05-11.66C249.29,123.19,249.9,123.8,249.9,124.55z M282.9,142.64 l-2.82,40.09c-0.05,0.71-0.65,1.26-1.35,1.26c-0.03,0-0.06,0-0.1,0c-0.75-0.05-1.31-0.7-1.26-1.45l2.82-40.09 c0.05-0.75,0.68-1.32,1.45-1.26C282.39,141.25,282.95,141.89,282.9,142.64z M301.93,119.8c-0.87,4.55-1.56,8.89-2.04,12.9 c-0.08,0.69-0.67,1.19-1.34,1.19c-0.05,0-0.11,0-0.16-0.01c-0.74-0.09-1.27-0.76-1.18-1.51c0.49-4.07,1.18-8.48,2.07-13.09 c0.14-0.74,0.85-1.22,1.59-1.08C301.59,118.36,302.07,119.07,301.93,119.8z M361.75,89.93c0.34,0.67,0.08,1.48-0.59,1.82 c-11.91,6.12-21.22,17.32-27.67,33.3c-0.21,0.53-0.72,0.85-1.26,0.85c-0.17,0-0.34-0.03-0.51-0.1c-0.69-0.28-1.03-1.07-0.75-1.76 c6.7-16.6,16.43-28.27,28.94-34.7C360.59,89,361.41,89.26,361.75,89.93z M328.59,140.35c-0.69,2.79-1.31,5.68-1.85,8.59 c-0.12,0.65-0.69,1.11-1.33,1.11c-0.08,0-0.16-0.01-0.25-0.02c-0.74-0.13-1.22-0.84-1.09-1.58c0.54-2.97,1.18-5.92,1.88-8.76 c0.18-0.73,0.91-1.17,1.64-0.99C328.33,138.89,328.77,139.63,328.59,140.35z M324.45,187.88c0.13,0.74-0.36,1.44-1.1,1.57 c-0.08,0.02-8.56,1.54-16.41,5.71c-0.2,0.11-0.42,0.16-0.63,0.16c-0.49,0-0.95-0.26-1.2-0.72c-0.35-0.66-0.1-1.48,0.56-1.83 c8.24-4.38,16.85-5.92,17.21-5.98C323.61,186.65,324.32,187.14,324.45,187.88z M296.68,203.56c-7.85,11.05-20.58,14.14-24.14,14.14 c-0.15,0-0.28-0.01-0.4-0.02c-0.75-0.07-1.3-0.73-1.23-1.47c0.07-0.75,0.73-1.3,1.47-1.23c1.47,0.15,14.19-1.89,22.08-13 c1.35-1.9,3.1-3.71,5.2-5.36c0.59-0.46,1.44-0.36,1.9,0.22s0.36,1.44-0.22,1.9C299.45,200.25,297.88,201.87,296.68,203.56z M352.08,170.21c0.43,0.61,0.28,1.46-0.33,1.89l-13.11,9.17c-0.24,0.17-0.51,0.24-0.78,0.24c-0.43,0-0.85-0.2-1.11-0.58 c-0.43-0.61-0.28-1.46,0.33-1.89l13.11-9.17C350.81,169.45,351.65,169.6,352.08,170.21z M343.16,201.93 c-0.05,0.25-4.61,24.8-3.95,34.02c0.05,0.75-0.51,1.4-1.25,1.45c-0.03,0-0.07,0-0.1,0c-0.7,0-1.3-0.54-1.35-1.26 c-0.69-9.56,3.8-33.69,3.99-34.71c0.14-0.74,0.85-1.22,1.58-1.08C342.81,200.49,343.3,201.19,343.16,201.93z M318.05,216.1 c0.13,0.74-0.36,1.44-1.1,1.57c-14.76,2.6-17.98,9.79-18.01,9.87c-0.22,0.52-0.72,0.83-1.25,0.83c-0.17,0-0.35-0.03-0.52-0.1 c-0.69-0.29-1.02-1.07-0.74-1.75c0.14-0.35,3.67-8.61,20.05-11.51C317.21,214.88,317.92,215.37,318.05,216.1z M386.44,193.15 l1.97-9.57c0.15-0.73,0.87-1.21,1.6-1.05c0.73,0.15,1.21,0.87,1.05,1.6l-1.97,9.57c-0.13,0.64-0.7,1.08-1.33,1.08 c-0.09,0-0.18-0.01-0.27-0.03C386.76,194.6,386.29,193.89,386.44,193.15z M410.57,129.9c-0.21,0.01-9.06,0.87-13.69,25.89 l-4.12,20.05c-0.13,0.64-0.7,1.08-1.33,1.08c-0.09,0-0.18-0.01-0.27-0.03c-0.73-0.15-1.21-0.87-1.05-1.6l4.11-20.03 c2.12-11.43,5.38-19.6,9.71-24.27c3.43-3.7,6.3-3.81,6.62-3.81c0.75,0,1.35,0.61,1.35,1.35C411.9,129.29,411.31,129.89,410.57,129.9 z M384.87,212.84l-4.66,21c-0.14,0.63-0.7,1.06-1.32,1.06c-0.1,0-0.2-0.01-0.29-0.03c-0.73-0.16-1.19-0.89-1.03-1.62l4.66-21 c0.16-0.73,0.88-1.19,1.62-1.03C384.57,211.39,385.03,212.11,384.87,212.84z M395.16,265.54l-5.09,21.39 c-0.15,0.62-0.7,1.04-1.32,1.04c-0.1,0-0.21-0.01-0.31-0.04c-0.73-0.17-1.18-0.9-1-1.63l5.09-21.39c0.17-0.73,0.9-1.17,1.63-1 C394.88,264.08,395.33,264.81,395.16,265.54z M394.89,254.95l4.5-18.9c0.17-0.73,0.9-1.18,1.63-1c0.73,0.17,1.18,0.9,1,1.63 l-4.5,18.9c-0.15,0.62-0.7,1.04-1.32,1.04c-0.1,0-0.21-0.01-0.31-0.04C395.17,256.41,394.72,255.68,394.89,254.95z M404.62,314.72 c0.45,0.6,0.34,1.45-0.26,1.9c-7.46,5.69-14.53,14.02-21,24.78c-0.25,0.42-0.7,0.66-1.16,0.66c-0.24,0-0.48-0.06-0.7-0.19 c-0.64-0.39-0.85-1.22-0.46-1.86c6.65-11.05,13.95-19.64,21.68-25.53C403.32,314.01,404.17,314.13,404.62,314.72z M424.8,293.07 c-5.09,12.21-13.12,18.12-13.46,18.36c-0.24,0.17-0.52,0.26-0.79,0.26c-0.42,0-0.83-0.19-1.1-0.56c-0.44-0.6-0.3-1.45,0.3-1.89 c0.08-0.06,7.77-5.74,12.54-17.21c0.29-0.69,1.08-1.01,1.77-0.73C424.76,291.58,425.08,292.38,424.8,293.07z M441.96,219.13 l-11.08,54.68c-0.13,0.64-0.7,1.09-1.33,1.09c-0.09,0-0.18-0.01-0.27-0.03c-0.73-0.15-1.21-0.86-1.06-1.6l11.08-54.68 c0.15-0.73,0.86-1.2,1.6-1.06C441.63,217.68,442.1,218.4,441.96,219.13z M123.77,183.25v26.3c0,0.75-0.61,1.35-1.35,1.35 s-1.35-0.61-1.35-1.35v-26.3c0-0.75,0.61-1.35,1.35-1.35S123.77,182.5,123.77,183.25z M100.06,170.99v12.26 c0,0.75-0.61,1.35-1.35,1.35s-1.35-0.61-1.35-1.35v-12.26c0-0.75,0.61-1.35,1.35-1.35S100.06,170.24,100.06,170.99z M231.84,33.05 c0-0.75,0.61-1.35,1.35-1.35h11.57c0.75,0,1.35,0.61,1.35,1.35s-0.61,1.35-1.35,1.35h-11.57C232.44,34.4,231.84,33.79,231.84,33.05z M183.69,94.65v-4.44c0-0.75,0.61-1.35,1.35-1.35s1.35,0.61,1.35,1.35v4.44c0,0.75-0.61,1.35-1.35,1.35S183.69,95.4,183.69,94.65z M141.5,78.68l11.76-14.12c0.48-0.57,1.33-0.65,1.91-0.17c0.57,0.48,0.65,1.33,0.17,1.91l-11.76,14.12 c-0.27,0.32-0.65,0.49-1.04,0.49c-0.31,0-0.61-0.1-0.87-0.31C141.1,80.11,141.03,79.25,141.5,78.68z M220.18,67.05 c-0.53-0.53-0.52-1.39,0.01-1.92c0.53-0.53,1.39-0.52,1.92,0.01l6.51,6.56c0.53,0.53,0.52,1.39-0.01,1.92 c-0.26,0.26-0.61,0.39-0.95,0.39c-0.35,0-0.7-0.13-0.96-0.4L220.18,67.05z M208.01,79.5c0.67-0.34,1.48-0.07,1.82,0.6l1.92,3.79 c0.34,0.67,0.07,1.48-0.6,1.82c-0.2,0.1-0.41,0.15-0.61,0.15c-0.49,0-0.97-0.27-1.21-0.74l-1.92-3.79 C207.08,80.66,207.35,79.84,208.01,79.5z M201.05,68.75c-0.34-0.67-0.07-1.48,0.6-1.82c0.67-0.34,1.48-0.07,1.82,0.6l4.29,8.46 c0.34,0.67,0.07,1.48-0.6,1.82c-0.2,0.1-0.41,0.15-0.61,0.15c-0.49,0-0.97-0.27-1.21-0.74L201.05,68.75z M236.81,51.07 c-0.19,0.57-0.72,0.93-1.29,0.93c-0.14,0-0.28-0.02-0.42-0.07l-1.96-0.65c-0.71-0.23-1.1-1-0.86-1.71c0.23-0.71,1-1.1,1.71-0.86 l1.96,0.65C236.65,49.6,237.04,50.36,236.81,51.07z M219.86,45.5c0.23-0.71,1-1.1,1.71-0.86l8.28,2.72c0.71,0.23,1.1,1,0.86,1.71 C230.53,49.64,230,50,229.43,50c-0.14,0-0.28-0.02-0.42-0.07l-8.28-2.72C220.01,46.97,219.62,46.21,219.86,45.5z M162.27,84.08 l1.06-2.9c0.26-0.7,1.04-1.06,1.74-0.81c0.7,0.26,1.06,1.04,0.81,1.74l-1.06,2.9c-0.2,0.55-0.72,0.89-1.27,0.89 c-0.15,0-0.31-0.03-0.47-0.08C162.38,85.56,162.02,84.78,162.27,84.08z M165.68,74.77l1.84-5.04c0.26-0.7,1.04-1.06,1.74-0.81 c0.7,0.26,1.06,1.04,0.81,1.74l-1.84,5.04c-0.2,0.55-0.72,0.89-1.27,0.89c-0.15,0-0.31-0.03-0.47-0.08 C165.78,76.25,165.42,75.47,165.68,74.77z M129.88,59.2c-0.36-0.65-0.12-1.48,0.53-1.84l1.75-0.97c0.66-0.36,1.48-0.13,1.84,0.53 c0.36,0.65,0.12,1.48-0.53,1.84l-1.75,0.97c-0.21,0.12-0.43,0.17-0.65,0.17C130.58,59.9,130.12,59.65,129.88,59.2z M138.25,54.57 c-0.36-0.65-0.12-1.48,0.53-1.84l11.02-6.09c0.65-0.36,1.48-0.12,1.84,0.53c0.36,0.65,0.12,1.48-0.53,1.84L140.1,55.1 c-0.21,0.12-0.43,0.17-0.65,0.17C138.96,55.27,138.5,55.01,138.25,54.57z M75.78,173.82H62.74c-0.75,0-1.35-0.61-1.35-1.35 s0.61-1.35,1.35-1.35h13.04c0.75,0,1.35,0.61,1.35,1.35S76.53,173.82,75.78,173.82z M181.19,201.22c0-0.75,0.61-1.35,1.35-1.35 h20.78c0.75,0,1.35,0.61,1.35,1.35s-0.61,1.35-1.35,1.35h-20.78C181.8,202.58,181.19,201.97,181.19,201.22z M52.72,232.84H34.09 c-0.75,0-1.35-0.61-1.35-1.35s0.61-1.35,1.35-1.35h18.63c0.75,0,1.35,0.61,1.35,1.35S53.47,232.84,52.72,232.84z M61.38,248.91 c0-0.75,0.61-1.35,1.35-1.35h10.92c0.75,0,1.35,0.61,1.35,1.35s-0.61,1.35-1.35,1.35H62.74C61.99,250.26,61.38,249.65,61.38,248.91z M90.1,280.39H62.74c-0.75,0-1.35-0.61-1.35-1.35s0.61-1.35,1.35-1.35h27.41c0.62,0.01,14.39,0.31,17.09-10.47 c0.16-0.62,0.75-1.05,1.38-1.02c0.64,0.03,1.18,0.51,1.28,1.15c0.07,0.42,1.75,10.34,12.53,10.34c10.9,0,13.7-10.06,13.82-10.49 c0.16-0.62,0.75-1.03,1.38-1.01c0.64,0.03,1.17,0.5,1.27,1.13c0.07,0.42,1.9,10.36,13.11,10.36h21.78c0.75,0,1.35,0.61,1.35,1.35 s-0.61,1.35-1.35,1.35h-21.78c-8.25,0-12.67-4.79-14.63-9.01c-2.03,3.7-6.42,9.01-14.95,9.01c-8.42,0-12.29-5.14-13.98-8.86 C103.36,280.71,90.25,280.4,90.1,280.39z M47.09,279.04c0,0.75-0.61,1.35-1.35,1.35h-7.3c-0.75,0-1.35-0.61-1.35-1.35 s0.61-1.35,1.35-1.35h7.3C46.49,277.69,47.09,278.29,47.09,279.04z M139.6,303.55c0,0.75-0.61,1.35-1.35,1.35h-44.7 c-0.75,0-1.35-0.61-1.35-1.35s0.61-1.35,1.35-1.35h44.7C139,302.19,139.6,302.8,139.6,303.55z M164.36,304.9 c-0.75,0-1.35-0.61-1.35-1.35s0.61-1.35,1.35-1.35h7.3c0.75,0,1.35,0.61,1.35,1.35s-0.61,1.35-1.35,1.35H164.36z M194.09,303.55 c0-0.75,0.61-1.35,1.35-1.35h39.33c0.75,0,1.35,0.61,1.35,1.35s-0.61,1.35-1.35,1.35h-39.33 C194.7,304.9,194.09,304.29,194.09,303.55z M69.55,303.55c0,0.75-0.61,1.35-1.35,1.35H53.55c-0.75,0-1.35-0.61-1.35-1.35 s0.61-1.35,1.35-1.35h14.65C68.94,302.19,69.55,302.8,69.55,303.55z M122.42,336.9H87.55c-0.75,0-1.35-0.61-1.35-1.35 s0.61-1.35,1.35-1.35h34.87c0.75,0,1.35,0.61,1.35,1.35S123.17,336.9,122.42,336.9z M181.22,326.98c0.13-0.63,0.68-1.08,1.32-1.08 c0,0,0,0,0.01,0c0.64,0,1.19,0.44,1.32,1.07c0.07,0.29,1.77,7.23,11.58,7.23c10.99,0,13.57,0.07,13.68,0.07 c0.75,0.02,1.34,0.64,1.32,1.39c-0.02,0.75-0.66,1.32-1.39,1.32c-0.03,0-2.68-0.07-13.6-0.07c-6.24,0-9.77-2.5-11.63-4.6 c-0.44-0.5-0.81-1-1.12-1.48c-2.61,4.84-8.08,6.18-11.97,6.18c-0.63,0-1.22-0.04-1.75-0.1h-24.6c-0.75,0-1.35-0.61-1.35-1.35 s0.61-1.35,1.35-1.35h24.68c0.06,0,0.11,0,0.16,0.01C169.64,334.25,179.5,335.32,181.22,326.98z M139.6,357.06 c0,0.75-0.61,1.35-1.35,1.35H115.9c-0.75,0-1.35-0.61-1.35-1.35s0.61-1.35,1.35-1.35h22.35C139,355.71,139.6,356.32,139.6,357.06z M173.77,355.71c0.75,0,1.35,0.61,1.35,1.35s-0.61,1.35-1.35,1.35h-11.31c-0.75,0-1.35-0.61-1.35-1.35s0.61-1.35,1.35-1.35H173.77z M222.9,357.06c0,0.75-0.61,1.35-1.35,1.35h-27.37c-0.75,0-1.35-0.61-1.35-1.35s0.61-1.35,1.35-1.35h27.37 C222.29,355.71,222.9,356.32,222.9,357.06z M129.51,381.25c-3.87,5.32-11.48,5.65-13.28,5.65c-0.2,0-0.33,0-0.37-0.01l-24.3,0 c-0.75,0-1.35-0.61-1.35-1.35s0.61-1.35,1.35-1.35h24.35c0.15,0,10.22,0.27,12.61-6.87c0.2-0.59,0.78-0.98,1.4-0.92 c0.62,0.05,1.13,0.53,1.22,1.15c0.04,0.27,1.1,6.64,7.12,6.64h13.74c0.75,0,1.35,0.61,1.35,1.35s-0.61,1.35-1.35,1.35h-13.74 C133.56,386.9,130.86,384.04,129.51,381.25z M191.01,386.9h-21.57c-0.75,0-1.35-0.61-1.35-1.35s0.61-1.35,1.35-1.35h21.57 c0.75,0,1.35,0.61,1.35,1.35S191.76,386.9,191.01,386.9z M167.62,414.55c0,0.75-0.61,1.35-1.35,1.35h-34.72 c-0.75,0-1.35-0.61-1.35-1.35s0.61-1.35,1.35-1.35h34.72C167.02,413.19,167.62,413.8,167.62,414.55z M296.55,273.05 c-0.83,0-1.5-0.67-1.5-1.5s0.67-1.5,1.5-1.5s1.5,0.67,1.5,1.5S297.37,273.05,296.55,273.05z M326.05,293.55c0,0.83-0.67,1.5-1.5,1.5 s-1.5-0.67-1.5-1.5s0.67-1.5,1.5-1.5S326.05,292.72,326.05,293.55z M313.05,306.55c0,0.83-0.67,1.5-1.5,1.5s-1.5-0.67-1.5-1.5 s0.67-1.5,1.5-1.5S313.05,305.72,313.05,306.55z M307.05,340.55c0,0.83-0.67,1.5-1.5,1.5s-1.5-0.67-1.5-1.5s0.67-1.5,1.5-1.5 S307.05,339.72,307.05,340.55z M347.05,315.55c0,0.83-0.67,1.5-1.5,1.5s-1.5-0.67-1.5-1.5s0.67-1.5,1.5-1.5 S347.05,314.72,347.05,315.55z M289.05,322.55c0,0.83-0.67,1.5-1.5,1.5s-1.5-0.67-1.5-1.5s0.67-1.5,1.5-1.5 S289.05,321.72,289.05,322.55z M342.05,352.55c0,0.83-0.67,1.5-1.5,1.5s-1.5-0.67-1.5-1.5s0.67-1.5,1.5-1.5 S342.05,351.72,342.05,352.55z M329.05,368.55c0,0.83-0.67,1.5-1.5,1.5s-1.5-0.67-1.5-1.5s0.67-1.5,1.5-1.5 S329.05,367.72,329.05,368.55z M350.05,383.55c0,0.83-0.67,1.5-1.5,1.5s-1.5-0.67-1.5-1.5s0.67-1.5,1.5-1.5 S350.05,382.72,350.05,383.55z M335.05,406.55c0,0.83-0.67,1.5-1.5,1.5s-1.5-0.67-1.5-1.5s0.67-1.5,1.5-1.5 S335.05,405.72,335.05,406.55z M244.05,444.55c0,0.83-0.67,1.5-1.5,1.5s-1.5-0.67-1.5-1.5s0.67-1.5,1.5-1.5 S244.05,443.72,244.05,444.55z M234.05,427.55c0,0.83-0.67,1.5-1.5,1.5s-1.5-0.67-1.5-1.5s0.67-1.5,1.5-1.5 S234.05,426.72,234.05,427.55z M300.05,398.55c0,0.83-0.67,1.5-1.5,1.5s-1.5-0.67-1.5-1.5s0.67-1.5,1.5-1.5 S300.05,397.72,300.05,398.55z M293.05,377.55c0,0.83-0.67,1.5-1.5,1.5s-1.5-0.67-1.5-1.5s0.67-1.5,1.5-1.5 S293.05,376.72,293.05,377.55z M313.05,421.55c0,0.83-0.67,1.5-1.5,1.5s-1.5-0.67-1.5-1.5s0.67-1.5,1.5-1.5 S313.05,420.72,313.05,421.55z M274.05,429.55c0,0.83-0.67,1.5-1.5,1.5s-1.5-0.67-1.5-1.5s0.67-1.5,1.5-1.5 S274.05,428.72,274.05,429.55z" fill="#01022c"/></g></svg>