<?xml version="1.0" encoding="UTF-8"?><svg xmlns="http://www.w3.org/2000/svg" xmlns:xlink="http://www.w3.org/1999/xlink" fill="#000000" height="142.4" preserveAspectRatio="xMidYMid meet" version="1" viewBox="-0.2 -0.4 310.8 142.4" width="310.8" zoomAndPan="magnify"><g id="change1_1"><path d="M 185.820312 61.683594 C 185.621094 61.699219 185.425781 61.789062 185.304688 61.953125 C 185.285156 61.960938 185.269531 61.972656 185.246094 61.984375 C 184.6875 62.226562 184.914062 62.902344 185.375 63.085938 C 186.050781 65.816406 186.578125 68.917969 185.90625 71.671875 C 184.84375 76.039062 180.625 76.546875 176.984375 75.332031 C 176.902344 75.085938 176.683594 74.886719 176.382812 74.886719 C 179.617188 73.28125 183.4375 71.085938 183.839844 67.179688 C 184.015625 65.472656 183.390625 63.972656 182.195312 62.773438 C 180.042969 60.613281 177.554688 59.699219 175.941406 57.003906 C 175.617188 55.757812 174.609375 50.027344 177.632812 51.332031 C 178.550781 51.726562 179.078125 52.667969 180.15625 53.007812 C 181.894531 53.554688 183.546875 53.601562 185.117188 54.695312 C 187.484375 56.339844 188.539062 60.019531 185.820312 61.683594 Z M 168.015625 70.679688 C 166.339844 68.085938 166.53125 66.34375 168.078125 63.597656 C 168.804688 62.3125 169.292969 61.453125 169.515625 59.957031 C 169.871094 57.574219 169.386719 51.035156 173.832031 52.722656 C 170.667969 60.003906 169.59375 68.277344 174.691406 74.980469 C 171.964844 74.835938 169.472656 72.925781 168.015625 70.679688 Z M 174.550781 56.664062 C 174.480469 56.820312 174.472656 57.003906 174.574219 57.195312 C 175.296875 58.582031 176.125 59.761719 177.320312 60.789062 C 178.546875 61.847656 180.191406 62.492188 181.304688 63.667969 C 185.53125 68.148438 179.167969 72.066406 175.472656 73.925781 C 171.265625 68.234375 171.898438 61.246094 174.273438 54.972656 C 174.339844 55.578125 174.433594 56.15625 174.550781 56.664062 Z M 182.269531 52.167969 C 181.023438 51.871094 180.089844 51.816406 179 50.9375 C 178.613281 50.621094 178.328125 50.148438 177.890625 49.882812 C 177.117188 49.410156 176.136719 49.214844 175.390625 49.863281 C 175.074219 50.136719 174.855469 50.507812 174.675781 50.910156 C 174.664062 50.921875 174.652344 50.929688 174.644531 50.945312 C 174.542969 51.15625 174.449219 51.371094 174.347656 51.582031 C 174.324219 51.570312 174.308594 51.546875 174.28125 51.539062 C 172.019531 50.621094 169.890625 51.957031 169.011719 54.136719 C 168.269531 55.960938 168.558594 57.964844 168.222656 59.863281 C 167.832031 62.09375 166.234375 63.105469 165.472656 65.023438 C 164.425781 67.667969 166.417969 71.019531 168.171875 72.917969 C 170.242188 75.160156 173.035156 76.585938 176.066406 76.167969 C 176.132812 76.304688 176.246094 76.421875 176.421875 76.484375 C 179.792969 77.683594 183.980469 77.699219 186.164062 74.363281 C 188.308594 71.09375 187.484375 66.328125 186.578125 62.695312 C 188.433594 61.515625 189.226562 59.261719 188.507812 57.082031 C 187.597656 54.328125 184.9375 52.804688 182.269531 52.167969 Z M 109.828125 76.265625 C 107.484375 77.941406 105.308594 79.675781 103.894531 82.238281 C 103.5 82.953125 102.40625 82.3125 102.800781 81.597656 C 104.320312 78.851562 106.675781 76.972656 109.191406 75.171875 C 109.855469 74.699219 110.484375 75.796875 109.828125 76.265625 Z M 102.320312 67.394531 C 101.554688 67.675781 101.226562 66.453125 101.984375 66.175781 C 103.734375 65.535156 105.585938 66.238281 107.316406 65.605469 C 108.085938 65.324219 108.410156 66.546875 107.652344 66.824219 C 105.902344 67.464844 104.054688 66.761719 102.320312 67.394531 Z M 101.675781 57.421875 C 104.703125 57.113281 107.5625 57.335938 110.507812 58.09375 C 111.296875 58.296875 110.957031 59.515625 110.167969 59.3125 C 107.320312 58.582031 104.597656 58.386719 101.675781 58.6875 C 100.867188 58.769531 100.875 57.503906 101.675781 57.421875 Z M 116.339844 44.300781 C 115.929688 43.597656 117.019531 42.960938 117.429688 43.664062 C 118.78125 45.972656 119.675781 48.453125 120.089844 51.097656 C 120.214844 51.894531 118.996094 52.234375 118.867188 51.433594 C 118.46875 48.890625 117.640625 46.527344 116.339844 44.300781 Z M 129.136719 47.699219 C 129.6875 45.597656 129.773438 43.882812 129.398438 41.742188 C 129.261719 40.945312 130.480469 40.605469 130.617188 41.40625 C 131.027344 43.753906 130.960938 45.726562 130.359375 48.035156 C 130.152344 48.824219 128.933594 48.484375 129.136719 47.699219 Z M 141.074219 49.507812 C 142.109375 47.796875 143.34375 46.578125 145.074219 45.574219 C 145.78125 45.164062 146.417969 46.257812 145.714844 46.667969 C 144.164062 47.566406 143.09375 48.613281 142.167969 50.148438 C 141.746094 50.84375 140.652344 50.207031 141.074219 49.507812 Z M 152.292969 58.296875 C 150.273438 57.777344 148.730469 57.441406 146.667969 58.011719 C 145.882812 58.226562 145.546875 57.007812 146.332031 56.789062 C 148.601562 56.164062 150.390625 56.503906 152.628906 57.078125 C 153.417969 57.28125 153.082031 58.5 152.292969 58.296875 Z M 140.699219 69.847656 C 141.226562 70.464844 140.335938 71.363281 139.804688 70.742188 C 139.019531 69.816406 137.941406 69.277344 137.15625 68.351562 C 136.632812 67.730469 137.519531 66.835938 138.050781 67.457031 C 138.835938 68.382812 139.910156 68.917969 140.699219 69.847656 Z M 123.511719 81.367188 C 123.449219 83.003906 123.59375 84.589844 123.707031 86.21875 C 123.765625 87.035156 122.5 87.027344 122.441406 86.21875 C 122.328125 84.589844 122.183594 83.003906 122.246094 81.367188 C 122.277344 80.554688 123.539062 80.550781 123.511719 81.367188 Z M 299.078125 114.085938 C 299.273438 114.082031 299.988281 114.304688 299.796875 114.628906 C 299.652344 114.867188 299.21875 114.320312 299.078125 114.085938 Z M 299.074219 112.816406 C 298.632812 112.832031 298.4375 113.207031 298.476562 113.546875 C 298.09375 113.535156 297.679688 113.84375 297.808594 114.328125 C 298.101562 115.433594 299.828125 116.570312 300.847656 115.558594 C 301.277344 115.132812 301.105469 114.269531 300.839844 113.808594 C 300.464844 113.164062 299.816406 112.792969 299.074219 112.816406 Z M 309.183594 140.226562 C 308.867188 141.308594 308.300781 139.621094 308.238281 139.289062 C 308.230469 139.253906 308.214844 139.234375 308.207031 139.207031 C 308.773438 139.347656 309.355469 139.636719 309.183594 140.226562 Z M 310.050781 138.898438 C 309.441406 138.117188 308.441406 137.898438 307.5 137.828125 C 306.789062 137.773438 306.703125 138.734375 307.234375 139.019531 C 307.074219 139.15625 306.96875 139.359375 307.019531 139.625 C 307.164062 140.410156 307.464844 141.328125 308.242188 141.703125 C 308.96875 142.046875 309.78125 141.769531 310.191406 141.085938 C 310.601562 140.402344 310.535156 139.519531 310.050781 138.898438 Z M 300.789062 127.074219 C 300.574219 128.570312 298.753906 128.828125 297.910156 127.714844 C 297.417969 127.066406 298.515625 126.4375 299 127.078125 C 299.273438 127.433594 299.621094 126.929688 299.515625 126.644531 C 299.335938 126.160156 298.757812 126.296875 298.449219 126.476562 C 297.742188 126.882812 297.105469 125.789062 297.8125 125.382812 C 299.117188 124.632812 301.03125 125.363281 300.789062 127.074219 Z M 289.550781 113.910156 C 289.554688 113.902344 289.554688 113.894531 289.5625 113.890625 C 289.578125 113.894531 289.597656 113.898438 289.613281 113.902344 C 289.59375 113.90625 289.570312 113.90625 289.550781 113.910156 Z M 289.355469 112.1875 C 288.78125 112.023438 288.453125 112.636719 288.625 113.0625 C 287.941406 113.882812 288.523438 115.417969 289.707031 114.839844 C 290.96875 114.222656 290.578125 112.539062 289.355469 112.1875 Z M 292.492188 123.152344 C 291.582031 124.027344 290.5 122.757812 291.070312 121.828125 C 291.082031 121.808594 291.082031 121.789062 291.09375 121.769531 C 291.117188 121.757812 291.144531 121.75 291.167969 121.730469 C 292.089844 120.992188 293.425781 122.257812 292.492188 123.152344 Z M 290.421875 120.984375 C 290.351562 121.039062 290.308594 121.105469 290.277344 121.167969 C 290.234375 121.207031 290.191406 121.242188 290.160156 121.296875 C 288.871094 123.390625 291.738281 125.71875 293.394531 123.722656 C 295.035156 121.738281 292.257812 119.511719 290.421875 120.984375 Z M 287.816406 128.316406 C 288.179688 128.941406 288.375 130.085938 287.800781 130.664062 C 287.140625 131.320312 285.488281 131.265625 284.769531 130.765625 C 284.046875 130.257812 283.828125 129.394531 284.195312 128.609375 C 284.546875 127.875 285.636719 128.515625 285.289062 129.25 C 284.996094 129.867188 286.835938 130.238281 286.886719 129.421875 C 286.921875 128.839844 286.246094 128.367188 285.75 128.367188 C 284.933594 128.371094 284.933594 127.105469 285.75 127.105469 C 286.621094 127.101562 287.382812 127.558594 287.816406 128.316406 Z M 276.183594 126.367188 C 275.976562 127.976562 274.1875 128.6875 272.761719 128.34375 C 272.488281 128.277344 272.304688 128.007812 272.296875 127.734375 C 272.277344 127.035156 272.257812 126.339844 272.238281 125.640625 C 272.214844 124.828125 273.480469 124.832031 273.503906 125.640625 C 273.515625 126.152344 273.53125 126.664062 273.546875 127.171875 C 274.046875 127.171875 274.566406 126.980469 274.820312 126.53125 C 275.195312 125.859375 274.523438 124.996094 273.789062 125.230469 C 273.011719 125.480469 272.679688 124.261719 273.453125 124.015625 C 274.886719 123.550781 276.375 124.890625 276.183594 126.367188 Z M 278.59375 108.765625 C 279.328125 111.65625 278.074219 115.1875 275.730469 116.921875 C 274.96875 117.484375 274.136719 117.953125 273.507812 118.679688 C 273.066406 119.191406 272.664062 119.761719 272.800781 120.136719 C 271.707031 117.148438 271.398438 113.617188 272.78125 110.667969 C 273.359375 109.441406 274.945312 107.457031 276.359375 106.992188 C 276.210938 107.816406 276.003906 108.636719 275.679688 109.433594 C 275.367188 110.1875 276.59375 110.515625 276.894531 109.769531 C 277.253906 108.898438 277.472656 108.007812 277.628906 107.105469 C 278.03125 107.371094 278.371094 107.882812 278.59375 108.765625 Z M 270.828125 99.863281 C 270.554688 100.851562 269.828125 101.613281 269.53125 102.578125 C 269.398438 103.011719 269.414062 103.402344 269.421875 103.808594 C 268.636719 103.449219 267.761719 102.460938 267.316406 101.964844 C 266.140625 100.648438 265.339844 98.878906 265.335938 97.101562 C 265.332031 95.765625 265.96875 92.480469 267.425781 91.566406 C 267.574219 91.585938 267.722656 91.609375 267.863281 91.65625 C 268.535156 92.269531 269.199219 92.894531 269.859375 93.515625 C 270.953125 95.484375 271.234375 98.410156 270.828125 99.863281 Z M 259.226562 90.074219 C 258.882812 90.519531 257.761719 91.90625 257.988281 92.535156 C 256.507812 91.042969 255.308594 89.0625 255.296875 86.90625 C 255.289062 85.6875 256.082031 83.535156 257.207031 82.835938 C 258.226562 83.597656 259.238281 84.367188 260.234375 85.160156 C 260.75 86.832031 260.34375 88.636719 259.226562 90.074219 Z M 248.128906 69.808594 C 248.957031 69.007812 250.011719 68.558594 251.140625 68.414062 C 251.613281 68.355469 252.082031 68.34375 252.554688 68.378906 C 252.730469 68.378906 252.898438 68.417969 253.070312 68.445312 C 252.5625 69.226562 252.535156 70.03125 252.039062 70.945312 C 251.304688 72.308594 248.148438 74.792969 246.421875 73.617188 C 246.183594 72.445312 247.480469 70.429688 248.128906 69.808594 Z M 263.601562 78.113281 C 265.207031 77.707031 266.851562 77.941406 268.351562 78.574219 C 268.878906 78.792969 269.339844 79.0625 269.820312 79.335938 C 268.300781 79.640625 267.699219 81.328125 266.472656 82.167969 C 265.238281 83.015625 262.769531 83.78125 260.863281 83.382812 C 260.429688 82.601562 259.859375 81.941406 259.128906 81.570312 C 259.074219 81.542969 259.019531 81.542969 258.964844 81.519531 C 259.695312 79.925781 262.480469 78.398438 263.601562 78.113281 Z M 204.59375 80.074219 C 200.644531 80.007812 197.066406 78.109375 194.882812 74.820312 C 194.734375 74.597656 194.511719 74.527344 194.304688 74.542969 C 195.960938 73.210938 197.777344 72.054688 199.191406 70.425781 C 200.867188 68.492188 201.355469 66.511719 201.054688 64.515625 C 203.9375 64.199219 206.71875 63.464844 209.304688 62.285156 C 209.316406 62.460938 209.398438 62.632812 209.59375 62.75 C 213.601562 65.207031 215.109375 69.332031 215.078125 73.863281 C 215.238281 78.316406 208.101562 80.128906 204.59375 80.074219 Z M 208.550781 88.941406 C 208.535156 89.050781 208.550781 89.144531 208.578125 89.222656 C 208.140625 92.15625 203.339844 91.941406 201.3125 91.566406 C 200.113281 91.347656 199.054688 91.136719 197.90625 91.277344 C 198.632812 90.167969 199.257812 89.066406 199.507812 87.558594 C 200.003906 84.582031 199.210938 81.808594 197.773438 79.335938 C 200.34375 80.933594 203.433594 81.597656 206.617188 81.21875 C 207.179688 81.152344 207.789062 81.046875 208.421875 80.90625 C 208.886719 83.609375 208.914062 86.222656 208.550781 88.941406 Z M 194.480469 94.957031 C 193.882812 97.230469 193.984375 98.210938 191.636719 99.03125 C 190.121094 99.558594 188.449219 99.734375 186.855469 99.589844 C 185.023438 99.417969 183.21875 98.8125 181.660156 97.835938 C 180.769531 97.28125 177.808594 95.101562 177.960938 93.886719 C 177.964844 93.875 177.960938 93.867188 177.960938 93.855469 C 180.472656 91.035156 182.472656 87.730469 181.859375 83.875 C 182.039062 83.640625 182.226562 83.410156 182.4375 83.1875 C 183.859375 81.699219 185.53125 81.148438 187.4375 80.65625 C 189.75 80.058594 190.414062 78.859375 191.816406 77.007812 C 192.21875 76.472656 192.675781 76 193.152344 75.550781 C 196.171875 78.472656 198.6875 82.160156 198.367188 86.558594 C 198.117188 89.949219 195.296875 91.863281 194.480469 94.957031 Z M 169.371094 100.167969 C 162.390625 106.460938 155.273438 97.871094 155.421875 90.578125 C 155.425781 90.363281 155.339844 90.210938 155.214844 90.109375 C 157.03125 89.726562 158.78125 89.140625 160.285156 88.199219 C 163.011719 86.488281 165.234375 83.753906 166.761719 80.90625 C 167.75 81.296875 168.472656 81.929688 169.300781 82.941406 C 170.6875 84.640625 172.621094 85.886719 174.742188 86.453125 C 176.480469 86.914062 178.496094 86.941406 180.035156 85.898438 C 180.300781 85.71875 180.527344 85.519531 180.734375 85.300781 C 180.796875 91.410156 173.425781 96.511719 169.371094 100.167969 Z M 144.097656 89.011719 C 139.410156 86.414062 144.058594 80.144531 145.5 77.207031 C 145.742188 77.058594 145.976562 76.90625 146.253906 76.769531 C 148.019531 75.882812 149.714844 75.105469 150.980469 73.53125 C 153.15625 70.828125 153.53125 67.28125 152.347656 64.121094 C 153.25 64.191406 154.152344 64.195312 155.046875 64.101562 C 153.976562 66.171875 154.871094 68.507812 156.632812 70.074219 C 157.996094 71.292969 158.378906 72.144531 158.210938 73.933594 C 158.113281 74.949219 158.253906 75.875 158.679688 76.816406 C 159.308594 78.222656 160.472656 79.433594 161.910156 80.019531 C 162.828125 80.394531 163.585938 80.324219 164.527344 80.417969 C 164.878906 80.453125 165.191406 80.5 165.488281 80.554688 C 162.789062 85.378906 158.722656 88.320312 153.078125 89.121094 C 150.691406 89.460938 146.320312 90.242188 144.097656 89.011719 Z M 134.179688 82.15625 C 131.046875 79.757812 130.078125 75.144531 129.769531 71.4375 C 129.765625 71.402344 129.75 71.378906 129.742188 71.347656 C 130.214844 70.683594 130.71875 70.046875 131.300781 69.480469 C 133.421875 67.414062 136.351562 66.425781 139.027344 65.136719 C 140.714844 64.324219 142.402344 63.265625 143.613281 61.886719 C 143.699219 61.941406 143.800781 61.984375 143.925781 61.992188 C 146.214844 62.128906 148.339844 63.515625 150.609375 63.929688 C 150.734375 63.953125 150.863281 63.949219 150.988281 63.96875 C 150.996094 64.027344 151 64.082031 151.027344 64.140625 C 152.601562 67.664062 151.609375 72.039062 148.34375 74.261719 C 146.367188 75.605469 143.839844 76.085938 142.367188 78.117188 C 141.648438 79.109375 141.476562 80.351562 140.820312 81.371094 C 139.289062 83.746094 136.269531 83.753906 134.179688 82.15625 Z M 128.65625 91.550781 C 125.390625 91.394531 123.246094 91.609375 120.160156 92.863281 C 118.4375 93.566406 116.582031 94.398438 114.683594 94.160156 C 110.605469 93.648438 111.246094 89.738281 112.53125 86.796875 C 113.730469 84.046875 114.992188 81.328125 116.179688 78.574219 C 116.207031 78.515625 116.210938 78.457031 116.21875 78.398438 C 119.386719 79.167969 122.945312 78.875 125.472656 76.867188 C 126.804688 75.808594 127.734375 74.390625 128.664062 72.960938 C 129.140625 76.679688 130.324219 80.796875 133.316406 83.140625 C 133.808594 83.527344 134.378906 83.832031 134.972656 84.066406 C 134.960938 84.121094 134.945312 84.171875 134.953125 84.238281 C 135.304688 88.273438 133.074219 91.765625 128.65625 91.550781 Z M 102.195312 88.28125 C 97.84375 87.972656 95.734375 84.015625 96.769531 80.023438 C 97.558594 76.980469 99.886719 74.6875 102.164062 72.679688 C 102.238281 72.617188 102.289062 72.546875 102.320312 72.472656 C 103.71875 72.007812 105.132812 71.609375 106.640625 71.65625 C 107.039062 71.667969 108.171875 71.785156 108.972656 72.046875 C 109.25 73.128906 109.699219 74.148438 110.40625 75.039062 C 111.53125 76.453125 113.15625 77.386719 114.882812 77.992188 C 114.738281 77.992188 114.59375 78.042969 114.464844 78.179688 C 110.820312 82.117188 108.648438 88.738281 102.195312 88.28125 Z M 96.335938 67 C 96.945312 65.859375 97.660156 64.898438 98.597656 64.140625 C 98.765625 64.089844 98.886719 63.988281 98.960938 63.855469 C 99.242188 63.660156 99.542969 63.480469 99.871094 63.320312 C 101.21875 63.40625 102.589844 63.273438 103.917969 63.046875 C 106.109375 62.671875 108.3125 62.382812 110.511719 62.046875 C 110.035156 63.039062 109.621094 64.054688 109.304688 65.105469 C 108.769531 66.871094 108.519531 68.796875 108.710938 70.628906 C 107.535156 70.378906 106.210938 70.386719 105.480469 70.464844 C 103.324219 70.691406 101.554688 71.554688 99.507812 72.113281 C 96.242188 73.007812 95 69.484375 96.335938 67 Z M 96.386719 60.957031 C 95.5625 60.410156 95.101562 59.835938 94.8125 59.230469 C 94.808594 59.082031 94.746094 58.941406 94.628906 58.820312 C 94.226562 57.597656 94.472656 56.246094 94.277344 54.707031 C 94.199219 54.097656 93.902344 53.589844 93.765625 53.003906 C 93.257812 50.882812 94.1875 49.144531 96.34375 48.753906 C 98.894531 48.296875 101.425781 49.226562 103.6875 50.40625 C 107.242188 52.257812 110.207031 55.050781 112.589844 58.25 C 112.644531 58.320312 112.707031 58.371094 112.769531 58.410156 C 112.203125 59.121094 111.695312 59.875 111.242188 60.660156 C 108.695312 61.085938 106.121094 61.402344 103.582031 61.828125 C 101.175781 62.230469 98.511719 62.363281 96.386719 60.957031 Z M 104.140625 48.929688 C 101.863281 46.40625 100.039062 43.453125 99.308594 40.097656 C 99.109375 39.183594 98.953125 38.242188 98.921875 37.308594 C 98.863281 35.5625 98.953125 35.332031 100.371094 34.070312 C 101.476562 33.089844 101.871094 32.730469 103.171875 32.40625 C 103.625 32.25 104.089844 32.164062 104.574219 32.15625 C 105.691406 31.90625 106.761719 32.09375 107.785156 32.667969 C 107.789062 32.679688 107.792969 32.691406 107.796875 32.703125 C 107.886719 33.058594 107.96875 33.394531 108.054688 33.734375 C 108.054688 33.839844 108.082031 33.941406 108.128906 34.035156 C 108.460938 35.457031 108.652344 36.796875 108.328125 38.382812 C 108.109375 39.457031 107.960938 40.496094 107.957031 41.597656 C 107.9375 47.171875 110.945312 52.082031 113.804688 56.648438 C 113.890625 56.785156 114.003906 56.855469 114.125 56.898438 C 113.9375 57.089844 113.753906 57.277344 113.574219 57.472656 C 111.085938 54.164062 107.976562 51.234375 104.296875 49.316406 C 104.289062 49.183594 104.25 49.054688 104.140625 48.929688 Z M 110.070312 35.046875 C 110.023438 34.644531 109.878906 34.257812 109.800781 33.867188 C 109.542969 32.570312 109.398438 29.757812 110.410156 28.636719 C 111.945312 26.933594 115.753906 26.304688 117.617188 27.390625 C 120.929688 29.3125 122.796875 35.503906 123.523438 38.9375 C 123.527344 38.972656 123.546875 38.992188 123.558594 39.023438 C 123.449219 42.851562 123.960938 46.691406 125.070312 50.394531 C 123.589844 50.863281 122.132812 51.417969 120.742188 52.113281 C 118.617188 53.175781 116.648438 54.507812 114.925781 56.089844 C 114.914062 56.0625 114.914062 56.035156 114.894531 56.007812 C 112.738281 52.566406 110.503906 49.03125 109.605469 45.019531 C 109.132812 42.902344 109.144531 40.84375 109.546875 38.71875 C 109.773438 37.519531 110.210938 36.292969 110.070312 35.046875 Z M 124.921875 36.921875 C 125.144531 34.617188 125.605469 32.332031 126.304688 30.125 C 126.609375 29.167969 127.230469 26.820312 127.832031 26.199219 C 129.5625 24.410156 130.71875 25.691406 132.113281 26.601562 C 136.234375 29.285156 140.777344 31.648438 140.695312 37.210938 C 140.621094 41.921875 138.214844 46.210938 134.386719 48.894531 C 134.34375 48.921875 134.320312 48.960938 134.289062 48.996094 C 133.28125 48.960938 132.265625 48.996094 131.265625 49.09375 C 129.605469 49.261719 127.933594 49.582031 126.28125 50.027344 C 125.011719 45.761719 124.492188 41.363281 124.921875 36.921875 Z M 142.066406 36.339844 C 143.472656 35.027344 145.644531 33.644531 147.652344 34.351562 C 149.832031 35.117188 149.78125 36.988281 150.554688 38.714844 C 151.554688 40.949219 154.117188 41.871094 155.21875 44.015625 C 157.339844 48.148438 153.789062 51.441406 150.015625 52.226562 C 147.964844 52.65625 145.996094 52.882812 144.140625 53.730469 C 143.601562 52.886719 142.921875 52.125 142.121094 51.523438 C 140.335938 50.167969 138.246094 49.457031 136.078125 49.160156 C 139.535156 46.308594 141.757812 42.21875 141.941406 37.660156 C 141.957031 37.230469 141.949219 36.820312 141.925781 36.425781 C 141.972656 36.398438 142.023438 36.382812 142.066406 36.339844 Z M 149.503906 25.859375 C 150.367188 22.546875 151.507812 19.964844 155.328125 19.75 C 159.914062 19.492188 164.195312 21.890625 166.730469 25.628906 C 165.675781 28.933594 165.175781 32.414062 165.101562 35.882812 C 165.035156 38.734375 165.066406 41.785156 167.054688 43.859375 C 166.421875 43.949219 165.648438 43.984375 164.628906 43.960938 C 162.433594 43.90625 160.886719 43.96875 159.316406 45.730469 C 157.800781 47.4375 157.179688 49.894531 156.683594 52.09375 C 155.988281 51.910156 155.289062 51.773438 154.605469 51.683594 C 154.832031 51.503906 155.070312 51.347656 155.277344 51.128906 C 157.414062 48.871094 157.632812 45.199219 155.863281 42.675781 C 154.742188 41.082031 152.722656 40.203125 151.804688 38.453125 C 150.90625 36.734375 151.253906 35.105469 149.511719 33.871094 C 148.90625 33.441406 148.273438 33.199219 147.640625 33.0625 C 148.261719 30.664062 148.878906 28.261719 149.503906 25.859375 Z M 175.609375 14.730469 C 177.054688 13.644531 178.628906 12.742188 180.347656 12.144531 C 182.722656 11.320312 184.464844 11.667969 186.394531 13.367188 C 191.078125 17.488281 195.355469 22.820312 196.976562 28.953125 C 198.5625 34.941406 197.15625 41.582031 193.773438 46.710938 C 193.59375 46.453125 193.398438 46.199219 193.175781 45.953125 C 191.84375 44.496094 190.027344 43.527344 188.0625 43.296875 C 186.582031 43.121094 185.214844 43.527344 183.753906 43.117188 C 181.929688 42.605469 181.050781 41.296875 179.605469 40.191406 C 177.953125 38.9375 176.191406 38.554688 174.210938 39.273438 C 173.195312 39.640625 172.304688 40.242188 171.492188 40.949219 C 170.117188 42.152344 169.503906 42.976562 168.480469 43.457031 C 165.511719 41.253906 166.234375 35.859375 166.554688 32.667969 C 166.917969 29.058594 167.816406 25.503906 169.429688 22.246094 C 170.882812 19.308594 172.996094 16.707031 175.609375 14.730469 Z M 148.792969 62.167969 C 147.265625 61.675781 145.960938 61.003906 144.398438 60.800781 C 144.722656 60.269531 144.988281 59.710938 145.148438 59.097656 C 145.519531 57.6875 145.328125 56.214844 144.753906 54.875 C 147.242188 53.792969 150.246094 53.800781 152.746094 52.796875 C 154.074219 52.8125 155.574219 52.863281 156.9375 53.226562 C 157.050781 53.28125 157.171875 53.3125 157.292969 53.304688 C 157.789062 53.460938 158.257812 53.664062 158.683594 53.929688 C 162.941406 56.601562 160.527344 61.40625 156.550781 62.570312 C 154.070312 63.292969 151.214844 62.949219 148.792969 62.167969 Z M 190.714844 76.308594 C 189.863281 77.425781 189.34375 78.703125 187.933594 79.246094 C 187.144531 79.550781 186.234375 79.5625 185.421875 79.828125 C 183.917969 80.324219 182.664062 81.199219 181.542969 82.292969 C 180.542969 83.269531 179.625 84.769531 178.34375 85.328125 C 177.179688 85.828125 175.375 85.375 174.234375 84.96875 C 171.632812 84.046875 170.734375 82.148438 168.972656 80.324219 C 168.339844 79.667969 167.6875 79.390625 166.957031 79.253906 C 166.796875 79.140625 166.597656 79.097656 166.421875 79.15625 C 166.113281 79.128906 165.792969 79.113281 165.449219 79.101562 C 163.601562 79.046875 162.367188 79.144531 160.960938 77.761719 C 159.449219 76.277344 159.425781 74.898438 159.695312 72.925781 C 159.867188 71.695312 159.921875 70.886719 158.964844 69.976562 C 158.476562 69.507812 157.785156 69.382812 157.269531 68.980469 C 155.628906 67.714844 155.308594 65.324219 156.816406 63.789062 C 159.023438 63.203125 161.058594 61.917969 161.921875 59.683594 C 163.40625 55.828125 160.980469 53.597656 157.890625 52.46875 C 158.269531 50.78125 158.703125 48.972656 159.585938 47.492188 C 161.507812 44.265625 164.332031 45.800781 167.257812 45.578125 C 172 45.21875 173.652344 36.941406 179.300781 41.582031 C 180.40625 42.492188 181.335938 43.699219 182.699219 44.265625 C 184.355469 44.953125 186.082031 44.410156 187.804688 44.578125 C 190.605469 44.851562 192.996094 46.867188 193.757812 49.585938 C 194.328125 51.617188 194.1875 53.738281 194.996094 55.71875 C 196.429688 59.238281 200.914062 62.527344 199.890625 66.703125 C 198.816406 71.066406 193.289062 72.925781 190.714844 76.308594 Z M 207.207031 40.6875 C 212.238281 39.691406 220.691406 39.769531 220.660156 46.769531 C 220.644531 51.421875 216.671875 55.816406 213.191406 58.496094 C 209.597656 61.265625 205.359375 62.8125 200.863281 63.277344 C 200.832031 63.28125 200.804688 63.296875 200.777344 63.304688 C 200.429688 62.183594 199.875 61.0625 199.117188 59.949219 C 197.285156 57.25 195.886719 55.140625 195.410156 51.808594 C 195.214844 50.4375 194.988281 49.144531 194.472656 47.957031 C 194.867188 47.394531 195.226562 46.808594 195.570312 46.21875 C 199.050781 43.605469 202.902344 41.539062 207.207031 40.6875 Z M 231.96875 81.644531 C 233.039062 82.734375 233.652344 84.125 233.859375 85.628906 C 233.941406 86.246094 233.960938 86.855469 233.925781 87.476562 C 233.929688 87.820312 233.875 88.152344 233.804688 88.476562 C 233.535156 88.261719 233.242188 87.910156 232.945312 87.78125 C 232.101562 87.410156 231.160156 87.453125 230.332031 87.015625 C 228.433594 86.007812 225.085938 81.769531 226.785156 79.425781 C 228.207031 78.917969 231.191406 80.851562 231.96875 81.644531 Z M 231.394531 108.246094 C 230.441406 110.003906 229.382812 110.425781 227.902344 111.542969 C 227.539062 111.816406 226.957031 112.703125 226.632812 112.859375 C 226.707031 112.824219 226.375 113.324219 226.449219 113.308594 C 226.324219 113.332031 225.613281 111.511719 225.484375 111.140625 C 224.804688 109.183594 224.703125 107.019531 225.335938 105.035156 C 225.917969 103.203125 228.796875 99.238281 231.304688 99.15625 C 233.8125 100.992188 232.597656 106.027344 231.394531 108.246094 Z M 84.75 104.203125 C 85.699219 106.230469 85.746094 108.519531 85.140625 110.660156 C 85.03125 111.046875 84.175781 113.410156 84.003906 113.375 C 84.070312 113.386719 83.851562 112.871094 83.832031 112.859375 C 83.550781 112.726562 83.121094 112.003906 82.828125 111.753906 C 81.53125 110.644531 80.175781 110.160156 79.261719 108.609375 C 77.953125 106.386719 76.527344 101.078125 79.160156 99.15625 C 81.398438 99.246094 84.011719 102.632812 84.75 104.203125 Z M 80.378906 86.863281 C 79.460938 87.402344 78.527344 87.355469 77.59375 87.746094 C 77.195312 87.914062 76.921875 88.269531 76.609375 88.5 C 76.601562 88.394531 76.597656 88.261719 76.601562 88.070312 C 76.617188 87.441406 76.488281 86.808594 76.53125 86.171875 C 76.636719 84.625 77.210938 83.039062 78.261719 81.878906 C 79.117188 80.933594 80.214844 80.28125 81.414062 79.890625 C 81.921875 79.726562 83.121094 79.269531 83.675781 79.433594 C 84.488281 80.613281 83.710938 82.773438 83.121094 83.859375 C 82.484375 85.039062 81.542969 86.179688 80.378906 86.863281 Z M 76.621094 88.648438 C 76.699219 88.726562 76.652344 88.875 76.621094 88.648438 Z M 87.996094 90.996094 C 89.882812 92.25 90.867188 94.570312 91.15625 96.757812 C 90.867188 96.40625 89.773438 96.308594 89.539062 96.285156 C 88.226562 96.148438 86.960938 96.507812 85.742188 95.792969 C 84.40625 95.015625 81.503906 91.515625 83.738281 90.332031 C 84.972656 89.679688 86.917969 90.28125 87.996094 90.996094 Z M 58.535156 71.136719 C 58.054688 70.332031 58.085938 69.191406 57.519531 68.429688 C 57.957031 68.472656 58.460938 68.339844 58.914062 68.363281 C 60.078125 68.433594 61.269531 68.851562 62.152344 69.628906 C 62.871094 70.265625 64.304688 72.371094 64.039062 73.617188 C 62.367188 74.753906 59.304688 72.414062 58.535156 71.136719 Z M 55.167969 86.664062 C 55.234375 88.910156 54.003906 90.988281 52.464844 92.542969 C 52.679688 91.960938 51.710938 90.691406 51.398438 90.28125 C 50.28125 88.800781 49.632812 86.871094 50.195312 85.105469 C 51.179688 84.34375 52.175781 83.597656 53.179688 82.867188 C 54.3125 83.410156 55.128906 85.300781 55.167969 86.664062 Z M 45.128906 97.101562 C 45.058594 98.699219 44.511719 100.171875 43.546875 101.433594 C 43.082031 102.042969 42.007812 103.363281 41.070312 103.792969 C 41.09375 103.496094 41.113281 103.195312 41.042969 102.894531 C 40.789062 101.792969 39.933594 100.953125 39.632812 99.863281 C 39.164062 98.191406 39.589844 94.671875 41.082031 92.785156 C 41.394531 92.496094 41.710938 92.210938 42.027344 91.925781 C 42.332031 91.738281 42.667969 91.617188 43.03125 91.566406 C 44.457031 92.472656 45.179688 95.851562 45.128906 97.101562 Z M 44.3125 82.371094 C 42.96875 81.523438 42.234375 79.625 40.617188 79.328125 C 40.582031 79.320312 40.554688 79.324219 40.523438 79.320312 C 40.886719 79.117188 41.3125 78.921875 41.4375 78.859375 C 42.957031 78.085938 44.773438 77.667969 46.46875 78.015625 C 47.667969 78.261719 50.738281 79.800781 51.496094 81.519531 C 51.441406 81.542969 51.390625 81.542969 51.332031 81.570312 C 50.601562 81.933594 50.035156 82.59375 49.597656 83.375 C 47.804688 83.757812 45.519531 83.136719 44.3125 82.371094 Z M 37.679688 110.667969 C 39.035156 113.535156 38.761719 116.984375 37.734375 119.917969 C 37.707031 119.851562 37.660156 119.761719 37.589844 119.578125 C 37.457031 119.234375 37.195312 118.953125 36.953125 118.679688 C 36.320312 117.953125 35.496094 117.488281 34.730469 116.921875 C 32.4375 115.230469 31.0625 111.613281 31.867188 108.765625 C 32.105469 107.929688 32.445312 107.433594 32.84375 107.171875 C 33 108.050781 33.21875 108.921875 33.566406 109.769531 C 33.867188 110.511719 35.09375 110.1875 34.785156 109.433594 C 34.464844 108.652344 34.261719 107.851562 34.113281 107.042969 C 35.511719 107.46875 37.070312 109.378906 37.679688 110.667969 Z M 55.304688 5.9375 C 55.222656 5.886719 55.132812 5.851562 55.035156 5.820312 C 55.050781 5.824219 55.0625 5.820312 55.082031 5.824219 C 55.152344 5.839844 55.230469 5.898438 55.304688 5.9375 Z M 55.339844 5.953125 C 55.476562 6.019531 55.597656 6.082031 55.71875 6.183594 C 55.6875 6.183594 55.660156 6.191406 55.628906 6.195312 C 55.539062 6.097656 55.445312 6.015625 55.339844 5.953125 Z M 81.699219 26.851562 C 81.742188 26.582031 81.824219 26.542969 81.945312 26.726562 C 81.808594 26.871094 81.722656 27.039062 81.675781 27.226562 C 81.632812 27.136719 81.628906 27.019531 81.699219 26.851562 Z M 226.996094 26.851562 C 227.066406 27.023438 227.0625 27.140625 227.019531 27.230469 C 226.972656 27.039062 226.886719 26.871094 226.746094 26.730469 C 226.867188 26.542969 226.953125 26.582031 226.996094 26.851562 Z M 253.664062 5.816406 C 253.429688 5.890625 253.230469 6.011719 253.066406 6.195312 C 253.03125 6.191406 253 6.179688 252.96875 6.179688 C 253.175781 6.015625 253.414062 5.871094 253.613281 5.824219 C 253.636719 5.820312 253.644531 5.820312 253.664062 5.816406 Z M 286.125 111.207031 C 286.605469 111.847656 287.707031 111.21875 287.214844 110.566406 C 283.441406 105.546875 279.21875 100.6875 274.648438 96.09375 C 274.480469 95.894531 274.335938 95.679688 274.15625 95.484375 C 274.070312 95.394531 273.976562 95.34375 273.882812 95.320312 C 270.097656 91.574219 266.078125 88.023438 261.878906 84.726562 C 262.59375 84.78125 263.289062 84.753906 263.878906 84.640625 C 265.324219 84.359375 266.714844 83.660156 267.839844 82.707031 C 268.742188 81.941406 269.191406 81.117188 270.367188 80.609375 C 270.824219 80.414062 271.078125 80.609375 271.546875 80.351562 C 271.789062 80.21875 271.914062 79.902344 271.839844 79.636719 C 271.492188 78.457031 269.945312 77.855469 268.921875 77.417969 C 267.136719 76.648438 265.164062 76.410156 263.265625 76.894531 C 261.433594 77.359375 258.476562 79.203125 257.710938 81.320312 C 257.605469 81.332031 257.503906 81.347656 257.402344 81.371094 C 254.261719 79.113281 251.035156 76.996094 247.738281 75.0625 C 248.933594 74.957031 250.171875 74.40625 251.042969 73.796875 C 251.875 73.214844 252.636719 72.476562 253.132812 71.585938 C 253.414062 71.074219 253.519531 70.539062 253.660156 69.984375 C 253.820312 69.351562 254.128906 69.117188 254.53125 68.65625 C 254.671875 68.496094 254.78125 68.25 254.695312 68.039062 C 254.347656 67.179688 253.375 67.171875 252.554688 67.113281 C 251.011719 67.007812 249.472656 67.320312 248.164062 68.171875 C 247.042969 68.90625 246.179688 69.992188 245.703125 71.242188 C 245.46875 71.855469 245.121094 72.800781 245.148438 73.585938 C 242.632812 72.191406 240.078125 70.894531 237.5 69.71875 C 229.425781 66.046875 220.867188 63.601562 212.003906 62.914062 C 211.976562 62.914062 211.960938 62.921875 211.9375 62.921875 C 211.636719 62.660156 211.300781 62.425781 210.964844 62.183594 C 221.089844 56.410156 228.910156 47.425781 234.574219 37.144531 C 238.707031 34.171875 242.480469 30.722656 246.671875 27.835938 C 247.835938 28.476562 249.855469 28.253906 250.027344 26.777344 C 250.140625 25.78125 249.554688 25.230469 248.863281 25.074219 C 248.980469 24.472656 248.855469 23.839844 248.339844 23.316406 C 247.691406 22.664062 246.722656 22.796875 246.273438 23.597656 C 245.859375 24.335938 245.992188 25.238281 246.269531 26.035156 C 246.042969 26.132812 245.871094 26.308594 245.851562 26.574219 C 245.847656 26.671875 245.890625 26.746094 245.90625 26.835938 C 242.449219 29.230469 239.261719 31.976562 235.9375 34.542969 C 237.101562 32.238281 238.164062 29.886719 239.125 27.492188 C 239.175781 27.4375 239.222656 27.378906 239.253906 27.300781 C 240.226562 24.996094 241.429688 22.632812 243.171875 20.804688 C 244.894531 18.992188 247.230469 18.050781 249.175781 16.515625 C 251.847656 14.410156 253.765625 11.726562 254.339844 8.34375 C 254.359375 8.214844 254.339844 8.105469 254.304688 8.003906 C 254.574219 7.8125 254.824219 7.585938 255.03125 7.3125 C 255.554688 6.621094 255.789062 5.507812 255.113281 4.832031 C 254.265625 3.992188 252.734375 4.660156 252.007812 5.324219 C 251.925781 5.402344 251.867188 5.503906 251.796875 5.59375 C 250.894531 5.429688 250.199219 6.175781 250.304688 7.0625 C 250.382812 7.699219 250.757812 8.074219 251.242188 8.308594 C 251.320312 8.535156 251.511719 8.71875 251.816406 8.730469 C 252.144531 8.742188 252.476562 8.707031 252.804688 8.644531 C 252.859375 8.640625 252.910156 8.636719 252.957031 8.625 C 251.730469 13.980469 247.300781 15.621094 243.371094 18.871094 C 242.695312 19.429688 242.097656 20.066406 241.550781 20.738281 C 241.910156 19.59375 242.257812 18.449219 242.574219 17.300781 C 243.292969 17.109375 243.949219 16.554688 243.964844 15.761719 C 243.972656 15.25 243.699219 14.796875 243.304688 14.515625 C 243.597656 13.320312 243.867188 12.125 244.113281 10.929688 C 244.316406 10.871094 244.515625 10.769531 244.691406 10.554688 C 244.984375 10.199219 245.078125 9.699219 244.957031 9.257812 C 245.558594 8.816406 245.914062 8.058594 245.773438 7.195312 C 245.714844 6.835938 245.304688 6.699219 244.996094 6.753906 C 244.878906 6.773438 244.773438 6.824219 244.664062 6.863281 C 243.832031 6.128906 242.34375 6.28125 241.984375 7.460938 C 241.960938 7.472656 241.929688 7.476562 241.902344 7.484375 C 241.476562 7.664062 241.0625 7.96875 240.863281 8.398438 C 240.574219 9.019531 240.78125 9.539062 241.1875 9.898438 C 241.1875 10.070312 241.210938 10.242188 241.265625 10.414062 C 241.472656 11.050781 242.328125 10.929688 242.484375 10.433594 C 242.601562 10.449219 242.722656 10.457031 242.847656 10.460938 C 242.867188 10.484375 242.886719 10.507812 242.90625 10.53125 C 242.671875 11.683594 242.414062 12.839844 242.132812 13.992188 C 242.09375 14.003906 242.054688 14.003906 242.011719 14.023438 C 241.144531 14.414062 240.269531 15.054688 240.402344 16.125 C 240.46875 16.675781 240.835938 17.023438 241.289062 17.21875 C 239.457031 23.757812 236.902344 30.257812 233.589844 36.3125 C 233.414062 36.4375 233.335938 36.609375 233.320312 36.785156 C 231.96875 39.222656 230.484375 41.582031 228.878906 43.84375 C 229.359375 42.277344 229.753906 40.683594 229.773438 39.058594 C 229.816406 35.875 227.476562 33.496094 226.828125 30.546875 C 227.539062 30.109375 227.980469 29.171875 227.390625 28.441406 C 227.390625 28.441406 227.386719 28.441406 227.386719 28.441406 C 228.363281 27.851562 228.878906 26.550781 227.777344 25.679688 C 227.183594 25.210938 226.246094 25.246094 225.738281 25.824219 C 225.535156 26.054688 225.449219 26.320312 225.40625 26.597656 C 225.398438 26.601562 225.390625 26.605469 225.386719 26.609375 C 225.308594 26.5625 225.242188 26.507812 225.140625 26.480469 C 224.648438 26.355469 224.058594 26.582031 223.855469 27.066406 C 223.542969 27.816406 224.101562 28.375 224.808594 28.695312 C 224.570312 29.066406 224.464844 29.496094 224.628906 29.980469 C 224.796875 30.488281 225.179688 30.738281 225.613281 30.8125 C 226.003906 32.398438 226.839844 33.777344 227.527344 35.246094 C 226.570312 34.851562 225.617188 34.449219 224.660156 34.050781 C 223.894531 33.726562 223.453125 33.375 223.144531 32.859375 C 223.269531 32.351562 223.25 31.824219 223.058594 31.386719 C 223.105469 31.160156 223.035156 30.933594 222.867188 30.785156 C 223.234375 29.363281 221.472656 28.214844 220.328125 29.285156 C 219.785156 29.796875 219.6875 30.601562 220.09375 31.222656 C 220.214844 31.410156 220.386719 31.558594 220.570312 31.683594 C 220.222656 32.246094 220 32.882812 220.28125 33.539062 C 220.5625 34.199219 221.316406 34.667969 222.027344 34.367188 C 222.160156 34.308594 222.28125 34.222656 222.398438 34.128906 C 222.609375 34.378906 222.859375 34.605469 223.183594 34.777344 C 224.566406 35.503906 226.101562 36.015625 227.542969 36.617188 C 227.753906 36.703125 227.929688 36.660156 228.058594 36.5625 C 228.210938 37.011719 228.339844 37.476562 228.414062 37.96875 C 228.871094 40.953125 227.429688 44.097656 226.558594 46.898438 C 226.554688 46.910156 226.558594 46.921875 226.554688 46.929688 C 223.933594 50.21875 221.019531 53.230469 217.800781 55.894531 C 220.398438 52.921875 222.441406 49.171875 221.828125 45.363281 C 220.996094 40.171875 216.101562 39.007812 211.53125 39.003906 C 206.175781 39.003906 201.179688 40.914062 196.785156 43.820312 C 199.261719 38.183594 199.59375 31.625 197.246094 25.867188 C 195.820312 22.367188 193.695312 19.199219 191.199219 16.371094 C 189.347656 14.273438 186.242188 10.179688 183.085938 10.222656 C 176.128906 10.3125 170.0625 17.386719 167.597656 23.207031 C 167.453125 23.535156 167.359375 23.882812 167.234375 24.214844 C 164.230469 20.335938 159.433594 17.9375 154.441406 18.5625 C 147.902344 19.378906 147.726562 27.675781 146.40625 32.777344 C 146.390625 32.839844 146.398438 32.894531 146.398438 32.949219 C 144.726562 33.015625 143.082031 33.859375 141.726562 34.976562 C 140.789062 30.433594 136.886719 28.203125 132.753906 25.507812 C 131.355469 24.597656 129.492188 22.894531 127.789062 24.101562 C 126.070312 25.320312 125.292969 28.980469 124.773438 30.839844 C 124.367188 32.292969 124.074219 33.765625 123.867188 35.246094 C 122.792969 31.78125 121.015625 28.003906 118.257812 26.296875 C 115.261719 24.445312 110.289062 26.226562 108.261719 28.890625 C 107.667969 29.671875 107.484375 30.335938 107.507812 31.0625 C 104.71875 30.214844 99.804688 31.785156 98.59375 33.277344 C 96.980469 35.265625 97.609375 38.671875 98.199219 40.917969 C 98.914062 43.640625 100.261719 46.074219 101.96875 48.269531 C 101.816406 48.214844 101.671875 48.144531 101.519531 48.089844 C 98.378906 46.992188 91.902344 46.617188 92.101562 51.628906 C 92.15625 53.03125 93.011719 54.230469 93.042969 55.667969 C 93.054688 56.324219 92.988281 56.941406 93 57.558594 C 88.929688 54.46875 85.308594 50.859375 82.125 46.867188 C 81.261719 44.101562 79.773438 40.902344 80.277344 37.96875 C 80.363281 37.480469 80.496094 37.023438 80.652344 36.574219 C 80.78125 36.667969 80.949219 36.699219 81.152344 36.617188 C 82.59375 36.011719 84.128906 35.503906 85.511719 34.777344 C 85.835938 34.605469 86.082031 34.378906 86.292969 34.132812 C 86.410156 34.226562 86.53125 34.3125 86.667969 34.367188 C 87.347656 34.644531 88.074219 34.242188 88.382812 33.613281 C 88.710938 32.945312 88.488281 32.28125 88.128906 31.695312 C 88.28125 31.59375 88.421875 31.46875 88.535156 31.316406 C 89.007812 30.691406 88.945312 29.828125 88.367188 29.285156 C 87.222656 28.214844 85.460938 29.363281 85.828125 30.785156 C 85.65625 30.9375 85.585938 31.164062 85.636719 31.390625 C 85.429688 31.867188 85.421875 32.457031 85.585938 33.003906 C 85.226562 33.601562 84.65625 33.789062 84.035156 34.050781 C 83.09375 34.445312 82.148438 34.839844 81.207031 35.234375 C 81.890625 33.769531 82.707031 32.390625 83.085938 30.8125 C 83.519531 30.738281 83.898438 30.484375 84.070312 29.980469 C 84.230469 29.496094 84.125 29.066406 83.886719 28.699219 C 84.59375 28.375 85.152344 27.816406 84.839844 27.066406 C 84.652344 26.617188 84.109375 26.378906 83.644531 26.460938 C 83.503906 26.488281 83.402344 26.546875 83.304688 26.609375 C 83.304688 26.605469 83.300781 26.605469 83.296875 26.601562 C 83.261719 26.359375 83.183594 26.121094 83.027344 25.910156 C 82.535156 25.257812 81.542969 25.183594 80.917969 25.679688 C 79.820312 26.550781 80.332031 27.851562 81.308594 28.441406 C 81.304688 28.441406 81.304688 28.441406 81.304688 28.441406 C 80.71875 29.167969 81.15625 30.105469 81.863281 30.546875 C 81.21875 33.492188 78.875 35.878906 78.921875 39.058594 C 78.941406 40.660156 79.324219 42.234375 79.796875 43.78125 C 78.199219 41.53125 76.722656 39.1875 75.375 36.769531 C 75.359375 36.625 75.289062 36.488281 75.164062 36.375 C 71.832031 30.320312 69.253906 23.816406 67.40625 17.21875 C 67.859375 17.027344 68.226562 16.675781 68.292969 16.125 C 68.421875 15.054688 67.546875 14.414062 66.683594 14.023438 C 66.644531 14.003906 66.605469 14.003906 66.566406 13.996094 C 66.285156 12.839844 66.027344 11.6875 65.785156 10.535156 C 65.808594 10.507812 65.828125 10.484375 65.851562 10.457031 C 65.972656 10.453125 66.09375 10.445312 66.210938 10.433594 C 66.367188 10.929688 67.222656 11.050781 67.425781 10.414062 C 67.480469 10.242188 67.507812 10.070312 67.507812 9.902344 C 67.898438 9.5625 68.101562 9.070312 67.863281 8.476562 C 67.675781 8.003906 67.246094 7.679688 66.792969 7.484375 C 66.765625 7.476562 66.734375 7.472656 66.707031 7.460938 C 66.351562 6.28125 64.863281 6.128906 64.03125 6.863281 C 63.917969 6.824219 63.816406 6.773438 63.699219 6.753906 C 63.390625 6.699219 62.980469 6.832031 62.921875 7.195312 C 62.78125 8.0625 63.136719 8.820312 63.746094 9.265625 C 63.628906 9.703125 63.710938 10.199219 64.003906 10.554688 C 64.179688 10.769531 64.378906 10.871094 64.582031 10.929688 C 64.828125 12.125 65.097656 13.320312 65.390625 14.515625 C 64.996094 14.796875 64.71875 15.25 64.730469 15.761719 C 64.746094 16.550781 65.394531 17.101562 66.109375 17.296875 C 66.425781 18.433594 66.765625 19.570312 67.121094 20.699219 C 66.578125 20.039062 65.988281 19.417969 65.324219 18.871094 C 61.378906 15.625 56.964844 14.003906 55.738281 8.625 C 55.785156 8.636719 55.835938 8.640625 55.890625 8.644531 C 56.21875 8.707031 56.546875 8.742188 56.878906 8.730469 C 57.183594 8.71875 57.375 8.535156 57.449219 8.308594 C 57.933594 8.074219 58.3125 7.699219 58.390625 7.0625 C 58.496094 6.175781 57.796875 5.429688 56.898438 5.59375 C 56.828125 5.503906 56.769531 5.402344 56.6875 5.324219 C 55.957031 4.660156 54.425781 3.992188 53.582031 4.832031 C 52.902344 5.507812 53.140625 6.621094 53.664062 7.3125 C 53.867188 7.585938 54.121094 7.8125 54.390625 8.003906 C 54.355469 8.105469 54.335938 8.214844 54.355469 8.34375 C 54.925781 11.71875 56.851562 14.417969 59.519531 16.515625 C 61.339844 17.945312 63.546875 18.84375 65.210938 20.46875 C 67.121094 22.335938 68.414062 24.871094 69.441406 27.300781 C 69.46875 27.367188 69.511719 27.417969 69.550781 27.46875 C 70.519531 29.871094 71.585938 32.234375 72.757812 34.546875 C 69.433594 31.976562 66.242188 29.230469 62.789062 26.835938 C 62.800781 26.746094 62.847656 26.671875 62.84375 26.574219 C 62.824219 26.308594 62.652344 26.132812 62.425781 26.035156 C 62.691406 25.273438 62.828125 24.421875 62.472656 23.695312 C 62.054688 22.832031 61.046875 22.617188 60.355469 23.316406 C 59.839844 23.839844 59.714844 24.472656 59.832031 25.074219 C 59.140625 25.230469 58.554688 25.78125 58.667969 26.777344 C 58.835938 28.253906 60.859375 28.476562 62.023438 27.835938 C 66.234375 30.738281 70.023438 34.203125 74.175781 37.1875 C 79.027344 45.921875 85.441406 53.714844 93.519531 59.53125 C 94.277344 61.058594 95.691406 62.21875 97.273438 62.816406 C 97.476562 62.894531 97.6875 62.921875 97.894531 62.980469 C 86.363281 63.96875 75.445312 67.839844 65.332031 73.476562 C 65.324219 72.71875 64.984375 71.824219 64.757812 71.242188 C 64.273438 69.988281 63.417969 68.914062 62.296875 68.171875 C 60.996094 67.316406 59.445312 67.011719 57.90625 67.113281 C 57.085938 67.167969 56.113281 67.183594 55.765625 68.039062 C 55.679688 68.25 55.792969 68.496094 55.929688 68.65625 C 56.265625 69.039062 56.570312 69.261719 56.761719 69.765625 C 56.960938 70.296875 56.976562 70.863281 57.234375 71.386719 C 57.714844 72.371094 58.527344 73.171875 59.417969 73.796875 C 60.265625 74.386719 61.449219 74.917969 62.605469 75.046875 C 59.347656 76.996094 56.179688 79.121094 53.105469 81.386719 C 52.992188 81.355469 52.871094 81.34375 52.753906 81.328125 C 51.992188 79.207031 49.027344 77.359375 47.195312 76.894531 C 45.324219 76.417969 43.382812 76.640625 41.613281 77.386719 C 40.5625 77.828125 38.980469 78.421875 38.621094 79.636719 C 38.546875 79.902344 38.671875 80.21875 38.914062 80.351562 C 39.382812 80.609375 39.636719 80.414062 40.09375 80.609375 C 41.269531 81.117188 41.71875 81.941406 42.621094 82.707031 C 43.746094 83.660156 45.136719 84.359375 46.585938 84.640625 C 47.226562 84.765625 48.003906 84.785156 48.789062 84.707031 C 46.363281 86.65625 44 88.671875 41.710938 90.761719 C 41.078125 91.128906 40.53125 91.664062 40.070312 92.285156 C 39 93.289062 37.949219 94.304688 36.914062 95.332031 C 36.71875 95.261719 36.492188 95.28125 36.304688 95.484375 C 35.765625 96.070312 35.300781 96.703125 34.871094 97.359375 C 32.464844 99.824219 30.152344 102.339844 27.9375 104.871094 C 26.324219 106.722656 24.722656 108.601562 23.246094 110.566406 C 22.757812 111.21875 23.855469 111.851562 24.335938 111.207031 C 27.101562 107.527344 30.121094 103.945312 33.332031 100.492188 C 32.769531 102.15625 32.535156 103.921875 32.648438 105.683594 C 32.433594 105.753906 32.222656 105.820312 32.015625 105.957031 C 29.546875 107.578125 30.394531 112.296875 31.265625 114.53125 C 31.914062 116.191406 32.960938 117.179688 34.367188 118.199219 C 35.46875 119 35.945312 119.953125 36.804688 120.863281 C 37.164062 121.25 37.164062 121.457031 37.71875 121.578125 C 38.019531 121.644531 38.257812 121.527344 38.433594 121.285156 C 38.53125 121.152344 38.628906 121.019531 38.726562 120.886719 C 38.796875 120.785156 38.828125 120.691406 38.835938 120.597656 C 40.21875 116.910156 40.402344 112.34375 38.148438 108.949219 C 37.296875 107.667969 35.644531 105.878906 33.921875 105.578125 C 33.730469 102.464844 34.738281 99.367188 36.769531 96.914062 C 37.402344 96.28125 38.046875 95.65625 38.695312 95.035156 C 38.660156 95.144531 38.613281 95.261719 38.585938 95.367188 C 38.214844 96.703125 38.054688 98.101562 38.269531 99.476562 C 38.546875 101.273438 39.570312 102.742188 39.800781 104.574219 C 39.84375 104.945312 40.054688 105.164062 40.429688 105.207031 C 41.582031 105.335938 42.753906 104.117188 43.507812 103.398438 C 44.902344 102.0625 45.910156 100.351562 46.261719 98.441406 C 46.660156 96.269531 45.949219 91.765625 43.671875 90.46875 C 43.671875 90.46875 43.671875 90.464844 43.667969 90.464844 C 45.324219 89.019531 47.007812 87.605469 48.726562 86.242188 C 48.628906 87.238281 48.714844 88.21875 49.023438 88.988281 C 49.292969 89.667969 49.738281 90.195312 50.175781 90.765625 C 50.773438 91.546875 50.890625 92.441406 51.308594 93.226562 C 51.703125 93.96875 51.992188 94.273438 52.789062 93.898438 C 52.800781 93.894531 52.816406 93.890625 52.828125 93.882812 C 52.859375 93.867188 52.882812 93.867188 52.914062 93.851562 C 52.953125 93.832031 52.976562 93.800781 53.007812 93.773438 C 53.019531 93.765625 53.03125 93.761719 53.042969 93.753906 C 53.054688 93.742188 53.066406 93.726562 53.078125 93.71875 C 53.09375 93.699219 53.117188 93.679688 53.128906 93.660156 C 55.414062 91.484375 57.117188 88.167969 56.140625 84.972656 C 55.835938 83.96875 55.1875 82.800781 54.316406 82.050781 C 60.007812 78.003906 65.96875 74.433594 72.085938 71.519531 C 75.910156 69.695312 79.867188 68.160156 83.914062 66.949219 C 83.914062 66.972656 83.90625 66.992188 83.914062 67.019531 C 84.695312 70.894531 84.867188 74.71875 84.539062 78.453125 C 84.511719 78.429688 84.484375 78.410156 84.453125 78.394531 C 84.308594 78.257812 84.152344 78.21875 84 78.253906 C 81.578125 77.597656 78.125 79.890625 76.855469 81.621094 C 75.617188 83.316406 75.144531 85.402344 75.273438 87.476562 C 75.332031 88.433594 75.308594 89.652344 76.316406 90.066406 C 76.527344 90.15625 76.773438 90.039062 76.929688 89.90625 C 77.453125 89.453125 77.777344 89.046875 78.457031 88.800781 C 79.132812 88.558594 79.847656 88.542969 80.511719 88.226562 C 81.5625 87.726562 82.4375 86.925781 83.167969 86.023438 C 81.445312 92.230469 78.359375 98.105469 74.332031 103.449219 C 73.84375 104.101562 74.941406 104.730469 75.425781 104.089844 C 75.800781 103.589844 76.160156 103.082031 76.519531 102.570312 C 76.46875 103.800781 76.621094 105.039062 76.875 106.035156 C 77.300781 107.707031 78.035156 109.398438 79.210938 110.683594 C 79.820312 111.351562 80.496094 111.671875 81.171875 112.214844 C 82.046875 112.921875 82.632812 113.695312 83.300781 114.617188 C 83.449219 114.828125 83.742188 115.019531 84.015625 114.910156 C 85.191406 114.429688 85.613281 113.078125 86.03125 111.953125 C 86.960938 109.449219 87.121094 106.753906 86.167969 104.230469 C 85.316406 101.980469 82.332031 98.242188 79.5 97.925781 C 80.40625 96.34375 81.230469 94.722656 81.964844 93.078125 C 82.53125 94.59375 83.816406 96.035156 84.894531 96.742188 C 86.71875 97.945312 88.722656 97.046875 90.597656 97.878906 C 91.410156 98.242188 92.171875 98.5 92.414062 97.460938 C 92.460938 97.375 92.488281 97.273438 92.476562 97.148438 C 92.1875 94.175781 90.8125 90.929688 87.988281 89.546875 C 86.789062 88.960938 84.960938 88.558594 83.554688 89.03125 C 85.976562 81.964844 86.695312 74.417969 85.132812 66.683594 C 85.125 66.644531 85.105469 66.621094 85.09375 66.589844 C 88.847656 65.535156 92.683594 64.789062 96.578125 64.375 C 94.378906 66.839844 92.816406 70.53125 95.191406 72.765625 C 96.4375 73.933594 98.167969 73.78125 99.691406 73.351562 C 95.804688 77.621094 92.335938 84.78125 98.621094 88.527344 C 101.46875 90.222656 105.207031 89.828125 107.910156 88.023438 C 110.386719 86.363281 111.886719 83.710938 113.597656 81.292969 C 113.007812 82.613281 112.425781 83.933594 111.839844 85.253906 C 111.011719 87.117188 109.589844 89.398438 109.859375 91.519531 C 110.277344 94.808594 113.933594 95.820312 116.71875 95.351562 C 119.332031 94.910156 121.570312 93.28125 124.167969 92.796875 C 126.824219 92.304688 129.691406 93.484375 132.253906 92.402344 C 135.285156 91.121094 136.429688 87.5 136.222656 84.445312 C 138.070312 84.800781 140.023438 84.378906 141.316406 82.871094 C 141.191406 83.136719 141.054688 83.402344 140.929688 83.667969 C 140.28125 85.054688 139.703125 86.289062 140.414062 87.796875 C 141.683594 90.488281 145.652344 90.757812 148.183594 90.742188 C 150.101562 90.734375 152.1875 90.636719 154.222656 90.300781 C 154.183594 90.382812 154.15625 90.46875 154.15625 90.578125 C 154.023438 97.078125 159.78125 106.5625 167.382812 103.136719 C 169.304688 102.269531 170.632812 100.632812 172.125 99.210938 C 173.648438 97.75 175.332031 96.480469 176.84375 95.011719 C 177.257812 96.035156 178.378906 96.765625 179.25 97.550781 C 180.582031 98.757812 182.105469 99.667969 183.816406 100.230469 C 187.015625 101.28125 192.402344 101.371094 194.972656 98.675781 C 196.4375 97.136719 195.601562 94.835938 196.734375 93.058594 C 196.824219 92.917969 196.910156 92.792969 197 92.65625 C 197.101562 92.691406 197.214844 92.703125 197.347656 92.664062 C 199.210938 92.121094 200.882812 92.925781 202.71875 93.058594 C 204.042969 93.15625 205.441406 93.015625 206.699219 92.574219 C 208.488281 91.945312 209.933594 90.683594 209.882812 88.695312 C 209.882812 88.644531 209.863281 88.605469 209.851562 88.5625 C 210.175781 85.867188 210.101562 83.273438 209.640625 80.585938 C 212.972656 79.597656 216.390625 77.53125 216.34375 74.027344 C 216.34375 74.023438 216.347656 74.019531 216.347656 74.011719 C 216.347656 73.988281 216.34375 73.964844 216.347656 73.9375 C 216.34375 73.863281 216.351562 73.796875 216.347656 73.71875 C 216.347656 73.707031 216.339844 73.699219 216.335938 73.683594 C 216.332031 70.152344 215.414062 66.882812 213.300781 64.332031 C 217.40625 64.726562 221.429688 65.5 225.367188 66.589844 C 225.355469 66.621094 225.335938 66.644531 225.328125 66.683594 C 223.089844 77.769531 225.527344 88.460938 230.964844 97.925781 C 228.128906 98.242188 225.144531 101.984375 224.292969 104.230469 C 223.402344 106.582031 223.472656 109.109375 224.265625 111.476562 C 224.683594 112.71875 225.132812 114.375 226.449219 114.910156 C 226.722656 115.019531 227.011719 114.828125 227.160156 114.617188 C 227.828125 113.695312 228.414062 112.921875 229.289062 112.214844 C 229.964844 111.671875 230.640625 111.351562 231.253906 110.683594 C 232.425781 109.398438 233.160156 107.707031 233.585938 106.035156 C 233.839844 105.039062 233.996094 103.800781 233.941406 102.570312 C 234.300781 103.082031 234.660156 103.589844 235.035156 104.089844 C 235.519531 104.730469 236.617188 104.101562 236.128906 103.449219 C 232.101562 98.105469 229.019531 92.234375 227.296875 86.027344 C 227.964844 86.855469 228.757812 87.597656 229.691406 88.105469 C 230.339844 88.457031 231.015625 88.578125 231.722656 88.75 C 232.5625 88.957031 232.910156 89.367188 233.53125 89.90625 C 233.6875 90.039062 233.933594 90.15625 234.148438 90.066406 C 235.152344 89.648438 235.132812 88.433594 235.1875 87.476562 C 235.3125 85.398438 234.847656 83.320312 233.605469 81.621094 C 232.34375 79.890625 228.882812 77.597656 226.464844 78.253906 C 226.308594 78.21875 226.152344 78.257812 226.011719 78.394531 C 225.976562 78.410156 225.949219 78.429688 225.921875 78.453125 C 225.59375 74.71875 225.765625 70.894531 226.550781 67.019531 C 226.558594 66.976562 226.546875 66.941406 226.550781 66.902344 C 237.132812 70.011719 247.058594 75.402344 256.144531 82.046875 C 255.335938 82.742188 254.722656 83.796875 254.40625 84.722656 C 253.292969 87.996094 254.960938 91.402344 257.332031 93.660156 C 257.34375 93.679688 257.367188 93.699219 257.386719 93.71875 C 257.398438 93.726562 257.40625 93.742188 257.421875 93.753906 C 257.429688 93.761719 257.441406 93.765625 257.453125 93.773438 C 257.484375 93.800781 257.507812 93.832031 257.546875 93.851562 C 257.582031 93.871094 257.605469 93.871094 257.640625 93.890625 C 257.648438 93.890625 257.65625 93.894531 257.664062 93.898438 C 258.351562 94.226562 258.726562 94.074219 259.105469 93.386719 C 259.53125 92.613281 259.523438 91.75 260.121094 90.96875 C 260.589844 90.351562 261.109375 89.792969 261.40625 89.066406 C 261.71875 88.308594 261.816406 87.355469 261.738281 86.378906 C 263.410156 87.742188 265.054688 89.132812 266.65625 90.566406 C 264.488281 91.957031 263.808594 96.3125 264.199219 98.441406 C 264.527344 100.226562 265.429688 101.835938 266.6875 103.128906 C 267.464844 103.921875 268.785156 105.347656 270.03125 105.207031 C 270.402344 105.164062 270.613281 104.949219 270.660156 104.574219 C 270.878906 102.847656 271.785156 101.503906 272.140625 99.847656 C 272.453125 98.410156 272.28125 96.882812 271.902344 95.472656 C 272.8125 96.367188 273.722656 97.261719 274.609375 98.167969 C 276.023438 100.386719 276.699219 102.980469 276.535156 105.585938 C 274.90625 105.878906 273.335938 107.5 272.496094 108.691406 C 270.082031 112.132812 270.195312 116.789062 271.625 120.597656 C 271.636719 120.691406 271.664062 120.785156 271.734375 120.886719 C 271.832031 121.019531 271.929688 121.152344 272.027344 121.285156 C 272.207031 121.527344 272.445312 121.640625 272.742188 121.578125 C 273.195312 121.480469 273.246094 121.355469 273.535156 121.042969 C 274.367188 120.148438 274.730469 119.179688 275.824219 118.386719 C 277.300781 117.3125 278.46875 116.359375 279.164062 114.605469 C 280.066406 112.347656 280.929688 107.613281 278.445312 105.957031 C 278.238281 105.816406 278.027344 105.746094 277.8125 105.675781 C 277.914062 104.074219 277.714844 102.476562 277.253906 100.945312 C 278.746094 102.542969 280.214844 104.148438 281.628906 105.765625 C 283.171875 107.535156 284.710938 109.328125 286.125 111.207031 Z M 11.382812 114.085938 C 11.242188 114.320312 10.808594 114.867188 10.664062 114.628906 C 10.472656 114.304688 11.1875 114.082031 11.382812 114.085938 Z M 12.652344 114.328125 C 12.78125 113.84375 12.371094 113.535156 11.984375 113.546875 C 12.023438 113.207031 11.828125 112.832031 11.386719 112.816406 C 10.695312 112.796875 10.054688 113.117188 9.675781 113.707031 C 9.371094 114.1875 9.15625 115.09375 9.613281 115.558594 C 10.621094 116.585938 12.363281 115.421875 12.652344 114.328125 Z M 1.277344 140.226562 C 1.105469 139.636719 1.6875 139.347656 2.253906 139.207031 C 2.246094 139.234375 2.230469 139.253906 2.222656 139.289062 C 2.160156 139.621094 1.59375 141.308594 1.277344 140.226562 Z M 2.960938 137.828125 C 2.046875 137.894531 1.082031 138.105469 0.460938 138.835938 C -0.0703125 139.457031 -0.152344 140.375 0.269531 141.085938 C 0.664062 141.746094 1.429688 142.027344 2.144531 141.730469 C 2.972656 141.390625 3.289062 140.433594 3.441406 139.625 C 3.492188 139.363281 3.386719 139.15625 3.226562 139.019531 C 3.757812 138.734375 3.671875 137.773438 2.960938 137.828125 Z M 12.011719 126.476562 C 11.714844 126.304688 11.101562 126.1875 10.949219 126.644531 C 10.867188 126.882812 11.183594 127.445312 11.460938 127.078125 C 11.945312 126.433594 13.042969 127.066406 12.550781 127.714844 C 11.710938 128.828125 9.886719 128.570312 9.671875 127.074219 C 9.429688 125.359375 11.34375 124.632812 12.648438 125.382812 C 13.355469 125.789062 12.71875 126.882812 12.011719 126.476562 Z M 20.847656 113.902344 C 20.863281 113.898438 20.882812 113.894531 20.898438 113.890625 C 20.90625 113.894531 20.90625 113.902344 20.910156 113.910156 C 20.890625 113.90625 20.867188 113.90625 20.847656 113.902344 Z M 21.105469 112.1875 C 19.882812 112.539062 19.492188 114.222656 20.757812 114.839844 C 21.9375 115.417969 22.523438 113.882812 21.835938 113.0625 C 22.007812 112.636719 21.683594 112.023438 21.105469 112.1875 Z M 17.96875 123.152344 C 17.035156 122.257812 18.363281 120.988281 19.292969 121.730469 C 19.316406 121.75 19.34375 121.757812 19.371094 121.769531 C 19.378906 121.789062 19.378906 121.808594 19.390625 121.828125 C 19.960938 122.75 18.882812 124.03125 17.96875 123.152344 Z M 20.183594 121.167969 C 20.15625 121.105469 20.109375 121.039062 20.039062 120.984375 C 18.203125 119.511719 15.425781 121.738281 17.066406 123.722656 C 18.722656 125.71875 21.589844 123.386719 20.300781 121.296875 C 20.269531 121.242188 20.226562 121.207031 20.183594 121.167969 Z M 26.265625 128.609375 C 26.636719 129.394531 26.417969 130.257812 25.691406 130.765625 C 24.984375 131.261719 23.304688 131.328125 22.664062 130.664062 C 22.09375 130.074219 22.273438 128.953125 22.644531 128.316406 C 23.082031 127.5625 23.84375 127.101562 24.710938 127.105469 C 25.527344 127.105469 25.527344 128.371094 24.710938 128.367188 C 24.179688 128.367188 23.574219 128.839844 23.574219 129.421875 C 23.574219 130.214844 25.476562 129.890625 25.171875 129.25 C 24.828125 128.515625 25.917969 127.875 26.265625 128.609375 Z M 38.222656 125.640625 C 38.203125 126.339844 38.183594 127.035156 38.164062 127.734375 C 38.15625 128.007812 37.976562 128.277344 37.699219 128.34375 C 36.273438 128.6875 34.484375 127.976562 34.277344 126.367188 C 34.085938 124.890625 35.574219 123.554688 37.007812 124.015625 C 37.78125 124.261719 37.449219 125.480469 36.671875 125.230469 C 35.914062 124.988281 35.296875 125.855469 35.640625 126.53125 C 35.875 126.988281 36.414062 127.171875 36.914062 127.171875 C 36.929688 126.664062 36.945312 126.152344 36.957031 125.640625 C 36.980469 124.828125 38.246094 124.828125 38.222656 125.640625 Z M 67.714844 2.625 C 66.933594 1.214844 68.515625 -0.355469 69.941406 0.0664062 C 70.71875 0.296875 70.386719 1.515625 69.605469 1.285156 C 69.144531 1.148438 68.472656 1.75 68.953125 2.132812 C 69.265625 2.378906 69.707031 2.191406 69.867188 1.882812 C 70.238281 1.15625 71.328125 1.796875 70.960938 2.519531 C 70.34375 3.726562 68.398438 3.855469 67.714844 2.625 Z M 81.460938 9.046875 C 81.511719 9.230469 81.636719 9.390625 81.863281 9.460938 C 83 9.824219 82.148438 12.058594 80.898438 10.828125 C 80.109375 10.050781 80.675781 9.28125 81.460938 9.046875 Z M 80.496094 12.105469 C 81.621094 12.796875 83.101562 12.378906 83.527344 11.089844 C 83.757812 10.402344 83.632812 9.683594 83.269531 9.113281 C 83.601562 8.871094 83.722656 8.316406 83.261719 8.046875 C 82.109375 7.382812 80.554688 7.628906 79.726562 8.703125 C 78.855469 9.835938 79.328125 11.390625 80.496094 12.105469 Z M 76.746094 20.332031 C 76.753906 20.347656 76.765625 20.351562 76.773438 20.363281 C 76.816406 20.953125 76.015625 21.515625 75.65625 20.6875 C 75.328125 19.933594 76.433594 19.738281 76.746094 20.332031 Z M 77.542969 19.125 C 77.402344 18.949219 77.234375 18.898438 77.074219 18.917969 C 75.632812 18.164062 73.441406 19.730469 74.679688 21.527344 C 76.210938 23.746094 79.152344 21.117188 77.542969 19.125 Z M 237.734375 2.519531 C 237.367188 1.796875 238.457031 1.15625 238.828125 1.882812 C 238.980469 2.183594 239.4375 2.386719 239.742188 2.132812 C 240.222656 1.730469 239.554688 1.148438 239.089844 1.285156 C 238.308594 1.519531 237.976562 0.296875 238.753906 0.0664062 C 240.179688 -0.355469 241.761719 1.214844 240.980469 2.625 C 240.296875 3.855469 238.351562 3.726562 237.734375 2.519531 Z M 227.796875 10.828125 C 226.542969 12.0625 225.695312 9.820312 226.832031 9.460938 C 227.058594 9.390625 227.179688 9.230469 227.234375 9.050781 C 228.015625 9.285156 228.585938 10.050781 227.796875 10.828125 Z M 225.164062 11.089844 C 225.597656 12.386719 227.070312 12.78125 228.199219 12.105469 C 229.378906 11.402344 229.835938 9.824219 228.96875 8.703125 C 228.136719 7.628906 226.585938 7.382812 225.433594 8.046875 C 224.972656 8.316406 225.09375 8.871094 225.425781 9.113281 C 225.0625 9.683594 224.9375 10.402344 225.164062 11.089844 Z M 233.039062 20.6875 C 232.691406 21.488281 231.875 20.953125 231.917969 20.367188 C 231.925781 20.355469 231.9375 20.347656 231.945312 20.332031 C 232.253906 19.753906 233.375 19.914062 233.039062 20.6875 Z M 234.011719 21.527344 C 235.253906 19.730469 233.0625 18.164062 231.621094 18.917969 C 231.460938 18.898438 231.292969 18.949219 231.152344 19.125 C 229.542969 21.117188 232.480469 23.746094 234.011719 21.527344" fill="#242b50"/></g></svg>