<?xml version="1.0" encoding="UTF-8"?><svg xmlns="http://www.w3.org/2000/svg" xmlns:xlink="http://www.w3.org/1999/xlink" fill="#000000" height="487" preserveAspectRatio="xMidYMid meet" version="1" viewBox="0.0 0.0 366.0 487.0" width="366" zoomAndPan="magnify"><g id="change1_1"><path d="M183,0C82.09,0,0,82.09,0,183v121c0,100.91,82.09,183,183,183c100.91,0,183-82.09,183-183V183 C366,82.09,283.91,0,183,0z M363,304c0,99.25-80.75,180-180,180C83.75,484,3,403.25,3,304V183C3,83.75,83.75,3,183,3 c99.25,0,180,80.75,180,180V304z M86.46,298.25h54.04c0.83,0,1.5,0.67,1.5,1.5s-0.67,1.5-1.5,1.5H86.46c-0.83,0-1.5-0.67-1.5-1.5 S85.63,298.25,86.46,298.25z M71,232.28v-33.41c0-0.83,0.67-1.5,1.5-1.5s1.5,0.67,1.5,1.5v33.41c0,0.83-0.67,1.5-1.5,1.5 S71,233.11,71,232.28z M71,182.38v-21.57c0-0.83,0.67-1.5,1.5-1.5s1.5,0.67,1.5,1.5v21.57c0,0.83-0.67,1.5-1.5,1.5 S71,183.21,71,182.38z M83,160.81V148.5c0-0.83,0.67-1.5,1.5-1.5s1.5,0.67,1.5,1.5v12.31c0,0.83-0.67,1.5-1.5,1.5 S83,161.64,83,160.81z M83,215.58v-6.98c0-0.83,0.67-1.5,1.5-1.5s1.5,0.67,1.5,1.5v6.98c0,0.83-0.67,1.5-1.5,1.5 S83,216.41,83,215.58z M56.5,198.87v-10.15c0-0.83,0.67-1.5,1.5-1.5s1.5,0.67,1.5,1.5v10.15c0,0.83-0.67,1.5-1.5,1.5 S56.5,199.7,56.5,198.87z M35,262.5c0,0.83-0.67,1.5-1.5,1.5s-1.5-0.67-1.5-1.5v-8c0-0.83,0.67-1.5,1.5-1.5s1.5,0.67,1.5,1.5V262.5z M125,235.67V224.5c0-0.83,0.67-1.5,1.5-1.5s1.5,0.67,1.5,1.5v11.17c0,0.83-0.67,1.5-1.5,1.5S125,236.5,125,235.67z M120,283.03 V270.5c0-0.83,0.67-1.5,1.5-1.5s1.5,0.67,1.5,1.5v12.53c0,0.83-0.67,1.5-1.5,1.5S120,283.86,120,283.03z M235.43,243.73l-1.27,8.12 c-0.12,0.74-0.75,1.27-1.48,1.27c-0.08,0-0.16-0.01-0.23-0.02c-0.82-0.13-1.38-0.9-1.25-1.71l1.27-8.12 c0.13-0.82,0.9-1.38,1.71-1.25C235,242.15,235.56,242.91,235.43,243.73z M220.19,272.46v8.46c0,0.83-0.67,1.5-1.5,1.5 s-1.5-0.67-1.5-1.5v-8.46c0-0.83,0.67-1.5,1.5-1.5S220.19,271.63,220.19,272.46z M333.14,235.67v30.83c0,0.83-0.67,1.5-1.5,1.5 s-1.5-0.67-1.5-1.5v-30.83c0-0.83,0.67-1.5,1.5-1.5S333.14,234.84,333.14,235.67z M312.39,247.26c0.17,0.81-0.35,1.6-1.16,1.77 c-0.1,0.02-0.21,0.03-0.31,0.03c-0.7,0-1.32-0.49-1.47-1.2l-1.42-6.82c-0.17-0.81,0.35-1.61,1.16-1.77c0.81-0.17,1.6,0.35,1.77,1.16 L312.39,247.26z M257.02,171.6v22.2c0,0.83-0.67,1.5-1.5,1.5s-1.5-0.67-1.5-1.5v-22.2c0-0.83,0.67-1.5,1.5-1.5 S257.02,170.77,257.02,171.6z M257.02,211.98v6.34c0,0.83-0.67,1.5-1.5,1.5s-1.5-0.67-1.5-1.5v-6.34c0-0.83,0.67-1.5,1.5-1.5 S257.02,211.15,257.02,211.98z M291,184.5v27.48c0,0.83-0.67,1.5-1.5,1.5s-1.5-0.67-1.5-1.5V184.5c0-0.83,0.67-1.5,1.5-1.5 S291,183.67,291,184.5z M291,220.86v6.34c0,0.83-0.67,1.5-1.5,1.5s-1.5-0.67-1.5-1.5v-6.34c0-0.83,0.67-1.5,1.5-1.5 S291,220.04,291,220.86z M276.47,216.5v10.71c0,0.83-0.67,1.5-1.5,1.5s-1.5-0.67-1.5-1.5V216.5c0-0.83,0.67-1.5,1.5-1.5 S276.47,215.67,276.47,216.5z M276.47,243v21c0,0.83-0.67,1.5-1.5,1.5s-1.5-0.67-1.5-1.5v-21c0-0.83,0.67-1.5,1.5-1.5 S276.47,242.17,276.47,243z M222.79,309.2c-0.36-0.75-0.05-1.64,0.69-2.01c2.46-1.2,5.03-2.39,7.64-3.55 c0.76-0.33,1.64,0.01,1.98,0.76c0.33,0.76-0.01,1.64-0.76,1.98c-2.58,1.14-5.12,2.32-7.54,3.5c-0.21,0.1-0.44,0.15-0.66,0.15 C223.58,310.04,223.05,309.73,222.79,309.2z M215.11,314.96c-3.5,1.98-6.8,4.02-9.8,6.06c-0.26,0.18-0.55,0.26-0.84,0.26 c-0.48,0-0.95-0.23-1.24-0.66c-0.47-0.69-0.29-1.62,0.4-2.08c3.07-2.09,6.44-4.17,10.01-6.19c0.72-0.41,1.64-0.15,2.04,0.57 C216.09,313.64,215.83,314.56,215.11,314.96z M187.77,336.47c-0.3,0.36-0.73,0.54-1.16,0.54c-0.34,0-0.67-0.11-0.95-0.34 c-0.64-0.53-0.73-1.47-0.2-2.11c2.41-2.92,5.26-5.82,8.48-8.61c0.62-0.54,1.57-0.48,2.12,0.15c0.54,0.62,0.48,1.57-0.15,2.12 C192.81,330.9,190.07,333.68,187.77,336.47z M176.29,360.77c-0.04,0-0.08,0-0.12,0c-0.83-0.07-1.44-0.79-1.38-1.61 c0.37-4.65,1.6-9.24,3.66-13.65c0.35-0.75,1.24-1.08,1.99-0.73c0.75,0.35,1.08,1.24,0.73,1.99c-1.9,4.09-3.04,8.34-3.38,12.62 C177.72,360.17,177.06,360.77,176.29,360.77z M184.3,385.01c0.41,0.72,0.15,1.64-0.57,2.04c-0.23,0.13-0.49,0.19-0.73,0.19 c-0.52,0-1.03-0.28-1.31-0.76c-1.98-3.53-3.56-7.06-4.7-10.5c-0.26-0.79,0.17-1.63,0.95-1.89c0.79-0.26,1.63,0.17,1.89,0.95 C180.91,378.3,182.41,381.66,184.3,385.01z M200.66,405.87c0.58,0.59,0.58,1.54,0,2.12c-0.29,0.29-0.68,0.44-1.06,0.44 c-0.38,0-0.77-0.15-1.06-0.44c-3.18-3.18-6.08-6.4-8.64-9.55c-0.52-0.64-0.42-1.59,0.22-2.11s1.59-0.42,2.11,0.22 C194.72,399.62,197.56,402.76,200.66,405.87z M223.78,427.17c-0.29,0.4-0.75,0.62-1.21,0.62c-0.31,0-0.61-0.09-0.88-0.29 c-3.96-2.88-7.74-5.81-11.23-8.7c-0.64-0.53-0.73-1.47-0.2-2.11c0.53-0.64,1.47-0.73,2.11-0.2c3.45,2.86,7.17,5.74,11.08,8.59 C224.12,425.56,224.27,426.5,223.78,427.17z M248.41,442.95c-0.28,0.48-0.78,0.75-1.3,0.75c-0.26,0-0.51-0.06-0.75-0.2 c-4.3-2.49-8.59-5.12-12.74-7.81c-0.7-0.45-0.89-1.38-0.44-2.07c0.45-0.7,1.38-0.89,2.07-0.44c4.11,2.66,8.36,5.26,12.62,7.73 C248.58,441.31,248.83,442.23,248.41,442.95z M128.1,448.96c0-0.83,0.67-1.5,1.5-1.5h11.9c0.83,0,1.5,0.67,1.5,1.5 s-0.67,1.5-1.5,1.5h-11.9C128.77,450.46,128.1,449.79,128.1,448.96z M36.66,323H25.5c-0.83,0-1.5-0.67-1.5-1.5s0.67-1.5,1.5-1.5 h11.16c0.83,0,1.5,0.67,1.5,1.5S37.49,323,36.66,323z M103.88,346.13c0,0.83-0.67,1.5-1.5,1.5H88.62c-0.83,0-1.5-0.67-1.5-1.5 s0.67-1.5,1.5-1.5h13.76C103.2,344.63,103.88,345.3,103.88,346.13z M77.64,345.73c0.26,0.18,0.56,0.27,0.86,0.27 c0.47,0,0.94-0.22,1.23-0.64c0.48-0.68,0.31-1.61-0.36-2.09l-5.6-3.95c0.22-0.26,0.35-0.59,0.35-0.96v-16.41l5.63-2.5 c0.76-0.34,1.1-1.22,0.76-1.98c-0.34-0.76-1.22-1.1-1.98-0.76l-4.42,1.96v-13.24l5.61-2.37c0.76-0.32,1.12-1.2,0.8-1.97 c-0.32-0.76-1.2-1.12-1.97-0.8l-4.44,1.88v-12.61l5.2-0.66c4.9-0.58,8.91-2.5,11.93-5.73c0.79-0.84,1.45-1.79,2-2.8l6.44,1.4 c0.11,0.02,0.21,0.03,0.32,0.03c0.69,0,1.31-0.48,1.46-1.18c0.18-0.81-0.34-1.61-1.15-1.79l-5.92-1.29 c0.38-1.33,0.58-2.73,0.58-4.17v-6.9l4.83-2.43c0.74-0.37,1.04-1.27,0.67-2.01c-0.37-0.74-1.27-1.04-2.01-0.67l-3.48,1.75v-2.81 c0-2.21-1.24-5.37-4.55-6.11v-3.26c0-0.83-0.67-1.5-1.5-1.5s-1.5,0.67-1.5,1.5v3.26c-3.33,0.74-4.58,3.9-4.58,6.11v4.43l-1.75-1.22 c-0.68-0.47-1.61-0.31-2.09,0.37c-0.48,0.68-0.31,1.61,0.37,2.09l3.47,2.42v0.83c0,1.38-0.45,2.48-1.37,3.37 c-1.94,1.88-5.41,2.38-7.37,2.51v-18.91c0-0.12-0.01-0.78-0.2-1.67l4.05-3.74c0.61-0.56,0.64-1.51,0.08-2.12 c-0.56-0.61-1.51-0.65-2.12-0.08l-3.19,2.96c-1.06-1.67-3.03-3.36-6.63-3.36c-0.5,0-0.96,0.06-1.4,0.15l-1.11-2.88 c-0.3-0.77-1.17-1.16-1.94-0.86c-0.77,0.3-1.16,1.17-0.86,1.94l1.2,3.13c-2,1.76-2.66,4.69-2.68,6.55v7.49l-2.71-2.15 c-0.65-0.52-1.59-0.41-2.11,0.24c-0.51,0.65-0.41,1.59,0.24,2.11l4.57,3.62v29.57c-2.03-0.07-5.66-0.57-6.3-3.23l0-11.97 c0.01-0.21,0.04-1.34-0.31-2.68l1.88-2.56c0.49-0.67,0.35-1.61-0.32-2.1s-1.6-0.35-2.1,0.32l-1,1.35c-0.05-0.06-0.11-0.13-0.16-0.19 c-1.11-1.16-2.66-1.78-4.46-1.78c-1.96,0-3.54,0.61-4.69,1.82c-0.07,0.08-0.14,0.16-0.2,0.23l-3.22-2.96 c-0.61-0.56-1.56-0.52-2.12,0.09c-0.56,0.61-0.52,1.56,0.09,2.12l3.88,3.56c-0.22,0.98-0.2,1.74-0.2,1.85v10.67 c0,0.63,0.04,1.24,0.09,1.86l-3.69-0.94c-0.8-0.21-1.62,0.28-1.82,1.08c-0.2,0.8,0.28,1.62,1.08,1.82l4.99,1.27 c1.06,4.08,3.4,7.73,6.71,10.43l-4.1,2.52c-0.71,0.43-0.93,1.36-0.49,2.06c0.28,0.46,0.78,0.72,1.28,0.72 c0.27,0,0.54-0.07,0.78-0.22l5.23-3.21c1.12,0.68,2.29,1.35,3.54,1.97c1.81,0.91,4.11,1.25,5.62,1.38v9.12l-3.25-0.87 c-0.8-0.21-1.62,0.26-1.84,1.06c-0.21,0.8,0.26,1.62,1.06,1.84l4.03,1.08v11.26H58c-0.23,0-0.45,0.05-0.65,0.15l-8.25,4.01 l-10.73,0.97c-0.83,0.08-1.43,0.8-1.36,1.63c0.08,0.83,0.81,1.43,1.63,1.36l11-1c0.18-0.02,0.36-0.07,0.52-0.14l8.19-3.97h9.56 L77.64,345.73z M83.57,274.79c1.52-1.47,2.29-3.33,2.29-5.54v-8.91c0.01-0.55,0.19-3.28,3.08-3.28c2.86,0,3.04,2.73,3.05,3.27v13.06 c0,1.64-0.33,3.2-0.93,4.62c-0.02,0.03-0.03,0.06-0.04,0.1c-0.48,1.12-1.14,2.14-1.96,3.02c-2.52,2.69-5.92,4.31-10.1,4.8 l-4.84,0.61v-8.41C76.45,278,80.87,277.39,83.57,274.79z M55.04,308.32c-1.46-0.73-2.84-1.51-4.09-2.31 c-4.93-3.15-7.87-8.52-7.87-14.37l0-10.73c0-0.01-0.02-0.87,0.32-1.75c0,0,0,0,0,0c0.14-0.36,0.34-0.73,0.63-1.03 c0.57-0.59,1.39-0.87,2.5-0.87c0.99,0,1.73,0.28,2.28,0.84c1.03,1.07,1.2,3.01,1.18,3.73v12.19c0,0.1,0.01,0.2,0.03,0.3 c0.98,4.88,6.48,5.69,9.27,5.78v9.27C58,309.24,56.29,308.95,55.04,308.32z M62.31,311.41c0.04-0.14,0.07-0.29,0.07-0.44 s-0.03-0.3-0.07-0.44v-54.3c0.09-4.9,3.41-5.04,3.79-5.04c3.03,0,4.23,1.78,4.7,3.23c0.02,0.06,0.03,0.13,0.05,0.19 c0.22,0.77,0.25,1.42,0.25,1.6v48.23c0,0,0,0,0,0.01v16.56c0,0,0,0,0,0v16.45l-1.87-1.32c-0.25-0.18-0.55-0.27-0.86-0.27h-6.07 V311.41z M119,313.66c0,0.83-0.67,1.5-1.5,1.5h-10.42c-0.83,0-1.5-0.67-1.5-1.5s0.67-1.5,1.5-1.5h10.42 C118.33,312.16,119,312.83,119,313.66z M267.17,347.5c0,0.83-0.67,1.5-1.5,1.5h-9.17c-0.83,0-1.5-0.67-1.5-1.5s0.67-1.5,1.5-1.5 h9.17C266.49,346,267.17,346.67,267.17,347.5z M270.74,351.2h11.1c0.83,0,1.5,0.67,1.5,1.5s-0.67,1.5-1.5,1.5h-11.1 c-0.83,0-1.5-0.67-1.5-1.5S269.91,351.2,270.74,351.2z M255.27,326.5c-1.52-2.17-6.03-5.63-7.64-6.78 c-0.67-0.48-0.83-1.42-0.35-2.09c0.48-0.67,1.42-0.83,2.09-0.35c0.25,0.18,6.23,4.46,8.36,7.5c0.47,0.68,0.31,1.61-0.37,2.09 c-0.26,0.18-0.56,0.27-0.86,0.27C256.03,327.14,255.56,326.92,255.27,326.5z M253.52,313.63c-0.62-0.54-0.69-1.49-0.15-2.12 s1.49-0.69,2.11-0.16c0.26,0.22,6.4,5.6,8.48,15.4c0.17,0.81-0.34,1.61-1.15,1.78c-0.11,0.02-0.21,0.03-0.31,0.03 c-0.69,0-1.32-0.48-1.46-1.19C259.16,318.62,253.58,313.68,253.52,313.63z M268.93,324.06c0.24,0.79-0.2,1.63-1,1.87 c-0.15,0.04-0.29,0.07-0.44,0.07c-0.64,0-1.24-0.42-1.43-1.06l-1.83-6c-0.24-0.79,0.2-1.63,1-1.87c0.79-0.24,1.63,0.2,1.87,1 L268.93,324.06z M126.5,263.49c0.11,0,0.21-0.01,0.32-0.03l4.69-1.02c0.41,0.71,0.89,1.39,1.45,1.99c2.37,2.53,5.52,4.05,9.35,4.5 l3.69,0.47v8.84l-2.92-1.23c-0.76-0.32-1.64,0.03-1.97,0.8c-0.32,0.76,0.04,1.64,0.8,1.97l4.09,1.73v9.39l-2.9-1.29 c-0.76-0.34-1.64,0-1.98,0.76c-0.34,0.76,0.01,1.64,0.76,1.98l4.11,1.83v11.04l-0.74,0.09c-0.23,0.03-0.44,0.11-0.63,0.23L139.3,309 h-7.8c-0.83,0-1.5,0.67-1.5,1.5s0.67,1.5,1.5,1.5h8.25c0.29,0,0.58-0.08,0.82-0.24l5.42-3.54l13.23-1.67l8.52,3.38 c0.77,0.3,1.64-0.07,1.95-0.84c0.31-0.77-0.07-1.64-0.84-1.95l-8.88-3.52c-0.23-0.09-0.49-0.13-0.74-0.09l-1.17,0.15v-7.44 l2.83-0.76c0.8-0.21,1.27-1.04,1.06-1.84c-0.21-0.8-1.03-1.27-1.84-1.06l-2.06,0.55v-6.22c1.17-0.12,2.78-0.4,4.11-1.07 c0.9-0.45,1.75-0.93,2.56-1.42l3.83,2.35c0.24,0.15,0.52,0.22,0.78,0.22c0.5,0,1-0.25,1.28-0.72c0.43-0.71,0.21-1.63-0.49-2.06 l-2.73-1.68c2.35-2.04,4.02-4.7,4.84-7.67l3.64-0.93c0.8-0.2,1.29-1.02,1.08-1.82s-1.02-1.29-1.82-1.08l-2.36,0.6 c0.02-0.32,0.03-0.64,0.03-0.97l0-8.11c0.01-0.11,0.02-0.66-0.12-1.37l2.83-2.6c0.61-0.56,0.65-1.51,0.09-2.12 c-0.56-0.61-1.51-0.65-2.12-0.09l-2.21,2.03c-0.67-0.67-1.84-1.43-3.77-1.43c-1.4,0-2.59,0.47-3.5,1.33l-0.53-0.71 c-0.49-0.67-1.43-0.81-2.1-0.32c-0.67,0.49-0.81,1.43-0.32,2.1l1.35,1.83c-0.24,1-0.22,1.81-0.21,1.93v9.18 c-0.43,1.62-2.65,2.05-4.14,2.15v-22.14l3.38-2.67c0.65-0.51,0.76-1.46,0.24-2.11c-0.52-0.65-1.46-0.76-2.11-0.24l-1.51,1.2v-5.04 c-0.02-1.43-0.51-3.67-1.99-5.11l0.84-2.17c0.3-0.77-0.09-1.64-0.86-1.94c-0.77-0.3-1.64,0.09-1.94,0.86l-0.75,1.94 c-0.27-0.04-0.55-0.06-0.85-0.06c-2.2,0-3.98,0.85-5.13,2.4l-2.16-2c-0.61-0.56-1.56-0.53-2.12,0.08c-0.56,0.61-0.53,1.56,0.08,2.12 l2.96,2.74c-0.11,0.62-0.12,1.07-0.12,1.16v14.13c-1.6-0.15-3.83-0.6-5.06-1.79c-0.63-0.62-0.94-1.38-0.94-2.34v-0.45l2.51-1.76 c0.68-0.48,0.84-1.41,0.37-2.09c-0.47-0.68-1.41-0.84-2.09-0.37l-0.79,0.55v-2.72c0-1.76-0.97-4.25-3.51-4.96v-2.23 c0-0.83-0.67-1.5-1.5-1.5s-1.5,0.67-1.5,1.5v2.23c-2.53,0.71-3.49,3.2-3.49,4.96v1.58l-2.16-1.09c-0.74-0.37-1.64-0.07-2.01,0.67 c-0.37,0.74-0.07,1.64,0.67,2.01l3.51,1.76v5.08c0,1.01,0.13,1.99,0.37,2.93l-4.19,0.91c-0.81,0.18-1.32,0.98-1.15,1.79 C125.19,263.01,125.81,263.49,126.5,263.49z M165.16,272.8c0.02-0.1,0.03-0.2,0.03-0.3l0-9.41c-0.01-0.47,0.1-1.83,0.81-2.56 c0.22-0.23,0.62-0.54,1.5-0.54c0.76,0,1.3,0.18,1.67,0.56c0.55,0.57,0.65,1.55,0.64,1.94v8.18c0,4.37-2.2,8.38-5.87,10.73 c-0.95,0.61-1.99,1.2-3.1,1.75c-0.79,0.4-1.86,0.61-2.77,0.73v-6.37C160.88,277.37,164.46,276.28,165.16,272.8z M152.5,240 c2.42,0,2.55,3.16,2.56,3.5v41.62c-0.03,0.12-0.06,0.25-0.06,0.38c0,0.13,0.02,0.26,0.06,0.38v18.17l-6.05,0.76v-11.61c0,0,0,0,0,0 V280.5c0,0,0-0.01,0-0.01v-36.98c0-0.18,0.02-0.6,0.16-1.09c0.03-0.07,0.05-0.14,0.06-0.21C149.56,241.2,150.4,240,152.5,240z M133,246.67c0.01-0.65,0.23-2.17,1.99-2.17c1.78,0,2,1.52,2.01,2.16v6.84c0,1.79,0.63,3.3,1.86,4.5c2.02,1.95,5.24,2.5,7.14,2.64 v5.73l-3.33-0.42c-3.12-0.37-5.65-1.57-7.53-3.57c-0.6-0.64-1.08-1.39-1.44-2.21c-0.01-0.03-0.02-0.06-0.04-0.09 c-0.44-1.04-0.68-2.19-0.68-3.4V246.67z M130.91,116.41c0,0.83-0.67,1.5-1.5,1.5H100c-0.83,0-1.5-0.67-1.5-1.5s0.67-1.5,1.5-1.5 h29.41C130.24,114.91,130.91,115.58,130.91,116.41z M187,163.35c0,0.83-0.67,1.5-1.5,1.5h-12.25c-0.83,0-1.5-0.67-1.5-1.5 s0.67-1.5,1.5-1.5h12.25C186.33,161.85,187,162.52,187,163.35z M212.61,171.69c0,0.83-0.67,1.5-1.5,1.5h-22.84 c-0.83,0-1.5-0.67-1.5-1.5s0.67-1.5,1.5-1.5h22.84C211.94,170.19,212.61,170.86,212.61,171.69z M346.77,154.21 C332.6,76.83,264.67,18,183.25,18C105.12,18,39.42,72.17,21.71,144.93c-0.06,0.14-0.1,0.29-0.11,0.45c-3,12.47-4.6,25.49-4.6,38.87 v118.5c0,23.02,4.71,44.97,13.21,64.93c0.04,0.24,0.14,0.46,0.29,0.65c8.62,19.99,21.05,37.97,36.37,53.01 c0.15,0.29,0.39,0.53,0.69,0.67c4.87,4.73,10.03,9.16,15.44,13.26c0.18,0.26,0.43,0.45,0.73,0.56c2.46,1.85,4.99,3.62,7.55,5.33 c0.17,0.21,0.4,0.38,0.67,0.47c0.02,0.01,0.04,0,0.06,0.01c4.58,3.02,9.32,5.82,14.21,8.39c0.2,0.19,0.44,0.31,0.7,0.37 c3,1.56,6.05,3.02,9.15,4.4c0.19,0.15,0.42,0.25,0.67,0.29c20.38,8.93,42.87,13.9,66.51,13.9h0c0,0,0,0,0,0c0,0,0,0,0,0 c58.15,0,109.41-30.02,139.13-75.36c0.21-0.18,0.37-0.41,0.46-0.7c6.68-10.3,12.25-21.38,16.54-33.07c0.05-0.09,0.08-0.19,0.1-0.29 c6.2-17,9.7-35.28,9.98-54.33c0.02-0.14,0.03-0.29,0.01-0.43c0.01-0.69,0.03-1.39,0.03-2.08v-118.5c0-10.14-0.92-20.07-2.66-29.71 C346.83,154.42,346.81,154.32,346.77,154.21z M34.03,368.92H58c0.83,0,1.5-0.67,1.5-1.5s-0.67-1.5-1.5-1.5H32.72 C24.53,346.48,20,325.14,20,302.75v-1.5h16.66c0.83,0,1.5-0.67,1.5-1.5s-0.67-1.5-1.5-1.5H20V212.7l12.44-10.03 c0.28-0.23,0.47-0.55,0.54-0.91l2.85-16.18l7.68-3.07l1.46,31.39l-12.95,12.66c-0.29,0.28-0.45,0.67-0.45,1.07V243 c0,0.83,0.67,1.5,1.5,1.5s1.5-0.67,1.5-1.5v-14.74l12.98-12.69c0.31-0.3,0.47-0.71,0.45-1.14l-1.96-42.28l12.81-8.83 c0.41-0.28,0.65-0.74,0.65-1.23v-41.87l11.5-7.03v28.61c0,0.83,0.67,1.5,1.5,1.5s1.5-0.67,1.5-1.5V110.5V92.65l13-9.24v51.18 c0,0.48,0.23,0.92,0.61,1.21l7.39,5.46v48.31c0,0.37,0.14,0.73,0.39,1.01l8.61,9.5v52.42c0,0.45,0.2,0.87,0.54,1.15l12,10 c0.28,0.23,0.62,0.35,0.96,0.35c0.43,0,0.86-0.18,1.15-0.54c0.53-0.64,0.44-1.58-0.19-2.11L107,251.8v-8.05l9.4-7.05 c0.28-0.21,0.47-0.5,0.56-0.84l4.4-17.86h11.32l8.56,13.31c0.45,0.7,1.38,0.9,2.07,0.45c0.7-0.45,0.9-1.38,0.45-2.07l-9-14 c-0.28-0.43-0.75-0.69-1.26-0.69h-13.31c-0.69,0-1.29,0.47-1.46,1.14l-4.56,18.48L107,240v-40.5c0-0.37-0.14-0.73-0.39-1.01 l-8.61-9.5V140.5c0-0.48-0.23-0.92-0.61-1.21L90,133.83V80.5c0-0.56-0.31-1.08-0.81-1.33c-0.5-0.26-1.1-0.21-1.56,0.11l-16,11.38 c-0.4,0.28-0.63,0.74-0.63,1.22v17.78l-13.78,8.43c-0.45,0.27-0.72,0.76-0.72,1.28v41.93l-12.85,8.86c-0.43,0.29-0.67,0.79-0.65,1.3 l0.37,7.88l-9.42,3.77c-0.48,0.19-0.83,0.62-0.92,1.13l-2.9,16.45L20,208.85v-24.6c0-12.8,1.49-25.26,4.29-37.22h13.14 c0.83,0,1.5-0.67,1.5-1.5s-0.67-1.5-1.5-1.5h-12.4C42.98,73.4,107.11,21,183.25,21c79.39,0,145.71,56.96,160.27,132.16h-21.6 c-0.83,0-1.5,0.67-1.5,1.5s0.67,1.5,1.5,1.5h22.16c1.59,9.13,2.43,18.52,2.43,28.09v35.11h-13.03l-7.22-16.47 c-0.24-0.55-0.78-0.9-1.37-0.9h-8.35l-7.96-6.51l-4.57-60.1c-0.04-0.46-0.28-0.88-0.66-1.13l-18-12c-0.01-0.01-0.03-0.01-0.04-0.02 c-0.1-0.06-0.2-0.11-0.31-0.15c-0.01,0-0.02-0.01-0.03-0.01c-0.1-0.03-0.2-0.05-0.31-0.06c-0.02,0-0.04,0-0.06,0 c-0.03,0-0.06,0-0.09,0c-0.11,0-0.22,0.01-0.32,0.03c-0.02,0-0.03,0.01-0.05,0.01c-0.14,0.03-0.27,0.08-0.38,0.15l-15.51,8.8H256.5 c-0.45,0-0.88,0.21-1.17,0.56l-15,18.58c-0.23,0.28-0.35,0.64-0.33,1c0.84,20.81,0.7,38.05-0.4,51.52l-10.68,4.45 c-0.44,0.18-0.76,0.56-0.88,1.02l-5,20.11h-9.4c-0.51,0-0.99,0.26-1.27,0.69l-5.92,9.3c-0.15,0.24-0.23,0.52-0.23,0.81v19.01 l-11.6,17.89c-0.16,0.24-0.24,0.53-0.24,0.82v21.48H163.9c-0.83,0-1.5,0.67-1.5,1.5s0.67,1.5,1.5,1.5h50.79 c-8.75,1.56-19.34,3.84-30.2,7.13c-35.56,10.76-57.96,27.34-64.79,47.95c-3.49,10.53-3.05,22.11,1.27,34.68H103.9 c-0.83,0-1.5,0.67-1.5,1.5s0.67,1.5,1.5,1.5h18.15c8.24,21.28,27.35,45.33,57.19,71.94c-21.54-0.52-42.06-5.24-60.77-13.36 c0.04-3.45,0.63-15.19,6.25-23.23c0.37-0.53,0.36-1.25-0.03-1.77c-0.39-0.52-1.08-0.72-1.69-0.51c-1.41,0.5-10.72,3.92-15.59,8.86 c0.21-6.69,1.33-16.64,4.55-31.12c0.13-0.59-0.11-1.21-0.61-1.56c-0.5-0.35-1.16-0.36-1.67-0.02c-0.48,0.31-9.48,6.27-14.22,15.23 c-0.92-9.54-3.85-21.69-11.16-35.55c-0.34-0.65-1.12-0.96-1.81-0.72c-0.7,0.24-1.12,0.96-0.99,1.68c0.04,0.21,2.9,16.52,2.57,34.29 c-6.44-14.03-21.91-26.24-22.69-26.85c-0.55-0.43-1.33-0.42-1.87,0.02c-0.54,0.44-0.71,1.2-0.4,1.83 c5.02,10.11,6.72,18.68,7.29,23.44C52.97,402.85,41.95,386.72,34.03,368.92z M336.72,358.43c-2.61,2.6-5.54,4.74-8.73,6.39 c1.23-3.79,2.15-8.11,2.84-12.58c0.9-1.83,6.31-13.05,9.12-23.35c2-7.32,3.1-12.42,3.58-14.8c0.43-2.09,1.25-3.94,2.44-5.47 c0.15-0.19,0.29-0.35,0.44-0.52C345.83,325.72,342.46,342.64,336.72,358.43z M289.74,324.72c-0.92-3.18-1.45-6.3-1.58-9.27 c-0.14-3.25,0.09-8.72,3.2-8.94c5.67-0.44,7.7,10.35,7.72,10.46c0.01,0.07,0.03,0.14,0.05,0.2c1.23,3.9,12.01,37.46,19.68,43.09 c1.06,3.35,2.09,5.76,2.9,7.38c-2.27-0.5-5.76-1.72-9.73-4.67C305.47,358.15,296.34,347.59,289.74,324.72z M308.04,290.86 c0.99,3.97,5.31,19.89,5.36,20.05c0.06,0.23,0.19,0.42,0.33,0.58c-0.07,0.39-0.12,0.77-0.17,1.15l-0.83-1.07 c-0.51-0.65-1.45-0.77-2.11-0.26c-0.65,0.51-0.77,1.45-0.26,2.11l2.99,3.83c0.02,0.67,0.06,1.14,0.07,1.32 c0.02,1.8,0.07,3.53,0.12,5.22l-3.28-0.76c-0.81-0.19-1.61,0.31-1.8,1.12c-0.19,0.81,0.32,1.61,1.12,1.8l4.08,0.95 c0.53,11.29,1.81,19.93,3.27,26.42c-1.71-2.86-3.57-6.74-5.44-11.08l1.48-5.34c0.22-0.8-0.25-1.62-1.04-1.85 c-0.8-0.22-1.62,0.25-1.85,1.04l-0.46,1.65c-2.88-7.17-5.62-15.01-7.63-21.38c-0.16-0.87-1.2-6.06-4.05-9.58 c0.03-0.17,0.04-0.34,0.01-0.52c-0.01-0.09-1.48-9.43-1.48-13.27c0-2.8,0.67-6.55,1.82-9.13c0.01-0.02,0.02-0.04,0.03-0.06 c0.68-1.51,1.53-2.61,2.52-2.85C303.25,280.35,306.98,286.61,308.04,290.86z M322.5,305c1.68,0,3.04,0.55,4.14,1.67 c3.17,3.23,3.08,9.96,3.08,10.1c0.01,0.34,1.05,32.79-5.39,49.39c-2.5-5.15-7.58-19.09-7.9-47.68c0-0.04,0-0.08-0.01-0.12 c-0.22-2.29-0.19-8.9,2.49-11.84C319.85,305.5,321.02,305,322.5,305z M337.03,287.92c4.93,1.64,5.38,8.22,5.38,8.22v12.47 c-0.83,1.48-1.45,3.11-1.82,4.89c-0.08,0.4-0.18,0.89-0.3,1.44l-1.58-2.16c-0.49-0.67-1.43-0.82-2.1-0.33 c-0.67,0.49-0.82,1.43-0.33,2.1l3.13,4.28c-0.58,2.48-1.36,5.59-2.36,9.28c-1.33,4.86-3.29,10.03-5.06,14.23 c0.53-6.12,0.73-11.95,0.78-16.51l4.14-3.13c0.66-0.5,0.79-1.44,0.29-2.1c-0.5-0.66-1.44-0.79-2.1-0.29l-2.31,1.74 c-0.01-3.03-0.07-4.98-0.08-5.29c0-0.18,0.04-2.68-0.64-5.57l4.76-3.15c0.69-0.46,0.88-1.39,0.42-2.08 c-0.46-0.69-1.39-0.88-2.08-0.42l-4.06,2.69c-0.38-0.9-0.86-1.77-1.45-2.57l1.31-11.89c0.3-1.27,1.45-4.55,3.42-5.66 C335.18,287.65,336.04,287.59,337.03,287.92z M345.4,304.88l0-8.82c-0.02-0.33-0.48-7.66-6.19-10.47l0.88-4.38 c0.16-0.81-0.36-1.6-1.18-1.76c-0.8-0.16-1.6,0.36-1.76,1.18l-0.82,4.12c-1.2-0.1-2.36,0.15-3.41,0.74c-2.11,1.2-3.39,3.51-4.11,5.3 l-2.43-2.29c-0.6-0.57-1.55-0.54-2.12,0.07c-0.57,0.6-0.54,1.55,0.07,2.12l3.62,3.4l-1,9.06c-0.96-0.55-2.01-0.9-3.17-1.05 l-0.88-4.78c-0.15-0.82-0.94-1.35-1.75-1.21c-0.82,0.15-1.35,0.93-1.21,1.75l0.79,4.33c-1.57,0.33-2.93,1.1-4.04,2.33 c-0.54,0.6-0.99,1.28-1.37,2c-1.22-4.51-3.25-12.03-4.13-15.45l2.96-2.42c0.64-0.52,0.74-1.47,0.21-2.11 c-0.53-0.64-1.47-0.74-2.11-0.21l-2,1.63c-0.85-2.26-2.26-5.14-4.08-7.24l2-3.23c0.44-0.7,0.22-1.63-0.49-2.07 c-0.7-0.44-1.63-0.22-2.07,0.49l-1.74,2.81c-1.16-0.7-2.41-1-3.75-0.67c-1.47,0.37-2.62,1.39-3.53,2.74l-2.89-2.51 c-0.63-0.54-1.57-0.47-2.12,0.15c-0.54,0.63-0.47,1.57,0.15,2.12l3.45,2.99c-1.1,2.87-1.55,6.18-1.66,8.33l-5.67,1.66 c-0.79,0.23-1.25,1.07-1.02,1.86c0.19,0.65,0.79,1.08,1.44,1.08c0.14,0,0.28-0.02,0.42-0.06l4.87-1.43 c0.19,2.84,0.69,6.63,1.05,9.13c-1.02-0.45-2.18-0.68-3.48-0.59c-2.73,0.19-5.86,2.15-6,9.96l-4.02-1.25 c-0.79-0.24-1.63,0.2-1.88,0.99c-0.25,0.79,0.2,1.63,0.99,1.88l5.01,1.56c0.21,2.88,0.73,5.87,1.61,8.91 c1.49,5.15,3.1,9.71,4.79,13.75h-3.36c-0.83,0-1.5,0.67-1.5,1.5s0.67,1.5,1.5,1.5h4.67c2.59,5.66,5.33,10.2,8.07,13.85h-4.28 c-0.83,0-1.5,0.67-1.5,1.5s0.67,1.5,1.5,1.5h6.7c9.82,11.28,19.1,11.84,20.85,11.84c0.13,0,0.22,0,0.26-0.01c0.01,0,0.01,0,0.02,0 c0.02,0,0.04,0,0.05,0c0.02,0,0.05-0.01,0.07-0.02c0.09-0.01,0.17-0.03,0.25-0.06c0.04-0.01,0.07-0.02,0.1-0.04 c0.08-0.03,0.15-0.07,0.22-0.11c0.03-0.02,0.06-0.03,0.08-0.05c0.09-0.06,0.17-0.14,0.24-0.22c0.02-0.03,0.04-0.06,0.07-0.09 c0.05-0.06,0.09-0.12,0.13-0.19c0.01-0.02,0.03-0.04,0.04-0.06c0.22-0.43,0.42-0.89,0.63-1.35c2.83-1.17,5.49-2.66,7.95-4.47 c-3.79,9.26-8.39,18.09-13.73,26.41c-41.96-11.41-92-30.26-94.92-55.75c-2.09-18.23,21.22-32.07,24.21-33.76h33.69 c0.83,0,1.5-0.67,1.5-1.5s-0.67-1.5-1.5-1.5H246V266.5c0-0.83-0.67-1.5-1.5-1.5s-1.5,0.67-1.5,1.5v31.75h-45.61v-21.04l11.6-17.89 c0.16-0.24,0.24-0.53,0.24-0.82v-19.01l5.24-8.24h9.75c0.69,0,1.29-0.47,1.46-1.14l5.1-20.52l8.53-3.55 c-0.43,4.33-0.96,8.24-1.6,11.7c-2.03,10.85-4.46,13.18-4.61,13.32c-0.65,0.46-0.83,1.34-0.4,2.02c0.29,0.45,0.77,0.7,1.27,0.7 c0.27,0,0.55-0.07,0.8-0.23c0.77-0.48,5.52-4.43,7.7-28.9c0.5-0.41,0.7-1.11,0.44-1.73c-0.06-0.15-0.16-0.29-0.26-0.41 c0.94-11.89,1.29-28.3,0.4-50.93l14.2-17.59h9.91v11.16c0,0.3,0.09,0.59,0.25,0.83l6.09,9.11v33.61c0,0.83,0.67,1.5,1.5,1.5 s1.5-0.67,1.5-1.5v-33.6l7.35-10.69c0.14-0.21,0.23-0.45,0.26-0.71l1.68-17.58l15.3,10.2l6.94,91.27c0.06,0.83,0.78,1.44,1.61,1.38 c0.83-0.06,1.44-0.78,1.38-1.61l-2.11-27.76l6.16,5.04c0.27,0.22,0.6,0.34,0.95,0.34h7.9l7.22,16.47c0.24,0.55,0.78,0.9,1.37,0.9 h14.01v80.39c0,0.45-0.01,0.9-0.02,1.36C346.12,304.32,345.76,304.58,345.4,304.88z M274.99,151.98l-4.86-7.27v-11.34l12.61-7.15 l-1.61,16.82L274.99,151.98z M108.4,447.8c-0.25-0.76-0.72-2.56-0.93-5.89c-0.05-3.6,6.56-7.73,12.52-10.39 c-3.6,7.32-4.35,15.7-4.49,19.74C113.1,450.16,110.73,449.01,108.4,447.8z M85.85,433.68c0.33-2.23,0.59-4.5,0.78-6.78 c0-0.04,0.01-0.07,0.01-0.11c1.02-12.44,0.09-25.23-0.85-33.68c9.31,22.32,6.97,39.05,5.74,44.62 C89.61,436.42,87.71,435.07,85.85,433.68z M69.68,419.9c-0.07-2.5-0.67-10.78-5.08-21.8c6.58,6.11,17.4,17.65,19.04,28.69 c-0.14,1.61-0.31,3.22-0.52,4.81C78.43,427.94,73.94,424.03,69.68,419.9z M95.8,426.61c1.28-8.2,8.23-15.05,12.39-18.48 c-3.57,17.16-4.07,27.63-3.72,33.77c0,0.13-0.01,0.27,0,0.4c0.01,0.07,0.02,0.14,0.04,0.21c0.1,1.36,0.23,2.49,0.39,3.42 c-3.65-2.01-7.22-4.15-10.69-6.42C94.74,437.49,95.7,433.03,95.8,426.61z M183.81,465.99c-50.01-43.91-70.63-80.49-61.27-108.72 c15.7-47.34,111.55-55.82,114.01-56.03h7.75c-2.59,1.74-5.95,4.24-9.28,7.38c-9.02,8.55-13.25,17.79-12.23,26.71 c2.48,21.75,34.85,41.27,96.17,58.05C289.74,437,240.08,465.8,183.81,465.99z M240,91.88c0-0.83,0.67-1.5,1.5-1.5h21.63 c0.83,0,1.5,0.67,1.5,1.5s-0.67,1.5-1.5,1.5H241.5C240.67,93.38,240,92.71,240,91.88z M270.22,91.88c0-0.83,0.67-1.5,1.5-1.5h4.84 c0.83,0,1.5,0.67,1.5,1.5s-0.67,1.5-1.5,1.5h-4.84C270.9,93.38,270.22,92.71,270.22,91.88z M147,39.5c0-0.83,0.67-1.5,1.5-1.5h30.87 c0.83,0,1.5,0.67,1.5,1.5s-0.67,1.5-1.5,1.5H148.5C147.67,41,147,40.33,147,39.5z M191,39.5c0-0.83,0.67-1.5,1.5-1.5h7.19 c0.83,0,1.5,0.67,1.5,1.5s-0.67,1.5-1.5,1.5h-7.19C191.67,41,191,40.33,191,39.5z M96.5,311c-0.83,0-1.5-0.67-1.5-1.5 s0.67-1.5,1.5-1.5s1.5,0.67,1.5,1.5S97.33,311,96.5,311z M36,329.5c0,0.83-0.67,1.5-1.5,1.5s-1.5-0.67-1.5-1.5s0.67-1.5,1.5-1.5 S36,328.67,36,329.5z M70,367.5c0,0.83-0.67,1.5-1.5,1.5s-1.5-0.67-1.5-1.5s0.67-1.5,1.5-1.5S70,366.67,70,367.5z M114,417.5 c0-0.83,0.67-1.5,1.5-1.5s1.5,0.67,1.5,1.5s-0.67,1.5-1.5,1.5S114,418.33,114,417.5z M53,380.5c0,0.83-0.67,1.5-1.5,1.5 s-1.5-0.67-1.5-1.5s0.67-1.5,1.5-1.5S53,379.67,53,380.5z M118,334.5c0,0.83-0.67,1.5-1.5,1.5s-1.5-0.67-1.5-1.5s0.67-1.5,1.5-1.5 S118,333.67,118,334.5z M149,452.5c0-0.83,0.67-1.5,1.5-1.5s1.5,0.67,1.5,1.5s-0.67,1.5-1.5,1.5S149,453.33,149,452.5z M307,349.5 c0,0.83-0.67,1.5-1.5,1.5s-1.5-0.67-1.5-1.5s0.67-1.5,1.5-1.5S307,348.67,307,349.5z M298,331.5c0,0.83-0.67,1.5-1.5,1.5 s-1.5-0.67-1.5-1.5s0.67-1.5,1.5-1.5S298,330.67,298,331.5z M294.5,318c-0.83,0-1.5-0.67-1.5-1.5s0.67-1.5,1.5-1.5s1.5,0.67,1.5,1.5 S295.33,318,294.5,318z M324.5,329c0.83,0,1.5,0.67,1.5,1.5s-0.67,1.5-1.5,1.5s-1.5-0.67-1.5-1.5S323.67,329,324.5,329z M321,317.5 c0-0.83,0.67-1.5,1.5-1.5s1.5,0.67,1.5,1.5s-0.67,1.5-1.5,1.5S321,318.33,321,317.5z M303,307.5c0-0.83,0.67-1.5,1.5-1.5 s1.5,0.67,1.5,1.5s-0.67,1.5-1.5,1.5S303,308.33,303,307.5z M303,291.5c0-0.83,0.67-1.5,1.5-1.5s1.5,0.67,1.5,1.5s-0.67,1.5-1.5,1.5 S303,292.33,303,291.5z M337,294.5c0-0.83,0.67-1.5,1.5-1.5s1.5,0.67,1.5,1.5s-0.67,1.5-1.5,1.5S337,295.33,337,294.5z M335,302.5 c0,0.83-0.67,1.5-1.5,1.5s-1.5-0.67-1.5-1.5s0.67-1.5,1.5-1.5S335,301.67,335,302.5z M340,343.5c0,0.83-0.67,1.5-1.5,1.5 s-1.5-0.67-1.5-1.5s0.67-1.5,1.5-1.5S340,342.67,340,343.5z M320,343.5c0-0.83,0.67-1.5,1.5-1.5s1.5,0.67,1.5,1.5s-0.67,1.5-1.5,1.5 S320,344.33,320,343.5z M298,372.5c0-0.83,0.67-1.5,1.5-1.5s1.5,0.67,1.5,1.5s-0.67,1.5-1.5,1.5S298,373.33,298,372.5z M244,336.5 c0,0.83-0.67,1.5-1.5,1.5s-1.5-0.67-1.5-1.5s0.67-1.5,1.5-1.5S244,335.67,244,336.5z M270,307.5c0-0.83,0.67-1.5,1.5-1.5 s1.5,0.67,1.5,1.5s-0.67,1.5-1.5,1.5S270,308.33,270,307.5z M173.5,219c0.83,0,1.5,0.67,1.5,1.5s-0.67,1.5-1.5,1.5 s-1.5-0.67-1.5-1.5S172.67,219,173.5,219z M117,165.5c0,0.83-0.67,1.5-1.5,1.5s-1.5-0.67-1.5-1.5s0.67-1.5,1.5-1.5 S117,164.67,117,165.5z M49,109.5c0,0.83-0.67,1.5-1.5,1.5s-1.5-0.67-1.5-1.5s0.67-1.5,1.5-1.5S49,108.67,49,109.5z M115,83.5 c0-0.83,0.67-1.5,1.5-1.5s1.5,0.67,1.5,1.5s-0.67,1.5-1.5,1.5S115,84.33,115,83.5z M196.5,90c0.83,0,1.5,0.67,1.5,1.5 s-0.67,1.5-1.5,1.5s-1.5-0.67-1.5-1.5S195.67,90,196.5,90z M224,140.5c0,0.83-0.67,1.5-1.5,1.5s-1.5-0.67-1.5-1.5s0.67-1.5,1.5-1.5 S224,139.67,224,140.5z M257,54.5c0-0.83,0.67-1.5,1.5-1.5s1.5,0.67,1.5,1.5s-0.67,1.5-1.5,1.5S257,55.33,257,54.5z M326,181.5 c0-0.83,0.67-1.5,1.5-1.5s1.5,0.67,1.5,1.5s-0.67,1.5-1.5,1.5S326,182.33,326,181.5z M159.27,137.45c4.5,2.58,9.48,3.89,14.52,3.89 c2.57,0,5.16-0.34,7.71-1.03c6.35-1.72,11.78-5.4,15.72-10.65c0.01-0.01,0.01-0.01,0.02-0.02c0.02-0.02,0.04-0.04,0.05-0.07 c0.02-0.02,0.03-0.05,0.04-0.07c0.03-0.05,0.06-0.09,0.08-0.14c0.02-0.04,0.04-0.08,0.06-0.13c0.02-0.05,0.04-0.09,0.05-0.14 c0.01-0.05,0.02-0.09,0.03-0.14c0.01-0.05,0.02-0.1,0.02-0.15c0-0.05,0.01-0.09,0-0.14c0-0.05,0-0.1-0.01-0.15 c0-0.05-0.01-0.09-0.02-0.13c-0.01-0.05-0.02-0.1-0.04-0.15c-0.01-0.05-0.03-0.1-0.05-0.14c-0.01-0.03-0.02-0.06-0.03-0.09 c-0.01-0.02-0.02-0.03-0.03-0.04c-0.02-0.05-0.05-0.09-0.08-0.13c-0.03-0.04-0.05-0.08-0.08-0.12c-0.03-0.04-0.06-0.07-0.1-0.1 c-0.04-0.04-0.08-0.08-0.12-0.11c-0.01-0.01-0.02-0.02-0.04-0.03c-0.02-0.02-0.05-0.03-0.08-0.05c-0.04-0.03-0.09-0.06-0.13-0.08 c-0.05-0.02-0.09-0.04-0.14-0.06c-0.04-0.02-0.08-0.03-0.12-0.04c-0.05-0.02-0.1-0.03-0.15-0.04c-0.04-0.01-0.09-0.01-0.13-0.02 c-0.05,0-0.1-0.01-0.15-0.01c-0.05,0-0.09,0-0.14,0.01c-0.05,0.01-0.1,0.01-0.15,0.02c-0.04,0.01-0.09,0.02-0.13,0.03 c-0.05,0.02-0.11,0.04-0.16,0.06c-0.03,0.01-0.05,0.02-0.08,0.03c-1.37,0.68-2.83,1.24-4.35,1.65c-6.08,1.65-12.43,0.83-17.9-2.3 s-9.38-8.21-11.03-14.28c-2.86-10.54,1.82-21.57,11.37-26.82c0.03-0.01,0.05-0.03,0.07-0.05c0.05-0.03,0.09-0.06,0.14-0.09 c0.04-0.03,0.07-0.06,0.1-0.09c0.04-0.03,0.07-0.07,0.1-0.11c0.03-0.04,0.06-0.08,0.09-0.11c0.03-0.04,0.05-0.08,0.08-0.12 c0.02-0.04,0.04-0.08,0.06-0.13c0.02-0.05,0.04-0.09,0.06-0.14c0.01-0.05,0.03-0.09,0.04-0.14c0.01-0.05,0.02-0.09,0.03-0.14 c0.01-0.05,0.01-0.11,0.01-0.16c0-0.03,0.01-0.06,0.01-0.09c0-0.02-0.01-0.03-0.01-0.05c0-0.06-0.01-0.11-0.02-0.17 c-0.01-0.04-0.01-0.09-0.03-0.13c-0.01-0.05-0.03-0.1-0.05-0.15c-0.02-0.04-0.03-0.08-0.05-0.13c-0.01-0.02-0.01-0.04-0.02-0.05 c-0.02-0.03-0.04-0.06-0.07-0.09c-0.02-0.03-0.04-0.06-0.07-0.1c-0.04-0.05-0.08-0.1-0.13-0.15c-0.02-0.02-0.04-0.04-0.06-0.06 c-0.05-0.05-0.11-0.09-0.16-0.12c-0.02-0.02-0.05-0.03-0.07-0.05c-0.06-0.03-0.11-0.06-0.17-0.09c-0.03-0.01-0.06-0.03-0.1-0.04 c-0.06-0.02-0.11-0.03-0.17-0.05c-0.04-0.01-0.08-0.02-0.12-0.02c-0.06-0.01-0.12-0.01-0.17-0.01c-0.03,0-0.05-0.01-0.08-0.01 c-0.03,0-0.06,0.01-0.1,0.01c0,0,0,0-0.01,0c-2.17,0.09-4.34,0.42-6.47,1c-7.55,2.05-13.85,6.91-17.74,13.7 c-3.89,6.79-4.91,14.69-2.86,22.24C147.62,127.26,152.48,133.56,159.27,137.45z M151.03,98.96c3.48-6.07,9.11-10.43,15.86-12.28 c-7.18,6.59-10.29,16.73-7.64,26.5c1.86,6.85,6.27,12.57,12.44,16.1c4.08,2.34,8.6,3.53,13.18,3.53c1.97,0,3.96-0.24,5.92-0.68 c-2.9,2.45-6.3,4.26-10.06,5.28c-6.78,1.84-13.86,0.93-19.96-2.57c-6.09-3.49-10.46-9.15-12.3-15.93 C146.63,112.14,147.54,105.05,151.03,98.96z M210.7,65.46c6.37,1.56,7.28,2.47,8.84,8.84c0.16,0.67,0.77,1.14,1.46,1.14 s1.29-0.47,1.46-1.14c1.56-6.38,2.47-7.28,8.84-8.84c0.67-0.16,1.14-0.77,1.14-1.46s-0.47-1.29-1.14-1.46 c-6.37-1.56-7.28-2.47-8.84-8.84c-0.16-0.67-0.77-1.14-1.46-1.14s-1.29,0.47-1.46,1.14c-1.56,6.38-2.47,7.28-8.84,8.84 c-0.67,0.16-1.14,0.77-1.14,1.46S210.03,65.29,210.7,65.46z M221,59.05c1.07,2.46,2.49,3.88,4.95,4.95 c-2.46,1.07-3.88,2.48-4.95,4.95c-1.07-2.46-2.49-3.88-4.95-4.95C218.51,62.93,219.93,61.52,221,59.05z M152.3,179.46 c0.67-0.16,1.14-0.77,1.14-1.46s-0.47-1.29-1.14-1.46c-6.37-1.56-7.28-2.47-8.84-8.84c-0.16-0.67-0.77-1.14-1.46-1.14 s-1.29,0.47-1.46,1.14c-1.56,6.37-2.47,7.28-8.84,8.84c-0.67,0.16-1.14,0.77-1.14,1.46s0.47,1.29,1.14,1.46 c6.37,1.56,7.28,2.47,8.84,8.84c0.16,0.67,0.77,1.14,1.46,1.14s1.29-0.47,1.46-1.14C145.02,181.93,145.93,181.02,152.3,179.46z M142,182.95c-1.07-2.46-2.48-3.88-4.95-4.95c2.46-1.07,3.88-2.48,4.95-4.95c1.07,2.46,2.48,3.88,4.95,4.95 C144.48,179.07,143.07,180.48,142,182.95z M197.5,197c-3.03,0-5.5,2.47-5.5,5.5s2.47,5.5,5.5,5.5s5.5-2.47,5.5-5.5 S200.53,197,197.5,197z M197.5,205c-1.38,0-2.5-1.12-2.5-2.5s1.12-2.5,2.5-2.5s2.5,1.12,2.5,2.5S198.88,205,197.5,205z M123.5,60 c3.03,0,5.5-2.47,5.5-5.5s-2.47-5.5-5.5-5.5s-5.5,2.47-5.5,5.5S120.47,60,123.5,60z M123.5,52c1.38,0,2.5,1.12,2.5,2.5 s-1.12,2.5-2.5,2.5s-2.5-1.12-2.5-2.5S122.12,52,123.5,52z M299.5,113c3.03,0,5.5-2.47,5.5-5.5s-2.47-5.5-5.5-5.5s-5.5,2.47-5.5,5.5 S296.47,113,299.5,113z M299.5,105c1.38,0,2.5,1.12,2.5,2.5s-1.12,2.5-2.5,2.5s-2.5-1.12-2.5-2.5S298.12,105,299.5,105z" fill="#000b42"/></g></svg>