<?xml version="1.0" encoding="UTF-8"?><svg xmlns="http://www.w3.org/2000/svg" xmlns:xlink="http://www.w3.org/1999/xlink" fill="#00c2cb" height="418.5" preserveAspectRatio="xMidYMid meet" version="1" viewBox="73.1 46.7 365.8 418.5" width="365.8" zoomAndPan="magnify"><g id="change1_1"><path d="M430.1083,145.2937,264.756,49.9031a17.49,17.49,0,0,0-17.6,0L81.8917,145.2937a17.6691,17.6691,0,0,0-8.8,15.3141V351.4792a17.6274,17.6274,0,0,0,8.8,15.2239L247.156,462.0937a17.47,17.47,0,0,0,17.6,0l165.3523-95.3906a17.6229,17.6229,0,0,0,8.8-15.2239V160.6078A17.6647,17.6647,0,0,0,430.1083,145.2937ZM190.57,371.0171a13.1772,13.1772,0,0,1-11.1762,13.11,15.1971,15.1971,0,0,1-2.0238.09,13.2017,13.2017,0,0,1-12.5812-9.2425L130.2917,263.2171v72.9481a13.2,13.2,0,1,1-26.4,0V175.8316a13.1834,13.1834,0,0,1,25.7834-3.9617L164.17,283.6316V140.9839a13.2,13.2,0,0,1,26.4,0ZM294.9415,269.1984H234.57V396.446a13.2,13.2,0,0,1-26.4,0V115.5507a13.3772,13.3772,0,0,1,6.6-11.4382l34.5856-19.89a13.112,13.112,0,0,1,13.2,0l38.9855,22.4426a13.2059,13.2059,0,1,1-13.2,22.8766L255.956,110.8886,234.57,123.2078V242.7984h60.3711a13.2,13.2,0,0,1,0,26.4Zm111.4051-86.7668a13.2219,13.2219,0,0,1-18.0383,4.8383l-14.7855-8.5336V356.1414a13.2,13.2,0,0,1-26.4,0V163.5125l-27.9813-16.195a13.2058,13.2058,0,1,1,13.2-22.8765l69.1668,39.948A13.29,13.29,0,0,1,406.3466,182.4316Z" fill="inherit"/></g></svg>