<?xml version="1.0" encoding="UTF-8"?><svg xmlns="http://www.w3.org/2000/svg" xmlns:xlink="http://www.w3.org/1999/xlink" fill="#000000" height="44" preserveAspectRatio="xMidYMid meet" version="1" viewBox="-1.0 0.0 40.7 44.0" width="40.7" zoomAndPan="magnify"><defs><clipPath id="a"><path d="M 8 0 L 39.710938 0 L 39.710938 44 L 8 44 Z M 8 0"/></clipPath></defs><g><g clip-path="url(#a)" id="change1_6"><path d="M 18.425781 11.316406 C 18.425781 11.316406 16.699219 9.171875 15.152344 8.457031 C 15.152344 8.457031 18.785156 2.085938 26.464844 0 C 26.464844 0 29.085938 2.023438 29.5625 6.015625 C 29.5625 6.015625 31.589844 6.550781 31.589844 7.921875 L 29.144531 9.109375 C 29.144531 9.109375 24.5 8.21875 23.90625 8.398438 C 23.308594 8.574219 23.726562 10.71875 24.261719 11.078125 C 24.261719 11.078125 24.085938 11.789062 23.726562 12.089844 C 23.726562 12.089844 24.917969 14.53125 28.015625 13.21875 C 28.015625 13.21875 26.285156 16.914062 30.636719 17.863281 C 30.636719 17.863281 33.136719 17.152344 33.492188 13.816406 C 33.492188 13.816406 30.574219 14.054688 30.277344 14.46875 C 30.277344 14.46875 29.621094 13.996094 32.003906 13.578125 C 32.003906 13.578125 32.359375 13.21875 31.050781 12.089844 L 31.945312 12.03125 L 32.183594 9.527344 C 32.183594 9.527344 37.660156 10.777344 39.03125 15.007812 C 39.03125 15.007812 42.070312 23.761719 35.339844 42.699219 C 35.339844 42.699219 30.871094 43.59375 27.894531 42.519531 C 27.894531 42.519531 27.71875 39.78125 28.132812 39.421875 L 30.097656 38.292969 C 30.097656 38.292969 26.226562 31.503906 27.417969 30.253906 C 27.417969 30.253906 28.550781 29.179688 28.847656 28.527344 C 28.847656 28.527344 27.179688 29.359375 26.527344 29.359375 C 26.527344 29.359375 25.753906 26.261719 24.261719 24.058594 C 24.261719 24.058594 27.835938 38.945312 26.347656 43.054688 C 26.347656 43.054688 16.34375 45.914062 16.878906 41.6875 C 16.878906 41.6875 16.820312 40.136719 18.367188 38.828125 C 18.367188 38.828125 15.628906 35.730469 15.507812 35.3125 C 15.507812 35.3125 13.246094 34.0625 14.914062 28.941406 C 16.582031 23.820312 14.972656 28.824219 14.972656 28.824219 C 14.972656 28.824219 3.597656 18.402344 10.921875 10.183594 C 10.921875 10.183594 13.839844 6.730469 18.425781 11.316406" fill="#301638"/></g><g id="change1_1"><path d="M 24.738281 9.707031 L 30.398438 9.707031 L 31.46875 9.230469 C 31.46875 9.230469 30.992188 10.898438 30.753906 11.015625 C 30.753906 11.015625 29.445312 11.078125 28.726562 10.601562 C 28.726562 10.601562 27.359375 11.671875 26.941406 11.730469 C 26.941406 11.730469 24.917969 10.839844 24.738281 9.707031" fill="#301638"/></g><g id="change1_2"><path d="M 29.265625 11.375 L 29.621094 12.207031 C 29.621094 12.207031 29.917969 12.683594 29.265625 12.683594 L 28.789062 12.683594 L 28.789062 11.613281 C 28.789062 11.613281 29.027344 11.375 29.144531 11.375" fill="#301638"/></g><g id="change1_3"><path d="M 29.5625 11.375 L 30.097656 12.328125 L 30.8125 12.207031 C 30.8125 12.207031 30.277344 11.433594 29.5625 11.375" fill="#301638"/></g><g id="change1_4"><path d="M 8.480469 21.140625 C 8.480469 21.140625 11.160156 26.617188 13.839844 28.941406 L 13.425781 32.398438 C 13.425781 32.398438 12.054688 32.039062 11.933594 32.15625 C 11.816406 32.277344 8.125 39.542969 8.183594 39.957031 C 8.183594 39.957031 9.433594 40.492188 9.433594 40.914062 L 9.554688 42.164062 C 9.554688 42.164062 2.945312 42.816406 1.039062 42.164062 C 1.039062 42.164062 -0.988281 39.898438 0.621094 35.015625 C 0.621094 35.015625 3.480469 31.800781 3.539062 30.726562 C 3.539062 30.726562 4.074219 28.882812 3.179688 26.617188 C 3.121094 26.5 1.75 20.664062 8.480469 21.140625" fill="#301638"/></g><g id="change1_5"><path d="M 13.542969 33.289062 C 13.542969 33.289062 13.484375 35.3125 17.175781 38.589844 C 17.175781 38.589844 15.507812 40.914062 15.867188 41.625 L 14.199219 41.386719 C 14.199219 41.386719 13.066406 37.8125 13.066406 37.457031 C 13.066406 37.457031 13.902344 36.683594 14.019531 36.265625 C 14.019531 36.265625 11.042969 34.480469 12.171875 33.289062 C 12.472656 33.109375 13.542969 33.109375 13.542969 33.289062" fill="#301638"/></g></g></svg>