<?xml version="1.0" encoding="UTF-8"?><svg xmlns="http://www.w3.org/2000/svg" xmlns:xlink="http://www.w3.org/1999/xlink" fill="#000000" height="336.9" preserveAspectRatio="xMidYMid meet" version="1" viewBox="-0.1 0.0 248.0 336.9" width="248" zoomAndPan="magnify"><linearGradient gradientUnits="userSpaceOnUse" id="a" x1="180" x2="200" xlink:actuate="onLoad" xlink:show="other" xlink:type="simple" xmlns:xlink="http://www.w3.org/1999/xlink" y1="350" y2="0"><stop offset="0.444" stop-color="#ff91ff"/><stop offset="1" stop-color="#ff9800"/></linearGradient><path d="M88,327.3c0,5.3-4.3,9.6-9.6,9.6s-9.6-4.3-9.6-9.6s4.3-9.6,9.6-9.6S88,322,88,327.3z M117.8,274.2 c-3.7,0-6.7,3-6.7,6.7c0,3.7,3,6.7,6.7,6.7c3.7,0,6.7-3,6.7-6.7C124.5,277.2,121.5,274.2,117.8,274.2z M59.2,302.1 c-2.5,0-4.5,2-4.5,4.5c0,2.5,2,4.5,4.5,4.5c2.5,0,4.5-2,4.5-4.5C63.6,304.1,61.6,302.1,59.2,302.1z M20.1,312.1 c-3.1,0-5.6,2.5-5.6,5.6s2.5,5.6,5.6,5.6s5.6-2.5,5.6-5.6S23.2,312.1,20.1,312.1z M140.1,294.3c-3.4,0-6.1,2.7-6.1,6.1 c0,3.4,2.7,6.1,6.1,6.1c3.4,0,6.1-2.7,6.1-6.1C146.2,297,143.5,294.3,140.1,294.3z M228.8,280.9c-1.8,0-3.3,1.5-3.3,3.3 c0,1.8,1.5,3.3,3.3,3.3c1.8,0,3.3-1.5,3.3-3.3C232.2,282.4,230.7,280.9,228.8,280.9z M202.3,304.3c-5.2,0-9.5,4.2-9.5,9.5 s4.2,9.5,9.5,9.5c5.2,0,9.5-4.2,9.5-9.5S207.5,304.3,202.3,304.3z M188.7,34.7c2.5,0,4.5-2,4.5-4.5s-2-4.5-4.5-4.5s-4.5,2-4.5,4.5 S186.2,34.7,188.7,34.7z M227.7,24.7c3.1,0,5.6-2.5,5.6-5.6s-2.5-5.6-5.6-5.6s-5.6,2.5-5.6,5.6S224.6,24.7,227.7,24.7z M130,62.7 c3.7,0,6.7-3,6.7-6.7s-3-6.7-6.7-6.7s-6.7,3-6.7,6.7S126.3,62.7,130,62.7z M169.3,19.1c5.3,0,9.6-4.3,9.6-9.6S174.6,0,169.3,0 s-9.6,4.3-9.6,9.6S164,19.1,169.3,19.1z M107.7,42.6c3.4,0,6.1-2.7,6.1-6.1c0-3.4-2.7-6.1-6.1-6.1s-6.1,2.7-6.1,6.1 C101.6,39.8,104.3,42.6,107.7,42.6z M242,82.7c-3.2,0-5.9,2.6-5.9,5.9V45.1c0-3.9-3.1-7-7-7c-3.9,0-7,3.1-7,7v62.5 c0-2.6-2.1-4.7-4.7-4.7s-4.7,2.1-4.7,4.7V75.2c0-5.4-4.4-9.8-9.8-9.8c-5.4,0-9.8,4.4-9.8,9.8V49.8c0-2.5-2-4.5-4.5-4.5 c-2.5,0-4.5,2-4.5,4.5v34.9c0-2.9-2.4-5.3-5.3-5.3s-5.3,2.4-5.3,5.3V37.3c0-4.5-3.6-8.1-8.1-8.1c-4.5,0-8.1,3.6-8.1,8.1v37.1 c0-3.7-3-6.7-6.7-6.7s-6.7,3-6.7,6.7v42.1c0-2-1.6-3.6-3.6-3.6s-3.6,1.6-3.6,3.6V88.9c0-3.4-2.7-6.1-6.1-6.1c-3.4,0-6.1,2.7-6.1,6.1 V72.1c0-3.7-3-6.7-6.7-6.7s-6.7,3-6.7,6.7V54.8c0-3.1-2.5-5.6-5.6-5.6s-5.6,2.5-5.6,5.6v47.7c0-2.3-1.9-4.2-4.2-4.2 c-2.3,0-4.2,1.9-4.2,4.2v-26c0-6.2-5-11.2-11.2-11.2s-11.2,5-11.2,11.2V48.7c0-1.8-1.5-3.3-3.3-3.3c-1.8,0-3.3,1.5-3.3,3.3v36 c0-2.9-2.4-5.3-5.3-5.3c-2.9,0-5.3,2.4-5.3,5.3V46.2c0-4.5-3.6-8.1-8.1-8.1c-4.5,0-8.1,3.6-8.1,8.1v28.2c0-3.7-3-6.7-6.7-6.7 s-6.7,3-6.7,6.7v42.7c0-2.3-1.9-4.2-4.2-4.2c-2.3,0-4.2,1.9-4.2,4.2V86.4c0-3.9-3.1-7-7-7c-3.9,0-7,3.1-7,7v39.9v84.3v37.7 c0,3.2,2.6,5.9,5.9,5.9c3.2,0,5.9-2.6,5.9-5.9v43.5c0,3.9,3.1,7,7,7c3.9,0,7-3.1,7-7v-62.5c0,2.6,2.1,4.7,4.7,4.7 c2.6,0,4.7-2.1,4.7-4.7v32.4c0,5.4,4.4,9.8,9.8,9.8s9.8-4.4,9.8-9.8V287c0,2.5,2,4.5,4.5,4.5c2.5,0,4.5-2,4.5-4.5v-34.9 c0,2.9,2.4,5.3,5.3,5.3c2.9,0,5.3-2.4,5.3-5.3v47.4c0,4.5,3.6,8.1,8.1,8.1s8.1-3.6,8.1-8.1v-37.1c0,3.7,3,6.7,6.7,6.7 c3.7,0,6.7-3,6.7-6.7v-42.1c0,2,1.6,3.6,3.6,3.6s3.6-1.6,3.6-3.6V248c0,3.4,2.7,6.1,6.1,6.1c3.4,0,6.1-2.7,6.1-6.1v16.7 c0,3.7,3,6.7,6.7,6.7c3.7,0,6.7-3,6.7-6.7V282c0,3.1,2.5,5.6,5.6,5.6s5.6-2.5,5.6-5.6v-47.7c0,2.3,1.9,4.2,4.2,4.2 c2.3,0,4.2-1.9,4.2-4.2v26c0,6.2,5,11.2,11.2,11.2s11.2-5,11.2-11.2v27.9c0,1.8,1.5,3.3,3.3,3.3c1.8,0,3.3-1.5,3.3-3.3v-36 c0,2.9,2.4,5.3,5.3,5.3c2.9,0,5.3-2.4,5.3-5.3v38.5c0,4.5,3.6,8.1,8.1,8.1c4.5,0,8.1-3.6,8.1-8.1v-28.2c0,3.7,3,6.7,6.7,6.7 s6.7-3,6.7-6.7v-42.7c0,2.3,1.9,4.2,4.2,4.2c2.3,0,4.2-1.9,4.2-4.2v30.7c0,3.9,3.1,7,7,7c3.9,0,7-3.1,7-7v-39.9v-84.3V88.6 C247.8,85.4,245.2,82.7,242,82.7z M19,56c1.8,0,3.3-1.5,3.3-3.3c0-1.8-1.5-3.3-3.3-3.3c-1.8,0-3.3,1.5-3.3,3.3 C15.6,54.5,17.1,56,19,56z M45.6,32.5c5.2,0,9.5-4.2,9.5-9.5s-4.2-9.5-9.5-9.5c-5.2,0-9.5,4.2-9.5,9.5S40.3,32.5,45.6,32.5z" fill="url(#a)"/></svg>