<?xml version="1.0" encoding="UTF-8"?><svg xmlns="http://www.w3.org/2000/svg" xmlns:xlink="http://www.w3.org/1999/xlink" fill="#000000" height="579.9" preserveAspectRatio="xMidYMid meet" version="1" viewBox="7.7 7.7 579.9 579.9" width="579.9" zoomAndPan="magnify"><g id="change1_1"><path d="M 587.574219 541.15625 C 587.574219 534.230469 581.9375 528.59375 575.011719 528.59375 C 569.246094 528.59375 564.558594 533.28125 564.558594 539.042969 C 564.558594 540.148438 565.453125 541.042969 566.558594 541.042969 C 567.664062 541.042969 568.558594 540.148438 568.558594 539.042969 C 568.558594 535.488281 571.453125 532.59375 575.011719 532.59375 C 579.730469 532.59375 583.574219 536.4375 583.574219 541.15625 C 583.574219 547.335938 578.546875 552.363281 572.367188 552.363281 C 564.371094 552.363281 557.863281 545.855469 557.863281 537.855469 C 557.863281 527.582031 566.222656 519.222656 576.496094 519.222656 L 578.878906 519.222656 L 578.878906 76.058594 L 576.496094 76.058594 C 566.222656 76.058594 557.863281 67.699219 557.863281 57.425781 C 557.863281 49.425781 564.371094 42.917969 572.367188 42.917969 C 578.546875 42.917969 583.574219 47.945312 583.574219 54.121094 C 583.574219 58.84375 579.730469 62.6875 575.011719 62.6875 C 571.453125 62.6875 568.558594 59.792969 568.558594 56.234375 C 568.558594 55.128906 567.664062 54.234375 566.558594 54.234375 C 565.453125 54.234375 564.558594 55.132812 564.558594 56.234375 C 564.558594 61.996094 569.246094 66.6875 575.011719 66.6875 C 581.9375 66.6875 587.574219 61.050781 587.574219 54.121094 C 587.574219 45.738281 580.753906 38.917969 572.367188 38.917969 C 562.164062 38.917969 553.863281 47.21875 553.863281 57.425781 C 553.863281 69.359375 563.148438 79.167969 574.878906 80 L 574.878906 515.28125 C 563.148438 516.113281 553.863281 525.921875 553.863281 537.855469 C 553.863281 548.0625 562.164062 556.363281 572.367188 556.363281 C 580.753906 556.363281 587.574219 549.542969 587.574219 541.15625 Z M 552.128906 550.34375 C 551.671875 550.34375 551.0625 550.414062 550.738281 550.738281 C 549.078125 552.398438 552.191406 560.53125 560.664062 569.007812 C 567.757812 576.101562 574.386719 579.328125 577.546875 579.328125 C 578 579.328125 578.609375 579.261719 578.9375 578.9375 C 580.597656 577.277344 577.480469 569.140625 569.007812 560.664062 C 561.914062 553.574219 555.285156 550.34375 552.128906 550.34375 Z M 577.546875 583.328125 C 572.554688 583.328125 564.820312 578.816406 557.839844 571.835938 C 549.425781 563.425781 543.3125 552.503906 547.90625 547.910156 C 548.621094 547.195312 549.933594 546.34375 552.128906 546.34375 C 557.117188 546.34375 564.855469 550.855469 571.835938 557.835938 C 580.246094 566.25 586.359375 577.167969 581.765625 581.765625 C 581.050781 582.480469 579.738281 583.328125 577.546875 583.328125 Z M 41.417969 537.855469 C 41.417969 525.921875 32.128906 516.113281 20.402344 515.28125 L 20.402344 80 C 32.128906 79.167969 41.417969 69.359375 41.417969 57.425781 C 41.417969 47.21875 33.113281 38.917969 22.910156 38.917969 C 14.527344 38.917969 7.707031 45.738281 7.707031 54.121094 C 7.707031 61.050781 13.34375 66.6875 20.269531 66.6875 C 26.03125 66.6875 30.71875 61.996094 30.722656 56.234375 C 30.722656 55.132812 29.828125 54.234375 28.722656 54.234375 C 27.617188 54.234375 26.722656 55.132812 26.722656 56.234375 C 26.71875 59.792969 23.828125 62.6875 20.269531 62.6875 C 15.546875 62.6875 11.707031 58.84375 11.707031 54.121094 C 11.707031 47.945312 16.730469 42.917969 22.910156 42.917969 C 30.910156 42.917969 37.417969 49.425781 37.417969 57.425781 C 37.417969 67.699219 29.058594 76.058594 18.785156 76.058594 L 16.402344 76.058594 L 16.402344 519.222656 L 18.785156 519.222656 C 29.058594 519.222656 37.417969 527.582031 37.417969 537.855469 C 37.417969 545.855469 30.910156 552.363281 22.910156 552.363281 C 16.730469 552.363281 11.707031 547.335938 11.707031 541.15625 C 11.707031 536.4375 15.546875 532.59375 20.269531 532.59375 C 23.828125 532.59375 26.722656 535.488281 26.722656 539.042969 C 26.722656 540.148438 27.617188 541.042969 28.722656 541.042969 C 29.824219 541.042969 30.722656 540.148438 30.722656 539.042969 C 30.722656 533.28125 26.03125 528.59375 20.269531 528.59375 C 13.34375 528.59375 7.707031 534.230469 7.707031 541.15625 C 7.707031 549.542969 14.527344 556.363281 22.910156 556.363281 C 33.113281 556.363281 41.417969 548.0625 41.417969 537.855469 Z M 43.152344 550.34375 C 39.992188 550.34375 33.363281 553.574219 26.273438 560.664062 C 17.796875 569.140625 14.683594 577.277344 16.34375 578.9375 C 16.667969 579.261719 17.277344 579.328125 17.734375 579.328125 C 20.890625 579.328125 27.519531 576.101562 34.613281 569.007812 C 43.089844 560.53125 46.203125 552.398438 44.542969 550.738281 C 44.21875 550.414062 43.605469 550.34375 43.152344 550.34375 Z M 17.734375 583.328125 C 15.539062 583.328125 14.230469 582.480469 13.515625 581.765625 C 8.921875 577.167969 15.03125 566.25 23.445312 557.835938 C 30.425781 550.855469 38.164062 546.34375 43.152344 546.34375 C 45.34375 546.34375 46.65625 547.195312 47.371094 547.910156 C 51.964844 552.503906 45.851562 563.425781 37.441406 571.835938 C 30.460938 578.816406 22.722656 583.328125 17.734375 583.328125 Z M 556.363281 572.367188 C 556.363281 562.164062 548.0625 553.863281 537.855469 553.863281 C 526.050781 553.863281 516.324219 562.949219 515.308594 574.496094 L 79.96875 574.496094 C 78.953125 562.949219 69.230469 553.863281 57.421875 553.863281 C 47.21875 553.863281 38.917969 562.164062 38.917969 572.367188 C 38.917969 580.753906 45.738281 587.574219 54.121094 587.574219 C 61.050781 587.574219 66.6875 581.9375 66.6875 575.011719 C 66.6875 569.25 61.996094 564.5625 56.234375 564.558594 C 55.132812 564.558594 54.234375 565.453125 54.234375 566.558594 C 54.234375 567.660156 55.128906 568.558594 56.234375 568.558594 C 59.792969 568.558594 62.6875 571.453125 62.6875 575.011719 C 62.6875 579.730469 58.84375 583.574219 54.121094 583.574219 C 47.945312 583.574219 42.917969 578.546875 42.917969 572.367188 C 42.917969 564.371094 49.425781 557.863281 57.421875 557.863281 C 67.699219 557.863281 76.058594 566.222656 76.058594 576.496094 L 76.058594 578.496094 L 519.222656 578.496094 L 519.222656 576.496094 C 519.222656 566.222656 527.582031 557.863281 537.855469 557.863281 C 545.855469 557.863281 552.363281 564.371094 552.363281 572.367188 C 552.363281 578.546875 547.335938 583.574219 541.15625 583.574219 C 536.433594 583.574219 532.59375 579.730469 532.59375 575.011719 C 532.59375 571.453125 535.488281 568.558594 539.046875 568.558594 C 540.148438 568.558594 541.046875 567.660156 541.046875 566.558594 C 541.042969 565.453125 540.148438 564.558594 539.042969 564.558594 C 533.28125 564.5625 528.59375 569.25 528.59375 575.011719 C 528.59375 581.9375 534.230469 587.574219 541.15625 587.574219 C 549.539062 587.574219 556.363281 580.753906 556.363281 572.367188 Z M 556.363281 22.910156 C 556.363281 14.527344 549.539062 7.707031 541.15625 7.707031 C 537.800781 7.707031 534.644531 9.011719 532.273438 11.386719 C 529.898438 13.757812 528.59375 16.914062 528.59375 20.269531 C 528.59375 23.0625 529.679688 25.6875 531.652344 27.660156 C 533.628906 29.632812 536.253906 30.722656 539.042969 30.722656 C 540.148438 30.722656 541.042969 29.824219 541.042969 28.722656 C 541.042969 27.617188 540.148438 26.722656 539.042969 26.722656 C 537.320312 26.722656 535.699219 26.050781 534.480469 24.832031 C 533.265625 23.613281 532.59375 21.992188 532.59375 20.269531 C 532.59375 17.984375 533.484375 15.832031 535.101562 14.214844 C 536.71875 12.597656 538.867188 11.707031 541.15625 11.707031 C 547.335938 11.707031 552.363281 16.734375 552.363281 22.910156 C 552.363281 30.910156 545.855469 37.417969 537.855469 37.417969 C 527.582031 37.417969 519.222656 29.058594 519.222656 18.785156 L 519.222656 16.402344 L 76.054688 16.402344 L 76.054688 18.785156 C 76.054688 29.058594 67.699219 37.417969 57.421875 37.417969 C 49.425781 37.417969 42.917969 30.910156 42.917969 22.910156 C 42.917969 16.734375 47.945312 11.707031 54.121094 11.707031 C 56.410156 11.707031 58.558594 12.597656 60.179688 14.214844 C 61.796875 15.832031 62.6875 17.984375 62.6875 20.269531 C 62.6875 21.992188 62.015625 23.613281 60.796875 24.832031 C 59.578125 26.050781 57.957031 26.722656 56.234375 26.722656 C 55.132812 26.722656 54.234375 27.617188 54.234375 28.722656 C 54.234375 29.824219 55.132812 30.722656 56.234375 30.722656 C 59.027344 30.722656 61.652344 29.632812 63.625 27.660156 C 65.597656 25.6875 66.6875 23.0625 66.6875 20.269531 C 66.6875 16.914062 65.378906 13.757812 63.007812 11.386719 C 60.632812 9.011719 57.476562 7.707031 54.121094 7.707031 C 45.738281 7.707031 38.917969 14.527344 38.917969 22.910156 C 38.917969 33.117188 47.21875 41.417969 57.421875 41.417969 C 69.359375 41.417969 79.167969 32.128906 80 20.402344 L 515.28125 20.402344 C 516.113281 32.128906 525.921875 41.417969 537.855469 41.417969 C 548.0625 41.417969 556.363281 33.117188 556.363281 22.910156 Z M 577.546875 15.949219 C 574.386719 15.949219 567.757812 19.179688 560.664062 26.273438 C 556.683594 30.257812 553.507812 34.535156 551.726562 38.316406 C 550.132812 41.703125 550.078125 43.886719 550.738281 44.542969 C 551.0625 44.867188 551.671875 44.9375 552.128906 44.9375 C 555.285156 44.9375 561.914062 41.707031 569.007812 34.613281 C 577.480469 26.136719 580.597656 18.003906 578.9375 16.34375 C 578.609375 16.019531 578 15.949219 577.546875 15.949219 Z M 552.128906 48.9375 C 549.933594 48.9375 548.621094 48.085938 547.910156 47.371094 C 546.398438 45.863281 545.210938 42.769531 548.109375 36.613281 C 550.078125 32.425781 553.535156 27.746094 557.839844 23.445312 C 564.820312 16.464844 572.554688 11.949219 577.546875 11.949219 C 579.738281 11.949219 581.050781 12.800781 581.765625 13.515625 C 586.359375 18.109375 580.246094 29.03125 571.835938 37.441406 C 564.855469 44.425781 557.117188 48.9375 552.128906 48.9375 Z M 17.734375 15.949219 C 17.28125 15.949219 16.667969 16.019531 16.34375 16.34375 C 14.683594 18.003906 17.796875 26.136719 26.273438 34.613281 C 33.363281 41.703125 39.992188 44.9375 43.152344 44.9375 C 43.605469 44.9375 44.21875 44.867188 44.542969 44.542969 C 45.199219 43.886719 45.148438 41.703125 43.550781 38.316406 C 41.773438 34.535156 38.597656 30.257812 34.613281 26.273438 C 27.523438 19.179688 20.894531 15.949219 17.734375 15.949219 Z M 43.152344 48.9375 C 38.160156 48.9375 30.425781 44.425781 23.445312 37.441406 C 15.03125 29.03125 8.921875 18.109375 13.515625 13.515625 C 14.230469 12.800781 15.539062 11.949219 17.734375 11.949219 C 22.722656 11.949219 30.460938 16.464844 37.441406 23.445312 C 41.746094 27.746094 45.199219 32.425781 47.171875 36.613281 C 50.070312 42.769531 48.878906 45.863281 47.371094 47.371094 C 46.65625 48.085938 45.34375 48.9375 43.152344 48.9375" fill="#231f20"/></g></svg>