<?xml version="1.0" encoding="UTF-8"?><!-- Generator: Adobe Illustrator 15.1.0, SVG Export Plug-In . SVG Version: 6.00 Build 0)  --><svg xmlns="http://www.w3.org/2000/svg" xmlns:xlink="http://www.w3.org/1999/xlink" enable-background="new 0 0 500 626.823" fill="#000000" height="626.823px" id="Layer_1" version="1.1" viewBox="0 0 500 626.823" width="500px" x="0px" xml:space="preserve" y="0px">
<g id="change1">
	<g>
		<path d="M71.978,131.701c-5.532-1.844-7.363-3.688-5.532-9.226c0-3.688,3.688-7.383,5.532-11.083    c1.856-3.688,5.544-7.376,9.232-12.914c9.22-11.07,16.621-25.834,23.983-38.762c5.545-9.226,11.09-18.452,14.765-29.521    c3.701-9.239,5.558-25.854,16.621-29.542c11.077-3.694,20.309,9.232,29.529,14.771c12.933,7.375,20.309,20.296,27.698,33.223    c7.375,9.226,12.907,20.296,20.296,31.379c1.844,5.531,3.701,11.063,5.532,14.751c2.96,5.908,6.48,11.46,9.713,17.206    c3.7,6.519,5.519,6.992,12.803,7.947c7.635,0.987,14.167,4.681,21.101,7.733c4.844,2.129,9.375,2.435,14.297,3.967    c13.608,4.272,27.282,16.913,38.073,25.906c12.907,11.083,22.152,22.16,33.216,35.073c9.246,11.077,12.934,25.847,16.608,38.768    c1.845,11.069,3.701,22.14,3.701,31.379c0,29.522-5.545,57.213-11.063,84.898c-3.701,11.077-5.558,22.153-9.246,31.385    c-1.83,9.22-7.375,18.439-11.063,27.685c-11.076,20.296-22.152,42.437-33.242,62.745c-5.519,9.246-11.063,18.465-16.608,27.685    c-5.531,11.077-12.907,20.309-18.452,31.385c-3.688,5.545-5.531,9.232-9.22,12.921c-1.856,3.688-3.688,5.531-3.688,9.232    c0,5.519,5.532,11.076,7.376,16.608c1.844,5.531,3.688,11.076,5.531,16.608c1.845,5.544,3.688,11.077,5.545,14.764    c0,3.688,3.688,11.077,1.844,12.921c-1.844,3.7-11.076,5.545-14.764,7.389c-3.701,0-5.532,0-7.389,0    c-5.532,1.844-7.363,3.688-12.908,3.688s-12.933,1.844-18.452,1.844c-5.544,0-11.089,1.844-16.634,1.844    c-5.532,0-22.127,1.857-25.841-1.844c0-1.844,0-7.375-1.831-9.22c0-1.844,0-5.544,0-9.232c0-3.701-1.856-9.232-1.856-12.92    c-1.831-18.466-3.688-35.061-3.688-53.526s-1.844-35.073-3.675-53.525c0-7.375-1.87-12.933-3.713-18.465    c-1.831-7.375-1.831-12.907-1.831-20.296c0-3.701-1.857-5.545,0-9.232c1.831-3.688,1.831-5.532,3.675-7.376    c3.701-9.232,9.233-16.621,12.92-23.997c1.844-5.531,1.844-9.245,3.714-12.933c1.831-3.688,5.519-7.375,7.363-11.063    c1.857-3.688,1.857-7.375,3.688-9.219c1.856-3.701,3.714-7.402,3.714-11.09c-11.09,11.09-22.166,22.153-29.529,35.061    c-7.401,9.245-14.777,18.465-20.309,27.697c-1.857,5.545-5.558,12.921-7.376,18.452c-5.558-7.375-9.245-14.751-12.946-22.14    c-7.362-7.389-12.907-16.608-18.452-24.01c-9.22-14.751-14.764-29.529-25.841-42.436c-1.831,7.375,3.688,20.309,5.532,27.685    c3.7,11.063,7.401,20.296,11.089,31.373c5.545,12.92,14.765,22.153,22.14,33.229c1.857,3.688,7.389,7.389,7.389,9.22    c0,3.701,0,7.389,0,9.232c-1.857,5.545-1.857,12.934-1.857,18.452c-1.844,11.076-3.675,22.153-5.532,33.229    c0,5.532,0,11.076,0,14.764c0,7.389-1.831,12.92-1.831,20.296c0,5.558-1.87,7.401,3.688,11.089    c5.532,1.844,9.22,5.532,14.765,7.376c3.675,3.688,3.675,3.688,3.675,9.22c0,7.389,1.87,16.621,3.701,23.997    c0,3.7,1.857,12.934,0,16.621c-1.831,1.844-5.519,1.844-7.375,1.844c-7.389,1.844-14.765,1.844-23.997,3.688    c-9.22,0-18.452,0-27.698-1.844c-5.519,0-7.375-5.531-9.219-9.22c-1.844-5.544-5.532-11.089-7.389-16.621    c-1.844-3.688-1.844-9.22-5.532-12.907c-1.831-7.389-5.545-12.934-9.232-18.465c-5.545-11.09-7.362-22.153-12.92-31.373    c-3.675-7.389-7.389-14.777-9.219-23.997c-2.636-13.167-8.947-26.048-10.804-39.138c-2.039-14.673-3.701-29.463-6.038-44.072    c-1.948-12.18-6.532-24.399-9.012-36.774c-1.844-9.22,0-20.296-1.844-29.529c0-9.22-1.844-16.608-3.688-25.841    c0-7.375,0-14.764-1.831-22.146c0-7.382,0-14.771-1.857-22.153c0-5.525,0-12.914,0-18.452s0-9.226,0-14.764    c0-5.545,1.857-7.382,3.688-11.077c3.688-5.539,9.22-11.077,12.934-16.608c3.688-5.539,7.375-12.921,12.907-18.465    c4.077-4.071,7.428-8.382,11.037-12.836c1.961-2.467,5.74-8.765,9.246-8.869c1.935-0.065,1.182,0.065,2.116,1.591    c2.039,3.357,3.078,8.051,4.714,11.648c3.597,7.836,9.116,15.264,13.401,22.828c4.87,8.544,11.453,15.985,17.517,23.685    c5.739,7.324,10.401,15.284,17.556,21.484c1.441-2.369,4.701-3.993,6.752-5.901c3.74-3.474,8.09-6.214,11.83-9.928    c4.298-4.285,8.415-8.797,12.453-13.322c8.064-8.967,15.895-18.154,24.438-26.685c3.688-3.694,7.363-7.382,12.908-12.92    c1.636-1.649,3.766-2.487,4.74-4.688c0.506-1.169,1.312-3.214,1.402-4.5c0.208-2.974-0.571-6.232-1.506-9.018    c-2.298-6.772-1.896-14.238-2.935-21.192c-1.207-8.058-2.648-16.18-4.038-24.211c-0.714-4.11-2.247-8.246-3.182-12.278    c-0.688-3.013-0.779-5.98-3.571-7.726c-2.766-1.734-5.831-1.169-8.869-0.838c-3.416,0.37-6.766,0.37-10.181,1.123    c-7.259,1.584-14.219,4.467-20.919,7.636c-8.142,3.837-16.024,8.739-22.79,14.654c-2.441,2.117-4.467,4.655-7.259,6.35    c-1.805,1.091-2.143,1.344-3.479,0.422c-1.728-1.214-2.234-3.591-3.571-5.155c-1.429-1.682-3.506-2.831-5.013-4.356    C79.795,137.369,75.445,132.857,71.978,131.701z" fill="#02d2c5"/>
	</g>
	<g>
		<path d="M442.956,294.135c-9.57-7.668-21.283-19.407-32.97-23.763c-4.571-1.695-12.531-2.455-15.492,1.389    c-3.311,4.331-1.648,14.44-2.428,19.653c-2,13.336-4.999,26.75-8.038,39.865c-4.753,20.438-8.752,40.293-16.842,59.72    c-7.492,18.036-16.829,36.411-26.698,53.045c-6.063,10.206-12.907,19.79-19.348,29.918c-5.999,9.428-10.492,19.854-17.023,28.97    c7.557,9.7,2.883,23.114,7.804,32.996c1.856,3.688,1.856,7.376,3.701,11.063c0,3.701,3.688,9.22,1.844,11.09    c-1.844,3.688-5.545,9.22-7.362,12.907c-3.715,3.688-5.571,7.389-9.246,11.09c-3.701,1.831-3.701,7.375-7.389,9.219    c5.545,1.844,9.232,1.844,14.765,1.844c7.389-1.844,16.634-3.688,23.997-3.688c9.232,0,18.451,0,27.685,0    c5.531,0,12.92,1.844,18.465-1.856c5.532-3.688,3.701-11.077,3.701-16.608c0-3.688,1.831-5.532,1.831-9.22    c0-3.688,0-7.389,0-11.076c0-16.608-3.701-31.386-7.389-46.15c0-7.389,0-14.764-5.532-20.309    c-1.844-5.519-5.545-9.22-7.389-12.907c-1.831-1.857-7.376-11.077-7.376-12.921c3.688-7.389,18.452,1.844,20.297,3.688    c9.245,5.532,11.076,14.751,14.764,22.14c3.701,7.389,7.389,14.764,9.246,22.153c3.675,9.233,7.375,18.465,9.232,29.542    c3.675,9.22,5.531,20.283,9.22,29.529c1.844,5.532,3.688,11.063,5.544,16.622c-1.856,5.519-7.389,9.219-11.089,14.751    c-3.675,5.532-9.232,11.076-12.907,16.621c5.545,1.844,12.907,0,18.452,0c7.375,0,11.089,0,16.608,1.844    c5.531,0,9.232-1.844,12.92-1.844c9.232,0,18.439,0,27.685,0c1.844,0,11.09,1.844,14.765,0c1.856-1.856,3.701-11.089,3.701-14.777    c1.844-11.076,1.844-22.153,3.688-33.216c1.844-9.246,3.688-18.465-3.688-27.685c-7.376-7.388-12.947-14.777-18.466-23.997    c-3.688-5.544-7.376-11.077-11.076-16.621c-1.857-5.532-7.376-7.375-7.376-12.92c-1.856-11.076,0-22.14,3.688-31.386    c3.688-12.907,5.52-25.828,9.232-36.904c3.688-9.22,3.688-18.465,3.688-29.528c0-12.907,1.844-25.841-1.844-38.761    c-3.688-9.233-5.558-18.452-9.246-27.685C455.889,310.743,452.201,301.517,442.956,294.135z" fill="#02d2c5"/>
	</g>
	<g>
		<path d="M84.768,183.266c1.922,0,2.857-0.942,4.779-1.896c3.805-0.954,10.453-2.856,11.401-6.661    c-2.844-0.948-5.7-0.948-8.557-0.948c-4.766,0-9.505-0.961-14.271-0.961c-2.856,0-9.505,0-5.713,3.812    c1.909,1.902,5.713,2.85,7.623,4.759c1.909,0.954,3.792,1.896,6.661,1.896" fill="#02d2c5"/>
	</g>
	<g>
		<path d="M60.031,199.439c12.375-3.805,25.711-0.941,37.099,1.909c5.727,0.955,12.375,2.857,17.153,5.707    c1.896,0.948,8.558,4.752,9.505,7.616c-3.805,1.89-9.505-2.863-12.375-3.811c-7.609-1.896-14.284-3.805-20.919-4.759    c-6.674-0.948-14.284-0.948-20.958-0.948c-1.883,0-5.688,0.948-7.583-0.948" fill="#02d2c5"/>
	</g>
	<g>
		<path d="M129.36,183.064c5.064,3.474,13.687,5.974,19.102,1.896c1.597-1.188,10.596-13.973,6.727-14.284    c-10.804-0.876-21.114,1.052-31.425,2.272C125.568,177.708,124.815,179.922,129.36,183.064z" fill="#02d2c5"/>
	</g>
	<g>
		<path d="M62.42,165.178c-2.246-1.364-4.844-2.175-7.232-3.156c-1.571-0.624-3.338-1.974-4.974-2.331    c-1.935-0.448-1.169-1.188-2.221,0.539c-0.675,1.097-0.415,2.35-0.467,3.578c-0.195,3.636,2.026,8.414,5.415,10.311    c4.805,2.72,13.973,1.045,15.751-4.76C66.329,168.281,64.563,166.509,62.42,165.178z" fill="#02d2c5"/>
	</g>
</g>
</svg>