<?xml version="1.0" encoding="UTF-8"?><svg xmlns="http://www.w3.org/2000/svg" xmlns:xlink="http://www.w3.org/1999/xlink" fill="#00c2cb" height="26.6" preserveAspectRatio="xMidYMid meet" version="1" viewBox="0.0 -0.0 100.0 26.6" width="100" zoomAndPan="magnify"><g id="change1_1"><path d="M 59.089844 0.660156 C 59.089844 0.664062 59.089844 0.664062 59.09375 0.667969 C 59.09375 0.664062 59.097656 0.660156 59.097656 0.65625 L 59.089844 0.660156" fill="inherit"/><path d="M 42.457031 0.71875 L 42.390625 0.785156 L 42.367188 0.703125 Z M 31.855469 7.050781 C 31.914062 7.027344 31.945312 7.015625 31.976562 7.003906 C 31.988281 7.035156 32 7.066406 32.011719 7.097656 C 31.964844 7.085938 31.921875 7.070312 31.855469 7.050781 Z M 5.046875 7.554688 C 4.960938 7.644531 4.886719 7.789062 4.792969 7.808594 C 4.550781 7.855469 4.351562 7.730469 4.296875 7.492188 C 4.277344 7.414062 4.417969 7.300781 4.535156 7.136719 C 4.730469 7.296875 4.886719 7.425781 5.046875 7.554688 Z M 17.589844 7.519531 L 17.539062 7.582031 L 17.492188 7.519531 Z M 38.9375 23.234375 C 38.640625 23.335938 38.734375 23.320312 38.566406 23.214844 C 38.707031 23.1875 38.605469 23.175781 38.9375 23.234375 Z M 25.4375 24.226562 C 26.101562 24.117188 25.800781 24.160156 26.585938 24.082031 C 26.117188 24.535156 25.78125 24.398438 25.4375 24.226562 Z M 38.125 0.132812 C 38.121094 0.0898438 38.117188 0.0429688 38.113281 -0.00390625 L 37.382812 -0.00390625 C 37.308594 0.21875 37.242188 0.414062 37.148438 0.699219 C 36.542969 0.148438 35.871094 0.375 35.210938 0.433594 C 33.570312 0.578125 31.9375 0.789062 30.289062 0.863281 C 23.59375 1.171875 16.765625 1.960938 13.835938 1.960938 C 12.75 1.964844 12.671875 2.097656 11.972656 2.355469 C 13.28125 2.847656 14.460938 2.460938 15.664062 2.90625 C 15.398438 3.109375 15.277344 3.277344 15.136719 3.292969 C 13.09375 3.574219 11.046875 3.6875 8.972656 3.335938 C 8.410156 3.949219 8.410156 3.941406 7.5625 4.183594 C 7.304688 4.257812 7.066406 4.398438 6.820312 4.511719 L 6.828125 4.515625 C 6.410156 5.035156 6.589844 4.777344 6.132812 5.492188 C 5.417969 4.605469 5.367188 4.59375 4.503906 5.015625 C 3.847656 5.335938 3.191406 5.652344 2.519531 5.976562 C 2.445312 6.5 2.4375 6.492188 1.984375 6.910156 C 1.722656 7.152344 1.398438 7.390625 1.261719 7.699219 C 1.015625 8.246094 0.515625 8.726562 0.699219 9.425781 C 0.777344 9.722656 0.949219 10.160156 0.816406 10.320312 C 0.21875 11.042969 0.46875 11.992188 0 12.695312 C 0.199219 12.929688 0.339844 13.09375 0.484375 13.261719 C 1.355469 12.5 1.355469 12.5 1.863281 13.375 C 1.746094 13.539062 1.625 13.707031 1.492188 13.890625 C 1.714844 13.980469 1.917969 14.058594 2.164062 14.15625 C 2.046875 14.269531 1.96875 14.40625 1.867188 14.429688 C 1.382812 14.546875 1.09375 14.886719 0.824219 15.265625 C 0.136719 16.242188 0.832031 16.722656 1.679688 17.683594 C 1.25 17.921875 0.871094 18.132812 0.46875 18.355469 C 0.644531 18.695312 0.808594 19.011719 0.964844 19.316406 C 0.285156 19.808594 0.285156 19.808594 0.316406 20.367188 C 1.195312 20.976562 2.222656 20.910156 3.140625 20.964844 C 3.980469 22.0625 4.757812 22.828125 4.046875 23.320312 C 3.625 23.609375 3.925781 24 3.800781 24.304688 C 3.609375 24.605469 3.058594 24.585938 3.136719 25.125 C 6.933594 26.59375 9.710938 25.191406 12.3125 25.324219 C 15.109375 25.46875 15.050781 25.554688 15.300781 25.441406 C 16.46875 24.914062 17.871094 25.273438 18.535156 25.183594 C 18.890625 25.136719 19.261719 24.945312 19.597656 25 C 20.171875 25.101562 20.152344 24.425781 20.605469 24.363281 C 21.140625 24.511719 21.539062 25.078125 22.195312 25.023438 C 22.816406 24.96875 23.441406 24.957031 23.867188 24.398438 C 24.605469 25.070312 24.605469 25.070312 25.535156 24.976562 C 25.589844 24.972656 27.675781 24.816406 28.34375 24.59375 C 28.242188 24.128906 27.894531 24.277344 27.667969 24.1875 C 27.5 24.125 27.3125 24.089844 27.375 23.859375 C 30.097656 23.441406 30.035156 23.261719 31.027344 24.136719 C 29.636719 24.136719 29.148438 24.050781 29.234375 24.464844 C 29.292969 24.734375 29.820312 24.679688 32.144531 24.90625 C 34.050781 25.089844 36.429688 24.699219 36.476562 24.546875 C 36.695312 23.867188 37.335938 23.980469 37.816406 23.839844 C 38.386719 23.671875 38.960938 23.695312 39.453125 24.089844 C 39.1875 24.339844 38.703125 24.035156 38.492188 24.484375 C 39.007812 24.449219 39.503906 24.375 40 24.386719 C 41.238281 24.410156 42.460938 24.386719 43.695312 24.207031 C 46.164062 23.839844 53.171875 22.914062 55.574219 23.132812 C 57.257812 23.285156 58.953125 23.328125 60.640625 23.464844 C 61.449219 23.53125 62.25 23.710938 63.210938 23.867188 C 63.667969 23.042969 64.015625 22.824219 65.078125 23.492188 C 65.558594 23.792969 66.082031 23.90625 66.648438 23.921875 C 72.503906 24.105469 75.105469 24.703125 85.726562 23.582031 C 86.722656 23.476562 88.300781 22.753906 88.753906 22.777344 C 93.679688 23.035156 90.027344 23.34375 95.84375 23.246094 C 96.0625 23.242188 96.277344 23.121094 96.492188 23.054688 C 96.59375 22.675781 96.6875 22.332031 96.785156 21.972656 C 96.617188 21.820312 96.460938 21.679688 96.308594 21.542969 C 96.394531 21.445312 96.476562 21.355469 96.582031 21.238281 C 96.15625 21.027344 95.769531 20.835938 95.371094 20.640625 C 95.460938 20.527344 95.480469 20.476562 95.515625 20.464844 C 96.601562 20.113281 97.304688 19.441406 97.390625 18.238281 C 97.402344 18.082031 97.519531 17.878906 97.652344 17.792969 C 98.234375 17.414062 98.273438 16.875 98.230469 16.289062 C 97.621094 16.117188 97.019531 16.113281 96.558594 15.71875 C 97.011719 14.925781 97.011719 14.925781 96.371094 14.332031 C 96.808594 14.1875 97.214844 14.058594 97.589844 13.933594 C 97.566406 13.132812 96.914062 12.964844 96.445312 12.648438 C 96.6875 12.480469 96.980469 12.386719 97.003906 12.242188 C 97.121094 11.570312 97.523438 11.207031 98.128906 10.976562 C 99.285156 10.53125 99.945312 10.046875 100 10.011719 C 99.636719 9.4375 99.324219 8.941406 99.011719 8.445312 C 99.03125 7.269531 98.097656 6.5625 97.617188 5.632812 C 97.367188 5.148438 96.921875 4.941406 96.375 4.898438 C 96.136719 4.878906 95.808594 5.015625 95.65625 4.59375 C 96.28125 4.203125 96.914062 3.808594 97.597656 3.382812 C 97.203125 3.269531 96.816406 3.257812 96.566406 3.066406 C 96.285156 2.851562 96.023438 2.773438 95.695312 2.761719 C 94.253906 2.703125 93.273438 2.484375 92.515625 1.75 C 91.9375 1.183594 90.847656 0.84375 89.886719 1.652344 C 89.75 1.765625 89.597656 1.863281 89.605469 1.859375 C 87.257812 2.03125 86.769531 2.074219 86.296875 2.039062 C 84.648438 1.917969 83.542969 2.433594 82.347656 1.957031 C 81.15625 1.480469 79.832031 1.429688 78.691406 0.78125 C 78.464844 0.648438 78.164062 0.589844 77.898438 0.585938 C 76.617188 0.570312 75.355469 0.152344 74.066406 0.417969 C 73.933594 0.445312 73.78125 0.457031 73.65625 0.417969 C 72.527344 0.0859375 71.375 0.53125 70.242188 0.308594 C 70.039062 0.269531 69.710938 0.308594 69.605469 0.445312 C 69.316406 0.8125 68.988281 0.734375 68.617188 0.703125 C 68.304688 0.671875 67.984375 0.761719 67.667969 0.757812 C 67.074219 0.753906 66.488281 1.171875 65.890625 0.792969 C 65.351562 1.128906 64.945312 0.789062 64.515625 0.527344 C 64.015625 0.226562 63.628906 1 63.085938 0.675781 C 62.882812 0.550781 62.558594 0.609375 62.289062 0.617188 C 62.109375 0.621094 61.914062 0.644531 61.753906 0.722656 C 60.992188 1.101562 60.160156 1.003906 59.351562 1.210938 C 59.246094 0.984375 59.167969 0.824219 59.09375 0.667969 C 58.679688 1.289062 58.15625 0.746094 57.890625 0.914062 C 56.835938 1.597656 56.058594 0.984375 53.875 1.167969 C 53.488281 1.203125 53.121094 1.195312 52.828125 0.96875 C 52.496094 0.714844 52.148438 0.835938 51.824219 0.769531 C 50.835938 0.566406 49.867188 0.582031 48.882812 0.671875 C 48.78125 0.683594 47 0.144531 45.242188 0.464844 C 44.984375 0.515625 44.699219 0.4375 44.429688 0.40625 C 41.222656 0.0234375 41.800781 -0.0390625 38.125 0.132812" fill="inherit"/></g></svg>